<svg xmlns="http://www.w3.org/2000/svg" width="433" height="63.5" viewBox="0 0 433 63.5"><path fill="none" d="M58.7 11h369v39h-369z"/><path fill="#D5D5D5" d="M427.2 11.5v38h-368v-38h368m1-1h-370v40h370v-40z"/><path fill="#EEE" d="M100 22.7c1.4 0 2.5.1 3.7.8 2 1.3 2.9 4 2.9 7 0 3.4-1.2 6.1-3.5 7.3-1.1.6-2.1.6-3.4.6h-3.4V22.7h3.7zm-2 14.4h1.6c1 0 2 0 2.9-.7 1.3-.8 2.2-2.6 2.2-5.6 0-2.3-.5-4.5-1.9-5.7-1-.8-2-.9-3-.9h-1.9l.1 12.9zm15.4-10.4c1.8 0 3.2.7 4 1.9.5.9.6 1.8.6 2.7v7.1h-1.7v-1.3c-1.3 1-2.7 1.5-4.1 1.5-2.4 0-3.9-1.6-3.9-3.3 0-1.3.8-2.6 2.6-3.3 1.5-.5 3.3-.5 5-.5h.4v-.4c0-.6 0-1.4-.4-2-.3-.5-1-1.1-2.4-1.1-1.1 0-2.4.3-3.3 1.3l-.9-1.2c1.1-.9 2.6-1.4 4.1-1.4zm2.5 6.3c-1.2 0-2.7-.1-3.8.2-1.4.3-2 1.3-2 2.1 0 1 .9 2 2.4 2s2.6-.9 3-1.4c.8-.8.8-1.6.8-2.2v-.8h-.4v.1zm10-9.5c.1.3-.1.4-.1.7-.1.6-.3 2.7-.3 2.7h3.8v1.5h-3.8c-.1 1.5-.2 3-.2 4.5 0 1.7.1 2.1.1 2.2.2 1.4 1.1 1.9 1.9 1.9.7 0 1.6-.3 2.6-1.1l.6 1.4c-1 .7-2.3 1.3-3.7 1.3-1.2 0-2.1-.5-2.6-1.2-.7-.9-.7-2.1-.7-3.1 0-2 .1-3.9.2-5.9h-2.8v-1.5h2.7l.2-3.1 2.1-.3zm11.7 3.2c1.8 0 3.2.7 4 1.9.5.9.6 1.8.6 2.7v7.1h-1.7v-1.3c-1.3 1-2.7 1.5-4.1 1.5-2.4 0-3.9-1.6-3.9-3.3 0-1.3.8-2.6 2.6-3.3 1.5-.5 3.3-.5 5-.5h.4v-.4c0-.6 0-1.4-.4-2-.3-.5-1-1.1-2.4-1.1-1.1 0-2.4.3-3.3 1.3l-.9-1.2c1.1-.9 2.6-1.4 4.1-1.4zm2.5 6.3c-1.2 0-2.7-.1-3.8.2-1.4.3-2 1.3-2 2.1 0 1 .9 2 2.4 2s2.6-.9 3-1.4c.8-.8.8-1.6.8-2.2v-.8h-.4v.1zm7.9-11.3c0 .2-.1.2-.1.3-.1.1-.1.1-.1.3v6.5c.7-1.3 2.1-2 3.5-2 2.3 0 4.6 1.9 4.6 5.9 0 4.2-2.5 6.2-4.8 6.2-1.4 0-2.7-.7-3.4-1.8l-.6 1.5h-1.2V21.7h2.1zm0 8.2c-.3.6-.3 1.4-.3 2.4s0 1.7.1 2.3c.3 2.2 2 2.5 2.8 2.5 1.1 0 3.4-.6 3.4-4.2 0-4.1-2.3-4.7-3.4-4.7s-2.2.7-2.6 1.7zm15.9-3.2c1.8 0 3.2.7 4 1.9.5.9.6 1.8.6 2.7v7.1h-1.7v-1.3c-1.3 1-2.7 1.5-4.1 1.5-2.4 0-3.9-1.6-3.9-3.3 0-1.3.8-2.6 2.6-3.3 1.5-.5 3.3-.5 5-.5h.4v-.4c0-.6 0-1.4-.4-2-.3-.5-1-1.1-2.4-1.1-1.1 0-2.4.3-3.3 1.3l-.9-1.2c1-.9 2.5-1.4 4.1-1.4zm2.4 6.3c-1.2 0-2.7-.1-3.8.2-1.4.3-2 1.3-2 2.1 0 1 .9 2 2.4 2s2.6-.9 3-1.4c.8-.8.8-1.6.8-2.2v-.8h-.4v.1zm13.6-3s-.1-.1-.1-.2 0-.1-.1-.2c-.4-.6-1.6-1.6-3.2-1.6-1.3 0-2.4.6-2.4 1.6 0 .4.2.9 1.1 1.4 1.1.5 2.9.8 4.2 1.5 1.4.8 1.7 1.8 1.7 2.6 0 1.7-1.6 3.6-4.8 3.6-1.7 0-3.5-.6-4.9-1.8l1-1.8c.1.1.1.2.1.2 0 .1 0 .2.1.3.4.4 1.6 1.6 3.6 1.6 1.6 0 3-.7 3-1.8 0-.4-.2-1-1.1-1.5-.8-.4-2.1-.7-3.1-1.1-.6-.2-2.8-1-2.8-3 0-1.7 1.8-3.2 4.4-3.2 1.7 0 3.2.6 4.3 1.8l-1 1.6zm13.9.7c.1.7.1 1.4.1 2.2h-8.2c.1 3.4 2.4 4.3 3.9 4.3 1.1 0 2.2-.5 3-1.3l1 1c-1 1.2-2.5 1.8-4.1 1.8-3.1 0-5.5-2.1-5.5-5.9 0-4.2 2.5-6.2 5.3-6.2 1.8 0 3.9 1 4.5 4.1zm-1.8.8c.2-1.9-1.1-3.5-3-3.5-1.2 0-3 .8-3.3 3.5h6.3zm22.8-9h.2l6.1 16h-1.8l-1.7-4.6h-5l-1.5 4.6h-1.7l5.4-16zm.1 4l-2 6h4.2l-2.2-6zm16-4.8h1.9c0 .2-.1.3-.1.4-.1.1-.1.2-.1.3v15c0 .3 0 .7.1 1.1h-1.8c-.1-.3-.1-.6-.1-.8v-1c-.7 1.3-2.1 2.1-3.6 2.1-2.2 0-4.6-1.9-4.6-6.1 0-4.4 2.7-6 4.8-6 1.6 0 2.8.8 3.4 2v-7h.1zm-6.5 10.6c0 3.8 1.9 4.8 3.2 4.8 1.2 0 2.4-.8 2.8-2.2.2-.6.2-1.2.2-2.1 0-1.3-.1-1.9-.2-2.5-.5-1.7-1.9-2.2-3-2.2-1.2 0-3 .9-3 4.2zm12.7-5.4h1.7V28c.5-.8 1.4-1.4 2.4-1.4s1.9.7 2 1.7c.4-1 1.5-1.7 2.6-1.7.6 0 1.4.2 1.8.9.5.8.5 1.7.5 2.7v8.2h-1.7v-8.1c0-.5.1-1.2-.2-1.7-.2-.4-.5-.6-.9-.6-.7 0-1.1.7-1.3 1-.4.7-.5 1.2-.5 1.8v7.6h-1.7v-8c0-.5 0-1-.1-1.5-.2-.6-.7-.9-1.1-.9-.5 0-1 .3-1.4 1.1-.3.6-.4 1.1-.4 1.7v7.7h-1.7V26.9zm19.4 0V37h2.7v1.5h-7.5V37h2.9v-8.6h-2.7v-1.5h4.6zm.5-3.7c0 .7-.6 1.3-1.3 1.3s-1.3-.6-1.3-1.3c0-.7.6-1.3 1.3-1.3s1.3.6 1.3 1.3zm6.6 3.7h1.8v2c.8-1.3 2.3-2.3 3.8-2.3 1.3 0 2.5.7 3.1 2 .4.9.4 1.9.4 2.8v7h-1.8v-6.9c0-.8 0-1.8-.6-2.5-.4-.5-1-.7-1.6-.7-1.2 0-2.3 1-2.8 1.6s-.6 1.2-.6 2v6.6h-1.8V26.9h.1zm18.1 0V37h2.7v1.5h-7.5V37h2.9v-8.6H277v-1.5h4.7zm.5-3.7c0 .7-.6 1.3-1.3 1.3-.7 0-1.3-.6-1.3-1.3 0-.7.6-1.3 1.3-1.3.7 0 1.3.6 1.3 1.3zm13.7 6.8s-.1-.1-.1-.2 0-.1-.1-.2c-.4-.6-1.6-1.6-3.2-1.6-1.3 0-2.4.6-2.4 1.6 0 .4.2.9 1.1 1.4 1.1.5 2.9.8 4.2 1.5 1.4.8 1.7 1.8 1.7 2.6 0 1.7-1.6 3.6-4.8 3.6-1.7 0-3.5-.6-4.9-1.8l1-1.8c.1.1.1.2.1.2 0 .1 0 .2.1.3.4.4 1.6 1.6 3.6 1.6 1.6 0 3-.7 3-1.8 0-.4-.2-1-1.1-1.5-.8-.4-2.1-.7-3.1-1.1-.6-.2-2.8-1-2.8-3 0-1.7 1.8-3.2 4.4-3.2 1.7 0 3.2.6 4.3 1.8l-1 1.6zm9-6.5c.1.3-.1.4-.1.7-.1.6-.3 2.7-.3 2.7h3.8v1.5h-3.8c-.1 1.5-.2 3-.2 4.5 0 1.7.1 2.1.1 2.2.2 1.4 1.1 1.9 1.9 1.9.7 0 1.6-.3 2.6-1.1l.6 1.4c-1 .7-2.3 1.3-3.7 1.3-1.2 0-2.1-.5-2.6-1.2-.7-.9-.7-2.1-.7-3.1 0-2 .1-3.9.2-5.9h-2.8v-1.5h2.7l.2-3.1 2.1-.3zm9.7 3.4l-.1 2.2c.8-1.6 2.5-2.5 4.1-2.5 1.3 0 2.4.5 3.1 1.3l-.8 1.7c-.2-.2-.3-.4-.4-.6-.3-.4-.9-.9-1.9-.9-.8 0-2.2.3-3.2 1.9-.8 1.2-.8 2-.8 2.7v5.6h-1.8V26.9h1.8zm14.7-.2c1.8 0 3.2.7 4 1.9.5.9.6 1.8.6 2.7v7.1h-1.7v-1.3c-1.3 1-2.7 1.5-4.1 1.5-2.4 0-3.9-1.6-3.9-3.3 0-1.3.8-2.6 2.6-3.3 1.5-.5 3.3-.5 5-.5h.4v-.4c0-.6 0-1.4-.4-2-.3-.5-1-1.1-2.4-1.1-1.1 0-2.4.3-3.3 1.3l-.9-1.2c1-.9 2.5-1.4 4.1-1.4zm2.4 6.3c-1.2 0-2.7-.1-3.8.2-1.4.3-2 1.3-2 2.1 0 1 .9 2 2.4 2s2.6-.9 3-1.4c.8-.8.8-1.6.8-2.2v-.8h-.4v.1zm10-9.5c.1.3-.1.4-.1.7-.1.6-.3 2.7-.3 2.7h3.8v1.5h-3.8c-.1 1.5-.2 3-.2 4.5 0 1.7.1 2.1.1 2.2.2 1.4 1.1 1.9 1.9 1.9.7 0 1.6-.3 2.6-1.1l.6 1.4c-1 .7-2.3 1.3-3.7 1.3-1.2 0-2.1-.5-2.6-1.2-.7-.9-.7-2.1-.7-3.1 0-2 .1-3.9.2-5.9h-2.7v-1.5h2.7l.2-3.1 2-.3zm11.8 15.2c-2.9 0-5.4-2.5-5.4-6 0-3.6 2.5-6.1 5.5-6.1 2.6 0 5.1 2.1 5.1 6.1 0 3.9-2.5 6-5.2 6zm-3.5-6.1c0 2.8 1.7 4.6 3.5 4.6 1.7 0 3.3-1.5 3.3-4.4 0-3.2-1.8-4.6-3.4-4.6-1.7 0-3.4 1.6-3.4 4.4zm14.1-5.7l-.1 2.2c.8-1.6 2.5-2.5 4.1-2.5 1.3 0 2.4.5 3.1 1.3l-.8 1.7c-.2-.2-.3-.4-.4-.6-.3-.4-.9-.9-1.9-.9-.8 0-2.2.3-3.2 1.9-.8 1.2-.8 2-.8 2.7v5.6h-1.8V26.9h1.8zm18 3.1s-.1-.1-.1-.2 0-.1-.1-.2c-.4-.6-1.6-1.6-3.2-1.6-1.3 0-2.4.6-2.4 1.6 0 .4.2.9 1.1 1.4 1.1.5 2.9.8 4.2 1.5 1.4.8 1.7 1.8 1.7 2.6 0 1.7-1.6 3.6-4.8 3.6-1.7 0-3.5-.6-4.9-1.8l1-1.8c.3 0 .3.2.3.2 0 .1 0 .2.1.3.4.4 1.6 1.6 3.6 1.6 1.6 0 3-.7 3-1.8 0-.4-.2-1-1.1-1.5-.8-.4-2.1-.7-3.1-1.1-.6-.2-2.8-1-2.8-3 0-1.7 1.8-3.2 4.4-3.2 1.7 0 3.2.6 4.3 1.8l-1.2 1.6z"/><path fill="#2CABE1" d="M21.2 0C9.5 0 0 6.5 0 14.6v31.3c0 8 9.5 14.6 21.2 14.6S42.4 54 42.4 45.9V14.6C42.4 6.5 32.9 0 21.2 0z"/><ellipse fill="#2A9ACC" cx="21.1" cy="35.7" rx="19.3" ry="13.8"/><path fill="#2180A9" d="M40.4 35.7v8.8c0 7.6-8.6 13.8-19.3 13.8-10.7 0-19.3-6.2-19.3-13.8v-8.8c0 7.6 8.6 13.8 19.3 13.8 10.6.1 19.3-6.1 19.3-13.8"/><ellipse fill="#2A9ACC" cx="21.1" cy="24.4" rx="19.3" ry="13.8"/><g clip-path="url(#SVGID_2_)"><path fill="#2180A9" d="M40.4 24.4v8.8c0 7.6-8.6 13.8-19.3 13.8-10.7 0-19.3-6.2-19.3-13.8v-8.8c0 7.6 8.6 13.8 19.3 13.8 10.6.1 19.3-6.1 19.3-13.8"/></g><path fill="#2180A9" d="M36.9 13.8V8.1c0-.1 0-.2-.1-.3l-.1-.2c-.2-.2-.8-.3-1.6-.3-1.5 0-3.5.3-4.7.5-.6-.4-1.2-.7-2-1v-.1c0-1.5-.2-3.7-1.1-3.9l-.3-.1h-.2c-1.1 0-3.6 1.9-4.8 2.8h-.9c-.5 0-1 0-1.6.1-1.1-1.1-3-2.9-4-2.9h-.4c-1 .2-1.6 3-1.8 4.4-.7.3-1.3.7-1.9 1.1-1.4-.3-3.5-.8-4.7-.8-.5 0-.8.1-1 .2l-.3.1c-.1.1-.2.2-.2.4v6c-1.5.4-3.4 1-3.5 1.6l-.1.2v8.8c0 .5 2 1.3 3.5 2v5.7l.1.1.1.1.1.2c.2.2.8.3 1.6.3 1.5 0 3.6-.3 4.8-.5.6.4 1.3.7 2 1V36.7s0 .1.1.1v.1s0 .1.1.1v.1l.1.1.1.1.1.1c.1 0 .1.1.2.1l.3.1h.2c1.1 0 3.6-1.9 4.8-2.8h.9c.5 0 1 0 1.6-.1 1.1 1.1 3 2.9 4 2.9h.4c1-.2 1.6-3 1.8-4.4.7-.3 1.3-.7 1.9-1.1 1.4.3 3.5.8 4.7.8.5 0 .8-.1 1-.2l.2-.1.1-.1v-.1-.1-.1-6c1.8-.4 3.4-1 3.5-1.6l.1-.2v-8.8c.4-.4-1.4-1.2-3.1-1.8zM13 20.1l.1-.1.2-.2.1-.1.2-.2.1-.1c.1-.1.2-.2.3-.2.1-.1.2-.1.3-.2 0 0 .1 0 .1-.1.1 0 .2-.1.2-.1l.1-.1c.1 0 .2-.1.2-.1s.1 0 .1-.1c.1 0 .2-.1.3-.1l.1-.1c.1-.1.3-.2.4-.2.1 0 .3-.1.4-.1h.1c.1 0 .2-.1.3-.1h.2c.1 0 .2-.1.3-.1h.2c.1 0 .2-.1.3-.1h.1c.2 0 .3-.1.5-.1.9-.2 1.8-.3 2.7-.3 3.3 0 6.3 1.1 8.3 3-1.3 1.3-3.2 2.3-5.6 2.7-.9.2-1.8.3-2.7.3-3.3 0-6.3-1.1-8.3-3 .3-.1.3-.2.4-.2zm22.1-6.9c1.8.6 5.3 1.8 5.3 2.6v.2c0 .7-3.1 1.5-5.1 2-.2.6-.4 1.1-.7 1.7 1 1.2 2.8 3.7 2.2 4.3l-.2.1c-.2.1-.5.2-1 .2-1.3 0-3.3-.4-4.7-.8-.6.4-1.2.7-1.9 1.1-.2 1.4-.7 4.2-1.8 4.4h-.4c-1 0-2.9-1.7-4-2.9-.5 0-1 .1-1.6.1h-.9c-1.2 1-3.7 2.8-4.8 2.8h-.2l-.3-.1c-.9-.2-1-2.6-1-4.1-.7-.3-1.4-.6-2-1-1.2.2-3.3.5-4.7.5-.8 0-1.4-.1-1.6-.3l-.1-.2c-.5-.6 1.3-2.5 2.5-3.7-.3-.5-.6-1-.8-1.5v-.1C5.5 17.9 2 16.7 2 15.9v-.2c0-.7 3.1-1.5 5.1-2 .2-.6.4-1.1.7-1.7-1-1.2-2.8-3.7-2.2-4.3l.2-.1c.2-.1.5-.2 1-.2 1.3 0 3.3.4 4.7.8.6-.4 1.2-.7 1.9-1.1.2-1.4.7-4.2 1.8-4.4h.4c1 0 2.9 1.7 4 2.9.5 0 1-.1 1.6-.1h.9c1.2-1 3.7-2.8 4.8-2.8h.2l.3.1c.9.2 1 2.6 1 4.1.7.3 1.4.6 2 1 1.2-.2 3.3-.5 4.7-.5.8 0 1.4.1 1.6.3l.1.2c.5.6-1.3 2.5-2.5 3.7.3.5.6 1 .8 1.5-.1 0 0 .1 0 .1zm-11.3 9.7c5.5-1.1 8.7-5.1 7.2-9.1-1.3-3.3-5.4-5.4-9.9-5.4-.9 0-1.8.1-2.7.3-5.5 1.1-8.7 5.1-7.2 9.1 1.3 3.3 5.4 5.4 9.9 5.4.9 0 1.8-.1 2.7-.3"/></svg>