<svg xmlns="http://www.w3.org/2000/svg" width="433" height="63.5" viewBox="0 0 433 63.5" enable-background="new 0 0 433 63.5" xml:space="preserve"><rect x="58.7" y="11" fill="none" width="369" height="39"/><path fill="#D5D5D5" d="M427.2 11.5v38h-368v-38H427.2M428.2 10.5h-370v40h370V10.5L428.2 10.5z"/><path fill="#EEEEEE" d="M100 22.7c1.4 0 2.5 0.1 3.7 0.8 2 1.3 2.9 4 2.9 7 0 3.4-1.2 6.1-3.5 7.3 -1.1 0.6-2.1 0.6-3.4 0.6h-3.4V22.7H100L100 22.7zM98 37.1h1.6c1 0 2 0 2.9-0.7 1.3-0.8 2.2-2.6 2.2-5.6 0-2.3-0.5-4.5-1.9-5.7 -1-0.8-2-0.9-3-0.9H97.9L98 37.1 98 37.1 98 37.1zM113.4 26.7c1.8 0 3.2 0.7 4 1.9 0.5 0.9 0.6 1.8 0.6 2.7v7.1h-1.7v-1.3c-1.3 1-2.7 1.5-4.1 1.5 -2.4 0-3.9-1.6-3.9-3.3 0-1.3 0.8-2.6 2.6-3.3 1.5-0.5 3.3-0.5 5-0.5h0.4v-0.4c0-0.6 0-1.4-0.4-2 -0.3-0.5-1-1.1-2.4-1.1 -1.1 0-2.4 0.3-3.3 1.3l-0.9-1.2C110.4 27.2 111.9 26.7 113.4 26.7L113.4 26.7zM115.9 33c-1.2 0-2.7-0.1-3.8 0.2 -1.4 0.3-2 1.3-2 2.1 0 1 0.9 2 2.4 2s2.6-0.9 3-1.4c0.8-0.8 0.8-1.6 0.8-2.2v-0.8H115.9V33zM125.9 23.5c0.1 0.3-0.1 0.4-0.1 0.7 -0.1 0.6-0.3 2.7-0.3 2.7h3.8v1.5h-3.8c-0.1 1.5-0.2 3-0.2 4.5 0 1.7 0.1 2.1 0.1 2.2 0.2 1.4 1.1 1.9 1.9 1.9 0.7 0 1.6-0.3 2.6-1.1l0.6 1.4c-1 0.7-2.3 1.3-3.7 1.3 -1.2 0-2.1-0.5-2.6-1.2 -0.7-0.9-0.7-2.1-0.7-3.1 0-2 0.1-3.9 0.2-5.9h-2.8v-1.5h2.7l0.2-3.1L125.9 23.5 125.9 23.5zM137.6 26.7c1.8 0 3.2 0.7 4 1.9 0.5 0.9 0.6 1.8 0.6 2.7v7.1h-1.7v-1.3c-1.3 1-2.7 1.5-4.1 1.5 -2.4 0-3.9-1.6-3.9-3.3 0-1.3 0.8-2.6 2.6-3.3 1.5-0.5 3.3-0.5 5-0.5h0.4v-0.4c0-0.6 0-1.4-0.4-2 -0.3-0.5-1-1.1-2.4-1.1 -1.1 0-2.4 0.3-3.3 1.3l-0.9-1.2C134.6 27.2 136.1 26.7 137.6 26.7L137.6 26.7zM140.1 33c-1.2 0-2.7-0.1-3.8 0.2 -1.4 0.3-2 1.3-2 2.1 0 1 0.9 2 2.4 2s2.6-0.9 3-1.4c0.8-0.8 0.8-1.6 0.8-2.2v-0.8h-0.4V33zM148 21.7c0 0.2-0.1 0.2-0.1 0.3 -0.1 0.1-0.1 0.1-0.1 0.3v6.5c0.7-1.3 2.1-2 3.5-2 2.3 0 4.6 1.9 4.6 5.9 0 4.2-2.5 6.2-4.8 6.2 -1.4 0-2.7-0.7-3.4-1.8l-0.6 1.5H145.9V21.7H148zM148 29.9c-0.3 0.6-0.3 1.4-0.3 2.4s0 1.7 0.1 2.3c0.3 2.2 2 2.5 2.8 2.5 1.1 0 3.4-0.6 3.4-4.2 0-4.1-2.3-4.7-3.4-4.7C149.5 28.2 148.4 28.9 148 29.9zM163.9 26.7c1.8 0 3.2 0.7 4 1.9 0.5 0.9 0.6 1.8 0.6 2.7v7.1h-1.7v-1.3c-1.3 1-2.7 1.5-4.1 1.5 -2.4 0-3.9-1.6-3.9-3.3 0-1.3 0.8-2.6 2.6-3.3 1.5-0.5 3.3-0.5 5-0.5h0.4v-0.4c0-0.6 0-1.4-0.4-2 -0.3-0.5-1-1.1-2.4-1.1 -1.1 0-2.4 0.3-3.3 1.3l-0.9-1.2C160.8 27.2 162.3 26.7 163.9 26.7L163.9 26.7zM166.3 33c-1.2 0-2.7-0.1-3.8 0.2 -1.4 0.3-2 1.3-2 2.1 0 1 0.9 2 2.4 2s2.6-0.9 3-1.4c0.8-0.8 0.8-1.6 0.8-2.2v-0.8h-0.4V33zM179.9 30c0 0-0.1-0.1-0.1-0.2 0-0.1 0-0.1-0.1-0.2 -0.4-0.6-1.6-1.6-3.2-1.6 -1.3 0-2.4 0.6-2.4 1.6 0 0.4 0.2 0.9 1.1 1.4 1.1 0.5 2.9 0.8 4.2 1.5 1.4 0.8 1.7 1.8 1.7 2.6 0 1.7-1.6 3.6-4.8 3.6 -1.7 0-3.5-0.6-4.9-1.8l1-1.8c0.1 0.1 0.1 0.2 0.1 0.2 0 0.1 0 0.2 0.1 0.3 0.4 0.4 1.6 1.6 3.6 1.6 1.6 0 3-0.7 3-1.8 0-0.4-0.2-1-1.1-1.5 -0.8-0.4-2.1-0.7-3.1-1.1 -0.6-0.2-2.8-1-2.8-3 0-1.7 1.8-3.2 4.4-3.2 1.7 0 3.2 0.6 4.3 1.8L179.9 30 179.9 30zM193.8 30.7c0.1 0.7 0.1 1.4 0.1 2.2h-8.2c0.1 3.4 2.4 4.3 3.9 4.3 1.1 0 2.2-0.5 3-1.3l1 1c-1 1.2-2.5 1.8-4.1 1.8 -3.1 0-5.5-2.1-5.5-5.9 0-4.2 2.5-6.2 5.3-6.2C191.1 26.6 193.2 27.6 193.8 30.7L193.8 30.7zM192 31.5c0.2-1.9-1.1-3.5-3-3.5 -1.2 0-3 0.8-3.3 3.5H192zM214.8 22.5h0.2l6.1 16h-1.8l-1.7-4.6h-5l-1.5 4.6H209.4L214.8 22.5zM214.9 26.5l-2 6h4.2L214.9 26.5zM230.9 21.7h1.9c0 0.2-0.1 0.3-0.1 0.4 -0.1 0.1-0.1 0.2-0.1 0.3v15c0 0.3 0 0.7 0.1 1.1h-1.8c-0.1-0.3-0.1-0.6-0.1-0.8v-1c-0.7 1.3-2.1 2.1-3.6 2.1 -2.2 0-4.6-1.9-4.6-6.1 0-4.4 2.7-6 4.8-6 1.6 0 2.8 0.8 3.4 2v-7H230.9L230.9 21.7zM224.4 32.3c0 3.8 1.9 4.8 3.2 4.8 1.2 0 2.4-0.8 2.8-2.2 0.2-0.6 0.2-1.2 0.2-2.1 0-1.3-0.1-1.9-0.2-2.5 -0.5-1.7-1.9-2.2-3-2.2C226.2 28.1 224.4 29 224.4 32.3zM237.1 26.9h1.7V28c0.5-0.8 1.4-1.4 2.4-1.4s1.9 0.7 2 1.7c0.4-1 1.5-1.7 2.6-1.7 0.6 0 1.4 0.2 1.8 0.9 0.5 0.8 0.5 1.7 0.5 2.7v8.2H246.4v-8.1c0-0.5 0.1-1.2-0.2-1.7 -0.2-0.4-0.5-0.6-0.9-0.6 -0.7 0-1.1 0.7-1.3 1 -0.4 0.7-0.5 1.2-0.5 1.8v7.6h-1.7v-8c0-0.5 0-1-0.1-1.5 -0.2-0.6-0.7-0.9-1.1-0.9 -0.5 0-1 0.3-1.4 1.1 -0.3 0.6-0.4 1.1-0.4 1.7v7.7h-1.7V26.9L237.1 26.9 237.1 26.9zM256.5 26.9V37h2.7v1.5h-7.5V37h2.9v-8.6H251.9v-1.5H256.5zM257 23.2c0 0.7-0.6 1.3-1.3 1.3s-1.3-0.6-1.3-1.3c0-0.7 0.6-1.3 1.3-1.3S257 22.5 257 23.2zM263.6 26.9h1.8v2c0.8-1.3 2.3-2.3 3.8-2.3 1.3 0 2.5 0.7 3.1 2 0.4 0.9 0.4 1.9 0.4 2.8v7h-1.8v-6.9c0-0.8 0-1.8-0.6-2.5 -0.4-0.5-1-0.7-1.6-0.7 -1.2 0-2.3 1-2.8 1.6s-0.6 1.2-0.6 2v6.6h-1.8V26.9H263.6zM281.7 26.9V37h2.7v1.5h-7.5V37h2.9v-8.6H277v-1.5H281.7L281.7 26.9zM282.2 23.2c0 0.7-0.6 1.3-1.3 1.3 -0.7 0-1.3-0.6-1.3-1.3 0-0.7 0.6-1.3 1.3-1.3C281.6 21.9 282.2 22.5 282.2 23.2zM295.9 30c0 0-0.1-0.1-0.1-0.2 0-0.1 0-0.1-0.1-0.2 -0.4-0.6-1.6-1.6-3.2-1.6 -1.3 0-2.4 0.6-2.4 1.6 0 0.4 0.2 0.9 1.1 1.4 1.1 0.5 2.9 0.8 4.2 1.5 1.4 0.8 1.7 1.8 1.7 2.6 0 1.7-1.6 3.6-4.8 3.6 -1.7 0-3.5-0.6-4.9-1.8l1-1.8c0.1 0.1 0.1 0.2 0.1 0.2 0 0.1 0 0.2 0.1 0.3 0.4 0.4 1.6 1.6 3.6 1.6 1.6 0 3-0.7 3-1.8 0-0.4-0.2-1-1.1-1.5 -0.8-0.4-2.1-0.7-3.1-1.1 -0.6-0.2-2.8-1-2.8-3 0-1.7 1.8-3.2 4.4-3.2 1.7 0 3.2 0.6 4.3 1.8L295.9 30 295.9 30zM304.9 23.5c0.1 0.3-0.1 0.4-0.1 0.7 -0.1 0.6-0.3 2.7-0.3 2.7h3.8v1.5h-3.8c-0.1 1.5-0.2 3-0.2 4.5 0 1.7 0.1 2.1 0.1 2.2 0.2 1.4 1.1 1.9 1.9 1.9 0.7 0 1.6-0.3 2.6-1.1l0.6 1.4c-1 0.7-2.3 1.3-3.7 1.3 -1.2 0-2.1-0.5-2.6-1.2 -0.7-0.9-0.7-2.1-0.7-3.1 0-2 0.1-3.9 0.2-5.9h-2.8v-1.5h2.7l0.2-3.1L304.9 23.5zM314.6 26.9l-0.1 2.2c0.8-1.6 2.5-2.5 4.1-2.5 1.3 0 2.4 0.5 3.1 1.3l-0.8 1.7c-0.2-0.2-0.3-0.4-0.4-0.6 -0.3-0.4-0.9-0.9-1.9-0.9 -0.8 0-2.2 0.3-3.2 1.9 -0.8 1.2-0.8 2-0.8 2.7v5.6h-1.8V26.9H314.6L314.6 26.9zM329.3 26.7c1.8 0 3.2 0.7 4 1.9 0.5 0.9 0.6 1.8 0.6 2.7v7.1h-1.7v-1.3c-1.3 1-2.7 1.5-4.1 1.5 -2.4 0-3.9-1.6-3.9-3.3 0-1.3 0.8-2.6 2.6-3.3 1.5-0.5 3.3-0.5 5-0.5h0.4v-0.4c0-0.6 0-1.4-0.4-2 -0.3-0.5-1-1.1-2.4-1.1 -1.1 0-2.4 0.3-3.3 1.3l-0.9-1.2C326.2 27.2 327.7 26.7 329.3 26.7L329.3 26.7zM331.7 33c-1.2 0-2.7-0.1-3.8 0.2 -1.4 0.3-2 1.3-2 2.1 0 1 0.9 2 2.4 2s2.6-0.9 3-1.4c0.8-0.8 0.8-1.6 0.8-2.2v-0.8H331.7V33zM341.7 23.5c0.1 0.3-0.1 0.4-0.1 0.7 -0.1 0.6-0.3 2.7-0.3 2.7h3.8v1.5h-3.8c-0.1 1.5-0.2 3-0.2 4.5 0 1.7 0.1 2.1 0.1 2.2 0.2 1.4 1.1 1.9 1.9 1.9 0.7 0 1.6-0.3 2.6-1.1l0.6 1.4c-1 0.7-2.3 1.3-3.7 1.3 -1.2 0-2.1-0.5-2.6-1.2 -0.7-0.9-0.7-2.1-0.7-3.1 0-2 0.1-3.9 0.2-5.9h-2.7v-1.5h2.7l0.2-3.1L341.7 23.5zM353.5 38.7c-2.9 0-5.4-2.5-5.4-6 0-3.6 2.5-6.1 5.5-6.1 2.6 0 5.1 2.1 5.1 6.1C358.7 36.6 356.2 38.7 353.5 38.7L353.5 38.7zM350 32.6c0 2.8 1.7 4.6 3.5 4.6 1.7 0 3.3-1.5 3.3-4.4 0-3.2-1.8-4.6-3.4-4.6C351.7 28.2 350 29.8 350 32.6L350 32.6zM364.1 26.9l-0.1 2.2c0.8-1.6 2.5-2.5 4.1-2.5 1.3 0 2.4 0.5 3.1 1.3l-0.8 1.7c-0.2-0.2-0.3-0.4-0.4-0.6 -0.3-0.4-0.9-0.9-1.9-0.9 -0.8 0-2.2 0.3-3.2 1.9 -0.8 1.2-0.8 2-0.8 2.7v5.6h-1.8V26.9H364.1L364.1 26.9zM382.1 30c0 0-0.1-0.1-0.1-0.2 0-0.1 0-0.1-0.1-0.2 -0.4-0.6-1.6-1.6-3.2-1.6 -1.3 0-2.4 0.6-2.4 1.6 0 0.4 0.2 0.9 1.1 1.4 1.1 0.5 2.9 0.8 4.2 1.5 1.4 0.8 1.7 1.8 1.7 2.6 0 1.7-1.6 3.6-4.8 3.6 -1.7 0-3.5-0.6-4.9-1.8l1-1.8c0.3 0 0.3 0.2 0.3 0.2 0 0.1 0 0.2 0.1 0.3 0.4 0.4 1.6 1.6 3.6 1.6 1.6 0 3-0.7 3-1.8 0-0.4-0.2-1-1.1-1.5 -0.8-0.4-2.1-0.7-3.1-1.1 -0.6-0.2-2.8-1-2.8-3 0-1.7 1.8-3.2 4.4-3.2 1.7 0 3.2 0.6 4.3 1.8L382.1 30z"/><path fill="#2CABE1" d="M21.2 0C9.5 0 0 6.5 0 14.6 0 24 0 36.5 0 45.9c0 8 9.5 14.6 21.2 14.6S42.4 54 42.4 45.9V14.6C42.4 6.5 32.9 0 21.2 0z"/><g enable-background="new    "><ellipse fill="#2A9ACC" cx="21.1" cy="35.7" rx="19.3" ry="13.8"/><g enable-background="new    "><path fill="#2180A9" d="M40.4 35.7v8.8c0 7.6-8.6 13.8-19.3 13.8C10.4 58.3 1.8 52.1 1.8 44.5v-8.8c0 7.6 8.6 13.8 19.3 13.8C31.7 49.6 40.4 43.4 40.4 35.7"/></g></g><ellipse fill="#2A9ACC" cx="21.1" cy="24.4" rx="19.3" ry="13.8"/><g enable-background="new    "><defs><path d="M40.4 24.4v8.8C40.4 40.8 31.8 47 21.1 47 10.4 47 1.8 40.8 1.8 33.2v-8.8c0 7.6 8.6 13.8 19.3 13.8C31.7 38.3 40.4 32.1 40.4 24.4z"/></defs><clipPath><use overflow="visible"/></clipPath><g clip-path="url(#SVGID_2_)" enable-background="new    "><path fill="#2180A9" d="M40.4 24.4v8.8C40.4 40.8 31.8 47 21.1 47 10.4 47 1.8 40.8 1.8 33.2v-8.8c0 7.6 8.6 13.8 19.3 13.8C31.7 38.3 40.4 32.1 40.4 24.4"/></g></g><path fill="#2180A9" d="M36.9 13.8c0-1.9 0-4 0-5.7 0-0.1 0-0.2-0.1-0.3l-0.1-0.2c-0.2-0.2-0.8-0.3-1.6-0.3 -1.5 0-3.5 0.3-4.7 0.5 -0.6-0.4-1.2-0.7-2-1V6.7c0-1.5-0.2-3.7-1.1-3.9L27 2.7c-0.1 0-0.1 0-0.2 0 -1.1 0-3.6 1.9-4.8 2.8 -0.3 0-0.6 0-0.9 0 -0.5 0-1 0-1.6 0.1 -1.1-1.1-3-2.9-4-2.9h-0.1H15.1c-1 0.2-1.6 3-1.8 4.4C12.6 7.4 12 7.8 11.4 8.2 10 7.9 7.9 7.4 6.7 7.4c-0.5 0-0.8 0.1-1 0.2L5.4 7.7C5.3 7.8 5.2 7.9 5.2 8.1c0 1.8 0 3.9 0 6 -1.5 0.4-3.4 1-3.5 1.6l-0.1 0.2v8.8c0 0.5 2 1.3 3.5 2 0 1.9 0 4 0 5.7l0.1 0.1 0 0 0.1 0.1 0.1 0.2C5.6 33 6.2 33.1 7 33.1c1.5 0 3.6-0.3 4.8-0.5 0.6 0.4 1.3 0.7 2 1v0.1 0.1 0.1c0 0.1 0 0.1 0 0.2v0.1c0 0.1 0 0.1 0 0.2v0.1c0 0.1 0 0.1 0 0.2v0.1c0 0.1 0 0.1 0 0.2v0.1c0 0.1 0 0.1 0 0.2v0.1c0 0.1 0 0.1 0 0.2v0.1c0 0.1 0 0.1 0 0.2V36c0 0.1 0 0.1 0 0.2v0.1c0 0.1 0 0.1 0 0.1v0.1 0.1 0.1c0 0 0 0.1 0.1 0.1v0.1c0 0 0 0.1 0.1 0.1v0.1l0.1 0.1c0 0 0 0 0.1 0.1l0.1 0.1 0 0c0.1 0 0.1 0.1 0.2 0.1l0.3 0.1c0.1 0 0.1 0 0.2 0 1.1 0 3.6-1.9 4.8-2.8 0.3 0 0.6 0 0.9 0 0.5 0 1 0 1.6-0.1 1.1 1.1 3 2.9 4 2.9H26.4h0.3c1-0.2 1.6-3 1.8-4.4 0.7-0.3 1.3-0.7 1.9-1.1 1.4 0.3 3.5 0.8 4.7 0.8 0.5 0 0.8-0.1 1-0.2l0.2-0.1c0 0 0 0 0.1-0.1l0 0c0 0 0 0 0-0.1l0 0c0 0 0 0 0-0.1l0 0c0 0 0 0 0-0.1l0 0c0-1.8 0-3.9 0-6 1.8-0.4 3.4-1 3.5-1.6l0.1-0.2v-8.8C40.4 15.2 38.6 14.4 36.9 13.8L36.9 13.8zM13 20.1l0.1-0.1c0.1-0.1 0.1-0.1 0.2-0.2l0.1-0.1c0.1-0.1 0.1-0.1 0.2-0.2l0.1-0.1c0.1-0.1 0.2-0.2 0.3-0.2l0 0c0.1-0.1 0.2-0.1 0.3-0.2 0 0 0.1 0 0.1-0.1 0.1 0 0.2-0.1 0.2-0.1l0.1-0.1c0.1 0 0.2-0.1 0.2-0.1s0.1 0 0.1-0.1c0.1 0 0.2-0.1 0.3-0.1l0.1-0.1c0.1-0.1 0.3-0.2 0.4-0.2l0 0c0.1 0 0.3-0.1 0.4-0.1h0.1c0.1 0 0.2-0.1 0.3-0.1 0.1 0 0.1 0 0.2 0 0.1 0 0.2-0.1 0.3-0.1 0.1 0 0.1 0 0.2 0 0.1 0 0.2-0.1 0.3-0.1H17.7c0.2 0 0.3-0.1 0.5-0.1 0.9-0.2 1.8-0.3 2.7-0.3 3.3 0 6.3 1.1 8.3 3C27.9 21.6 26 22.6 23.6 23c-0.9 0.2-1.8 0.3-2.7 0.3 -3.3 0-6.3-1.1-8.3-3C12.9 20.2 12.9 20.1 13 20.1L13 20.1zM35.1 13.2C36.9 13.8 40.4 15 40.4 15.8V16c0 0.7-3.1 1.5-5.1 2 -0.2 0.6-0.4 1.1-0.7 1.7 1 1.2 2.8 3.7 2.2 4.3l-0.2 0.1c-0.2 0.1-0.5 0.2-1 0.2 -1.3 0-3.3-0.4-4.7-0.8 -0.6 0.4-1.2 0.7-1.9 1.1 -0.2 1.4-0.7 4.2-1.8 4.4h-0.3H26.8c-1 0-2.9-1.7-4-2.9 -0.5 0-1 0.1-1.6 0.1 -0.3 0-0.6 0-0.9 0 -1.2 1-3.7 2.8-4.8 2.8 -0.1 0-0.1 0-0.2 0L15 28.9c-0.9-0.2-1-2.6-1-4.1 -0.7-0.3-1.4-0.6-2-1 -1.2 0.2-3.3 0.5-4.7 0.5 -0.8 0-1.4-0.1-1.6-0.3L5.6 23.8c-0.5-0.6 1.3-2.5 2.5-3.7 -0.3-0.5-0.6-1-0.8-1.5v-0.1C5.5 17.9 2 16.7 2 15.9v-0.2c0-0.7 3.1-1.5 5.1-2 0.2-0.6 0.4-1.1 0.7-1.7 -1-1.2-2.8-3.7-2.2-4.3l0.2-0.1c0.2-0.1 0.5-0.2 1-0.2 1.3 0 3.3 0.4 4.7 0.8 0.6-0.4 1.2-0.7 1.9-1.1C13.6 5.7 14.1 2.9 15.2 2.7h0.3 0.1c1 0 2.9 1.7 4 2.9 0.5 0 1-0.1 1.6-0.1 0.3 0 0.6 0 0.9 0 1.2-1 3.7-2.8 4.8-2.8 0.1 0 0.1 0 0.2 0L27.4 2.8c0.9 0.2 1 2.6 1 4.1 0.7 0.3 1.4 0.6 2 1C31.6 7.7 33.7 7.4 35.1 7.4c0.8 0 1.4 0.1 1.6 0.3l0.1 0.2c0.5 0.6-1.3 2.5-2.5 3.7 0.3 0.5 0.6 1 0.8 1.5C35 13.1 35.1 13.2 35.1 13.2zM23.8 22.9c5.5-1.1 8.7-5.1 7.2-9.1 -1.3-3.3-5.4-5.4-9.9-5.4 -0.9 0-1.8 0.1-2.7 0.3 -5.5 1.1-8.7 5.1-7.2 9.1 1.3 3.3 5.4 5.4 9.9 5.4C22 23.2 22.9 23.1 23.8 22.9"/></svg>