<svg xmlns="http://www.w3.org/2000/svg" width="240" height="70.5" viewBox="0 1 240 70.5"><path fill="#F48024" d="M225.7 38.35h1l-.5-1.5-.5 1.5zm5.5-7.9H201c-.7 0-1.2.6-1.2 1.2v11.5c0 .7.6 1.2 1.2 1.2h30.2c.7 0 1.2-.6 1.2-1.2v-11.5c0-.7-.5-1.2-1.2-1.2zm-20.7 10.6c0 .1-.1.1-.1.1h-1.8c-.1 0-.1-.1-.1-.1v-3.1l-.8 1.4-.1.1h-1.2s-.1 0-.1-.1l-.8-1.4v3.1c0 .1-.1.1-.1.1h-1.8c-.1 0-.1-.1-.1-.1v-7.4c0-.1.1-.1.1-.1h1.8s.1 0 .1.1l1.6 3.1 1.6-3.1.103-.1h1.8c.1 0 .1.1.1.1v7.4h-.203zm6.2-5.8c0 .1-.1.1-.1.1h-3.1v1h2.6c.1 0 .1.1.1.1v1.6c0 .1-.1.1-.1.1h-2.6v1.1h3.1c.1 0 .1.1.1.1v1.6c0 .1-.1.1-.1.1h-5c-.1 0-.1-.1-.1-.1v-7.4c0-.1.1-.1.1-.1h5c.1 0 .1.1.1.1v1.7zm4.6 5.8c0 .1-.1.1-.1.1h-1.8c-.1 0-.1-.1-.1-.1v-5.7h-1.7c-.1 0-.1-.1-.1-.1v-1.6c0-.1.1-.1.1-.1h5.4c.1 0 .1.1.1.1v1.6c0 .1-.1.1-.1.1h-1.7v5.7zm8.3.1s-.1 0 0 0l-2 .1c-.1 0-.1 0-.1-.1l-.3-1h-2.1l-.3 1-.102.1H222.8s-.102 0-.102-.1v-.1l2.7-7.4.1-.1h1.4s.1 0 .1.1l2.602 7.5c0-.1 0 0 0 0z"/><path fill="#EEE" d="M50.4 36.85l-2.2-.2c-1.7-.1-2.3-.8-2.3-2 0-1.4 1-2.2 3-2.2 1.4 0 2.6.3 3.6 1.1l1.3-1.3c-1.2-1-2.9-1.4-4.8-1.4-2.9 0-4.9 1.5-4.9 3.9 0 2.2 1.4 3.4 4 3.6l2.2.2c1.6.1 2.2.8 2.2 2 0 1.6-1.4 2.4-3.6 2.4-1.7 0-3.1-.4-4.2-1.6l-1.3 1.3c1.5 1.4 3.2 1.9 5.5 1.9 3.2 0 5.5-1.5 5.5-4.1 0-2.5-1.6-3.4-4-3.6zm16.8-6c-2.2 0-3.5.4-4.7 1.9l1.3 1.3c.8-1.1 1.7-1.5 3.4-1.5 2.5 0 3.4 1 3.4 2.9v1.3h-4c-3 0-4.6 1.5-4.6 3.9 0 1.1.4 2.1 1 2.7.8.9 1.9 1.2 3.8 1.2 1.8 0 2.8-.4 3.9-1.4v1.3h2v-9.1c-.1-3-1.9-4.5-5.5-4.5zm3.4 8.8c0 1.1-.2 1.9-.7 2.3-.8.8-1.9.9-3 .9-2.1 0-3.1-.7-3.1-2.3s1-2.4 3-2.4h3.8v1.5zm9.7-7.1c1.3 0 2.1.4 3.1 1.5l1.3-1.3c-1.4-1.5-2.5-2-4.4-2-3.4 0-5.9 2.3-5.9 6.9s2.6 6.9 5.9 6.9c1.9 0 3-.5 4.4-2l-1.3-1.3c-1 1.1-1.8 1.5-3.1 1.5s-2.4-.5-3.1-1.5c-.6-.9-.9-1.9-.9-3.6 0-1.7.2-2.7.9-3.6.7-1 1.8-1.5 3.1-1.5zm16.8-1.6h-2.4l-6.1 5.9v-11.8h-2v19.4h2v-4.9l2.4-2.4 4.5 7.3h2.4l-5.6-8.6 4.8-4.9zm9.2-.6c-2.1 0-3.5.8-4.3 1.7-1.3 1.3-1.6 2.9-1.6 5.4s.3 4.1 1.6 5.4c.9.9 2.3 1.7 4.3 1.7 2.1 0 3.5-.8 4.3-1.7 1.3-1.3 1.6-2.9 1.6-5.4s-.3-4.1-1.6-5.4c-.8-1-2.2-1.7-4.3-1.7zm1.7 10.5c-.4.4-.9.6-1.6.6s-1.2-.2-1.6-.6c-.7-.7-.8-2-.8-3.4s.1-2.7.8-3.4c.4-.4.9-.6 1.6-.6s1.2.2 1.6.6c.7.7.8 1.9.8 3.4 0 1.4-.1 2.6-.8 3.4zm13.6-10.4l-2.8 8.6-2.8-8.6h-3.7l5.2 14h2.7l5.1-14h-3.7zm9.6-.1c-3.6 0-6.1 2.6-6.1 7.1 0 5.7 3.2 7.2 6.5 7.2 2.5 0 3.9-.8 5.3-2.2l-2.1-2.1c-.9.9-1.602 1.2-3.2 1.2-2 0-3.1-1.3-3.1-3.1h8.698v-1.6c.103-3.7-2.098-6.5-6-6.5zm-2.7 5.8c0-.6.1-1 .3-1.5.4-.8 1.2-1.4 2.3-1.4 1.2 0 2 .6 2.3 1.4.2.5.3.9.3 1.5h-5.2zm13.9-4.4v-1.3H139v14h3.5v-8.4c0-1.8 1.2-2.6 2.3-2.6.9 0 1.3.3 1.8.8l2.6-2.7c-1-1-1.898-1.3-3.3-1.3-1.5.1-2.8.7-3.5 1.5zm7.9-2.8v15.4h3.5v-11h2.6v-2.7h-2.6v-1.5c0-.8.4-1.3 1.2-1.3h1.3v-3h-2c-2.8.1-4 2.1-4 4.1zm20.4 1.4c-2.1 0-3.5.8-4.3 1.7-1.3 1.3-1.6 2.9-1.6 5.4s.3 4.1 1.6 5.4c.9.9 2.3 1.7 4.3 1.7 2.1 0 3.5-.8 4.3-1.7 1.3-1.3 1.6-2.9 1.6-5.4s-.3-4.1-1.6-5.4c-.8-1-2.2-1.7-4.3-1.7zm1.7 10.5c-.4.4-.9.6-1.6.6-.7 0-1.2-.2-1.602-.6-.7-.7-.8-2-.8-3.4s.1-2.7.8-3.4c.4-.4.9-.6 1.602-.6.7 0 1.2.2 1.6.6.7.7.8 1.9.8 3.4 0 1.4-.1 2.6-.8 3.4zm20.7-10.4l-2.3 8.6-2.9-8.6h-2.5l-2.8 8.6-2.3-8.6h-3.7l4.3 14h2.9l2.9-8.8 2.9 8.8h2.9l4.3-14h-3.7zm-31.6 9.9v-15.4H158v15.4c0 2 1.2 4 4.1 4h2v-3h-1.3c-.9.1-1.3-.3-1.3-1zm-101.7-7.2l1.8-1.8h-3.7v-4.4h-2v13.9c0 2 1.1 3.6 3.4 3.6h1.4v-1.7h-1c-1.3 0-1.8-.7-1.8-2v-7.7l1.9.1zM10.9 37.75v10h23.2v-10h3.3v13.3H7.6v-13.3"/><path fill="#EEE" d="M14.6 36.85l16.2 3.4.7-3.2-16.2-3.4-.7 3.2zm2.1-7.8l15 7 1.4-3-15-7-1.4 3zm4.2-7.3l12.7 10.6 2.1-2.5L23 19.25l-2.1 2.5zm8.2-7.9l-2.7 2 9.9 13.3 2.7-2-9.9-13.3zm-14.9 30.6h16.6v-3.3H14.2v3.3z"/><g fill="#A3A3A3"><path d="M45.5 54.35c0 1.2.6 1.9 1.7 1.9.8 0 1.2-.2 1.7-.7l.9.8c-.7.7-1.4 1.1-2.6 1.1-1.7 0-3.1-.9-3.1-3.5 0-2.2 1.1-3.5 2.9-3.5 1.8 0 2.9 1.4 2.9 3.3v.6h-4.4zm2.9-1.9c-.2-.5-.7-.9-1.4-.9-.6 0-1.1.4-1.4.9-.1.3-.2.5-.2.9h3.1c.1-.4 0-.6-.1-.9zM55.5 57.35v-4.2c0-1.1-.6-1.5-1.4-1.5-.8 0-1.4.5-1.4 1.5v4.2h-1.4v-6.8h1.4v.7c.5-.5 1.1-.8 1.8-.8s1.3.2 1.7.6c.5.5.7 1.2.7 1.9v4.4h-1.4zM61.6 57.35v-9.6h6.1v1.3H63v2.8h4v1.3h-4v2.9h4.7v1.3h-6.1zM71.6 57.45c-1.1 0-2.1-.2-2.9-1l.9-.9c.6.6 1.3.7 2 .7.8 0 1.5-.3 1.5-.9 0-.5-.3-.8-.9-.8l-1.1-.1c-1.3-.1-2-.7-2-1.9 0-1.3 1.1-2.1 2.6-2.1 1 0 1.9.2 2.5.8l-.9.9c-.4-.4-1-.5-1.7-.5-.8 0-1.2.4-1.2.9 0 .4.2.7.9.8l1.1.1c1.3.1 2 .7 2 1.9 0 1.3-1.2 2.1-2.8 2.1zM80.5 56.85c-.4.4-1 .6-1.7.6s-1.3-.2-1.8-.8v3.5h-1.4v-9.6H77v.7c.5-.6 1.1-.8 1.8-.8s1.3.2 1.7.6c.7.7.8 1.9.8 2.9s-.1 2.2-.8 2.9zm-2-5.2c-1.2 0-1.4 1.1-1.4 2.3 0 1.2.2 2.3 1.4 2.3s1.4-1.1 1.4-2.3c0-1.2-.2-2.3-1.4-2.3zM86.5 57.35v-.6c-.5.5-1 .7-1.8.7-.9 0-1.4-.2-1.8-.6-.4-.4-.5-.9-.5-1.5 0-1.1.8-2 2.4-2h1.8v-.5c0-.9-.4-1.3-1.5-1.3-.8 0-1.1.2-1.5.7l-.9-.9c.6-.8 1.3-1 2.5-1 1.9 0 2.8.8 2.8 2.4v4.6h-1.5zm-.1-3h-1.6c-.8 0-1.2.4-1.2 1s.4 1 1.3 1c.5 0 .9 0 1.3-.4.2-.2.3-.5.3-1v-.6h-.1zM93.6 57.35v-4.2c0-1.1-.6-1.5-1.4-1.5s-1.4.5-1.4 1.5v4.2h-1.4v-6.8h1.4v.7c.5-.5 1.1-.8 1.8-.8s1.3.2 1.7.6c.5.5.7 1.2.7 1.9v4.4h-1.4zm-.5-8.2c-.4 0-.7-.1-1-.3-.3-.1-.5-.3-.8-.3-.2 0-.4 0-.8.4l-.6-.6c.6-.6 1-.7 1.4-.7.398 0 .6.1 1 .3.3.2.5.3.698.3.2 0 .4-.1.8-.4l.6.6c-.498.5-.898.7-1.298.7zM101.3 56.65c-.4.5-1.1.8-2.1.8s-1.6-.4-2-.8c-.6-.7-.8-1.5-.8-2.7 0-1.1.2-2 .8-2.7.4-.5 1.1-.8 2-.8.9 0 1.6.4 2.1.8.6.7.8 1.5.8 2.7 0 1.1-.2 2-.8 2.7zm-1.1-4.6c-.3-.3-.6-.4-1-.4s-.7.1-1 .4c-.4.4-.5 1.1-.5 1.9 0 .8.1 1.5.5 1.9.3.3.6.4 1 .4s.8-.1 1-.4c.4-.4.5-1.1.5-1.9 0-.8-.1-1.5-.5-1.9zM105.3 57.35c-1.3 0-1.9-.9-1.9-1.9v-7.7h1.4v7.6c0 .5.2.8.7.8h.6v1.2h-.8z"/></g></svg>