<svg xmlns="http://www.w3.org/2000/svg" width="227.5" height="68" viewBox="0 0 227.5 68"><path fill="#eee" d="M45.1 44.9c-2.3 0-4.1-.5-5.6-2l1.3-1.3c1.1 1.1 2.6 1.6 4.3 1.6 2.3 0 3.7-.8 3.7-2.4 0-1.2-.7-1.9-2.3-2l-2.3-.2c-2.7-.2-4.1-1.4-4.1-3.7 0-2.5 2.1-4 5-4 2 0 3.7.5 4.9 1.5l-1.3 1.3c-1-.8-2.2-1.1-3.7-1.1-2 0-3.1.9-3.1 2.3 0 1.2.7 1.9 2.4 2l2.2.2c2.4.2 4 1.1 4 3.7.2 2.6-2.1 4.1-5.4 4.1zm11.7-.2c-2.3 0-3.5-1.6-3.5-3.7v-8.4h-1.7v-1.5h1.7v-4.3h2v4.3h2.9v1.5h-2.9V41c0 1.3.6 2 1.9 2h1.1v1.7h-1.5zm11.8 0v-1.3c-1.1 1.1-2.1 1.5-4 1.5s-3-.4-3.9-1.3c-.7-.7-1-1.7-1-2.8 0-2.4 1.7-4 4.7-4h4.1v-1.3c0-2-1-3-3.5-3-1.8 0-2.6.4-3.5 1.6l-1.2-1.2c1.2-1.6 2.6-2 4.8-2 3.7 0 5.5 1.6 5.5 4.6v9.3l-2-.1zm0-6.3h-3.8c-2.1 0-3.1.8-3.1 2.4s1 2.3 3.1 2.3c1.2 0 2.2-.1 3.1-.9.5-.4.7-1.2.7-2.4v-1.4zm9.8 6.5c-3.5 0-6.1-2.3-6.1-7s2.6-7 6.1-7c1.9 0 3.1.5 4.5 2l-1.4 1.3c-1-1.1-1.8-1.5-3.1-1.5s-2.5.5-3.2 1.6c-.6.9-.9 2-.9 3.7 0 1.7.3 2.8.9 3.7.7 1 1.8 1.6 3.2 1.6 1.3 0 2.1-.4 3.1-1.6l1.4 1.3c-1.4 1.4-2.6 1.9-4.5 1.9zm15.5-.2l-4.3-7-2.7 3.1v4h-2V24.9h2v13.3l6.2-7.1h2.5l-4.7 5.2 5.5 8.5-2.5-.1zm13.2-1.5c-.8.9-2.2 1.7-4.3 1.7-2 0-3.4-.8-4.3-1.7-1.2-1.3-1.6-2.9-1.6-5.4s.3-4 1.6-5.3c.8-.9 2.2-1.7 4.3-1.7 2 0 3.4.8 4.3 1.7 1.2 1.3 1.6 2.9 1.6 5.3 0 2.6-.4 4.1-1.6 5.4zm-2.7-8.7c-.4-.4-.9-.6-1.6-.6s-1.2.2-1.6.6c-.7.7-.8 1.9-.8 3.3s.1 2.6.8 3.4c.4.4.9.6 1.6.6s1.2-.2 1.6-.6c.7-.7.8-1.9.8-3.4 0-1.4 0-2.6-.8-3.3zm12 10.2h-2.7L108.6 31h3.6l2.8 8.5 2.8-8.5h3.6l-5 13.7zm8.3-5.8c0 1.8 1.1 3.1 3 3.1 1.5 0 2.2-.4 3.1-1.3l2.1 2c-1.4 1.4-2.7 2.2-5.2 2.2-3.2 0-6.4-1.5-6.4-7.1 0-4.5 2.4-7 6-7 3.8 0 6 2.8 6 6.6v1.5h-8.6zm4.9-3.8c-.4-.8-1.1-1.4-2.3-1.4s-1.9.6-2.3 1.4c-.2.5-.3.9-.3 1.5h5.2c0-.6-.1-1-.3-1.5zm12.9-.4c-.5-.5-1-.8-1.8-.8-1.1 0-2.2.8-2.2 2.5v8.3h-3.4V31h3.4v1.3c.7-.8 2-1.5 3.5-1.5 1.3 0 2.3.3 3.2 1.3l-2.7 2.6zm8.3-1.1v11.1h-3.4V33.6H146V31h1.4v-1.7c0-2 1.2-3.9 4-3.9h2v2.9h-1.3c-.8 0-1.2.4-1.2 1.2V31h2.5v2.6h-2.6zm8.1 11.1c-2.8 0-4-2-4-3.9V25.3h3.4v15.2c0 .8.3 1.2 1.2 1.2h1.3v2.9l-1.9.1zm12.6-1.5c-.8.9-2.2 1.7-4.3 1.7-2 0-3.4-.8-4.3-1.7-1.2-1.3-1.6-2.9-1.6-5.4s.3-4 1.6-5.3c.8-.9 2.2-1.7 4.3-1.7 2 0 3.4.8 4.3 1.7 1.2 1.3 1.6 2.9 1.6 5.3-.1 2.6-.4 4.1-1.6 5.4zm-2.7-8.7c-.4-.4-.9-.6-1.6-.6-.7 0-1.2.2-1.6.6-.7.7-.8 1.9-.8 3.3s.1 2.6.8 3.4c.4.4.9.6 1.6.6.7 0 1.2-.2 1.6-.6.7-.7.8-1.9.8-3.4 0-1.4-.1-2.6-.8-3.3zm19.6 10.2h-2.8l-2.9-8.6-2.9 8.6H177L172.8 31h3.6l2.2 8.5 2.8-8.5h2.5l2.8 8.5 2.2-8.5h3.6l-4.1 13.7z"/><path fill="#818185" d="M9.3 38.8h17v3h-17z"/><path fill="#818185" d="M29.3 30.8v14h-23v-14h-3v17h29v-17"/><path fill="#A68A6E" d="M26.126 37.17l-16.73-1.545.276-2.987 16.73 1.544z"/><path fill="#BF9452" d="M26.5 32.8l-16.3-4 .7-3 16.3 4.1"/><path fill="#D28B29" d="M27.6 28.1l-14.7-7.5 1.4-2.5 14.6 7.5"/><path fill="#F68A1F" d="M30 24.6L17 13.8l2-2.2 13 10.7"/><path fill="#F47920" d="M32.9 20.9L23.4 7.5l2.4-1.6 9.6 13.4"/><path fill="#A3A3A3" d="M46.7 55.8l-.1.1c-.5 1.2-1.1 2.2-1.8 3.2 1 .8 2.5 2.2 3.4 3.1l-.6.5c-.8-.9-2.3-2.3-3.2-3.1-.8 1-2.2 2.3-3.5 3.1-.1-.1-.3-.4-.5-.5 2.5-1.4 4.5-4 5.4-6h-4.5v-.6h5l.4.2zm9 .6l-.1.1c-.3 1.1-.8 2.2-1.3 3 .4.2.8.5 1.2.8l-.5.6c-.3-.3-.8-.6-1.2-.8-.8 1.2-1.9 2.1-3.3 2.8-.1-.2-.3-.4-.5-.5 1.3-.6 2.4-1.5 3.2-2.6-.7-.4-1.3-.7-2-1l.3-.5c.7.2 1.4.6 2.1.9.5-.8.9-1.5 1.1-2.4h-3.1c-.6.9-1.3 1.9-2.1 2.5-.1-.1-.4-.3-.5-.4 1.2-.9 2.3-2.6 2.9-4.1l.9.2c0 .1-.1.1-.2.1-.1.3-.3.8-.5 1.1h3.1l.5.2zm2.4.9c.3.6.6 1.4.7 2l-.5.1c-.1-.5-.4-1.4-.7-2l.5-.1zm5.5.1c0 .1-.1.1-.2.1-.7 2.7-2.1 4.3-4.3 5.2-.1-.1-.2-.3-.4-.4 2.2-.9 3.4-2.4 4.1-5.1l.8.2zm-3.3-.5c.2.6.4 1.5.4 2.1l-.5.1c-.1-.6-.2-1.4-.4-2.1l.5-.1zm11.2-.3l-.1.1c-1 3-2.5 4.9-5 6.2-.1-.2-.3-.4-.5-.5 2.4-1.2 3.9-3 4.6-5.4h-3.2c-.5.8-1.2 1.6-2.1 2.3-.1-.1-.3-.3-.5-.4 1.2-1 2.3-2.4 2.9-4l.9.2c0 .1-.1.1-.3.1l-.6 1.2h3.2l.1-.1.6.3zm3.7 2.2c0 .5-.4.9-.9.9s-.9-.4-.9-.9.4-.9.9-.9.9.4.9.9zm9.5-1.4H82v4.5c0 .9-.6 1-2.3.9 0-.2-.1-.4-.2-.6H81c.2 0 .3-.2.3-.3v-4c-.9 1.4-2.5 2.8-4 3.7-.1-.2-.3-.4-.4-.5 1.5-.8 3.1-2.3 4-3.7h-3.6v-.6h4v-2h.9c0 .1-.1.2-.2.2v1.8h2.8v.6h-.1zm1.2.9h7.7v.7h-7.3c-.1.1-.2.2-.3.2l-.1-.9zm11.8-2c0 .1-.1.1-.2.1-.4 2.2-1.2 4.5-2.2 5.9l-.6-.3c1-1.2 1.8-3.6 2.1-5.9l.9.2zm4.6 5.9c-.4-1.6-1.5-4.2-2.4-5.9l.6-.3c1 1.6 2 4.2 2.5 5.9l-.7.3zm-1.3-7.3c.4.4.9.9 1.1 1.4l-.3.3c-.3-.4-.7-1-1.1-1.4l.3-.3zm1.2-.5c.4.4.9.9 1.1 1.3l-.4.3c-.3-.4-.7-1-1.1-1.3l.4-.3zm1.8 3.9h7.7v.7h-7.3c-.1.1-.2.2-.3.2l-.1-.9zm15.8-2.3l-.1.1c-.7 3.5-2.5 5.5-5.5 6.6-.1-.2-.3-.4-.4-.5 2.8-.9 4.6-3 5.1-5.8h-6v-.6h6.2l.1-.1.6.3zm8.4.1v6.1h-.7v-.6h-5.1v.6h-.6v-6.1h6.4zm-.6 4.9v-4.2h-5.1V61h5.1zm2.5-2.7h7.7v.7h-7.3c-.1.1-.2.2-.3.2l-.1-.9z"/><path fill="#F68A1F" d="M201.2 44.1c-.4.4-.9.6-1.6.6s-1.2-.2-1.7-.8v.7h-1.3v-9.3h1.3v3.3c.5-.6 1-.7 1.7-.7s1.2.2 1.6.6c.7.7.7 1.8.7 2.8s0 2.2-.7 2.8zm-1.9-4.9c-1.2 0-1.4 1-1.4 2.2s.2 2.2 1.4 2.2 1.4-1 1.4-2.2-.2-2.2-1.4-2.2zm5.4 2.5c0 1.1.6 1.8 1.7 1.8.7 0 1.1-.2 1.6-.7l.8.8c-.7.7-1.3 1-2.5 1-1.7 0-3-.9-3-3.4 0-2.1 1.1-3.4 2.8-3.4 1.8 0 2.8 1.3 2.8 3.2v.6h-4.2v.1zm2.8-1.8c-.2-.5-.7-.8-1.3-.8-.6 0-1.1.3-1.3.8-.1.3-.2.5-.2.9h3c0-.4-.1-.6-.2-.9zm5.2 4.8c-1.2 0-1.8-.9-1.8-1.8v-3.6h-.8v-1h.8v-2h1.3v2h1.3v1h-1.3v3.6c0 .5.2.8.7.8h.5v1.1h-.7v-.1zm6 0v-.6c-.5.5-.9.7-1.8.7-.8 0-1.4-.2-1.8-.6-.3-.4-.5-.9-.5-1.4 0-1.1.8-1.9 2.3-1.9h1.7v-.5c0-.8-.4-1.2-1.4-1.2-.7 0-1.1.2-1.4.6l-.9-.8c.6-.7 1.3-.9 2.4-.9 1.8 0 2.7.8 2.7 2.3v4.4h-1.3v-.1zm0-3h-1.5c-.8 0-1.2.4-1.2.9 0 .6.4.9 1.2.9.5 0 .9 0 1.2-.4.2-.2.3-.5.3-1v-.4z"/></svg>