<svg xmlns="http://www.w3.org/2000/svg" width="227.5" height="68" viewBox="0 0 227.5 68" enable-background="new 0 0 227.5 68" xml:space="preserve"><path fill="#eee" d="M45.1 44.9c-2.3 0-4.1-0.5-5.6-2l1.3-1.3c1.1 1.1 2.6 1.6 4.3 1.6 2.3 0 3.7-0.8 3.7-2.4 0-1.2-0.7-1.9-2.3-2l-2.3-0.2c-2.7-0.2-4.1-1.4-4.1-3.7 0-2.5 2.1-4 5-4 2 0 3.7 0.5 4.9 1.5l-1.3 1.3c-1-0.8-2.2-1.1-3.7-1.1 -2 0-3.1 0.9-3.1 2.3 0 1.2 0.7 1.9 2.4 2l2.2 0.2c2.4 0.2 4 1.1 4 3.7C50.7 43.4 48.4 44.9 45.1 44.9zM56.8 44.7c-2.3 0-3.5-1.6-3.5-3.7v-8.4h-1.7v-1.5h1.7v-4.3h2v4.3h2.9v1.5h-2.9V41c0 1.3 0.6 2 1.9 2h1.1v1.7H56.8zM68.6 44.7v-1.3c-1.1 1.1-2.1 1.5-4 1.5 -1.9 0-3-0.4-3.9-1.3 -0.7-0.7-1-1.7-1-2.8 0-2.4 1.7-4 4.7-4h4.1v-1.3c0-2-1-3-3.5-3 -1.8 0-2.6 0.4-3.5 1.6l-1.2-1.2c1.2-1.6 2.6-2 4.8-2 3.7 0 5.5 1.6 5.5 4.6v9.3L68.6 44.7 68.6 44.7zM68.6 38.4h-3.8c-2.1 0-3.1 0.8-3.1 2.4s1 2.3 3.1 2.3c1.2 0 2.2-0.1 3.1-0.9 0.5-0.4 0.7-1.2 0.7-2.4V38.4zM78.4 44.9c-3.5 0-6.1-2.3-6.1-7s2.6-7 6.1-7c1.9 0 3.1 0.5 4.5 2l-1.4 1.3c-1-1.1-1.8-1.5-3.1-1.5 -1.3 0-2.5 0.5-3.2 1.6 -0.6 0.9-0.9 2-0.9 3.7 0 1.7 0.3 2.8 0.9 3.7 0.7 1 1.8 1.6 3.2 1.6 1.3 0 2.1-0.4 3.1-1.6l1.4 1.3C81.5 44.4 80.3 44.9 78.4 44.9zM93.9 44.7l-4.3-7 -2.7 3.1v4h-2V24.9h2v13.3l6.2-7.1h2.5l-4.7 5.2 5.5 8.5L93.9 44.7 93.9 44.7zM107.1 43.2c-0.8 0.9-2.2 1.7-4.3 1.7 -2 0-3.4-0.8-4.3-1.7 -1.2-1.3-1.6-2.9-1.6-5.4s0.3-4 1.6-5.3c0.8-0.9 2.2-1.7 4.3-1.7 2 0 3.4 0.8 4.3 1.7 1.2 1.3 1.6 2.9 1.6 5.3C108.7 40.4 108.3 41.9 107.1 43.2zM104.4 34.5c-0.4-0.4-0.9-0.6-1.6-0.6s-1.2 0.2-1.6 0.6c-0.7 0.7-0.8 1.9-0.8 3.3s0.1 2.6 0.8 3.4c0.4 0.4 0.9 0.6 1.6 0.6s1.2-0.2 1.6-0.6c0.7-0.7 0.8-1.9 0.8-3.4C105.2 36.4 105.2 35.2 104.4 34.5zM116.4 44.7h-2.7L108.6 31h3.6l2.8 8.5 2.8-8.5h3.6L116.4 44.7zM124.7 38.9c0 1.8 1.1 3.1 3 3.1 1.5 0 2.2-0.4 3.1-1.3l2.1 2c-1.4 1.4-2.7 2.2-5.2 2.2 -3.2 0-6.4-1.5-6.4-7.1 0-4.5 2.4-7 6-7 3.8 0 6 2.8 6 6.6v1.5H124.7zM129.6 35.1c-0.4-0.8-1.1-1.4-2.3-1.4s-1.9 0.6-2.3 1.4c-0.2 0.5-0.3 0.9-0.3 1.5h5.2C129.9 36 129.8 35.6 129.6 35.1zM142.5 34.7c-0.5-0.5-1-0.8-1.8-0.8 -1.1 0-2.2 0.8-2.2 2.5v8.3h-3.4V31h3.4v1.3c0.7-0.8 2-1.5 3.5-1.5 1.3 0 2.3 0.3 3.2 1.3L142.5 34.7zM150.8 33.6v11.1h-3.4V33.6H146V31h1.4v-1.7c0-2 1.2-3.9 4-3.9h2v2.9h-1.3c-0.8 0-1.2 0.4-1.2 1.2V31h2.5v2.6H150.8zM158.9 44.7c-2.8 0-4-2-4-3.9V25.3h3.4v15.2c0 0.8 0.3 1.2 1.2 1.2h1.3v2.9L158.9 44.7zM171.5 43.2c-0.8 0.9-2.2 1.7-4.3 1.7 -2 0-3.4-0.8-4.3-1.7 -1.2-1.3-1.6-2.9-1.6-5.4s0.3-4 1.6-5.3c0.8-0.9 2.2-1.7 4.3-1.7 2 0 3.4 0.8 4.3 1.7 1.2 1.3 1.6 2.9 1.6 5.3C173 40.4 172.7 41.9 171.5 43.2zM168.8 34.5c-0.4-0.4-0.9-0.6-1.6-0.6 -0.7 0-1.2 0.2-1.6 0.6 -0.7 0.7-0.8 1.9-0.8 3.3s0.1 2.6 0.8 3.4c0.4 0.4 0.9 0.6 1.6 0.6 0.7 0 1.2-0.2 1.6-0.6 0.7-0.7 0.8-1.9 0.8-3.4C169.6 36.4 169.5 35.2 168.8 34.5zM188.4 44.7h-2.8l-2.9-8.6 -2.9 8.6H177L172.8 31h3.6l2.2 8.5 2.8-8.5h2.5l2.8 8.5 2.2-8.5h3.6L188.4 44.7z"/><rect x="9.3" y="38.8" fill="#818185" width="17" height="3"/><polygon fill="#818185" points="29.3 30.8 29.3 44.8 6.3 44.8 6.3 30.8 3.3 30.8 3.3 47.8 3.3 47.8 32.3 47.8 32.3 30.8 "/><rect x="9.5" y="33.4" transform="matrix(-0.9958 -0.0919 0.0919 -0.9958 32.5165 71.3019)" fill="#A68A6E" width="16.8" height="3"/><polygon fill="#BF9452" points="26.5 32.8 10.2 28.8 10.9 25.8 27.2 29.9 "/><polygon fill="#D28B29" points="27.6 28.1 12.9 20.6 14.3 18.1 28.9 25.6 "/><polygon fill="#F68A1F" points="30 24.6 17 13.8 19 11.6 32 22.3 "/><polygon fill="#F47920" points="32.9 20.9 23.4 7.5 25.8 5.9 35.4 19.3 "/><path fill="#A3A3A3" d="M46.7 55.8l-0.1 0.1c-0.5 1.2-1.1 2.2-1.8 3.2 1 0.8 2.5 2.2 3.4 3.1l-0.6 0.5c-0.8-0.9-2.3-2.3-3.2-3.1 -0.8 1-2.2 2.3-3.5 3.1 -0.1-0.1-0.3-0.4-0.5-0.5 2.5-1.4 4.5-4 5.4-6h-4.5v-0.6h4.9 0.1L46.7 55.8zM55.7 56.4l-0.1 0.1c-0.3 1.1-0.8 2.2-1.3 3 0.4 0.2 0.8 0.5 1.2 0.8L55 60.9c-0.3-0.3-0.8-0.6-1.2-0.8 -0.8 1.2-1.9 2.1-3.3 2.8 -0.1-0.2-0.3-0.4-0.5-0.5 1.3-0.6 2.4-1.5 3.2-2.6 -0.7-0.4-1.3-0.7-2-1l0.3-0.5c0.7 0.2 1.4 0.6 2.1 0.9 0.5-0.8 0.9-1.5 1.1-2.4h-3.1c-0.6 0.9-1.3 1.9-2.1 2.5 -0.1-0.1-0.4-0.3-0.5-0.4 1.2-0.9 2.3-2.6 2.9-4.1l0.9 0.2c0 0.1-0.1 0.1-0.2 0.1 -0.1 0.3-0.3 0.8-0.5 1.1h3 0.1L55.7 56.4zM58.1 57.3c0.3 0.6 0.6 1.4 0.7 2l-0.5 0.1c-0.1-0.5-0.4-1.4-0.7-2L58.1 57.3zM63.6 57.4c0 0.1-0.1 0.1-0.2 0.1 -0.7 2.7-2.1 4.3-4.3 5.2 -0.1-0.1-0.2-0.3-0.4-0.4 2.2-0.9 3.4-2.4 4.1-5.1L63.6 57.4zM60.3 56.9c0.2 0.6 0.4 1.5 0.4 2.1l-0.5 0.1c-0.1-0.6-0.2-1.4-0.4-2.1L60.3 56.9zM71.5 56.6l-0.1 0.1c-1 3-2.5 4.9-5 6.2 -0.1-0.2-0.3-0.4-0.5-0.5 2.4-1.2 3.9-3 4.6-5.4h-3.2c-0.5 0.8-1.2 1.6-2.1 2.3 -0.1-0.1-0.3-0.3-0.5-0.4 1.2-1 2.3-2.4 2.9-4l0.9 0.2c0 0.1-0.1 0.1-0.3 0.1 -0.2 0.4-0.4 0.8-0.6 1.2h3.2l0.1-0.1L71.5 56.6zM75.2 58.8c0 0.5-0.4 0.9-0.9 0.9s-0.9-0.4-0.9-0.9 0.4-0.9 0.9-0.9S75.2 58.3 75.2 58.8zM84.7 57.4H82v4.5c0 0.9-0.6 1-2.3 0.9 0-0.2-0.1-0.4-0.2-0.6 0.6 0 1.3 0 1.5 0 0.2 0 0.3-0.2 0.3-0.3v-4c-0.9 1.4-2.5 2.8-4 3.7 -0.1-0.2-0.3-0.4-0.4-0.5 1.5-0.8 3.1-2.3 4-3.7h-3.6v-0.6h4v-2h0.9c0 0.1-0.1 0.2-0.2 0.2v1.8h2.8v0.6H84.7zM85.9 58.3h7.7V59h-7.3c-0.1 0.1-0.2 0.2-0.3 0.2L85.9 58.3zM97.7 56.3c0 0.1-0.1 0.1-0.2 0.1 -0.4 2.2-1.2 4.5-2.2 5.9 -0.2-0.1-0.4-0.2-0.6-0.3 1-1.2 1.8-3.6 2.1-5.9L97.7 56.3zM102.3 62.2c-0.4-1.6-1.5-4.2-2.4-5.9l0.6-0.3c1 1.6 2 4.2 2.5 5.9L102.3 62.2zM101 54.9c0.4 0.4 0.9 0.9 1.1 1.4l-0.3 0.3c-0.3-0.4-0.7-1-1.1-1.4L101 54.9zM102.2 54.4c0.4 0.4 0.9 0.9 1.1 1.3l-0.4 0.3c-0.3-0.4-0.7-1-1.1-1.3L102.2 54.4zM104 58.3h7.7V59h-7.3c-0.1 0.1-0.2 0.2-0.3 0.2L104 58.3zM119.8 56l-0.1 0.1c-0.7 3.5-2.5 5.5-5.5 6.6 -0.1-0.2-0.3-0.4-0.4-0.5 2.8-0.9 4.6-3 5.1-5.8h-6v-0.6h6.2l0.1-0.1L119.8 56zM128.2 56.1v6.1h-0.7v-0.6h-5.1v0.6H121.8v-6.1H128.2zM127.6 61v-4.2h-5.1V61H127.6zM130.1 58.3h7.7V59h-7.3c-0.1 0.1-0.2 0.2-0.3 0.2L130.1 58.3z"/><path fill="#F68A1F" d="M201.2 44.1c-0.4 0.4-0.9 0.6-1.6 0.6s-1.2-0.2-1.7-0.8v0.7h-1.3v-9.3h1.3v3.3c0.5-0.6 1-0.7 1.7-0.7s1.2 0.2 1.6 0.6c0.7 0.7 0.7 1.8 0.7 2.8S201.9 43.5 201.2 44.1zM199.3 39.2c-1.2 0-1.4 1-1.4 2.2s0.2 2.2 1.4 2.2 1.4-1 1.4-2.2S200.5 39.2 199.3 39.2zM204.7 41.7c0 1.1 0.6 1.8 1.7 1.8 0.7 0 1.1-0.2 1.6-0.7l0.8 0.8c-0.7 0.7-1.3 1-2.5 1 -1.7 0-3-0.9-3-3.4 0-2.1 1.1-3.4 2.8-3.4 1.8 0 2.8 1.3 2.8 3.2v0.6H204.7V41.7zM207.5 39.9c-0.2-0.5-0.7-0.8-1.3-0.8 -0.6 0-1.1 0.3-1.3 0.8 -0.1 0.3-0.2 0.5-0.2 0.9h3C207.7 40.4 207.6 40.2 207.5 39.9zM212.7 44.7c-1.2 0-1.8-0.9-1.8-1.8v-3.6h-0.8v-1h0.8v-2h1.3v2h1.3v1h-1.3v3.6c0 0.5 0.2 0.8 0.7 0.8h0.5v1.1H212.7V44.7zM218.7 44.7v-0.6c-0.5 0.5-0.9 0.7-1.8 0.7 -0.8 0-1.4-0.2-1.8-0.6 -0.3-0.4-0.5-0.9-0.5-1.4 0-1.1 0.8-1.9 2.3-1.9h1.7v-0.5c0-0.8-0.4-1.2-1.4-1.2 -0.7 0-1.1 0.2-1.4 0.6l-0.9-0.8c0.6-0.7 1.3-0.9 2.4-0.9 1.8 0 2.7 0.8 2.7 2.3v4.4h-1.3V44.7zM218.7 41.7h-1.5c-0.8 0-1.2 0.4-1.2 0.9 0 0.6 0.4 0.9 1.2 0.9 0.5 0 0.9 0 1.2-0.4 0.2-0.2 0.3-0.5 0.3-1V41.7z"/></svg>