<svg xmlns:svg="http://www.w3.org/2000/svg" xmlns="http://www.w3.org/2000/svg" version="1.1" x="0" y="0" width="230.3" height="38" viewBox="-135 14 230.3 38" enable-background="new -135 14 240 500" xml:space="preserve"><g transform="translate(0,-7.9)"/><path d="m88.3 39.1 1 0-0.5-1.5-0.5 1.5zm5.7-8.2-31 0c-0.7 0-1.3 0.6-1.3 1.3l0 11.8c0 0.7 0.6 1.3 1.3 1.3l31 0c0.7 0 1.3-0.6 1.3-1.3l0-11.8C95.2 31.5 94.7 30.9 94 30.9Zm-21.2 11c0 0.1-0.1 0.1 0 0l-2 0.1c-0.1 0-0.1-0.1-0.1-0.1l0-3.2-0.8 1.5-0.1 0.1-1.2 0c0 0-0.1 0-0.1-0.1l-0.8-1.5 0 3.2c0 0.1-0.1 0.1-0.1 0.1l-1.9 0c-0.1 0-0.1-0.1-0.1-0.1l0-7.6c0-0.1 0.1-0.1 0.1-0.1l1.8 0c0 0 0.1 0 0.1 0.1l1.6 3.1 1.6-3.1 0.1-0.1 1.8 0c0.1 0 0.1 0.1 0.1 0.1l0 7.6zM79.1 36c0 0.1-0.1 0.1 0 0l-3.3 0.1 0 1 2.7 0c0.1 0 0.1 0.1 0.1 0.1l0 1.7c0 0.1-0.1 0.1-0.1 0.1l-2.7 0 0 1.1 3.2 0c0.1 0 0.1 0.1 0.1 0.1l0 1.7C79.1 42 79 42 79 42l-5.1 0c-0.1 0-0.1-0.1-0.1-0.1l0-7.6c0-0.1 0.1-0.1 0.1-0.1l5.1 0c0.1 0 0.1 0.1 0.1 0.1l0 1.7zm4.7 5.9c0 0.1-0.1 0.1 0 0l-2 0.1c-0.1 0-0.1-0.1-0.1-0.1l0-5.8-1.7 0C79.9 36.1 79.9 36 79.9 36l0-1.7c0-0.1 0.1-0.1 0.1-0.1l5.6 0c0.1 0 0.1 0.1 0.1 0.1l0 1.7c0 0.1-0.1 0.1-0.1 0.1l-1.7 0-0.1 5.8 0 0zm8.5 0c0 0.1 0 0.1 0 0l-2 0.1c-0.1 0-0.1 0-0.1-0.1l-0.3-1-2.2 0-0.3 1-0.1 0.1-1.9 0c0 0-0.1 0-0.1-0.1l0-0.1 2.8-7.6 0.1-0.1 1.4 0c0.1 0 0.1 0 0.1 0.1l2.8 7.6c-0.1 0.1-0.1 0.1-0.2 0.1z" fill="#f48024"/><path d="m-34.1 30.8c-2.1 0-3.5 0.8-4.4 1.8-1.3 1.3-1.6 3-1.6 5.5 0 2.6 0.3 4.2 1.6 5.6 0.9 0.9 2.3 1.8 4.4 1.8 2.1 0 3.6-0.8 4.4-1.8 1.3-1.3 1.6-3 1.6-5.6 0-2.6-0.3-4.2-1.6-5.5-0.8-1-2.3-1.8-4.4-1.8zm1.7 10.8c-0.4 0.4-1 0.6-1.7 0.6-0.7 0-1.2-0.2-1.6-0.6-0.7-0.7-0.8-2-0.8-3.5 0-1.5 0.1-2.7 0.8-3.5 0.4-0.4 0.9-0.6 1.6-0.6 0.7 0 1.3 0.2 1.7 0.6 0.7 0.7 0.8 2 0.8 3.5 0 1.5-0.1 2.7-0.8 3.5zm-11.1-10.1-2.5 0-6.2 6.1 0-12.2-2 0 0 19.8 2 0 0-5 2.4-2.4 4.6 7.4 2.5 0-5.7-8.8 4.9-4.9zm-17.2 12.1c-1.3 0-2.5-0.5-3.2-1.6-0.6-0.9-0.9-2-0.9-3.7 0-1.7 0.3-2.8 0.9-3.7 0.7-1 1.8-1.6 3.2-1.6 1.3 0 2.1 0.4 3.1 1.5l1.3-1.3c-1.4-1.5-2.6-2-4.5-2-3.5 0-6.1 2.3-6.1 7 0 4.7 2.6 7 6.1 7 1.9 0 3.1-0.5 4.5-2l-1.4-1.3c-0.9 1.3-1.7 1.7-3 1.7zm-30.5-6.1-2.2-0.2c-1.7-0.1-2.4-0.8-2.4-2 0-1.4 1.1-2.3 3.1-2.3 1.4 0 2.7 0.3 3.7 1.1l1.3-1.3c-1.2-1-3-1.5-4.9-1.5-2.9 0-5 1.5-5 4 0 2.3 1.4 3.5 4.1 3.7l2.3 0.2c1.6 0.1 2.3 0.8 2.3 2 0 1.6-1.4 2.4-3.7 2.4-1.7 0-3.2-0.4-4.3-1.6l-1.3 1.3c1.5 1.4 3.3 2 5.6 2 3.3 0 5.6-1.5 5.6-4.2-0.2-2.5-1.8-3.4-4.2-3.6zm9.6-3.8 1.9-1.9-3.8 0 0-4.5-2 0 0 14.2c0 2 1.2 3.7 3.5 3.7l1.4 0 0-1.7-1.1 0c-1.3 0-1.9-0.8-1.9-2l0-7.8 2 0zm7.5-2.4c-2.2 0-3.6 0.4-4.8 2l1.3 1.3c0.8-1.1 1.7-1.6 3.5-1.6 2.5 0 3.5 1 3.5 3l0 1.3-4.1 0c-3.1 0-4.7 1.6-4.7 4 0 1.1 0.4 2.1 1 2.8 0.9 0.9 2 1.3 3.9 1.3 1.8 0 2.8-0.4 4-1.5l0 1.3 2 0 0-9.3c-0.1-3-1.9-4.6-5.6-4.6zm3.5 9.1c0 1.1-0.2 1.9-0.7 2.4-0.9 0.8-1.9 0.9-3.1 0.9-2.2 0-3.1-0.8-3.1-2.3 0-1.6 1-2.4 3.1-2.4l3.8 0c0 0 0 1.4 0 1.4zm92.9 0.5 0-15.5-3.6 0 0 15.7c0 2 1.2 4.1 4.2 4.1l2 0 0-3-1.4 0c-0.8 0-1.2-0.4-1.2-1.3zm9.4-10.1c-2.1 0-3.5 0.8-4.4 1.8-1.3 1.3-1.6 3-1.6 5.5 0 2.6 0.3 4.2 1.6 5.6 0.9 0.9 2.3 1.8 4.4 1.8 2.1 0 3.6-0.8 4.4-1.8 1.3-1.3 1.6-3 1.6-5.6 0-2.6-0.3-4.2-1.6-5.5-0.8-1-2.3-1.8-4.4-1.8zm1.7 10.8c-0.4 0.4-1 0.6-1.7 0.6-0.7 0-1.2-0.2-1.6-0.6-0.7-0.7-0.8-2-0.8-3.5 0-1.5 0.1-2.7 0.8-3.5 0.4-0.4 0.9-0.6 1.6-0.6 0.7 0 1.3 0.2 1.7 0.6 0.7 0.7 0.8 2 0.8 3.5 0 1.5-0.1 2.7-0.8 3.5zm21.2-10.7-2.3 8.8-2.9-8.8-2.6 0-2.9 8.8-2.3-8.8-3.8 0 4.4 14.3 2.9 0 3-9 3 9 2.9 0 4.4-14.3-3.8 0zm-73.1 0-2.9 8.8-2.9-8.8-3.8 0 5.3 14.3 2.8 0 5.2-14.3-3.7 0zm29.3-1.4 0 15.8 3.6 0 0-11.4 2.6 0 0-2.7-2.6 0 0-1.6c0-0.8 0.4-1.3 1.3-1.3l1.3 0 0-3-2 0c-2.9 0.1-4.2 2.1-4.2 4.2zm-19.5 1.3c-3.7 0-6.2 2.6-6.2 7.3 0 5.8 3.2 7.3 6.6 7.3 2.6 0 4-0.8 5.4-2.2l-2.2-2.1c-0.9 0.9-1.7 1.3-3.2 1.3-2 0-3.1-1.3-3.1-3.2l8.9 0 0-1.6c0-3.9-2.2-6.8-6.2-6.8zm-2.7 6c0-0.6 0.1-1 0.3-1.5 0.4-0.9 1.2-1.5 2.4-1.5 1.2 0 2 0.6 2.4 1.5 0.2 0.4 0.3 0.8 0.3 1.5l-5.4 0zm14.2-4.5 0-1.4-3.5 0 0 14.3 3.6 0 0-8.6c0-1.8 1.2-2.6 2.3-2.6 0.9 0 1.3 0.3 1.9 0.8l2.6-2.7c-1-1-2-1.3-3.4-1.3-1.5 0-2.8 0.7-3.5 1.5zm-110.7 16.3-23.7 0 0-10.2-3.4 0 0 13.6 30.5 0 0-13.6-3.4 0 0 10.2zm-2.7-10.9-16.6-3.5-0.7 3.3 16.6 3.5 0.7-3.3zm1.7-4.1-15.4-7.2-1.4 3.1 15.4 7.2 1.4-3.1zm2.7-3.3-13-10.8-2.2 2.6 13 10.8 2.2-2.6zm-5.1 11.5-16.9 0 0 3.4 16.9 0c0 0 0-3.4 0-3.4zm-4.5-25.8 10.1 13.6 2.7-2-10-13.6-2.8 2z" fill="#eee"/></svg>