<svg xmlns="http://www.w3.org/2000/svg" width="240px" height="50px" viewBox="0 0 240 50"><g><path fill="#444444" d="M41.8 45c-2.3 0-4.1-0.5-5.6-2l1.3-1.3c1.1 1.1 2.6 1.6 4.3 1.6c2.3 0 3.7-0.8 3.7-2.4c0-1.2-0.7-1.9-2.3-2 l-2.3-0.2c-2.7-0.2-4.1-1.4-4.1-3.7c0-2.5 2.1-4 5-4c2 0 3.7 0.5 4.9 1.5l-1.3 1.3c-1-0.8-2.2-1.1-3.7-1.1c-2 0-3.1 0.9-3.1 2.3 c0 1.2 0.7 1.9 2.4 2l2.2 0.2c2.4 0.2 4 1.1 4 3.7C47.4 43.5 45.1 45 41.8 45z"/><path fill="#444444" d="M53.5 44.8c-2.3 0-3.5-1.6-3.5-3.7v-8.4h-1.7v-1.5H50v-4.3h2v4.3h2.9v1.5H52v8.4c0 1.3 0.6 2 1.9 2H55v1.7 H53.5z"/><path fill="#444444" d="M65.3 44.8v-1.3c-1.1 1.1-2.1 1.5-4 1.5s-3-0.4-3.9-1.3c-0.7-0.7-1-1.7-1-2.8c0-2.4 1.7-4 4.7-4h4.1v-1.3 c0-2-1-3-3.5-3c-1.8 0-2.6 0.4-3.5 1.6L57 33c1.2-1.6 2.6-2 4.8-2c3.7 0 5.5 1.6 5.5 4.6v9.3L65.3 44.8L65.3 44.8z M65.3 38.5h-3.8 c-2.1 0-3.1 0.8-3.1 2.4c0 1.6 1 2.3 3.1 2.3c1.2 0 2.2-0.1 3.1-0.9c0.5-0.4 0.7-1.2 0.7-2.4V38.5z"/><path fill="#444444" d="M75.1 45c-3.5 0-6.1-2.3-6.1-7s2.6-7 6.1-7c1.9 0 3.1 0.5 4.5 2l-1.4 1.3c-1-1.1-1.8-1.5-3.1-1.5 c-1.3 0-2.5 0.5-3.2 1.6c-0.6 0.9-0.9 2-0.9 3.7s0.3 2.8 0.9 3.7c0.7 1 1.8 1.6 3.2 1.6c1.3 0 2.1-0.4 3.1-1.6l1.4 1.3 C78.2 44.5 77 45 75.1 45z"/><path fill="#444444" d="M90.6 44.8l-4.3-7l-2.7 3.1v4h-2V25h2v13.3l6.2-7.1h2.5l-4.7 5.2l5.5 8.5L90.6 44.8L90.6 44.8z"/><path fill="#444444" d="M103.8 43.3c-0.8 0.9-2.2 1.7-4.3 1.7c-2 0-3.4-0.8-4.3-1.7c-1.2-1.3-1.6-2.9-1.6-5.4s0.3-4 1.6-5.3 c0.8-0.9 2.2-1.7 4.3-1.7c2 0 3.4 0.8 4.3 1.7c1.2 1.3 1.6 2.9 1.6 5.3C105.4 40.5 105 42 103.8 43.3z M101.1 34.6 c-0.4-0.4-0.9-0.6-1.6-0.6s-1.2 0.2-1.6 0.6c-0.7 0.7-0.8 1.9-0.8 3.3c0 1.4 0.1 2.6 0.8 3.4c0.4 0.4 0.9 0.6 1.6 0.6 s1.2-0.2 1.6-0.6c0.7-0.7 0.8-1.9 0.8-3.4C101.9 36.5 101.9 35.3 101.1 34.6z"/><path fill="#444444" d="M113.1 44.8h-2.7l-5.1-13.7h3.6l2.8 8.5l2.8-8.5h3.6L113.1 44.8z"/><path fill="#444444" d="M121.4 39c0 1.8 1.1 3.1 3 3.1c1.5 0 2.2-0.4 3.1-1.3l2.1 2c-1.4 1.4-2.7 2.2-5.2 2.2 c-3.2 0-6.4-1.5-6.4-7.1c0-4.5 2.4-7 6-7c3.8 0 6 2.8 6 6.6V39H121.4z M126.3 35.2c-0.4-0.8-1.1-1.4-2.3-1.4 c-1.2 0-1.9 0.6-2.3 1.4c-0.2 0.5-0.3 0.9-0.3 1.5h5.2C126.6 36.1 126.5 35.7 126.3 35.2z"/><path fill="#444444" d="M139.2 34.8c-0.5-0.5-1-0.8-1.8-0.8c-1.1 0-2.2 0.8-2.2 2.5v8.3h-3.4V31.1h3.4v1.3c0.7-0.8 2-1.5 3.5-1.5 c1.3 0 2.3 0.3 3.2 1.3L139.2 34.8z"/><path fill="#444444" d="M147.5 33.7v11.1h-3.4V33.7h-1.4v-2.6h1.4v-1.7c0-2 1.2-3.9 4-3.9h2v2.9h-1.3c-0.8 0-1.2 0.4-1.2 1.2v1.5 h2.5v2.6H147.5z M155.6 44.8c-2.8 0-4-2-4-3.9V25.4h3.4v15.2c0 0.8 0.3 1.2 1.2 1.2h1.3v2.9L155.6 44.8z"/><path fill="#444444" d="M168.2 43.3c-0.8 0.9-2.2 1.7-4.3 1.7c-2 0-3.4-0.8-4.3-1.7c-1.2-1.3-1.6-2.9-1.6-5.4s0.3-4 1.6-5.3 c0.8-0.9 2.2-1.7 4.3-1.7c2 0 3.4 0.8 4.3 1.7c1.2 1.3 1.6 2.9 1.6 5.3C169.7 40.5 169.4 42 168.2 43.3z M165.5 34.6 c-0.4-0.4-0.9-0.6-1.6-0.6s-1.2 0.2-1.6 0.6c-0.7 0.7-0.8 1.9-0.8 3.3c0 1.4 0.1 2.6 0.8 3.4c0.4 0.4 0.9 0.6 1.6 0.6 s1.2-0.2 1.6-0.6c0.7-0.7 0.8-1.9 0.8-3.4C166.3 36.5 166.2 35.3 165.5 34.6z"/><path fill="#444444" d="M185.1 44.8h-2.8l-2.9-8.6l-2.9 8.6h-2.8l-4.2-13.7h3.6l2.2 8.5l2.8-8.5h2.5l2.8 8.5l2.2-8.5h3.6 L185.1 44.8z"/></g><rect x="6" y="38.9" fill="#444444" width="17" height="3"/><polygon fill="#444444" points="26,30.9 26,44.9 3,44.9 3,30.9 0,30.9 0,47.9 0,47.9 29,47.9 29,30.9"/><rect x="6.2" y="33.5" transform="matrix(-0.9958 -9.191602e-02 9.191602e-02 -0.9958 25.9227 71.1961)" fill="#444444" width="16.8" height="3"/><polygon fill="#444444" points="23.2,32.9 6.9,28.9 7.6,25.9 23.9,30"/><polygon fill="#444444" points="24.3,28.2 9.6,20.7 11,18.2 25.6,25.7"/><polygon fill="#444444" points="26.7,24.7 13.7,13.9 15.7,11.7 28.7,22.4"/><polygon fill="#444444" points="29.6,21 20.1,7.6 22.5,6 32.1,19.4"/><g><path fill="#BE1E2D" d="M203.7 42.9v-5.3c0-1.2-0.8-1.5-1.5-1.5s-1.6 0.4-1.6 1.5v5.3h-2.2v-5.3c0-1.2-0.8-1.5-1.5-1.5 s-1.6 0.4-1.6 1.5v5.2h-2.2v-8.6h2.2V35c0.6-0.5 1.5-0.9 2.2-0.9c1 0 1.8 0.3 2.5 1.1c0.8-0.8 1.6-1.1 2.7-1.1 c0.9 0 1.8 0.3 2.2 0.8c0.8 0.7 1 1.5 1 2.4v5.5h-2.4v0.1C203.5 42.9 203.7 42.9 203.7 42.9z"/><path fill="#BE1E2D" d="M209.9 39.3c0 1.1 0.7 1.9 2 1.9c1 0 1.5-0.2 2-0.8l1.3 1.3c-0.9 0.9-1.8 1.3-3.5 1.3 c-2.1 0-4.3-0.9-4.3-4.4c0-2.9 1.6-4.4 4-4.4c2.6 0 4 1.8 4 4.1v1C215.7 39.3 209.9 39.3 209.9 39.3z M213.3 36.8 c-0.2-0.5-0.8-0.9-1.6-0.9s-1.2 0.3-1.6 0.9c-0.1 0.3-0.2 0.5-0.2 0.9h3.5C213.4 37.4 213.4 37.2 213.3 36.8z"/><path fill="#BE1E2D" d="M220.4 42.9c-1.9 0-2.7-1.2-2.7-2.4v-4.3h-1v-1.6h1V32h2.2v2.5h1.6v1.6h-1.6v4.2c0 0.5 0.2 0.8 0.8 0.8h0.8 V43L220.4 42.9L220.4 42.9z"/><path fill="#BE1E2D" d="M228.1 42.9v-0.8c-0.6 0.6-1.2 0.9-2.2 0.9s-1.8-0.2-2.4-0.8c-0.4-0.4-0.8-1.2-0.8-2c0-1.3 1-2.5 3.1-2.5 h2.1v-0.4c0-1-0.4-1.3-1.7-1.3c-0.9 0-1.2 0.2-1.8 0.7l-1.5-1.3c0.9-0.9 1.8-1.2 3.3-1.2c2.6 0 3.9 1 3.9 3.1V43 C230.2 42.9 228.1 42.9 228.1 42.9z M228 39.3h-1.8c-0.8 0-1.2 0.3-1.2 1c0 0.5 0.4 1 1.3 1c0.7 0 1 0 1.5-0.4 c0.2-0.2 0.3-0.5 0.3-1.1v-0.4L228 39.3L228 39.3z"/></g></svg>