<svg xmlns="http://www.w3.org/2000/svg" width="230.3" height="38" viewBox="-135 14 230.3 38"><path d="M88.3 39.1h1l-.5-1.5-.5 1.5zm5.7-8.2H63c-.7 0-1.3.6-1.3 1.3V44c0 .7.6 1.3 1.3 1.3h31c.7 0 1.3-.6 1.3-1.3V32.2c-.1-.7-.6-1.3-1.3-1.3zm-21.2 11c0 .1-.1.1 0 0l-2 .1c-.1 0-.1-.1-.1-.1v-3.2l-.8 1.5-.1.1h-1.2s-.1 0-.1-.1l-.8-1.5v3.2c0 .1-.1.1-.1.1h-1.9c-.1 0-.1-.1-.1-.1v-7.6c0-.1.1-.1.1-.1h1.8s.1 0 .1.1l1.6 3.1 1.6-3.1.1-.1h1.8c.1 0 .1.1.1.1v7.6zm6.3-5.9c0 .1-.1.1 0 0l-3.3.1v1h2.7c.1 0 .1.1.1.1v1.7c0 .1-.1.1-.1.1h-2.7v1.1H79c.1 0 .1.1.1.1v1.7c0 .1-.1.1-.1.1h-5.1c-.1 0-.1-.1-.1-.1v-7.6c0-.1.1-.1.1-.1H79c.1 0 .1.1.1.1V36zm4.7 5.9c0 .1-.1.1 0 0l-2 .1c-.1 0-.1-.1-.1-.1v-5.8H80c-.1 0-.1-.1-.1-.1v-1.7c0-.1.1-.1.1-.1h5.6c.1 0 .1.1.1.1V36c0 .1-.1.1-.1.1h-1.7l-.1 5.8zm8.5 0c0 .1 0 .1 0 0l-2 .1c-.1 0-.1 0-.1-.1l-.3-1h-2.2l-.3 1-.1.1h-1.9s-.1 0-.1-.1v-.1l2.8-7.6.1-.1h1.4c.1 0 .1 0 .1.1l2.8 7.6c-.1.1-.1.1-.2.1z" fill="#f48024"/><path d="M-34.1 30.8c-2.1 0-3.5.8-4.4 1.8-1.3 1.3-1.6 3-1.6 5.5 0 2.6.3 4.2 1.6 5.6.9.9 2.3 1.8 4.4 1.8 2.1 0 3.6-.8 4.4-1.8 1.3-1.3 1.6-3 1.6-5.6 0-2.6-.3-4.2-1.6-5.5-.8-1-2.3-1.8-4.4-1.8zm1.7 10.8c-.4.4-1 .6-1.7.6s-1.2-.2-1.6-.6c-.7-.7-.8-2-.8-3.5s.1-2.7.8-3.5c.4-.4.9-.6 1.6-.6.7 0 1.3.2 1.7.6.7.7.8 2 .8 3.5s-.1 2.7-.8 3.5zm-11.1-10.1H-46l-6.2 6.1V25.4h-2v19.8h2v-5l2.4-2.4 4.6 7.4h2.5l-5.7-8.8 4.9-4.9zm-17.2 12.1c-1.3 0-2.5-.5-3.2-1.6-.6-.9-.9-2-.9-3.7 0-1.7.3-2.8.9-3.7.7-1 1.8-1.6 3.2-1.6 1.3 0 2.1.4 3.1 1.5l1.3-1.3c-1.4-1.5-2.6-2-4.5-2-3.5 0-6.1 2.3-6.1 7s2.6 7 6.1 7c1.9 0 3.1-.5 4.5-2l-1.4-1.3c-.9 1.3-1.7 1.7-3 1.7zm-30.5-6.1l-2.2-.2c-1.7-.1-2.4-.8-2.4-2 0-1.4 1.1-2.3 3.1-2.3 1.4 0 2.7.3 3.7 1.1l1.3-1.3c-1.2-1-3-1.5-4.9-1.5-2.9 0-5 1.5-5 4 0 2.3 1.4 3.5 4.1 3.7l2.3.2c1.6.1 2.3.8 2.3 2 0 1.6-1.4 2.4-3.7 2.4-1.7 0-3.2-.4-4.3-1.6l-1.3 1.3c1.5 1.4 3.3 2 5.6 2 3.3 0 5.6-1.5 5.6-4.2-.2-2.5-1.8-3.4-4.2-3.6zm9.6-3.8l1.9-1.9h-3.8v-4.5h-2v14.2c0 2 1.2 3.7 3.5 3.7h1.4v-1.7h-1.1c-1.3 0-1.9-.8-1.9-2v-7.8h2zm7.5-2.4c-2.2 0-3.6.4-4.8 2l1.3 1.3c.8-1.1 1.7-1.6 3.5-1.6 2.5 0 3.5 1 3.5 3v1.3h-4.1c-3.1 0-4.7 1.6-4.7 4 0 1.1.4 2.1 1 2.8.9.9 2 1.3 3.9 1.3 1.8 0 2.8-.4 4-1.5v1.3h2v-9.3c-.1-3-1.9-4.6-5.6-4.6zm3.5 9.1c0 1.1-.2 1.9-.7 2.4-.9.8-1.9.9-3.1.9-2.2 0-3.1-.8-3.1-2.3 0-1.6 1-2.4 3.1-2.4h3.8v1.4zm92.9.5V25.4h-3.6v15.7c0 2 1.2 4.1 4.2 4.1h2v-3h-1.4c-.8 0-1.2-.4-1.2-1.3zm9.4-10.1c-2.1 0-3.5.8-4.4 1.8-1.3 1.3-1.6 3-1.6 5.5 0 2.6.3 4.2 1.6 5.6.9.9 2.3 1.8 4.4 1.8 2.1 0 3.6-.8 4.4-1.8 1.3-1.3 1.6-3 1.6-5.6 0-2.6-.3-4.2-1.6-5.5-.8-1-2.3-1.8-4.4-1.8zm1.7 10.8c-.4.4-1 .6-1.7.6s-1.2-.2-1.6-.6c-.7-.7-.8-2-.8-3.5s.1-2.7.8-3.5c.4-.4.9-.6 1.6-.6.7 0 1.3.2 1.7.6.7.7.8 2 .8 3.5s-.1 2.7-.8 3.5zm21.2-10.7l-2.3 8.8-2.9-8.8h-2.6l-2.9 8.8-2.3-8.8h-3.8l4.4 14.3h2.9l3-9 3 9H54l4.4-14.3h-3.8zm-73.1 0l-2.9 8.8-2.9-8.8h-3.8l5.3 14.3h2.8l5.2-14.3h-3.7zm29.3-1.4v15.8h3.6V33.9H17v-2.7h-2.6v-1.6c0-.8.4-1.3 1.3-1.3H17v-3h-2c-2.9.1-4.2 2.1-4.2 4.2zm-19.5 1.3c-3.7 0-6.2 2.6-6.2 7.3 0 5.8 3.2 7.3 6.6 7.3 2.6 0 4-.8 5.4-2.2l-2.2-2.1c-.9.9-1.7 1.3-3.2 1.3-2 0-3.1-1.3-3.1-3.2h8.9v-1.6c0-3.9-2.2-6.8-6.2-6.8zm-2.7 6c0-.6.1-1 .3-1.5.4-.9 1.2-1.5 2.4-1.5s2 .6 2.4 1.5c.2.4.3.8.3 1.5h-5.4zm14.2-4.5v-1.4H-.7v14.3h3.6v-8.6c0-1.8 1.2-2.6 2.3-2.6.9 0 1.3.3 1.9.8l2.6-2.7c-1-1-2-1.3-3.4-1.3-1.5 0-2.8.7-3.5 1.5zm-110.7 16.3h-23.7V38.4h-3.4V52h30.5V38.4h-3.4v10.2zm-2.7-10.9l-16.6-3.5-.7 3.3 16.6 3.5.7-3.3zm1.7-4.1l-15.4-7.2-1.4 3.1 15.4 7.2 1.4-3.1zm2.7-3.3l-13-10.8-2.2 2.6 13 10.8 2.2-2.6zm-5.1 11.5h-16.9v3.4h16.9v-3.4zm-4.5-25.8l10.1 13.6 2.7-2-10-13.6-2.8 2z" fill="#eee"/></svg>