<svg xmlns="http://www.w3.org/2000/svg" width="207.775" height="45.906" viewBox="0 0 207.775 45.906"><path fill="#EEE" d="M9.1 37.023H.5c-.3 0-.5-.1-.5-.4V.523c0-.3.2-.4.5-.4H9c.3 0 .6.1.6.4v2.2c0 .3-.2.4-.5.4H5.3c-.5 0-.6.2-.6.5v29.8c0 .3.2.4.6.4h3.8c.3 0 .6.1.6.4v2.3c-.1.3-.2.5-.6.5"/><path fill="#2EACE3" d="M28.764 22.39c-2.3.7-3.8 2-3.8 4.2v6.3c0 4.7-4.5 4.2-10 4.2h-.9c-.3 0-.6-.1-.6-.398v-2.2c0-.3.2-.4.5-.4h.7c3.3 0 5.6.7 5.6-1.9v-6c0-1.9 1.3-4.4 3.9-5.4.198 0 .198-.1.198-.2s-.1-.2-.2-.3c-2.398-1.1-3.898-2.8-3.898-5v-6.9c0-2.6-2.3-5.3-5.6-5.3h-.7c-.3 0-.5-.1-.5-.4v-2.2c0-.3.2-.4.6-.4h.9c5.6 0 10.1 4 10.1 8.7v5.7c0 2.2 1.6 3.4 3.9 4.2.898.3 1.3.3 1.3 1v1.8c0 .4-.4.6-1.5.9"/><path fill="#131210" d="M17.618 16.014c0 .5-.5.9-1 .9h-2.3c-.6 0-1-.4-1-.9v-2.1c0-.5.5-.9 1-.9h2.3c.6 0 1 .4 1 .9v2.1z"/><path fill="#EEE" d="M43.874 37.056c-3.3 0-5.8-.8-8-2.9l1.9-2c1.5 1.7 3.6 2.3 6 2.3 3.2 0 5.2-1.198 5.2-3.6 0-1.8-1-2.7-3.2-3l-3.2-.3c-3.8-.3-5.8-2.1-5.8-5.4 0-3.7 3-5.9 7.1-5.9 2.8 0 5.2.7 7 2.2l-1.9 1.9c-1.398-1.1-3.2-1.6-5.2-1.6-2.8 0-4.3 1.3-4.3 3.3 0 1.7.9 2.7 3.4 3l3.1.3c3.4.3 5.7 1.7 5.7 5.5.1 3.9-3.1 6.2-7.8 6.2M67.595 36.777v-2.3c-1.3 1.7-3.3 2.6-5.4 2.6s-3.8-.7-5-1.9c-1.4-1.4-2-3.3-2-5.7v-12.8h2.8v12.4c0 3.6 1.8 5.4 4.7 5.4 2.9 0 4.9-1.8 4.9-5.4v-12.4h2.8v20.2h-2.8v-.1zM83.35 19.006c-4.198 0-4.898 3.8-4.898 7.7s.7 7.7 4.9 7.7 4.898-3.8 4.898-7.7c-.1-3.9-.7-7.7-4.9-7.7m5.3 16.3c-1 1.1-2.8 1.8-4.7 1.8-2.1 0-3.898-.5-5.5-2.6v11.4h-2.8v-29.3h2.8v2.4c1.602-2.1 3.4-2.6 5.5-2.6 2 0 3.7.7 4.7 1.8 2 2 2.4 5.4 2.4 8.6 0 3.1-.4 6.4-2.4 8.5M106.602 21.909c-.8-1.802-2.5-3.002-4.5-3.002-2.1 0-3.8 1.2-4.5 3-.4 1.1-.5 1.7-.6 3.4h10.1c0-1.7-.1-2.3-.5-3.4m-9.7 5.6c0 4.4 2 7 5.7 7 2.2 0 3.6-.7 5.1-2.3l1.9 1.8c-2 2.1-3.8 3.1-7.1 3.1-5.1 0-8.5-3.2-8.5-10.3 0-6.5 3-10.3 8-10.3s8 3.8 8 9.8v1.2h-13.1zM124.865 20.48c-1.1-1.1-1.9-1.5-3.4-1.5-2.8 0-4.7 2.3-4.7 5.4v12.4h-2.7v-20.1h2.802v2.5c1.1-1.8 3.2-2.8 5.5-2.8 1.9 0 3.3.5 4.7 1.9l-2.202 2.2zM141.878 37.14v-1.9c-1.3 1.4-3.2 2.1-5.1 2.1-2.1 0-3.7-.7-4.9-1.8-1.7-1.7-2.1-3.6-2.1-5.8v-13.2h5.1v12.4c0 2.8 1.8 3.8 3.4 3.8 1.6 0 3.4-.9 3.4-3.8v-12.4h5.1v20.6h-4.9zM159.124 37.43c-3.2 0-6.2-.4-8.8-3l3.398-3.4c1.7 1.7 3.9 1.9 5.5 1.9 1.8 0 3.6-.6 3.6-2.1 0-1-.6-1.7-2.198-1.9l-3.2-.3c-3.7-.4-6-2-6-5.8 0-4.3 3.8-6.6 7.9-6.6 3.2 0 5.898.6 7.898 2.4l-3.2 3.2c-1.2-1.1-3-1.4-4.8-1.4-2.1 0-2.9.9-2.9 2 0 .7.302 1.6 2.102 1.8l3.2.3c4.1.4 6.1 2.6 6.1 6 .1 4.7-3.7 6.9-8.6 6.9M183.32 22.748c-.6-1.2-1.7-2.1-3.398-2.1s-2.9.9-3.4 2.1c-.3.8-.398 1.3-.5 2.2h7.8c-.1-.9-.2-1.5-.5-2.2m-7.3 5.7c0 2.6 1.6 4.6 4.5 4.6 2.2 0 3.4-.6 4.7-1.898l3.1 3c-2.1 2.1-4.1 3.2-7.8 3.2-4.9 0-9.5-2.2-9.5-10.5 0-6.7 3.6-10.5 9-10.5 5.7 0 9 4.2 9 9.8v2.3h-13zM203.775 22.17c-.8-.8-1.5-1.2-2.7-1.2-1.6 0-3.3 1.2-3.3 3.8v12.4h-5.1v-20.6h5v2c1-1.2 3-2.2 5.2-2.2 2 0 3.398.5 4.898 1.9l-3.998 3.9z"/><g fill="#F44"><path d="M129.815 3.1l1.4-.1.1.9c.4-.6 1.4-1.2 3.5-1.2s2.7.5 3 1.2c.5-.7 1.5-1.2 3.7-1.2 3.1 0 3.4 1.6 3.4 4v6h-1.7V7.1c0-1.6-.102-2.7-2.2-2.7-2.4 0-2.8 1.2-2.8 2.9v5.4h-1.7V7.1c0-1.6-.1-2.7-2.3-2.7-2.4 0-2.7 1.2-2.7 2.9v5.4h-1.7V3.1zM146.915 7.9c0-2.8.9-5.1 4.8-5.1 4 0 4.2 2.8 4.1 5.8h-7.2c.102 1.8.7 3 3.102 3 1.6 0 2.4-.4 3.1-1l.9 1.2c-1 .8-2.2 1.2-4 1.2-4.002 0-4.802-2.3-4.802-5.1zm1.7-.8h5.6c-.1-1.5-.2-2.7-2.5-2.7-2.3-.1-2.9 1-3.1 2.7zM157.014 3.1h1.8l.3-2.8 1.4-.3v3h2.6v1.5h-2.6v5.3c0 .9.1 1.4 1.4 1.4h1.2v1.5h-1.5c-2.3 0-2.8-.9-2.8-2.7V4.5h-1.802l.002-1.4zM164.415 10c0-2.8 1.6-3.6 6.4-3.6h.5c0-1.4-.4-2-2.4-2-1.2 0-2.3.4-2.9.8l-.9-1.3c.602-.4 2.2-1.1 3.9-1.1 3.3 0 3.9 1.1 3.9 3.9v3.5c0 .9.1 1.1 1 1.1v1.5h-.7c-1.1 0-1.4-.3-1.7-1.1-.6.8-1.6 1.3-3.7 1.3-2.7 0-3.4-1.3-3.4-3zm7-1.5v-.6h-.4c-4 0-4.9.5-4.9 2 0 1 .5 1.6 2.102 1.6 2.198 0 3.198-.9 3.198-3z"/></g></svg>