<svg xmlns="http://www.w3.org/2000/svg" width="294" height="109.5" viewBox="0 0 294 109.5" enable-background="new 0 0 294 109.5"><path fill="#EDB66F" d="M52.9 27.9h3.4l-9.2 23.7h-3.4L52.9 27.9zM56.3 32.9l0.8-2.1 3.5 1.3v-3.8h2.2v3.8l3.4-1.3 0.8 2.1 -3.6 1.2 2.2 3.1 -1.7 1.3 -2.3-3.1 -2.2 3.1 -1.9-1.3 2.3-2.9L56.3 32.9z"/><path fill="#EDB66F" d="M283.1 27.9h3.4l-9.2 23.7H273.9L283.1 27.9zM270.5 34.1l2.3 2.9 -1.9 1.3 -2.2-3.1 -2.3 3.1 -1.7-1.3 2.3-2.9 -3.6-1.2 0.8-2.1 3.4 1.3v-3.8h2.2v3.8l3.5-1.3 0.8 2.1L270.5 34.1z"/><path fill="#2A5C93" stroke="#777777" stroke-width="0.5" stroke-miterlimit="10" d="M80.8 27.4c1.1 0.2 2.1 1.3 3.1 3.3 0.3 0.8 0.3 1.4 0.2 2L84 33c-0.2 3.1-3.5 6.2-9.8 9.6 -1 0.9-1.3 2.2-1.1 4v0.2C73 47.3 73 48.4 73 50.2c-0.1 1.3-0.7 2-1.6 1.7 -0.8-0.1-1.2-1.3-1.4-3.6 0-1.3 0-2.5 0.2-3.6l0.1-0.5 0.4-4.6 0 0c0.1-0.7-0.1-2.5-0.5-5.5 -0.3-0.9-0.3-1.6-0.3-2.2V32c0.3-1.7 2-3.3 5-4.4C75.9 27 77.9 26.9 80.8 27.4zM72.6 32.3c-0.1 1 0.2 2.5 0.9 4.6l0.3 2.2c0.1 0.3 0.7 0.4 1.5 0.2 0.9-0.2 2.2-1.2 3.7-2.8 1.6-1.3 2.5-2.7 2.6-4.1 0.2-1-0.2-1.9-1.2-2.4 -2.6-0.2-4.4-0.1-5.2 0.2C73.3 30.9 72.4 31.6 72.6 32.3zM95.4 28.4L95.4 28.4c2.2 0.1 3.5 1.4 4 3.7 0.1 0.9 0.2 1.6 0.1 2.2 -0.1 0.9-0.4 2.5-1 4.9 -1.1 1.7-2.3 3.3-3.6 4.5l-2.3 1.6v0.1c0.1 0.4 0.4 0.7 1 0.8 5.1 1.7 7.6 3.5 7.5 5.2 -0.1 0.7-0.3 1-0.7 1 -0.5 0-2-0.7-4.3-1.9C92.8 50 91 49.4 90.5 49c-0.4-0.2-0.8-0.4-1.1-0.4H89c-0.2 0-0.4 1.1-0.5 3.4 -0.2 1-0.7 1.5-1.3 1.4 -1.4-0.1-2.1-1.5-1.9-4.4 0.1-1.1 0.1-3.2 0.1-6.1 0.4-7.2 3.6-12 9.5-14.4L95.4 28.4zM88.5 44.1v0.5h0.7c1.5-0.2 3.4-1.7 5.7-4.7 1.5-2.3 2.3-4 2.3-5.1V34c-0.1-1.3-0.9-2.1-2.2-2.2 -2 0.9-3.3 2.2-4.1 4C89.4 39.4 88.6 42 88.5 44.1zM108.2 27.5c1.1 0.3 2.2 1 3.2 2.1 1.4 1.6 2.1 4 2.1 6.9 0 2.4-0.7 5.2-2.1 8.5 -2 2.7-3.7 4.4-5.1 4.9 -0.9 0.2-1.5 0.4-2.2 0.4 -1.3 0-2.5-1.1-3.5-3.3 -0.5-1.6-0.9-3.4-0.9-5.2v-0.7c0-3.7 0.7-7.2 2.1-10.5 0.9-1.3 2.3-2.3 4.3-2.8C107.2 27.6 107.9 27.5 108.2 27.5zM102.7 41.6c0.2 2.4 0.8 4.1 1.6 5 0.7 0.7 1.3 0.8 2.1 0.2 0.8-0.5 1.7-1.7 2.7-3.6 0.9-1.9 1.2-3.8 1.2-5.9 0-2.8-0.7-4.8-1.9-6 -0.2-0.4-0.8-0.7-1.6-0.8 -1 0-2 0.9-2.9 2.7C103.1 35.8 102.7 38.6 102.7 41.6zM130.5 27.9c2.1 0.2 3.6 1.2 4.6 2.9 0.1 0.4 0.1 0.9 0.1 1.2 -0.1 1-0.8 1.9-1.9 2.6h-0.2c-0.9-0.1-1.2-0.8-1-2.1 0.1-0.7-0.3-1-1.1-1.1 -2.2-0.2-5.2 1.3-9.4 4.7 -2.1 1.9-3.2 3.5-3.4 5l-0.1 0.9c-0.2 1.4 0.9 2.6 3.1 3.6l0.5 0.1c1.9 0.2 4.3-1.1 7.2-3.9 4.6-2 7.1-2.9 7.4-2.9 1.1-0.2 2.2-0.2 3.3-0.1 1.3 0.2 2.2 0.7 2.6 1.5v0.5c0 0.2-1.5 0.7-4.4 1.3 -2.5 0.7-3.8 1.1-3.8 1.2l-0.1 1.2c-0.2 2-0.2 4.9 0.1 9h0.2c1.2 0.1 1.7 0.7 1.6 1.5 -0.5 1.1-1.2 1.5-2.1 1.4 -1.5-1.1-2.4-2.5-2.8-4.4 -0.2-2.6-0.1-4.9 0.1-6.7l-0.1-0.2c-1.5-0.2-3.3 0.4-5.2 1.9 -1.3 0.8-2.5 1.1-3.7 1 -3.6-0.4-5.7-2-6.2-4.7l-0.4-2c0.2-1.9 2.2-4.6 6-8.1 3.8-3.1 6.6-4.8 8-5.1C129.6 27.9 130.1 27.8 130.5 27.9zM151.3 28.4L151.3 28.4c2.2 0.1 3.5 1.4 4 3.7 0.1 0.9 0.2 1.6 0.1 2.2 -0.1 0.9-0.4 2.5-1 4.9 -1.1 1.7-2.3 3.3-3.6 4.5l-2.3 1.6v0.1c0.1 0.4 0.4 0.7 1 0.8 5.1 1.7 7.6 3.5 7.5 5.2 -0.1 0.7-0.3 1-0.7 1 -0.5 0-2-0.7-4.3-1.9 -3.3-0.5-5.1-1.1-5.6-1.5 -0.4-0.2-0.8-0.4-1.1-0.4h-0.4c-0.2 0-0.4 1.1-0.5 3.4 -0.2 1-0.7 1.5-1.3 1.4 -1.4-0.1-2.1-1.5-1.9-4.4 0.1-1.1 0.1-3.2 0.1-6.1 0.4-7.2 3.6-12 9.5-14.4L151.3 28.4zM144.5 44.1v0.5h0.7c1.5-0.2 3.4-1.7 5.7-4.7 1.5-2.3 2.3-4 2.3-5.1V34c-0.1-1.3-0.9-2.1-2.2-2.2 -2 0.9-3.3 2.2-4.1 4C145.3 39.4 144.6 42 144.5 44.1zM164 29.2c0.8 0.3 1.2 1.6 1.2 3.9 0.2 3.1 0.7 4.6 1.4 4.7h0.1c0.4 0.1 2.3-0.7 5.7-2.1 1.9-0.7 3.2-0.9 4-0.8l0.1 0.2v0.1c0.1 0.9-0.1 1.5-0.8 2.1 -4.5 1.2-7.1 2.3-7.9 3.3 -0.4 0.5-0.7 1.1-0.8 1.4 0.2 0.7 0.8 1.6 1.7 2.8 1.5 2.2 2.5 3.7 2.9 4.6 -0.4 0.5-0.9 0.8-1.3 0.8 -1-0.8-1.7-1.6-2.4-2.8 -1.1-1.3-2-2.4-2.7-3.4 -0.3-0.8-0.9-1.3-1.7-1.4 -1.5-0.4-2.7 0.1-3.4 1.7l-0.3 1.7 -0.2 3.8c0.1 1.2-0.4 1.9-1.7 2.3 -0.1 0-0.3 0.1-0.7 0H157c-0.4-0.5-0.5-1.3-0.2-2.3l0.3-3.9c0.5-4.8 2-9.6 4.1-14.6C162.3 29.8 163.1 29 164 29.2zM162.5 35.6c-0.8 0.9-1.2 2.1-1.3 3.5 0.2 0.3 0.4 0.8 0.8 1.1l0.9-0.1c0.2-0.2 0.4-0.5 0.8-1C163.7 37.5 163.2 36.3 162.5 35.6zM179.8 28L179.8 28c1.2 0 1.9 0.2 1.9 0.5l0.1 0.3c0.1 1-0.3 3.2-1.3 6.6 0.5 2.8 1.1 4.4 1.6 4.4 2.2-0.7 3.7-3.4 4.6-8 0.7-2.3 1.6-3.6 2.9-3.8 0.3 0 0.5 0.3 0.7 1l0.1 0.8c0.1 1.3-0.3 5-1.4 11.4 -0.1 3.9-0.1 6.2 0 6.9l0.9 3.3c-0.3 1.1-1 1.6-1.7 1.7H188.1c-1-0.5-1.5-1.4-1.7-2.7l-0.1-0.5c-0.1-0.7 0-3.3 0.2-8.1l0.4-3.1 -2.1 3.2 -2.8 1.6 -2.5-3.3c-0.8 4.5-1 8.4-0.8 11.9 0 1.3-0.2 2-0.8 2.1l-0.7 0.2c-0.8 0.1-1.2-0.2-1.4-1l-0.2-0.9c-0.2-6.2 0.8-13.5 2.9-22.1C179.1 29.3 179.5 28.5 179.8 28zM197.9 28L197.9 28c1.2 0 1.9 0.2 1.9 0.5l0.1 0.3c0.1 1-0.3 3.2-1.3 6.6 0.5 2.8 1.1 4.4 1.6 4.4 2.2-0.7 3.7-3.4 4.6-8 0.7-2.3 1.6-3.6 2.9-3.8 0.3 0 0.5 0.3 0.7 1l0.1 0.8c0.1 1.3-0.3 5-1.4 11.4 -0.1 3.9-0.1 6.2 0 6.9l0.9 3.3c-0.3 1.1-1 1.6-1.7 1.7h-0.1c-1-0.5-1.5-1.4-1.7-2.7l-0.1-0.5c-0.1-0.7 0-3.3 0.2-8.1l0.4-3.1 -2.1 3.2 -2.8 1.6 -2.5-3.3c-0.8 4.5-1 8.4-0.8 11.9 0 1.3-0.2 2-0.8 2.1l-0.7 0.2c-0.8 0.1-1.2-0.2-1.4-1l-0.2-0.9c-0.2-6.2 0.8-13.5 2.9-22.1C197 29.3 197.4 28.5 197.9 28zM212.9 33c1.3 0.1 2.3 1 2.6 2.5 0.1 0.5 0.2 1.1 0.1 1.7v0.1c0 0.4-0.2 1.3-0.5 2.6 0 0.7-0.2 1.3-0.5 2.1l0 0c1.9 0.2 3.5-0.9 5.1-3.1 1.1-1.4 2.1-2.2 2.7-2.3 0.2 0 0.4 0.3 0.4 0.8 -0.1 1.4-1.2 3.1-3.2 5.1 -1 0.9-2 1.4-3.2 1.7 -1.2 0.4-1.9 0.8-2 0.9v0.2c-0.1 1 0.2 2.1 1 3.3 0.3 0.3 0.7 0.5 1.1 0.5h0.2c1.6 0.1 3.4-0.8 5.3-2.7 0.5-0.4 1-0.7 1.2-0.7s0.4 0.3 0.7 0.8c-0.3 1-1.1 2-2.5 2.9 -1.1 0.8-2.7 1.5-4.7 2.3h-0.5c-1.7 0.4-3.3-0.9-4.4-4v-0.5l0.2-1.5v-0.2c0-0.3-0.3-0.9-1-1.5 -0.1-0.2-0.1-0.5-0.1-0.8 0-0.4 0.4-1 1.1-1.7l0.2-0.9c-0.2-1.6-0.1-3.3 0.2-4.7 0-1 0-1.6 0-2.1C212.5 33.2 212.6 32.9 212.9 33zM223.1 26.8c1.4 0.1 2.1 0.5 2.1 1.2 0 0.3-0.3 0.5-1 0.7 -1.5 0.8-2.7 1.3-3.6 1.6 -0.9 0.4-1.5 0.8-2 1.1 -0.4 0.2-1 0.5-1.7 1h-0.4c-1.1-0.3-1.6-0.9-1.6-1.6 0.1-1.4 2.6-2.7 7.5-3.9h0.7V26.8zM235 28.4L235 28.4c2.2 0.1 3.5 1.4 4 3.7 0.1 0.9 0.2 1.6 0.1 2.2 -0.1 0.9-0.4 2.5-1 4.9 -1.1 1.7-2.3 3.3-3.6 4.5l-2.3 1.6v0.1c0.1 0.4 0.4 0.7 1 0.8 5.1 1.7 7.6 3.5 7.5 5.2 -0.1 0.7-0.3 1-0.7 1 -0.5 0-2-0.7-4.3-1.9 -3.3-0.5-5.1-1.1-5.6-1.5 -0.4-0.2-0.8-0.4-1.1-0.4h-0.4c-0.2 0-0.4 1.1-0.5 3.4 -0.2 1-0.7 1.5-1.3 1.4 -1.4-0.1-2.1-1.5-1.9-4.4 0.1-1.1 0.1-3.2 0.1-6.1 0.4-7.2 3.6-12 9.5-14.4L235 28.4zM228.1 44.1v0.5h0.7c1.5-0.2 3.4-1.7 5.7-4.7 1.5-2.3 2.3-4 2.3-5.1V34c-0.1-1.3-0.9-2.1-2.2-2.2 -2 0.9-3.3 2.2-4.1 4C229 39.4 228.2 42 228.1 44.1zM254.3 30.5L254.3 30.5c1.6 0.2 2.5 1.2 2.9 3.1v0.8 0.2c-0.3 1.3-1 1.9-2.1 1.7 -0.3 0-0.5-0.3-0.7-1 -0.2-0.5-0.4-0.9-0.9-1l-0.4-0.1c-1.9-0.1-4.6 1-8.3 3.4 -0.8 0.5-1.2 1-1.2 1.2v0.1c0 0.2 0.3 0.5 1.2 1 0.9 0.2 3.5 0.8 7.9 1.5 1.3 0.4 2.4 0.9 3.2 1.3 1.4 1.1 2.1 2.2 1.9 3.4 -0.2 1.9-2.6 3.5-7.2 5.1 -2.2 0.8-4.3 1.1-6.1 0.8h-0.2c-1.5-0.2-2.3-0.5-2.5-1.1 -0.3-0.4-0.4-0.8-0.4-1.1 0.3-1.2 1-1.7 2-1.6l2.1 0.8c2.6 0.1 4.9-0.2 6.8-1.1 1.5-0.5 2.3-1.2 2.4-2.1 0.1-0.9-0.7-1.4-2.4-1.5H251.9l-6.6-0.5c-2.3-0.3-3.7-1.1-4.3-2.3 -0.5-0.9-0.8-1.7-0.7-2.6 0.3-2.4 3.2-4.7 8.6-7C251.9 31 253.6 30.4 254.3 30.5z"/><path fill="#555555" d="M87 28.4c0-2.5 0.1-8.5 0.1-11 0-3.7 1-5.2 4.9-5.1 28.7 0.6 57.3 0.9 86 1.4 1.4 0 2.8 0.4 4.8 0.7 0 3.2 0 6.3 0 9.5h3.1c0-4.2 0-8.4 0-12.7 -5.4-0.3-10.2-0.7-15-0.8 -25.8-0.4-51.6-0.7-77.4-1.1 -8.8-0.1-8.9 0.2-9 9.2 0 2.1-0.1 6.6-0.1 8.8L87 28.4zM25.4 40.3l0.4 2.1c0.4 2.5 0.8 4.7 1.1 6.7l2 7.6c0-4.4 0-7.9 0-11.4 0.4-0.1 0.8-0.1 1.2-0.2 0.8 4.2 1.6 8.4 2.4 12.6 0.3 0 0.7 0 1 0 0-3.3 0-6.5 0-9.8 0.4-0.1 0.8-0.3 1.2-0.4 1.4 3.1 2.7 6.1 4.7 10.4 0-15.4 0-29.3 0-42.1 8.9 0 17.5 0.1 26.2 0 4.7-0.1 7.2 0.6 6.7 6.6 -0.1 0.8-0.1 3.8-0.2 4.6l2.2-1.1c0-1.9 0-5-0.1-6.9s-2.5-5.1-3.9-5.2c-11-0.3-21.8-0.1-33.1-0.1 0 10.1 0 20.7 0 31.4 -0.5 0.2-1 0.4-1.5 0.6 -0.6-1.6-1.8-3.2-1.9-4.9 -0.2-10-0.1-19.9-0.1-30.7 3.4 0.2 7.3 0.6 11.2 0.8 9.4 0.5 18.9 0.7 28.3 1.4 1.6 0.1 4.2 2.1 4.2 3.3 0 3.1 0 6.6 0 9.7l2.8-0.5c0-3.1 0-6.3 0-9.4 0-4.1-0.9-6.1-5.8-6.3 -12.8-0.3-25.7-1.3-38.6-2.2 -1.5-0.1-3.1-0.7-4.6-1.1 -0.4 0-0.7 0-1.1 0 -7.9 8.4-3.1 18.9-4.7 28.4C25.2 35.8 25.4 37.4 25.4 40.3zM29.7 14.1c0.4 9 0.8 17.9 1.3 26.9 -0.6 0-1.3 0.1-1.9 0.1 -0.4-9-0.8-17.9-1.3-26.9C28.5 14.2 29.1 14.2 29.7 14.1zM254.8 93.2c-5.8 0.5-11.6 0.6-17.4 0.7 -4.2 0.1-7.5-1.3-9.6-5.4 -1.8-3.7-4.3-7.1-6.9-11.3 4.5 0.7 8.4 1.3 12.4 1.9 5.7 1 10.1-2.5 9.5-8.1 -0.4-4.6-0.9-10.3-1.4-14.8h-1.7c0.3 3.5 0.6 8 0.9 11.5 0.2 2.5-0.9 5.2-1.5 7.8 -0.9-0.1-1.8-0.3-2.6-0.4 -0.5-5.9-1-10.7-1.5-16.7h-3c0.5 6.1 1 11.2 1.5 17.5 -12.2-2.3-23.9-4.4-35.5-6.8 -1.2-0.2-3-1.8-3.1-2.8 -0.3-3-0.5-7-0.8-10h-2.8c0.2 2.9 0.3 6.8 0.5 9.7 0.2 4.6 2.2 6 6.1 6.6 2.9 0.4 5.7 1 8.6 1.6 0 7.2 2.5 14.6-4.1 20.7 -2.5 1.1-5 1.7-7.6-1.9 -3.7-5.1-14.1-5.2-19.3-0.8 -1.4 1.2-2.5 2.5-4.1 4.1 -0.5-1.6-0.7-3.2-1.4-4.2 -1.9-2.5-2.1-6.6-6.9-6.3 -1.5 0.1-3.5-1.8-4.6-3.3 -1.9-2.7-3.2-5.7-4.7-8.6 2.9-0.8 5.8-1.9 8.8-2.2 4.7-0.4 9.5-0.4 14.2-0.3 2.4 0 4.8 0.6 7.9 1.1 2.7-4.5 1.5-12 1.3-17.2h-3c0 3.5 0 9.2 0 12.7 -31.6 0-63.2 0-96.3 0 0-4-0.1-8.6 0-13.2 0-0.2 0-0.4 0-0.6h-2.8c0 4.9 0.3 9.8 0.8 14.7 0.5 5.3 4.8 3.3 7.7 3.3 9.1 0.2 18.1 0.1 27 0.1 -2.8 4.6-5.8 9.5-8.9 14.4 -1.6 2.5-3.6 4.4-6.3 1 -0.3-0.4-0.9-0.9-1.3-0.8 -5.6 1.2-11.7-0.3-16.9 2.6 -1.4 0.8-1.8 3.2-2.9 5.4 -3.1 0-6.8 0-9.3 0 -4.4-8-8.4-15.2-13-23.5 5.3 0 9.7-0.3 14.1 0.1 3.2 0.2 4.9-0.4 4.9-3.9 0-2.2 0.6-4.3 0.6-6.5 0-2.3 0-14.1 0-16.4l-3.2 1.1c-0.1 4.2-0.1 16.8-0.2 21 0 0.3-0.3 0.7-0.2 0.5 -7.7 0.6-15.1 1.1-23.4 1.7 2.5 6.2 4.5 11.1 6.6 16.2 -1.9 0-39.3 8-39.3 8 -2.7 0.3-6 0.8-9.8 1.2 0.7 3 1.3 5.5 1.9 7.9 81.9 0 163.8 0 245.6 0 0.3-1.4 1-2.8 1-4.2C259.3 94.8 258.4 92.9 254.8 93.2zM120.9 77.9c9.2-0.5 18.5-0.2 27.8-0.1 0.9 0 1.9 0.7 2.7 1.9 -10.3 0-20.7 0-31 0 0 0.8 0.1 1.7 0.1 2.5 4.6-0.4 9.3-0.8 13.9-1.1 8-0.4 16.3-2.6 23.3 3.3 1 0.8 1.2 2.6 1.7 3.9 -1.3-0.3-2.6-0.7-3.9-0.9 -2-0.2-5-1.2-5.8-0.2 -2.2 2.4-3.2 2.1-5.6 0.2 -1.4-1.1-4.5-0.3-6.8 0 -1.2 0.2-3.1 1.7-3.4 1.4 -5.4-5.7-12.3-1.9-18.3-3 -0.5-0.1-1-0.3-2.2-0.5C114.9 81.5 117 78.1 120.9 77.9zM164.8 95.9c-24.7-0.1-49.4-0.4-74.1-0.7 -2.5 0-5.5 0.3-4.6-4.6 7.3 0 14.7 0 22.1 0 17.4 0 34.9-0.1 52.3-0.1 1.6 0 3.4-0.2 4.8 0.4 1.3 0.5 2.1 2 3.2 3.1C167.3 94.7 166.1 96 164.8 95.9zM176.6 96.1c-0.1-0.6-0.3-1.2-0.4-1.8 3.5-1 7-1.9 10.4-2.9 0.8 2.3 1.2 3.5 1.6 4.7C184.3 96.1 180.5 96.1 176.6 96.1zM205.9 92.1c6.2 0.5 11.6 0.9 17 1.3C215.7 96.2 208.8 95.7 205.9 92.1zM210.1 73.6c4.8 5.9 9.2 11.3 13.3 16.3C209.6 91 207.3 88.6 210.1 73.6zM71.5 55.2c0 2-0.2 3.9-0.3 6.4 -6.2 0-11.9 0-17.5 0 0 0.6 0 1.2 0 1.7 6.4 0 12.7 0 20.1 0 0-3.2 0-6.4 0-9.5l-2.3-1.1C71.5 53.2 71.5 54.8 71.5 55.2zM191.5 26.1c-0.3-3.3-0.5-8.8-0.8-12.1 12.9-1.3 25-2.5 37.5-3.7 0.4 4.6 0.8 9.1 1.1 13.7h2.9c-0.4-4.3-0.7-8.6-1.1-12.9 0.5-0.2 1-0.4 1.5-0.7 1 1.8 2.6 3.5 2.9 5.4 0.3 2.7 0.6 6.6 0.9 9.3h1.3c0-0.2 0-0.4-0.1-0.6 0-0.4-0.2-0.7-0.1-1.1 0.8-6.7 0-13.8-6.6-17.5 -0.7 0-1.5 0-2.2 0 -6.9 1.1-13.9 2.3-20.8 3.3 -6.2 0.9-12.5 1.5-18.8 2.3 0 4.4-0.1 10.7-0.1 14.7L191.5 26.1 191.5 26.1z"/><path fill="#555555" d="M197.2 31.6c-0.1-1.2-0.1-10-0.2-11.2 10.3-1.6 18.7-2.9 26.9-4.1 0.1 2.5 0.3 13.8 0.4 16.4l3.5-1.1c-0.1-2.1-0.2-11.8-0.2-13.9 -0.1-4.2-1.7-5.2-5.1-4.6 -3.9 0.6-7.9 1.4-11.8 2.2 -5 1-11.8 0.6-14.3 3.7 -1 1.3-1.5 10.6-1.7 12.6H197.2L197.2 31.6zM229.5 52.8h-3.4c0.2 3.7 0.4 11.7 0.6 15.5 -2.6-0.4-5.6-0.5-8.5-1.2 -3.7-0.8-7.3-2.7-11-2.9 -5.3-0.2-7.7-2.7-8.3-7h-2.1c0.2 1.4 0.4 2.8 0.6 4.1 0.2 1.6 1.8 4 3.2 4.4 7.1 2.1 14.3 4.1 21.6 5.4 7.4 1.2 8.2-0.4 7.7-7.9C229.7 61.2 229.6 54.8 229.5 52.8z"/><path fill="#555555" d="M174.3 61.3c-1.7 2.1-7.7 1-11.9 1 -18.7-0.1-37.4-0.4-56.1-0.6 -4.1 0-8.2 0-12.5 0 0-2.6 0-6.3 0-9l-3.3 1.1c0 1.4-0.1 2.9-0.1 4.3 0 2.6-0.1 5.6 4 5.7 26.9 0.3 53.8 0.7 80.8 0.8 1.2 0 3.3-2.2 3.4-3.4 0-1.4 0-8.2 0-9.6l-3.1-1.1C175.4 52.3 175.1 60.3 174.3 61.3zM173.8 15.5c-6.4-0.1-12.7-0.1-19.1-0.1 -20.9 0-41.8 0-63.7 0 0 3.4 0 9.8 0 12.8l2.7-1.1c0-1.9 0-6.1 0-8 27.5 0 54.5 0 81.4 0 0 1.6 0 7.6 0 9.2l3.6-1.1c0-1.2 0-5.7 0-6.8C178.8 16.7 176.9 15.5 173.8 15.5z"/><polygon fill="#FFFFFF" points="20.7 66.4 21.8 62 48.6 61.3 53.1 63.8 53.1 93.7 48.9 96 31.9 97.1 23 94.8 22 93.1 21.8 83 19.2 81.5 13.5 74.7 13.6 68.9 19.2 67.8 "/><path fill="#D0D2D3" d="M42.7 63.1c0 0 1 10.5 1.1 14.6 0.1 4-1.1 19.9-1.1 19.9L53 95l0.1-31.9"/><path fill="#BE1E2D" d="M39.8 51.2c0.2-0.2-0.1-0.2 0.5-0.6 -0.2-0.1 0.4-0.5 0.2-0.7 -0.4-0.2-0.6-0.7-1.2-0.9 0.2-0.9-0.4-1-0.5-2.1 -0.5-0.5-0.9-0.9-1-1.7 -0.9 0-0.9-0.7-1.2-1.2 -0.3-0.5-1-0.9-1.1-1.6 -0.4-0.2-0.9-0.6-1.5-0.9 -0.5-0.2-1-0.5-1.6-0.9 -0.9 0.2-1.5 0.4-1.7-0.1 -0.1 0-0.2 0.1-0.4 0.1h-0.1l0 0h-0.1l0 0 0 0 0 0 0 0 0 0 0 0H30c-0.1 0.1-0.2 0.1-0.2 0.1 -0.3 0.3-0.7 0.3-0.8 0 -0.2-0.2-0.2 0.6-0.5 0.2 -0.1 0.5-0.2-0.4-0.2 0.4 -0.2-0.6-0.2-0.4-0.6-0.4 -0.6 0.9-1.1 0.2-2 0.9 -2 0-4-0.2-6-0.9 -1-0.1-2-0.5-2.7-1l-0.6-0.2 -0.5-0.4c-0.1-0.1-0.2-0.2-0.2-0.2 -0.1-0.2-0.2-0.4-0.4-0.5 -0.5 0.5-0.2-0.9-0.9 0 -0.4-0.1 0 0.4-0.4 0.7 0 0.2-0.4 0.6-0.5 0.9 0 0.2-0.1 0.4-0.2 0.7 0 0.2-0.1 0.5-0.1 0.7 0 0.5 0.1 1.1 0.4 1.5 0.5 0.1 0.7 0.4 1.1 0.6 0.4 0.3 0.5 0.3 0.7 0.5 0.4 0.2 0.7 0.4 1.2 0.7 0.2 0.1 0.4-0.2 0.5-0.4 0.1 0.6 0.9 0.4 1.1 0.9 0.4-0.2 0.6-0.1 0.9 0.2 0.2-0.7 0.5-0.1 0.7 0.2 0-0.4 0.2-0.5 0.4-0.4 1.2 0.5 1.8-0.1 3.2 0.2 0.2-0.2 0.6 0 0.9-0.2 0.1 0.6 0.6 0.2 0.9 0.5 0.9 0 1.6-0.2 2.4-0.2 0.5-0.4 1-0.5 1.5-0.6l0.2-0.1h0.2l0 0 0 0 0 0 0 0 0 0 0 0c0 0-0.2 0-0.1 0l0 0h0.1c0.2 0 0.6-0.1 0.9-0.2 -0.1 0.7 0.2 0 0.4 0.2 0.1 0.1 0 0.4 0.1 0.5 0 0.1 0.2-0.1 0.4-0.1 0.2 0.1 0.2 0.2 0.5 0.4 0.2 0.2 0.6 0.5 0.7 0.6 0.1 0 0.2-0.1 0.2 0 0.1 0-0.1 0.2-0.1 0.2 0.2 0.2 0.5 0.4 0.5 0.7 0.6 0.2 0.7 0.9 1.3 1.5 0.1 1 1.1 1.2 1 2.1 0.2 0.1 0.6 0 0.6 0.4 0.6-0.1-0.2 0.4 0 0.6 0.5-0.1 0.5 0.5 1 0.5 0.2 0.4 0.5 0.6 1 0.4 0.2-0.1 0.4-0.2 0.4-0.2C39 52.5 38.9 51.7 39.8 51.2zM34.3 48.4c0.1-0.1 0.2-0.1 0.2 0C34.4 48.6 34.1 48.6 34.3 48.4z"/><path fill="#BE1E2D" d="M31.6 56.9c0.2-0.2-0.1-0.2 0.5-0.7 -0.2-0.1 0.4-0.6 0.2-0.9 -0.4-0.2-0.9-0.7-1.5-0.7 0.2-0.9-0.6-0.9-0.9-1.8 -0.6-0.4-1-0.6-1.3-1.3 -0.4 0.1-0.6 0-0.9-0.1 -0.2-0.2-0.4-0.4-0.6-0.5 -0.4-0.2-1-0.4-1.3-1 -0.4-0.1-0.9-0.2-1.2-0.2 -0.5-0.1-0.9-0.2-1.5-0.5 -0.1 0.1-0.4 0.4-0.7 0.4 -0.2 0-0.2 0-0.5-0.2 -0.2 0.1-0.5 0.2-0.9 0.2 -0.1 0-0.2 0.1-0.2 0.1s-0.1 0-0.1-0.1c0 0 0 0 0-0.1l0 0 0 0 0 0 0 0 0 0h-0.1l0 0 0 0 0 0c-0.2-0.2-0.2 0.6-0.5 0.2 -0.1 0.5-0.2-0.4-0.2 0.4 -0.2-0.6-0.2-0.4-0.5-0.4 -0.6 1.1-1.1 0.4-1.7 1 -1.7 0.1-3.5 0.1-5.3-0.2 -1.8-0.3-3.2-1.3-3.4-2.3 -0.7 0.5-0.2-0.9-1 0 -0.2-0.1 0 0.4-0.4 0.5 0 0.2-0.4 0.6-0.6 0.9 -0.1 0.5-0.4 1-0.5 1.5 0 0.5 0 1 0.2 1.3 0.6 0.5 1.1 0.9 1.5 1 0.4 0.2 0.9 0.4 1.3 0.7 0.2 0.2 0.2-0.2 0.4-0.2 0.1 0.6 0.9 0.2 1.1 0.9 0.4-0.1 0.7-0.1 0.9 0.2 0.2-0.7 0.4-0.1 0.7 0.2 0-0.4 0.1-0.5 0.2-0.4 1.1 0.4 1.6-0.2 2.8 0.1 0.2-0.4 0.6-0.2 0.9-0.5 0.1 0.6 0.5 0.2 0.7 0.4 0.6-0.1 1.2-0.2 1.8-0.2 0.2-0.2 0.4-0.2 0.5-0.4 0.1 0 0.2-0.1 0.2-0.1h0.1l0 0 0 0 0 0 0 0c0.1 0-0.2 0-0.2 0l0 0 0 0 0 0h0.2c0.5 0 1 0 1.5-0.2 0.1 0.7 0.2 0.2 0.5 0.2 0.1 0 0.1 0.4 0.2 0.4s0.2-0.2 0.4-0.2c0.2 0.1 0.2 0.2 0.5 0.2 0.2 0.1 0.6 0.2 0.9 0.2 0.1 0 0.2-0.1 0.2-0.1 0.1 0-0.1 0.2-0.1 0.2 0.2 0.1 0.6 0.1 0.6 0.4 0.6 0.1 0.9 0.5 1.5 0.7 0.2 0.9 1.2 0.6 1.2 1.5 0.2 0.1 0.6-0.1 0.6 0.2 0.5-0.2-0.2 0.4 0 0.5 0.5-0.2 0.5 0.2 0.9 0.2 0.2 0.2 0.4 0.5 0.9 0.2 0.2-0.1 0.4-0.2 0.4-0.2C30.7 58.1 30.7 57.5 31.6 56.9zM25.9 55.5C25.9 55.5 26.1 55.5 25.9 55.5 26.1 55.5 25.9 55.6 25.9 55.5z"/><path fill="#2B2B2B" d="M22.3 94.3c-0.9 0.2-0.4-1.3-0.5-2 -0.4-0.2-0.2-1.5-0.5-2 0-0.9-0.2-2.1 0.2-2.7 -0.5-1.1-0.2-2.6-0.6-3.9 0-0.2-0.1-0.2-0.1-0.4l0.1 0.1c-0.5 0.1-1 0.1-1.6 0 -0.9-0.2-1.5-0.6-2.2-1.1 -1.5-0.9-3.2-2.8-3.9-5.1 -0.3-1-0.6-2.2-0.7-3.5 -0.1-0.6 0-1.1 0-1.6 0-0.2 0-0.5 0.1-0.9 0-0.2 0.1-0.7 0.2-1.1 0.1-0.2 0.2-0.6 0.2-0.9 0.1-0.2 0.2-0.5 0.4-0.7 0.2-0.4 0.6-0.9 1.2-1.2 1.2-0.5 2.2-0.6 3.2-0.7 0.9-0.1 1.8 0 2.6-0.1 0.1 0 0 0-0.1 0 -0.1 0-0.1 0.1-0.2 0.1h0.1l0 0 0 0c-0.6 0.5-0.2 0.2-0.2 0.2V67l-0.1 0.1c0 0.1-0.1 0.2-0.1 0.2l0 0v-0.1c0 0 0-0.1 0-0.2 0-0.2 0-0.7 0-1.1 0-0.9-0.1-1.6 0.1-2.4 0-0.2 0.1-0.5 0.1-0.7 0.1-0.2 0.2-0.7 0.2-0.9v-0.1l0 0 0 0 0.1-0.1 0 0 0 0c0.1-0.1 0.2-0.2 0.4-0.2 0.2-0.1 0.2-0.1 0.2-0.1l0.2-0.1c0.2-0.1 0.4-0.1 0.7-0.2 0.9-0.1 1.6-0.2 2.4-0.2 1.6-0.2 3.3-0.2 5.4-0.4 1.7 0.2 2.6-0.2 3.7 0.4 2.9-0.2 5.9-0.1 8.6 0.4 1.1-0.4 2.1-0.7 3.3-0.9 1.5-0.1 2.8 0 4.3 0.2 0.7 0.1 1.5 0.2 2.2 0.5 0.4 0.1 0.9 0.2 1.3 0.4 0.2 0.1 0.7 0.2 1 0.5l0.1 0.1h0.1l0 0 0 0 0.2 0.1 0 0 0 0c0.2 0.2 0.4 0.5 0.4 0.7 -0.1-0.2-0.2 0.4-0.1 0.6 0.4 0.5 0.5 1.5 0.5 2.3 -0.1 0.9-0.2 2-0.2 2.7 -0.1 1-0.2 2.4-0.2 4s0 3.2 0.2 5c-0.2 1.7-0.2 3.7-0.2 5.7 -0.2 2.1-0.2 4.2-0.2 6.4 0 2.1 0 4.4-0.4 6.4 -0.7 0.4-0.6-0.9-1-0.9 -0.5-0.2 0 2-0.4 0.7 -0.9 0.4-0.6-1.7-0.4-2 -0.2-1.1 0-1.8 0-2.7 -0.7-1.5-0.7-3.2-0.6-5 0-0.9 0-1.8 0.1-2.7 0.1-0.9 0.1-1.8 0.2-2.7 0.1-2-0.4-2.7 0-4.3 -0.2-1.2-0.4-2.9-0.4-4.8 0-1.8 0.1-3.8 0-5.5 0.2-0.9 0.2-1.6 0.2-2.1l0 0 0 0 0 0c0 0 0 0 0.1 0 0.2-0.2 0.4-0.2 0.6-0.2 0.1 0 0.1-0.1 0.2-0.2l0 0c0-0.1 0 0.2 0 0.1l0 0 0 0 0 0 -0.1 0.1 -0.4 0.4 -0.2 0.2L52 64.5l0 0 0 0 0 0 0 0h-0.1c-0.9-0.2-2-0.4-3.2-1 -4 0.6-7.9 0.4-13.6 0.2 -2.9-0.2-5.6-0.2-8.6-0.1 -1.5 0.1-2.8 0.1-4 0.2 -0.2 0-0.2 0-0.4 0.1 0 0-0.2 0-0.1 0l0 0 0 0 -0.6-0.5V63c0-0.2-0.1-0.4-0.2-0.5l0 0 0 0 0 0c0.4 0.2-1-0.6 1 0.5l0 0 0.1 0.1 0.1 0.2c0 0.1 0.1 0.2 0.1 0.2v-0.1 0.1c-0.1 0.2-0.1 0.9-0.1 1.6 -0.1 0.2-0.1 0.6-0.1 1.1 0 0.2 0 0.5 0 0.7v0.2 0.1 0.2 0.1c0 0 0 0.1 0 0.2s-0.1 0.2-0.1 0.2c0 0.1-0.1 0.2-0.1 0.2v0.1l0 0 0 0c-0.2 0.2 0.4-0.2-0.4 0.2l0 0 0 0h-0.2L21.3 69c-0.1 0-0.1 0-0.2 0 -0.2 0.1-0.4 0.1-0.5 0.1s-0.2 0-0.2 0c-0.2 0-0.4 0-0.6 0 -0.3-0.1-0.7-0.1-0.9-0.2 -0.7 0.2-1.7 0.5-2.6 0.7 -0.9 0.2-1.5 0.5-1.7 1 0 0.1 0 0.2 0.1 0.2v0.1l0 0c0-0.1 0 0 0 0l0 0c0 0.1 0 0.1 0 0.2 0 0.2 0 0.4 0.2 0.9 0 0.4-0.1 0.9 0 1.2 0 0.4 0.1 0.7 0.1 1.1 0 0.4 0.1 0.7 0.2 1.1 0.1 0.2 0.1 0.7 0.2 1 0.4 1.5 1.3 2.7 2.6 3.4 0.7 0.6 1.2 1 1.7 1.2 0.2 0.1 0.5 0.2 0.7 0.2 0.1 0 0.2 0.1 0.2 0.1h0.1 0.1l1.7 1.8c0.1 0.6 0.2 1.3 0.4 2.1 0.1 1.5-0.4 1.8 0.1 2.9 0 0.6 0.4 0.9 0 1 -0.2 1.5 0.2 1.8-0.4 2.3C22.5 92.6 23 94.2 22.3 94.3z"/><path fill="#231F20" d="M21.3 78.4c0.1 0 0.2 0 0.2-0.1 0.2-0.1 0.2-0.2 0.4-0.1 0.2-0.9 0.2-1 0.2-1.5 0-0.2-0.1-0.2-0.2-0.5 -0.1-0.1-0.1-0.2-0.2-0.2 -0.1-0.1-0.1-0.1-0.2-0.1 -0.1-0.1-0.2-0.1-0.2-0.1l-0.2-0.1H21c-0.1 0-0.2 0-0.2 0 -0.1 0-0.2 0-0.2 0.1 -0.1-0.4-0.2-0.1-0.4-0.4 -0.1 0-0.2 0.1-0.2-0.1 -0.5 0.2-0.5 0-0.5 0s-0.2 0 0-0.1c-0.1 0-0.4 0-0.2-0.1 -0.2 0-0.4-0.2-0.2-0.2 -0.1-0.1-0.2-0.2-0.2-0.2l0 0 0 0 0 0 0 0 0 0v0.1l0 0 0 0 0 0c0 0 0 0 0-0.1 0 0 0-0.1 0.1-0.1 0.1-0.1-0.2-0.1-0.2-0.2 -0.2 0 0.2 0-0.2-0.1 0.2 0 0.2 0 0.2-0.1 -0.4-0.1 0.1-0.1-0.1-0.4 0.2-0.5 0.7-1 1.2-1.1s1.1 0.2 1.5 0.6c0.1-0.2 0 0.2 0.2-0.2 0.1 0 0-0.2 0.1-0.4 0-0.1 0.1-0.2 0.1-0.5 0-0.4 0-1-0.2-1.2 -0.5-0.2-0.7-0.2-1.2-0.4 -0.1-0.1-0.1 0.1-0.1 0.2 -0.1-0.2-0.4 0-0.6-0.2 -0.1 0.1-0.2 0.1-0.5 0 0.1 0.4-0.2 0.2-0.4 0.1 0.1 0.2 0.1 0.2-0.1 0.2 -0.4 0.1-0.5 0.2-0.7 0.5 -0.1 0.1-0.2 0.2-0.6 0.6 0 0.2-0.2 0.2-0.1 0.4 -0.2-0.1-0.2 0.2-0.2 0.2C17 73 17 73.5 16.9 73.7c0.2 0.2 0.2 0.5 0.2 0.7v0.1l0 0 0 0v0.1l0 0 0 0 0 0c0 0 0 0.1 0.1 0.1 0 0.1 0.1 0.2 0.2 0.2 -0.2 0.1 0 0.2 0.1 0.4 0 0.1-0.2 0.2-0.1 0.2 0 0.1 0.2 0.1 0.2 0.2 0 0.2 0 0.4 0.1 0.5 0.1 0.2 0.2 0.4 0.4 0.4h0.1v0.2c0.1 0.1 0.2 0.1 0.2 0.2 0.2 0 0.5 0.2 0.9 0.2 0.2 0.2 0.6 0 0.9 0.2 0.1 0 0.2-0.2 0.2-0.1 0.1-0.2 0 0.2 0.1 0.2 0.1-0.1 0.1-0.1 0.2-0.1 0 0 0 0 0.1-0.1 -0.1-0.1-0.1-0.2 0-0.2 0 0 0 0.1 0.1 0.2 0.1 0.1 0.2 0.2 0.1 0.2C20.7 78.1 20.9 78 21.3 78.4zM18.9 77.4C18.9 77.3 18.9 77.2 18.9 77.4L18.9 77.4z"/><path fill="#2B2B2B" d="M52.5 95.1c0.2 0.6-0.2 0.2-0.5 0.4 0 0.2-0.4 0.2-0.5 0.4 -0.2 0-0.6 0.2-0.9-0.1 -0.2 0.4-0.7 0.2-1.1 0.5 -0.2 0.1-0.2 0.2-0.5 0.4 -0.2 0.1-0.4 0.1-0.6 0.2 -0.4 0.2-1 0.6-1.7 0.9 -0.6 0.2-1.3 0.2-2 0 -0.2 0.2-0.4 0.6-0.6 0.6 -1.1-0.1-2.1-0.2-2.9-0.2 -0.8 0-1.7 0-2.9 0.2 -0.5-0.2-0.7 0.2-1.1-0.2C36.3 98.4 35.4 98.3 34.6 98c-0.2 0.2-0.7 0.5-1 0.6 -0.9 0.2-1.5-0.4-2.7-0.4 0 0 0-0.2-0.1-0.2 -0.2 0.5-1 0.1-1.5 0.1 -0.6 0-1.7-0.1-2.8-0.1 -0.5-0.2-1-0.5-1.7-0.6 -0.5-0.4-1.1-0.6-1.7-1C22.9 96 22.5 96 22.3 95.6c-0.1-0.1-0.2-0.2-0.4-0.4C21.8 95.1 21.8 95 21.7 95c0 0-0.1-0.2-0.2-0.2 -0.1-0.1 0-0.1 0-0.2 0.2-0.2 0.2-0.1 0.5-0.1 0.1 0 0.2 0 0.2-0.1 0.1-0.1 0-0.2 0.1-0.2 -0.2 0.1-0.2 0-0.2 0.1l0 0h0.1c0 0 0.1 0 0.2-0.1 -0.1 0.1 0 0 0.2-0.2 0 0 0.1-0.1 0.1-0.2v-0.1l0 0 0 0 0.1 0.2c0.2 0 0.4 0.2 0.6 0.4 0.9 0.1 1.8 0.9 2.8 1.2 0.5 0.2 0.9-0.1 1.2 0.2 0.9-0.2 2.1-0.2 3.2-0.4 1 0.5 1.5 0 2.1 0.7 1.3-0.6 2.3-0.4 3.9-0.2h0.1l0 0 0 0 0 0 0 0c-0.2 0 0 0-0.1 0l0 0 0 0h0.2H37c0.2 0 0.4 0 0.6 0 0.4 0 0.9 0 1.2 0 0.9 0 1.7 0 2.6 0 0.4 0.2 1-0.2 1.2 0.4 0.4-0.4 1.2-0.1 1.7 0 0.2-0.4 0.2-0.2 0.4-0.4 1 0.1 1.8-0.1 2.8-0.7 1-0.2 1.3-0.1 2-0.6 0.4-0.1 0.6 0.2 0.9-0.1 0.2 0 0.2-0.2 0.2 0 0.4 0.1 0.5-0.2 0.7 0.2C51.9 94.9 52.4 94.5 52.5 95.1z"/></svg>