<svg xmlns="http://www.w3.org/2000/svg" width="294" height="109.5" viewBox="0 0 294 109.5"><path fill="#EDB66F" d="M52.9 27.9h3.4l-9.2 23.7h-3.4l9.2-23.7zm3.4 5l.8-2.1 3.5 1.3v-3.8h2.2v3.8l3.4-1.3.8 2.1-3.6 1.2 2.2 3.1-1.7 1.3-2.3-3.1-2.2 3.1-1.9-1.3 2.3-2.9-3.5-1.4zM283.1 27.9h3.4l-9.2 23.7h-3.4l9.2-23.7zm-12.6 6.2l2.3 2.9-1.9 1.3-2.2-3.1-2.3 3.1-1.7-1.3 2.3-2.9-3.6-1.2.8-2.1 3.4 1.3v-3.8h2.2v3.8l3.5-1.3.8 2.1-3.6 1.2z"/><path fill="#2A5C93" stroke="#777" stroke-width=".5" stroke-miterlimit="10" d="M80.8 27.4c1.1.2 2.1 1.3 3.1 3.3.3.8.3 1.4.2 2l-.1.3c-.2 3.1-3.5 6.2-9.8 9.6-1 .9-1.3 2.2-1.1 4v.2c-.1.5-.1 1.6-.1 3.4-.1 1.3-.7 2-1.6 1.7-.8-.1-1.2-1.3-1.4-3.6 0-1.3 0-2.5.2-3.6l.1-.5.4-4.6c.1-.7-.1-2.5-.5-5.5-.3-.9-.3-1.6-.3-2.2v.1c.3-1.7 2-3.3 5-4.4 1-.6 3-.7 5.9-.2zm-8.2 4.9c-.1 1 .2 2.5.9 4.6l.3 2.2c.1.3.7.4 1.5.2.9-.2 2.2-1.2 3.7-2.8 1.6-1.3 2.5-2.7 2.6-4.1.2-1-.2-1.9-1.2-2.4-2.6-.2-4.4-.1-5.2.2-1.9.7-2.8 1.4-2.6 2.1zm22.8-3.9c2.2.1 3.5 1.4 4 3.7.1.9.2 1.6.1 2.2-.1.9-.4 2.5-1 4.9-1.1 1.7-2.3 3.3-3.6 4.5l-2.3 1.6v.1c.1.4.4.7 1 .8 5.1 1.7 7.6 3.5 7.5 5.2-.1.7-.3 1-.7 1-.5 0-2-.7-4.3-1.9-3.3-.5-5.1-1.1-5.6-1.5-.4-.2-.8-.4-1.1-.4H89c-.2 0-.4 1.1-.5 3.4-.2 1-.7 1.5-1.3 1.4-1.4-.1-2.1-1.5-1.9-4.4.1-1.1.1-3.2.1-6.1.4-7.2 3.6-12 9.5-14.4l.5-.1zm-6.9 15.7v.5h.7c1.5-.2 3.4-1.7 5.7-4.7 1.5-2.3 2.3-4 2.3-5.1V34c-.1-1.3-.9-2.1-2.2-2.2-2 .9-3.3 2.2-4.1 4-1.5 3.6-2.3 6.2-2.4 8.3zm19.7-16.6c1.1.3 2.2 1 3.2 2.1 1.4 1.6 2.1 4 2.1 6.9 0 2.4-.7 5.2-2.1 8.5-2 2.7-3.7 4.4-5.1 4.9-.9.2-1.5.4-2.2.4-1.3 0-2.5-1.1-3.5-3.3-.5-1.6-.9-3.4-.9-5.2v-.7c0-3.7.7-7.2 2.1-10.5.9-1.3 2.3-2.3 4.3-2.8 1.1-.2 1.8-.3 2.1-.3zm-5.5 14.1c.2 2.4.8 4.1 1.6 5 .7.7 1.3.8 2.1.2.8-.5 1.7-1.7 2.7-3.6.9-1.9 1.2-3.8 1.2-5.9 0-2.8-.7-4.8-1.9-6-.2-.4-.8-.7-1.6-.8-1 0-2 .9-2.9 2.7-.8 2.6-1.2 5.4-1.2 8.4zm27.8-13.7c2.1.2 3.6 1.2 4.6 2.9.1.4.1.9.1 1.2-.1 1-.8 1.9-1.9 2.6h-.2c-.9-.1-1.2-.8-1-2.1.1-.7-.3-1-1.1-1.1-2.2-.2-5.2 1.3-9.4 4.7-2.1 1.9-3.2 3.5-3.4 5l-.1.9c-.2 1.4.9 2.6 3.1 3.6l.5.1c1.9.2 4.3-1.1 7.2-3.9 4.6-2 7.1-2.9 7.4-2.9 1.1-.2 2.2-.2 3.3-.1 1.3.2 2.2.7 2.6 1.5v.5c0 .2-1.5.7-4.4 1.3-2.5.7-3.8 1.1-3.8 1.2l-.1 1.2c-.2 2-.2 4.9.1 9h.2c1.2.1 1.7.7 1.6 1.5-.5 1.1-1.2 1.5-2.1 1.4-1.5-1.1-2.4-2.5-2.8-4.4-.2-2.6-.1-4.9.1-6.7l-.1-.2c-1.5-.2-3.3.4-5.2 1.9-1.3.8-2.5 1.1-3.7 1-3.6-.4-5.7-2-6.2-4.7l-.4-2c.2-1.9 2.2-4.6 6-8.1 3.8-3.1 6.6-4.8 8-5.1.2-.2.7-.3 1.1-.2zm20.8.5c2.2.1 3.5 1.4 4 3.7.1.9.2 1.6.1 2.2-.1.9-.4 2.5-1 4.9-1.1 1.7-2.3 3.3-3.6 4.5l-2.3 1.6v.1c.1.4.4.7 1 .8 5.1 1.7 7.6 3.5 7.5 5.2-.1.7-.3 1-.7 1-.5 0-2-.7-4.3-1.9-3.3-.5-5.1-1.1-5.6-1.5-.4-.2-.8-.4-1.1-.4h-.4c-.2 0-.4 1.1-.5 3.4-.2 1-.7 1.5-1.3 1.4-1.4-.1-2.1-1.5-1.9-4.4.1-1.1.1-3.2.1-6.1.4-7.2 3.6-12 9.5-14.4l.5-.1zm-6.8 15.7v.5h.7c1.5-.2 3.4-1.7 5.7-4.7 1.5-2.3 2.3-4 2.3-5.1V34c-.1-1.3-.9-2.1-2.2-2.2-2 .9-3.3 2.2-4.1 4-1.6 3.6-2.3 6.2-2.4 8.3zM164 29.2c.8.3 1.2 1.6 1.2 3.9.2 3.1.7 4.6 1.4 4.7h.1c.4.1 2.3-.7 5.7-2.1 1.9-.7 3.2-.9 4-.8l.1.2v.1c.1.9-.1 1.5-.8 2.1-4.5 1.2-7.1 2.3-7.9 3.3-.4.5-.7 1.1-.8 1.4.2.7.8 1.6 1.7 2.8 1.5 2.2 2.5 3.7 2.9 4.6-.4.5-.9.8-1.3.8-1-.8-1.7-1.6-2.4-2.8-1.1-1.3-2-2.4-2.7-3.4-.3-.8-.9-1.3-1.7-1.4-1.5-.4-2.7.1-3.4 1.7l-.3 1.7-.2 3.8c.1 1.2-.4 1.9-1.7 2.3-.1 0-.3.1-.7 0h-.2c-.4-.5-.5-1.3-.2-2.3l.3-3.9c.5-4.8 2-9.6 4.1-14.6 1.1-1.5 1.9-2.3 2.8-2.1zm-1.5 6.4c-.8.9-1.2 2.1-1.3 3.5.2.3.4.8.8 1.1l.9-.1c.2-.2.4-.5.8-1 0-1.6-.5-2.8-1.2-3.5zm17.3-7.6c1.2 0 1.9.2 1.9.5l.1.3c.1 1-.3 3.2-1.3 6.6.5 2.8 1.1 4.4 1.6 4.4 2.2-.7 3.7-3.4 4.6-8 .7-2.3 1.6-3.6 2.9-3.8.3 0 .5.3.7 1l.1.8c.1 1.3-.3 5-1.4 11.4-.1 3.9-.1 6.2 0 6.9l.9 3.3c-.3 1.1-1 1.6-1.7 1.7h-.1c-1-.5-1.5-1.4-1.7-2.7l-.1-.5c-.1-.7 0-3.3.2-8.1l.4-3.1-2.1 3.2-2.8 1.6-2.5-3.3c-.8 4.5-1 8.4-.8 11.9 0 1.3-.2 2-.8 2.1l-.7.2c-.8.1-1.2-.2-1.4-1l-.2-.9c-.2-6.2.8-13.5 2.9-22.1.6-1.1 1-1.9 1.3-2.4zm18.1 0c1.2 0 1.9.2 1.9.5l.1.3c.1 1-.3 3.2-1.3 6.6.5 2.8 1.1 4.4 1.6 4.4 2.2-.7 3.7-3.4 4.6-8 .7-2.3 1.6-3.6 2.9-3.8.3 0 .5.3.7 1l.1.8c.1 1.3-.3 5-1.4 11.4-.1 3.9-.1 6.2 0 6.9l.9 3.3c-.3 1.1-1 1.6-1.7 1.7h-.1c-1-.5-1.5-1.4-1.7-2.7l-.1-.5c-.1-.7 0-3.3.2-8.1l.4-3.1-2.1 3.2-2.8 1.6-2.5-3.3c-.8 4.5-1 8.4-.8 11.9 0 1.3-.2 2-.8 2.1l-.7.2c-.8.1-1.2-.2-1.4-1l-.2-.9c-.2-6.2.8-13.5 2.9-22.1.4-1.1.8-1.9 1.3-2.4zm15 5c1.3.1 2.3 1 2.6 2.5.1.5.2 1.1.1 1.7v.1c0 .4-.2 1.3-.5 2.6 0 .7-.2 1.3-.5 2.1 1.9.2 3.5-.9 5.1-3.1 1.1-1.4 2.1-2.2 2.7-2.3.2 0 .4.3.4.8-.1 1.4-1.2 3.1-3.2 5.1-1 .9-2 1.4-3.2 1.7-1.2.4-1.9.8-2 .9v.2c-.1 1 .2 2.1 1 3.3.3.3.7.5 1.1.5h.2c1.6.1 3.4-.8 5.3-2.7.5-.4 1-.7 1.2-.7s.4.3.7.8c-.3 1-1.1 2-2.5 2.9-1.1.8-2.7 1.5-4.7 2.3h-.5c-1.7.4-3.3-.9-4.4-4v-.5l.2-1.5v-.2c0-.3-.3-.9-1-1.5-.1-.2-.1-.5-.1-.8 0-.4.4-1 1.1-1.7l.2-.9c-.2-1.6-.1-3.3.2-4.7v-2.1c.1-.6.2-.9.5-.8zm10.2-6.2c1.4.1 2.1.5 2.1 1.2 0 .3-.3.5-1 .7-1.5.8-2.7 1.3-3.6 1.6-.9.4-1.5.8-2 1.1-.4.2-1 .5-1.7 1h-.4c-1.1-.3-1.6-.9-1.6-1.6.1-1.4 2.6-2.7 7.5-3.9h.7v-.1zm11.9 1.6c2.2.1 3.5 1.4 4 3.7.1.9.2 1.6.1 2.2-.1.9-.4 2.5-1 4.9-1.1 1.7-2.3 3.3-3.6 4.5l-2.3 1.6v.1c.1.4.4.7 1 .8 5.1 1.7 7.6 3.5 7.5 5.2-.1.7-.3 1-.7 1-.5 0-2-.7-4.3-1.9-3.3-.5-5.1-1.1-5.6-1.5-.4-.2-.8-.4-1.1-.4h-.4c-.2 0-.4 1.1-.5 3.4-.2 1-.7 1.5-1.3 1.4-1.4-.1-2.1-1.5-1.9-4.4.1-1.1.1-3.2.1-6.1.4-7.2 3.6-12 9.5-14.4l.5-.1zm-6.9 15.7v.5h.7c1.5-.2 3.4-1.7 5.7-4.7 1.5-2.3 2.3-4 2.3-5.1V34c-.1-1.3-.9-2.1-2.2-2.2-2 .9-3.3 2.2-4.1 4-1.5 3.6-2.3 6.2-2.4 8.3zm26.2-13.6c1.6.2 2.5 1.2 2.9 3.1v1c-.3 1.3-1 1.9-2.1 1.7-.3 0-.5-.3-.7-1-.2-.5-.4-.9-.9-1l-.4-.1c-1.9-.1-4.6 1-8.3 3.4-.8.5-1.2 1-1.2 1.2v.1c0 .2.3.5 1.2 1 .9.2 3.5.8 7.9 1.5 1.3.4 2.4.9 3.2 1.3 1.4 1.1 2.1 2.2 1.9 3.4-.2 1.9-2.6 3.5-7.2 5.1-2.2.8-4.3 1.1-6.1.8h-.2c-1.5-.2-2.3-.5-2.5-1.1-.3-.4-.4-.8-.4-1.1.3-1.2 1-1.7 2-1.6l2.1.8c2.6.1 4.9-.2 6.8-1.1 1.5-.5 2.3-1.2 2.4-2.1.1-.9-.7-1.4-2.4-1.5h-.4l-6.6-.5c-2.3-.3-3.7-1.1-4.3-2.3-.5-.9-.8-1.7-.7-2.6.3-2.4 3.2-4.7 8.6-7 3-.9 4.7-1.5 5.4-1.4z"/><path fill="#555" d="M87 28.4c0-2.5.1-8.5.1-11 0-3.7 1-5.2 4.9-5.1 28.7.6 57.3.9 86 1.4 1.4 0 2.8.4 4.8.7v9.5h3.1V11.2c-5.4-.3-10.2-.7-15-.8-25.8-.4-51.6-.7-77.4-1.1-8.8-.1-8.9.2-9 9.2 0 2.1-.1 6.6-.1 8.8l2.6 1.1zM25.4 40.3l.4 2.1c.4 2.5.8 4.7 1.1 6.7l2 7.6V45.3c.4-.1.8-.1 1.2-.2l2.4 12.6h1v-9.8c.4-.1.8-.3 1.2-.4 1.4 3.1 2.7 6.1 4.7 10.4V15.8c8.9 0 17.5.1 26.2 0 4.7-.1 7.2.6 6.7 6.6-.1.8-.1 3.8-.2 4.6l2.2-1.1c0-1.9 0-5-.1-6.9s-2.5-5.1-3.9-5.2c-11-.3-21.8-.1-33.1-.1v31.4l-1.5.6c-.6-1.6-1.8-3.2-1.9-4.9-.2-10-.1-19.9-.1-30.7 3.4.2 7.3.6 11.2.8 9.4.5 18.9.7 28.3 1.4 1.6.1 4.2 2.1 4.2 3.3v9.7l2.8-.5v-9.4c0-4.1-.9-6.1-5.8-6.3-12.8-.3-25.7-1.3-38.6-2.2-1.5-.1-3.1-.7-4.6-1.1h-1.1c-7.9 8.4-3.1 18.9-4.7 28.4-.2 1.6 0 3.2 0 6.1zm4.3-26.2c.4 9 .8 17.9 1.3 26.9-.6 0-1.3.1-1.9.1-.4-9-.8-17.9-1.3-26.9.7 0 1.3 0 1.9-.1zm225.1 79.1c-5.8.5-11.6.6-17.4.7-4.2.1-7.5-1.3-9.6-5.4-1.8-3.7-4.3-7.1-6.9-11.3 4.5.7 8.4 1.3 12.4 1.9 5.7 1 10.1-2.5 9.5-8.1-.4-4.6-.9-10.3-1.4-14.8h-1.7c.3 3.5.6 8 .9 11.5.2 2.5-.9 5.2-1.5 7.8-.9-.1-1.8-.3-2.6-.4-.5-5.9-1-10.7-1.5-16.7h-3c.5 6.1 1 11.2 1.5 17.5-12.2-2.3-23.9-4.4-35.5-6.8-1.2-.2-3-1.8-3.1-2.8-.3-3-.5-7-.8-10h-2.8c.2 2.9.3 6.8.5 9.7.2 4.6 2.2 6 6.1 6.6 2.9.4 5.7 1 8.6 1.6 0 7.2 2.5 14.6-4.1 20.7-2.5 1.1-5 1.7-7.6-1.9-3.7-5.1-14.1-5.2-19.3-.8-1.4 1.2-2.5 2.5-4.1 4.1-.5-1.6-.7-3.2-1.4-4.2-1.9-2.5-2.1-6.6-6.9-6.3-1.5.1-3.5-1.8-4.6-3.3-1.9-2.7-3.2-5.7-4.7-8.6 2.9-.8 5.8-1.9 8.8-2.2 4.7-.4 9.5-.4 14.2-.3 2.4 0 4.8.6 7.9 1.1 2.7-4.5 1.5-12 1.3-17.2h-3V68H86.7c0-4-.1-8.6 0-13.2v-.6h-2.8c0 4.9.3 9.8.8 14.7.5 5.3 4.8 3.3 7.7 3.3 9.1.2 18.1.1 27 .1-2.8 4.6-5.8 9.5-8.9 14.4-1.6 2.5-3.6 4.4-6.3 1-.3-.4-.9-.9-1.3-.8-5.6 1.2-11.7-.3-16.9 2.6-1.4.8-1.8 3.2-2.9 5.4h-9.3c-4.4-8-8.4-15.2-13-23.5 5.3 0 9.7-.3 14.1.1 3.2.2 4.9-.4 4.9-3.9 0-2.2.6-4.3.6-6.5V44.7l-3.2 1.1c-.1 4.2-.1 16.8-.2 21 0 .3-.3.7-.2.5-7.7.6-15.1 1.1-23.4 1.7 2.5 6.2 4.5 11.1 6.6 16.2-1.9 0-39.3 8-39.3 8-2.7.3-6 .8-9.8 1.2.7 3 1.3 5.5 1.9 7.9h245.6c.3-1.4 1-2.8 1-4.2-.1-3.3-1-5.2-4.6-4.9zM120.9 77.9c9.2-.5 18.5-.2 27.8-.1.9 0 1.9.7 2.7 1.9h-31c0 .8.1 1.7.1 2.5 4.6-.4 9.3-.8 13.9-1.1 8-.4 16.3-2.6 23.3 3.3 1 .8 1.2 2.6 1.7 3.9-1.3-.3-2.6-.7-3.9-.9-2-.2-5-1.2-5.8-.2-2.2 2.4-3.2 2.1-5.6.2-1.4-1.1-4.5-.3-6.8 0-1.2.2-3.1 1.7-3.4 1.4-5.4-5.7-12.3-1.9-18.3-3-.5-.1-1-.3-2.2-.5 1.5-3.8 3.6-7.2 7.5-7.4zm43.9 18c-24.7-.1-49.4-.4-74.1-.7-2.5 0-5.5.3-4.6-4.6h22.1c17.4 0 34.9-.1 52.3-.1 1.6 0 3.4-.2 4.8.4 1.3.5 2.1 2 3.2 3.1-1.2.7-2.4 2-3.7 1.9zm11.8.2c-.1-.6-.3-1.2-.4-1.8 3.5-1 7-1.9 10.4-2.9.8 2.3 1.2 3.5 1.6 4.7h-11.6zm29.3-4c6.2.5 11.6.9 17 1.3-7.2 2.8-14.1 2.3-17-1.3zm4.2-18.5c4.8 5.9 9.2 11.3 13.3 16.3-13.8 1.1-16.1-1.3-13.3-16.3zM71.5 55.2c0 2-.2 3.9-.3 6.4H53.7v1.7h20.1v-9.5l-2.3-1.1v2.5zm120-29.1c-.3-3.3-.5-8.8-.8-12.1 12.9-1.3 25-2.5 37.5-3.7.4 4.6.8 9.1 1.1 13.7h2.9c-.4-4.3-.7-8.6-1.1-12.9.5-.2 1-.4 1.5-.7 1 1.8 2.6 3.5 2.9 5.4.3 2.7.6 6.6.9 9.3h1.3c0-.2 0-.4-.1-.6 0-.4-.2-.7-.1-1.1.8-6.7 0-13.8-6.6-17.5h-2.2c-6.9 1.1-13.9 2.3-20.8 3.3-6.2.9-12.5 1.5-18.8 2.3 0 4.4-.1 10.7-.1 14.7l2.5-.1z"/><path fill="#555" d="M197.2 31.6c-.1-1.2-.1-10-.2-11.2 10.3-1.6 18.7-2.9 26.9-4.1.1 2.5.3 13.8.4 16.4l3.5-1.1c-.1-2.1-.2-11.8-.2-13.9-.1-4.2-1.7-5.2-5.1-4.6-3.9.6-7.9 1.4-11.8 2.2-5 1-11.8.6-14.3 3.7-1 1.3-1.5 10.6-1.7 12.6h2.5zm32.3 21.2h-3.4c.2 3.7.4 11.7.6 15.5-2.6-.4-5.6-.5-8.5-1.2-3.7-.8-7.3-2.7-11-2.9-5.3-.2-7.7-2.7-8.3-7h-2.1c.2 1.4.4 2.8.6 4.1.2 1.6 1.8 4 3.2 4.4 7.1 2.1 14.3 4.1 21.6 5.4 7.4 1.2 8.2-.4 7.7-7.9-.2-2-.3-8.4-.4-10.4zM174.3 61.3c-1.7 2.1-7.7 1-11.9 1-18.7-.1-37.4-.4-56.1-.6H93.8v-9l-3.3 1.1c0 1.4-.1 2.9-.1 4.3 0 2.6-.1 5.6 4 5.7 26.9.3 53.8.7 80.8.8 1.2 0 3.3-2.2 3.4-3.4v-9.6l-3.1-1.1c-.1 1.8-.4 9.8-1.2 10.8zm-.5-45.8c-6.4-.1-12.7-.1-19.1-.1H91v12.8l2.7-1.1v-8h81.4v9.2l3.6-1.1v-6.8c.1-3.7-1.8-4.9-4.9-4.9z"/><path fill="#FFF" d="M20.7 66.4l1.1-4.4 26.8-.7 4.5 2.5v29.9L48.9 96l-17 1.1-8.9-2.3-1-1.7-.2-10.1-2.6-1.5-5.7-6.8.1-5.8 5.6-1.1"/><path fill="#D0D2D3" d="M42.7 63.1s1 10.5 1.1 14.6c.1 4-1.1 19.9-1.1 19.9L53 95l.1-31.9"/><path fill="#BE1E2D" d="M39.8 51.2c.2-.2-.1-.2.5-.6-.2-.1.4-.5.2-.7-.4-.2-.6-.7-1.2-.9.2-.9-.4-1-.5-2.1-.5-.5-.9-.9-1-1.7-.9 0-.9-.7-1.2-1.2-.3-.5-1-.9-1.1-1.6-.4-.2-.9-.6-1.5-.9-.5-.2-1-.5-1.6-.9-.9.2-1.5.4-1.7-.1-.1 0-.2.1-.4.1H30c-.1.1-.2.1-.2.1-.3.3-.7.3-.8 0-.2-.2-.2.6-.5.2-.1.5-.2-.4-.2.4-.2-.6-.2-.4-.6-.4-.6.9-1.1.2-2 .9-2 0-4-.2-6-.9-1-.1-2-.5-2.7-1l-.6-.2-.5-.4-.2-.2c-.1-.2-.2-.4-.4-.5-.5.5-.2-.9-.9 0-.4-.1 0 .4-.4.7 0 .2-.4.6-.5.9 0 .2-.1.4-.2.7 0 .2-.1.5-.1.7 0 .5.1 1.1.4 1.5.5.1.7.4 1.1.6.4.3.5.3.7.5.4.2.7.4 1.2.7.2.1.4-.2.5-.4.1.6.9.4 1.1.9.4-.2.6-.1.9.2.2-.7.5-.1.7.2 0-.4.2-.5.4-.4 1.2.5 1.8-.1 3.2.2.2-.2.6 0 .9-.2.1.6.6.2.9.5.9 0 1.6-.2 2.4-.2.5-.4 1-.5 1.5-.6l.2-.1h.2c.2 0 .6-.1.9-.2-.1.7.2 0 .4.2.1.1 0 .4.1.5 0 .1.2-.1.4-.1.2.1.2.2.5.4.2.2.6.5.7.6.1 0 .2-.1.2 0 .1 0-.1.2-.1.2.2.2.5.4.5.7.6.2.7.9 1.3 1.5.1 1 1.1 1.2 1 2.1.2.1.6 0 .6.4.6-.1-.2.4 0 .6.5-.1.5.5 1 .5.2.4.5.6 1 .4l.4-.2c.6-.1.5-.9 1.4-1.4zm-5.5-2.8c.1-.1.2-.1.2 0-.1.2-.4.2-.2 0zM31.6 56.9c.2-.2-.1-.2.5-.7-.2-.1.4-.6.2-.9-.4-.2-.9-.7-1.5-.7.2-.9-.6-.9-.9-1.8-.6-.4-1-.6-1.3-1.3-.4.1-.6 0-.9-.1-.2-.2-.4-.4-.6-.5-.4-.2-1-.4-1.3-1-.4-.1-.9-.2-1.2-.2-.5-.1-.9-.2-1.5-.5-.1.1-.4.4-.7.4-.2 0-.2 0-.5-.2-.2.1-.5.2-.9.2-.1 0-.2.1-.2.1s-.1 0-.1-.1v-.1h-.1c-.2-.2-.2.6-.5.2-.1.5-.2-.4-.2.4-.2-.6-.2-.4-.5-.4-.6 1.1-1.1.4-1.7 1-1.7.1-3.5.1-5.3-.2-1.8-.3-3.2-1.3-3.4-2.3-.7.5-.2-.9-1 0-.2-.1 0 .4-.4.5 0 .2-.4.6-.6.9-.1.5-.4 1-.5 1.5 0 .5 0 1 .2 1.3.6.5 1.1.9 1.5 1 .4.2.9.4 1.3.7.2.2.2-.2.4-.2.1.6.9.2 1.1.9.4-.1.7-.1.9.2.2-.7.4-.1.7.2 0-.4.1-.5.2-.4 1.1.4 1.6-.2 2.8.1.2-.4.6-.2.9-.5.1.6.5.2.7.4.6-.1 1.2-.2 1.8-.2.2-.2.4-.2.5-.4.1 0 .2-.1.2-.1h-.1.2c.5 0 1 0 1.5-.2.1.7.2.2.5.2.1 0 .1.4.2.4s.2-.2.4-.2c.2.1.2.2.5.2.2.1.6.2.9.2.1 0 .2-.1.2-.1.1 0-.1.2-.1.2.2.1.6.1.6.4.6.1.9.5 1.5.7.2.9 1.2.6 1.2 1.5.2.1.6-.1.6.2.5-.2-.2.4 0 .5.5-.2.5.2.9.2.2.2.4.5.9.2l.4-.2c.7-.2.7-.8 1.6-1.4zm-5.7-1.4s.2 0 0 0c.2 0 0 .1 0 0z"/><path fill="#2B2B2B" d="M22.3 94.3c-.9.2-.4-1.3-.5-2-.4-.2-.2-1.5-.5-2 0-.9-.2-2.1.2-2.7-.5-1.1-.2-2.6-.6-3.9 0-.2-.1-.2-.1-.4l.1.1c-.5.1-1 .1-1.6 0-.9-.2-1.5-.6-2.2-1.1-1.5-.9-3.2-2.8-3.9-5.1-.3-1-.6-2.2-.7-3.5-.1-.6 0-1.1 0-1.6 0-.2 0-.5.1-.9 0-.2.1-.7.2-1.1.1-.2.2-.6.2-.9.1-.2.2-.5.4-.7.2-.4.6-.9 1.2-1.2 1.2-.5 2.2-.6 3.2-.7.9-.1 1.8 0 2.6-.1h-.1c-.1 0-.1.1-.2.1h.1c-.6.5-.2.2-.2.2v.2l-.1.1c0 .1-.1.2-.1.2v-.1-.2-1.1c0-.9-.1-1.6.1-2.4 0-.2.1-.5.1-.7.1-.2.2-.7.2-.9v-.1l.1-.1c.1-.1.2-.2.4-.2l.2-.1.2-.1c.2-.1.4-.1.7-.2.9-.1 1.6-.2 2.4-.2 1.6-.2 3.3-.2 5.4-.4 1.7.2 2.6-.2 3.7.4 2.9-.2 5.9-.1 8.6.4 1.1-.4 2.1-.7 3.3-.9 1.5-.1 2.8 0 4.3.2.7.1 1.5.2 2.2.5.4.1.9.2 1.3.4.2.1.7.2 1 .5l.1.1h.1l.2.1c.2.2.4.5.4.7-.1-.2-.2.4-.1.6.4.5.5 1.5.5 2.3-.1.9-.2 2-.2 2.7-.1 1-.2 2.4-.2 4s0 3.2.2 5c-.2 1.7-.2 3.7-.2 5.7-.2 2.1-.2 4.2-.2 6.4 0 2.1 0 4.4-.4 6.4-.7.4-.6-.9-1-.9-.5-.2 0 2-.4.7-.9.4-.6-1.7-.4-2-.2-1.1 0-1.8 0-2.7-.7-1.5-.7-3.2-.6-5 0-.9 0-1.8.1-2.7.1-.9.1-1.8.2-2.7.1-2-.4-2.7 0-4.3-.2-1.2-.4-2.9-.4-4.8 0-1.8.1-3.8 0-5.5.2-.9.2-1.6.2-2.1h.1c.2-.2.4-.2.6-.2.1 0 .1-.1.2-.2v.1l-.1.1-.4.4-.2.2-.1.1h-.1c-.9-.2-2-.4-3.2-1-4 .6-7.9.4-13.6.2-2.9-.2-5.6-.2-8.6-.1-1.5.1-2.8.1-4 .2-.2 0-.2 0-.4.1H22l-.6-.5V63c0-.2-.1-.4-.2-.5.4.2-1-.6 1 .5l.1.1.1.2c0 .1.1.2.1.2v-.1.1c-.1.2-.1.9-.1 1.6-.1.2-.1.6-.1 1.1v1.5l-.1.2c0 .1-.1.2-.1.2v.1c-.2.2.4-.2-.4.2h-.2l-.2.6h-.2c-.2.1-.4.1-.5.1h-.8c-.3-.1-.7-.1-.9-.2-.7.2-1.7.5-2.6.7-.9.2-1.5.5-1.7 1 0 .1 0 .2.1.2v.1c0-.1 0 0 0 0v.2c0 .2 0 .4.2.9 0 .4-.1.9 0 1.2 0 .4.1.7.1 1.1 0 .4.1.7.2 1.1.1.2.1.7.2 1 .4 1.5 1.3 2.7 2.6 3.4.7.6 1.2 1 1.7 1.2.2.1.5.2.7.2.1 0 .2.1.2.1h.2l1.7 1.8c.1.6.2 1.3.4 2.1.1 1.5-.4 1.8.1 2.9 0 .6.4.9 0 1-.2 1.5.2 1.8-.4 2.3-.1 1.2.4 2.8-.3 2.9z"/><path fill="#231F20" d="M21.3 78.4c.1 0 .2 0 .2-.1.2-.1.2-.2.4-.1.2-.9.2-1 .2-1.5 0-.2-.1-.2-.2-.5-.1-.1-.1-.2-.2-.2-.1-.1-.1-.1-.2-.1-.1-.1-.2-.1-.2-.1l-.2-.1H20.8c-.1 0-.2 0-.2.1-.1-.4-.2-.1-.4-.4-.1 0-.2.1-.2-.1-.5.2-.5 0-.5 0s-.2 0 0-.1c-.1 0-.4 0-.2-.1-.2 0-.4-.2-.2-.2l-.2-.2v0s0-.1.1-.1c.1-.1-.2-.1-.2-.2-.2 0 .2 0-.2-.1.2 0 .2 0 .2-.1-.4-.1.1-.1-.1-.4.2-.5.7-1 1.2-1.1s1.1.2 1.5.6c.1-.2 0 .2.2-.2.1 0 0-.2.1-.4 0-.1.1-.2.1-.5 0-.4 0-1-.2-1.2-.5-.2-.7-.2-1.2-.4-.1-.1-.1.1-.1.2-.1-.2-.4 0-.6-.2-.1.1-.2.1-.5 0 .1.4-.2.2-.4.1.1.2.1.2-.1.2-.4.1-.5.2-.7.5l-.6.6c0 .2-.2.2-.1.4-.2-.1-.2.2-.2.2-.1.4-.1.9-.2 1.1.2.2.2.5.2.7v.2s0 .1.1.1c0 .1.1.2.2.2-.2.1 0 .2.1.4 0 .1-.2.2-.1.2 0 .1.2.1.2.2 0 .2 0 .4.1.5.1.2.2.4.4.4h.1v.2c.1.1.2.1.2.2.2 0 .5.2.9.2.2.2.6 0 .9.2.1 0 .2-.2.2-.1.1-.2 0 .2.1.2.1-.1.1-.1.2-.1l.1-.1c-.1-.1-.1-.2 0-.2 0 0 0 .1.1.2s.2.2.1.2c-.3.6-.1.5.3.9zm-2.4-1c0-.1 0-.2 0 0z"/><path fill="#2B2B2B" d="M52.5 95.1c.2.6-.2.2-.5.4 0 .2-.4.2-.5.4-.2 0-.6.2-.9-.1-.2.4-.7.2-1.1.5-.2.1-.2.2-.5.4-.2.1-.4.1-.6.2-.4.2-1 .6-1.7.9-.6.2-1.3.2-2 0-.2.2-.4.6-.6.6-1.1-.1-2.1-.2-2.9-.2-.8 0-1.7 0-2.9.2-.5-.2-.7.2-1.1-.2-.9.2-1.8.1-2.6-.2-.2.2-.7.5-1 .6-.9.2-1.5-.4-2.7-.4 0 0 0-.2-.1-.2-.2.5-1 .1-1.5.1-.6 0-1.7-.1-2.8-.1-.5-.2-1-.5-1.7-.6-.5-.4-1.1-.6-1.7-1-.2-.4-.6-.4-.8-.8l-.4-.4c-.1-.1-.1-.2-.2-.2 0 0-.1-.2-.2-.2-.1-.1 0-.1 0-.2.2-.2.2-.1.5-.1.1 0 .2 0 .2-.1.1-.1 0-.2.1-.2-.2.1-.2 0-.2.1h.1s.1 0 .2-.1l.2-.2s.1-.1.1-.2v-.1l.1.2c.2 0 .4.2.6.4.9.1 1.8.9 2.8 1.2.5.2.9-.1 1.2.2.9-.2 2.1-.2 3.2-.4 1 .5 1.5 0 2.1.7 1.3-.6 2.3-.4 3.9-.2h.1-.1H41.4c.4.2 1-.2 1.2.4.4-.4 1.2-.1 1.7 0 .2-.4.2-.2.4-.4 1 .1 1.8-.1 2.8-.7 1-.2 1.3-.1 2-.6.4-.1.6.2.9-.1.2 0 .2-.2.2 0 .4.1.5-.2.7.2.6.3 1.1-.1 1.2.5z"/></svg>