<svg xmlns="http://www.w3.org/2000/svg" width="240" height="70.5" viewBox="0 0 240 70.5"><title>sprites</title><path fill="#F48024" d="M225.55 33.5h1l-.5-1.5-.5 1.5zm5.5-7.9h-30.2c-.7 0-1.2.6-1.2 1.2v11.5c0 .7.6 1.2 1.2 1.2h30.2c.7 0 1.2-.6 1.2-1.2V26.8c0-.7-.5-1.2-1.2-1.2zm-20.7 10.6c0 .1-.1.1-.1.1h-1.8c-.1 0-.1-.1-.1-.1v-3.1l-.802 1.4-.1.1h-1.2s-.1 0-.1-.1l-.8-1.4v3.1c0 .1-.1.1-.1.1h-1.8c-.1 0-.1-.1-.1-.1v-7.4c0-.1.1-.1.1-.1h1.8s.1 0 .1.1l1.6 3.1 1.6-3.1.102-.1h1.8c.1 0 .1.1.1.1v7.4h-.2zm6.2-5.8c0 .1-.1.1-.1.1h-3.1v1h2.6c.1 0 .1.1.1.1v1.6c0 .1-.1.1-.1.1h-2.6v1.1h3.1c.1 0 .1.1.1.1v1.6c0 .1-.1.1-.1.1h-5c-.1 0-.1-.1-.1-.1v-7.4c0-.1.1-.1.1-.1h5c.1 0 .1.1.1.1v1.7zm4.6 5.8c0 .1-.102.1-.102.1h-1.8c-.1 0-.1-.1-.1-.1v-5.7h-1.7c-.1 0-.1-.1-.1-.1v-1.6c0-.1.1-.1.1-.1h5.4c.1 0 .1.1.1.1v1.6c0 .1-.1.1-.1.1h-1.7v5.7h.002zm8.3.1s-.1 0 0 0l-2 .1c-.1 0-.1 0-.1-.1l-.302-1h-2.1l-.3 1-.1.1h-1.9s-.1 0-.1-.1v-.1l2.7-7.4.1-.1h1.4s.1 0 .1.1l2.7 7.4c-.1 0-.1.1-.1.1z"/><g fill="#A3A3A3"><path d="M45.35 49.5c0 1.2.6 1.9 1.7 1.9.8 0 1.2-.2 1.7-.7l.9.8c-.7.7-1.4 1.1-2.6 1.1-1.7 0-3.1-.9-3.1-3.5 0-2.2 1.2-3.5 2.9-3.5 1.8 0 2.9 1.4 2.9 3.3v.6h-4.4zm2.9-1.8c-.2-.5-.7-.9-1.4-.9s-1.2.4-1.4.9c-.1.3-.2.5-.2.9h3.1c.1-.4.1-.6-.1-.9zM59.25 52.6v-4.2c0-1.1-.6-1.5-1.4-1.5-.7 0-1.4.5-1.4 1.5v4.3h-1.4v-4.2c0-1.1-.6-1.5-1.4-1.5-.8 0-1.4.5-1.4 1.5v4.2h-1.4v-7h1.4v.7c.5-.5 1.1-.8 1.8-.8.9 0 1.5.3 2 1 .6-.7 1.2-1 2.2-1 .7 0 1.3.2 1.7.6.5.5.7 1.2.7 1.9v4.4h-1.4v.1zM68.15 48.8h-2.2v3.8h-1.5v-9.7h3.7c1.9 0 3.1 1.2 3.1 2.9s-1.2 3-3.1 3zm-.1-4.6h-2.1v3.2h2.1c1 0 1.7-.6 1.7-1.6s-.6-1.6-1.7-1.6zM76.35 51.9c-.4.5-1.1.8-2.1.8-.9 0-1.6-.4-2-.8-.7-.7-.8-1.5-.8-2.7s.2-2 .8-2.7c.4-.5 1.1-.8 2-.8s1.6.4 2.1.8c.7.7.8 1.5.8 2.7.1 1.1-.1 2-.8 2.7zm-1-4.6c-.3-.3-.6-.4-1-.4s-.7.1-1 .4c-.4.4-.5 1.1-.5 1.9 0 .7.1 1.5.5 1.9.3.3.6.4 1 .4s.8-.1 1-.4c.4-.4.5-1.1.5-1.9s-.1-1.5-.5-1.9zM82.15 47.3c-.3-.3-.6-.5-1-.5-.7 0-1.4.6-1.4 1.5v4.2h-1.4v-6.8h1.4v.7c.4-.5 1.1-.8 1.8-.8s1.2.2 1.6.7l-1 1zM85.95 52.6c-1.3 0-1.9-.9-1.9-1.9v-7h1.4v2h1.6l-.8 1.1h-.8v3.8c0 .5.2.8.8.8h.6v1.2h-.9zM92.15 52.6v-.7c-.5.5-1.1.8-1.8.8s-1.3-.2-1.7-.6c-.5-.5-.7-1.2-.7-1.9v-4.5h1.4v4.2c0 1.1.6 1.5 1.4 1.5s1.4-.5 1.4-1.5v-4.2h1.4v6.9h-1.4zM97.25 55.4c-1 0-1.7-.2-2.4-.9l.9-.9c.4.4.8.6 1.5.6 1.2 0 1.6-.8 1.6-1.7v-.9c-.5.6-1.1.8-1.8.8s-1.3-.2-1.6-.6c-.7-.7-.8-1.6-.8-2.8 0-1.2.1-2.1.8-2.8.4-.4 1-.6 1.7-.6s1.3.2 1.8.8v-.7h1.3v6.8c-.1 1.7-1.2 2.9-3 2.9zm.1-8.5c-1.2 0-1.4 1.1-1.4 2.2s.2 2.2 1.4 2.2 1.4-1.1 1.4-2.2c0-1.2-.1-2.2-1.4-2.2zM105.65 52.6v-.7c-.5.5-1.1.8-1.8.8s-1.3-.2-1.7-.6c-.5-.5-.7-1.2-.7-1.9v-4.5h1.4v4.2c0 1.1.6 1.5 1.4 1.5s1.4-.5 1.4-1.5v-4.2h1.4v6.9h-1.4zM109.75 49.5c0 1.2.6 1.9 1.7 1.9.8 0 1.2-.2 1.7-.7l.9.8c-.7.7-1.4 1.1-2.6 1.1-1.7 0-3.1-.9-3.1-3.5 0-2.2 1.2-3.5 2.9-3.5 1.8 0 2.9 1.4 2.9 3.3v.6h-4.4zm2.8-5l-1.2-1.3-1.2 1.3h-1.2l1.7-2.2h1.2l1.698 2.2h-1zm.1 3.2c-.2-.5-.7-.9-1.4-.9s-1.2.4-1.4.9c-.1.3-.2.5-.2.9h3.1c.1-.4 0-.6-.1-.9zM117.85 52.7c-1.1 0-2.1-.2-2.9-1l.9-.9c.6.6 1.3.7 2 .7.8 0 1.5-.3 1.5-.9 0-.5-.3-.8-.9-.8l-1.1-.1c-1.3-.1-2-.7-2-1.9 0-1.3 1.2-2.1 2.6-2.1 1 0 1.9.2 2.5.8l-.9.9c-.4-.4-1-.5-1.7-.5-.8 0-1.2.4-1.2.9 0 .4.2.7.9.8l1.1.1c1.3.1 2 .7 2 1.9.1 1.3-1.1 2.1-2.8 2.1z"/></g><path fill="#EEE" d="M50.45 32l-2.1-.2c-1.7-.1-2.3-.8-2.3-2 0-1.4 1-2.2 3-2.2 1.4 0 2.6.3 3.6 1.1l1.3-1.3c-1.2-1-2.9-1.4-4.8-1.4-2.9 0-4.9 1.5-4.9 3.9 0 2.2 1.4 3.4 4 3.6l2.2.2c1.6.1 2.2.8 2.2 2 0 1.6-1.4 2.4-3.6 2.4-1.7 0-3.1-.4-4.2-1.6l-1.3 1.3c1.5 1.4 3.2 1.9 5.5 1.9 3.2 0 5.4-1.5 5.4-4.1 0-2.5-1.6-3.4-4-3.6zm16.8-6c-2.1 0-3.5.4-4.7 1.9l1.3 1.3c.8-1.1 1.7-1.5 3.4-1.5 2.4 0 3.4 1 3.4 2.9v1.3h-4c-3 0-4.6 1.5-4.6 3.9 0 1.1.4 2.1 1 2.7.8.9 1.9 1.2 3.8 1.2 1.8 0 2.8-.4 3.9-1.4v1.3h2v-9.1c-.2-3-1.9-4.5-5.5-4.5zm3.4 8.8c0 1.1-.2 1.9-.7 2.3-.8.8-1.8.9-3 .9-2.1 0-3.1-.7-3.1-2.3 0-1.5 1-2.4 3-2.4h3.8v1.5zm9.6-7.1c1.3 0 2.1.4 3.1 1.5l1.3-1.3c-1.4-1.5-2.5-2-4.4-2-3.4 0-5.9 2.3-5.9 6.9s2.6 6.9 5.9 6.9c1.8 0 3-.5 4.4-2l-1.3-1.3c-1 1.1-1.8 1.5-3.1 1.5s-2.4-.5-3.1-1.5c-.6-.9-.9-1.9-.9-3.6 0-1.7.2-2.7.9-3.6.7-1 1.8-1.5 3.1-1.5zm16.8-1.6h-2.4l-6.1 5.9V20.1h-2v19.4h2v-4.9l2.4-2.4 4.5 7.3h2.4l-5.6-8.6 4.8-4.8zm9.2-.7c-2.1 0-3.5.8-4.3 1.7-1.3 1.3-1.6 2.9-1.6 5.4s.3 4.1 1.6 5.4c.9.9 2.2 1.7 4.3 1.7s3.5-.8 4.3-1.7c1.3-1.3 1.6-2.9 1.6-5.4s-.3-4.1-1.6-5.4c-.9-.9-2.3-1.7-4.3-1.7zm1.6 10.5c-.4.4-.9.6-1.6.6s-1.2-.2-1.6-.6c-.7-.7-.8-2-.8-3.4s.1-2.6.8-3.4c.4-.4.9-.6 1.6-.6s1.2.2 1.6.6c.7.7.8 1.9.8 3.4s-.1 2.7-.8 3.4zm13.5-10.3l-2.8 8.6-2.8-8.6h-3.7l5.1 13.9h2.7l5.1-13.9h-3.6zm9.6-.2c-3.6 0-6.1 2.6-6.1 7.1 0 5.6 3.198 7.1 6.4 7.1 2.5 0 3.9-.8 5.298-2.2l-2.1-2.1c-.9.9-1.6 1.3-3.2 1.3-2 0-3.1-1.3-3.1-3.1h8.7v-1.6c.2-3.7-1.998-6.5-5.9-6.5zm-2.6 5.8c0-.6.1-1 .3-1.5.4-.8 1.2-1.4 2.3-1.4 1.2 0 2 .6 2.3 1.4.2.5.3.9.3 1.5h-5.2zm13.8-4.3v-1.3h-3.4v13.9h3.5v-8.4c0-1.8 1.2-2.6 2.2-2.6.9 0 1.3.3 1.8.8l2.7-2.6c-1-1-1.9-1.3-3.3-1.3-1.5 0-2.8.7-3.5 1.5zm7.9-2.8v15.4h3.5v-11h2.6v-2.6h-2.6v-1.5c0-.8.4-1.3 1.2-1.3h1.3v-2.9h-2c-2.8-.1-4 1.9-4 3.9zm20.4 1.3c-2.1 0-3.5.8-4.3 1.7-1.3 1.3-1.602 2.9-1.602 5.4s.3 4.1 1.602 5.4c.898.9 2.2 1.7 4.3 1.7s3.5-.8 4.3-1.7c1.3-1.3 1.6-2.9 1.6-5.4s-.3-4.1-1.6-5.4c-.8-.9-2.3-1.7-4.3-1.7zm1.6 10.5c-.4.4-.9.6-1.6.6-.7 0-1.2-.2-1.6-.6-.7-.7-.802-2-.802-3.4s.102-2.6.8-3.4c.4-.4.9-.6 1.6-.6.702 0 1.202.2 1.6.6.702.7.802 1.9.802 3.4s-.1 2.7-.8 3.4zm20.7-10.3l-2.2 8.6-2.9-8.6h-2.5l-2.8 8.6-2.2-8.6h-3.7l4.3 13.9h2.9l2.9-8.7 2.9 8.7h2.9l4.3-13.9h-3.9zm-31.5 9.7V20.1h-3.5v15.4c0 2 1.2 4 4.1 4h2v-2.9h-1.3c-1 0-1.3-.5-1.3-1.3zm-101.4-7.1l1.8-1.8h-3.7V22h-2v13.9c0 2 1.1 3.6 3.4 3.6h1.4v-1.7h-1c-1.3 0-1.8-.7-1.8-2v-7.6h1.9zM34.15 42.8v-9.9h3.3v13.2H7.75V32.9h3.3v9.9h23.1z"/><path fill="#EEE" d="M14.65 32l16.2 3.4.7-3.2-16.2-3.4-.7 3.2zm2.2-7.8l15 7 1.4-3-15-7-1.4 3zm4.1-7.3l12.7 10.6 2.1-2.5-12.7-10.6-2.1 2.5zm8.2-7.9l-2.7 2 9.9 13.3 2.7-2L29.15 9zm-14.8 30.5h16.5v-3.3h-16.5v3.3z"/></svg>