<?xml version="1.0" encoding="utf-8"?>
<!-- Generator: Adobe Illustrator 16.0.0, SVG Export Plug-In . SVG Version: 6.00 Build 0)  -->
<!DOCTYPE svg PUBLIC "-//W3C//DTD SVG 1.1//EN" "http://www.w3.org/Graphics/SVG/1.1/DTD/svg11.dtd">
<svg version="1.1"
	 id="svg2" xmlns:dc="http://purl.org/dc/elements/1.1/" xmlns:cc="http://creativecommons.org/ns#" xmlns:rdf="http://www.w3.org/1999/02/22-rdf-syntax-ns#" xmlns:svg="http://www.w3.org/2000/svg" xmlns:sodipodi="http://sodipodi.sourceforge.net/DTD/sodipodi-0.dtd" xmlns:inkscape="http://www.inkscape.org/namespaces/inkscape" sodipodi:docname="pt-sprites.svg" inkscape:version="0.91 r13725"
	 xmlns="http://www.w3.org/2000/svg" xmlns:xlink="http://www.w3.org/1999/xlink" x="0px" y="0px" width="240px" height="70.5px"
	 viewBox="0 0 240 70.5" enable-background="new 0 0 240 70.5" xml:space="preserve">
<sodipodi:namedview  inkscape:cy="250" inkscape:cx="112.5" inkscape:zoom="1.3350176" showgrid="false" guidetolerance="10" gridtolerance="10" pagecolor="#ffffff" borderopacity="1" bordercolor="#666666" objecttolerance="10" id="namedview161" inkscape:current-layer="svg2" inkscape:window-maximized="0" inkscape:window-y="0" inkscape:window-x="1024" inkscape:window-width="1508" inkscape:window-height="926" inkscape:pageshadow="2" inkscape:pageopacity="0">
	</sodipodi:namedview>
<title  id="title4">sprites</title>
<desc  id="desc6">Created with Sketch.</desc>
<path id="path127" inkscape:connector-curvature="0" fill="#F48024" d="M225.549,33.5h1l-0.5-1.5L225.549,33.5L225.549,33.5
	L225.549,33.5z M231.049,25.6H200.85c-0.699,0-1.199,0.6-1.199,1.2v11.5c0,0.7,0.6,1.2,1.199,1.2h30.199
	c0.701,0,1.201-0.6,1.201-1.2V26.8C232.25,26.1,231.75,25.6,231.049,25.6L231.049,25.6L231.049,25.6z M210.35,36.2
	c0,0.1-0.1,0.1-0.1,0.1h-1.801c-0.1,0-0.1-0.1-0.1-0.1v-3.1l-0.801,1.4l-0.1,0.1h-1.199c0,0-0.1,0-0.1-0.1l-0.801-1.4v3.1
	c0,0.1-0.1,0.1-0.1,0.1h-1.801c-0.1,0-0.1-0.1-0.1-0.1v-7.4c0-0.1,0.1-0.1,0.1-0.1h1.801c0,0,0.1,0,0.1,0.1l1.6,3.1l1.6-3.1
	l0.102-0.1h1.799c0.1,0,0.1,0.1,0.1,0.1v7.4H210.35L210.35,36.2z M216.549,30.4c0,0.1-0.1,0.1-0.1,0.1h-3.1v1h2.6
	c0.1,0,0.1,0.1,0.1,0.1v1.6c0,0.1-0.1,0.1-0.1,0.1h-2.6v1.1h3.1c0.1,0,0.1,0.1,0.1,0.1v1.6c0,0.1-0.1,0.1-0.1,0.1h-5
	c-0.1,0-0.1-0.1-0.1-0.1v-7.4c0-0.1,0.1-0.1,0.1-0.1h5c0.1,0,0.1,0.1,0.1,0.1V30.4L216.549,30.4L216.549,30.4L216.549,30.4z
	 M221.15,36.2c0,0.1-0.102,0.1-0.102,0.1h-1.799c-0.1,0-0.1-0.1-0.1-0.1v-5.7h-1.701c-0.1,0-0.1-0.1-0.1-0.1v-1.6
	c0-0.1,0.1-0.1,0.1-0.1h5.4c0.1,0,0.1,0.1,0.1,0.1v1.6c0,0.1-0.1,0.1-0.1,0.1h-1.699V36.2L221.15,36.2L221.15,36.2L221.15,36.2z
	 M229.449,36.3C229.449,36.3,229.35,36.3,229.449,36.3l-2,0.1c-0.1,0-0.1,0-0.1-0.1l-0.301-1h-2.1l-0.299,1l-0.102,0.1h-1.898
	c0,0-0.102,0-0.102-0.1v-0.1l2.701-7.4l0.1-0.1h1.4c0,0,0.1,0,0.1,0.1l2.699,7.4C229.449,36.2,229.449,36.3,229.449,36.3
	L229.449,36.3L229.449,36.3L229.449,36.3z"/>
<g id="g131" transform="translate(36,41)">
	<path id="path133" inkscape:connector-curvature="0" fill="#A3A3A3" d="M9.35,8.5c0,1.2,0.6,1.9,1.7,1.9c0.8,0,1.2-0.2,1.7-0.7
		l0.9,0.8c-0.7,0.7-1.4,1.1-2.6,1.1c-1.7,0-3.1-0.9-3.1-3.5c0-2.2,1.2-3.5,2.9-3.5c1.8,0,2.9,1.4,2.9,3.3v0.6H9.35L9.35,8.5
		L9.35,8.5z M12.25,6.7c-0.2-0.5-0.7-0.9-1.4-0.9c-0.7,0-1.2,0.4-1.4,0.9c-0.1,0.3-0.2,0.5-0.2,0.9h3.1C12.45,7.2,12.45,7,12.25,6.7
		L12.25,6.7L12.25,6.7z"/>
	<path id="path135" inkscape:connector-curvature="0" fill="#A3A3A3" d="M23.25,11.6V7.4c0-1.1-0.6-1.5-1.4-1.5
		c-0.7,0-1.4,0.5-1.4,1.5v4.3h-1.4V7.5c0-1.1-0.6-1.5-1.4-1.5c-0.8,0-1.4,0.5-1.4,1.5v4.2h-1.4v-7h1.4v0.7c0.5-0.5,1.1-0.8,1.8-0.8
		c0.9,0,1.5,0.3,2,1c0.6-0.7,1.2-1,2.2-1c0.7,0,1.3,0.2,1.7,0.6c0.5,0.5,0.7,1.2,0.7,1.9v4.4h-1.4V11.6L23.25,11.6z"/>
	<path id="path137" inkscape:connector-curvature="0" fill="#A3A3A3" d="M32.149,7.8h-2.2v3.8h-1.5V1.9h3.7c1.9,0,3.1,1.2,3.1,2.9
		C35.25,6.5,34.049,7.8,32.149,7.8L32.149,7.8L32.149,7.8z M32.049,3.2h-2.1v3.2h2.1c1,0,1.7-0.6,1.7-1.6S33.149,3.2,32.049,3.2
		L32.049,3.2L32.049,3.2z"/>
	<path id="path139" inkscape:connector-curvature="0" fill="#A3A3A3" d="M40.35,10.9c-0.4,0.5-1.1,0.8-2.1,0.8c-0.9,0-1.6-0.4-2-0.8
		c-0.7-0.7-0.8-1.5-0.8-2.7s0.2-2,0.8-2.7c0.4-0.5,1.1-0.8,2-0.8s1.6,0.4,2.1,0.8c0.7,0.7,0.8,1.5,0.8,2.7
		C41.25,9.3,41.049,10.2,40.35,10.9L40.35,10.9L40.35,10.9z M39.35,6.3c-0.3-0.3-0.6-0.4-1-0.4s-0.7,0.1-1,0.4
		c-0.4,0.4-0.5,1.1-0.5,1.9c0,0.7,0.1,1.5,0.5,1.9c0.3,0.3,0.6,0.4,1,0.4s0.8-0.1,1-0.4c0.4-0.4,0.5-1.1,0.5-1.9
		S39.75,6.7,39.35,6.3L39.35,6.3L39.35,6.3z"/>
	<path id="path141" inkscape:connector-curvature="0" fill="#A3A3A3" d="M46.149,6.3c-0.3-0.3-0.6-0.5-1-0.5c-0.7,0-1.4,0.6-1.4,1.5
		v4.2h-1.4V4.7h1.4v0.7c0.4-0.5,1.1-0.8,1.8-0.8c0.7,0,1.2,0.2,1.6,0.7L46.149,6.3L46.149,6.3L46.149,6.3z"/>
	<path id="path143" inkscape:connector-curvature="0" fill="#A3A3A3" d="M49.95,11.6c-1.3,0-1.9-0.9-1.9-1.9V5.9V4.8V2.7h1.4v2h1.6
		l-0.8,1.1h-0.8v3.8c0,0.5,0.2,0.8,0.8,0.8h0.6v1.2H49.95L49.95,11.6L49.95,11.6z"/>
	<path id="path145" inkscape:connector-curvature="0" fill="#A3A3A3" d="M56.149,11.6v-0.7c-0.5,0.5-1.1,0.8-1.8,0.8
		c-0.7,0-1.3-0.2-1.7-0.6c-0.5-0.5-0.7-1.2-0.7-1.9V4.7h1.4v4.2c0,1.1,0.6,1.5,1.4,1.5s1.4-0.5,1.4-1.5V4.7h1.4v6.9H56.149
		L56.149,11.6L56.149,11.6L56.149,11.6z"/>
	<path id="path147" inkscape:connector-curvature="0" fill="#A3A3A3" d="M61.25,14.4c-1,0-1.7-0.2-2.4-0.9l0.9-0.9
		c0.4,0.4,0.8,0.6,1.5,0.6c1.2,0,1.6-0.8,1.6-1.7v-0.9c-0.5,0.6-1.1,0.8-1.8,0.8c-0.7,0-1.3-0.2-1.6-0.6c-0.7-0.7-0.8-1.6-0.8-2.8
		c0-1.2,0.1-2.1,0.8-2.8c0.4-0.4,1-0.6,1.7-0.6c0.7,0,1.3,0.2,1.8,0.8V4.7h1.3v6.8C64.149,13.2,63.049,14.4,61.25,14.4L61.25,14.4
		L61.25,14.4z M61.35,5.9c-1.2,0-1.4,1.1-1.4,2.2s0.2,2.2,1.4,2.2c1.2,0,1.4-1.1,1.4-2.2C62.75,6.9,62.649,5.9,61.35,5.9L61.35,5.9
		L61.35,5.9z"/>
	<path id="path149" inkscape:connector-curvature="0" fill="#A3A3A3" d="M69.649,11.6v-0.7c-0.5,0.5-1.1,0.8-1.8,0.8
		c-0.7,0-1.3-0.2-1.7-0.6c-0.5-0.5-0.7-1.2-0.7-1.9V4.7h1.4v4.2c0,1.1,0.6,1.5,1.4,1.5s1.4-0.5,1.4-1.5V4.7h1.4v6.9H69.649
		L69.649,11.6L69.649,11.6L69.649,11.6z"/>
	<path id="path151" inkscape:connector-curvature="0" fill="#A3A3A3" d="M73.75,8.5c0,1.2,0.6,1.9,1.7,1.9c0.8,0,1.2-0.2,1.7-0.7
		l0.899,0.8c-0.699,0.7-1.399,1.1-2.599,1.1c-1.7,0-3.1-0.9-3.1-3.5c0-2.2,1.2-3.5,2.9-3.5c1.799,0,2.9,1.4,2.9,3.3v0.6H73.75
		L73.75,8.5L73.75,8.5z M76.549,3.5l-1.2-1.3l-1.2,1.3h-1.2l1.7-2.2h1.2l1.699,2.2H76.549L76.549,3.5L76.549,3.5z M76.649,6.7
		c-0.2-0.5-0.7-0.9-1.4-0.9s-1.2,0.4-1.4,0.9c-0.1,0.3-0.2,0.5-0.2,0.9h3.1C76.85,7.2,76.75,7,76.649,6.7L76.649,6.7L76.649,6.7z"/>
	<path id="path153" inkscape:connector-curvature="0" fill="#A3A3A3" d="M81.85,11.7c-1.1,0-2.1-0.2-2.9-1l0.9-0.9
		c0.6,0.6,1.3,0.7,2,0.7c0.8,0,1.5-0.3,1.5-0.9c0-0.5-0.301-0.8-0.9-0.8l-1.1-0.1c-1.301-0.1-2-0.7-2-1.9c0-1.3,1.199-2.1,2.6-2.1
		c1,0,1.9,0.2,2.5,0.8l-0.9,0.9c-0.399-0.4-1-0.5-1.699-0.5c-0.801,0-1.2,0.4-1.2,0.9c0,0.4,0.2,0.7,0.899,0.8l1.101,0.1
		c1.3,0.1,2,0.7,2,1.9C84.75,10.9,83.549,11.7,81.85,11.7L81.85,11.7L81.85,11.7z"/>
</g>
<path id="path155" inkscape:connector-curvature="0" fill="#EEEEEE" d="M50.45,32l-2.1-0.2c-1.7-0.1-2.3-0.8-2.3-2
	c0-1.4,1-2.2,3-2.2c1.4,0,2.6,0.3,3.6,1.1l1.3-1.3c-1.2-1-2.9-1.4-4.8-1.4c-2.9,0-4.9,1.5-4.9,3.9c0,2.2,1.4,3.4,4,3.6l2.2,0.2
	c1.6,0.1,2.2,0.8,2.2,2c0,1.6-1.4,2.4-3.6,2.4c-1.7,0-3.1-0.4-4.2-1.6l-1.3,1.3c1.5,1.4,3.2,1.9,5.5,1.9c3.2,0,5.4-1.5,5.4-4.1
	C54.45,33.1,52.85,32.2,50.45,32L50.45,32L50.45,32L50.45,32z M67.25,26c-2.1,0-3.5,0.4-4.7,1.9l1.3,1.3c0.8-1.1,1.7-1.5,3.4-1.5
	c2.4,0,3.4,1,3.4,2.9v1.3h-4c-3,0-4.6,1.5-4.6,3.9c0,1.1,0.4,2.1,1,2.7c0.8,0.9,1.9,1.2,3.8,1.2c1.8,0,2.8-0.4,3.9-1.4v1.3h2v-9.1
	C72.549,27.5,70.85,26,67.25,26L67.25,26L67.25,26z M70.649,34.8c0,1.1-0.2,1.9-0.7,2.3c-0.8,0.8-1.8,0.9-3,0.9
	c-2.1,0-3.1-0.7-3.1-2.3c0-1.5,1-2.4,3-2.4h3.8V34.8L70.649,34.8L70.649,34.8z M80.25,27.7c1.3,0,2.1,0.4,3.1,1.5l1.3-1.3
	c-1.4-1.5-2.5-2-4.4-2c-3.4,0-5.9,2.3-5.9,6.9s2.6,6.9,5.9,6.9c1.8,0,3-0.5,4.4-2l-1.3-1.3c-1,1.1-1.8,1.5-3.1,1.5s-2.4-0.5-3.1-1.5
	c-0.6-0.9-0.9-1.9-0.9-3.6c0-1.7,0.2-2.7,0.9-3.6C77.85,28.2,78.95,27.7,80.25,27.7L80.25,27.7L80.25,27.7z M97.049,26.1h-2.4
	l-6.1,5.9V20.1h-2v19.4h2v-4.9l2.4-2.4l4.5,7.3h2.4l-5.6-8.6L97.049,26.1L97.049,26.1L97.049,26.1L97.049,26.1z M106.25,25.4
	c-2.1,0-3.5,0.8-4.3,1.7c-1.3,1.3-1.6,2.9-1.6,5.4s0.3,4.1,1.6,5.4c0.9,0.9,2.2,1.7,4.3,1.7s3.5-0.8,4.3-1.7
	c1.3-1.3,1.6-2.9,1.6-5.4s-0.3-4.1-1.6-5.4C109.649,26.2,108.25,25.4,106.25,25.4L106.25,25.4L106.25,25.4z M107.85,35.9
	c-0.4,0.4-0.9,0.6-1.6,0.6s-1.2-0.2-1.6-0.6c-0.7-0.7-0.8-2-0.8-3.4c0-1.4,0.1-2.6,0.8-3.4c0.4-0.4,0.9-0.6,1.6-0.6s1.2,0.2,1.6,0.6
	c0.7,0.7,0.8,1.9,0.8,3.4S108.549,35.2,107.85,35.9L107.85,35.9L107.85,35.9z M121.35,25.6l-2.801,8.6l-2.799-8.6h-3.701l5.1,13.9
	h2.7l5.1-13.9H121.35L121.35,25.6L121.35,25.6L121.35,25.6z M130.949,25.4c-3.6,0-6.1,2.6-6.1,7.1c0,5.6,3.199,7.1,6.4,7.1
	c2.5,0,3.9-0.8,5.299-2.2l-2.1-2.1c-0.9,0.9-1.6,1.3-3.199,1.3c-2,0-3.1-1.3-3.1-3.1h8.699v-1.6
	C137.049,28.2,134.85,25.4,130.949,25.4L130.949,25.4L130.949,25.4L130.949,25.4z M128.35,31.2c0-0.6,0.1-1,0.301-1.5
	c0.398-0.8,1.199-1.4,2.299-1.4c1.201,0,2,0.6,2.301,1.4c0.199,0.5,0.299,0.9,0.299,1.5H128.35L128.35,31.2L128.35,31.2z
	 M142.15,26.9v-1.3h-3.4v13.9h3.5v-8.4c0-1.8,1.199-2.6,2.199-2.6c0.9,0,1.301,0.3,1.801,0.8l2.699-2.6c-1-1-1.9-1.3-3.299-1.3
	C144.15,25.4,142.85,26.1,142.15,26.9L142.15,26.9L142.15,26.9L142.15,26.9z M150.049,24.1v15.4h3.5v-11h2.602v-2.6h-2.602v-1.5
	c0-0.8,0.4-1.3,1.201-1.3h1.299v-2.9h-2C151.25,20.1,150.049,22.1,150.049,24.1L150.049,24.1L150.049,24.1z M170.449,25.4
	c-2.1,0-3.5,0.8-4.299,1.7c-1.301,1.3-1.602,2.9-1.602,5.4s0.301,4.1,1.602,5.4c0.898,0.9,2.199,1.7,4.299,1.7s3.5-0.8,4.301-1.7
	c1.299-1.3,1.6-2.9,1.6-5.4s-0.301-4.1-1.6-5.4C173.949,26.2,172.449,25.4,170.449,25.4L170.449,25.4L170.449,25.4z M172.049,35.9
	c-0.398,0.4-0.898,0.6-1.6,0.6c-0.699,0-1.199-0.2-1.6-0.6c-0.699-0.7-0.801-2-0.801-3.4c0-1.4,0.102-2.6,0.801-3.4
	c0.4-0.4,0.9-0.6,1.6-0.6c0.701,0,1.201,0.2,1.6,0.6c0.701,0.7,0.801,1.9,0.801,3.4S172.75,35.2,172.049,35.9L172.049,35.9
	L172.049,35.9z M192.75,25.6l-2.201,8.6l-2.898-8.6h-2.5l-2.801,8.6l-2.199-8.6h-3.701l4.301,13.9h2.9l2.898-8.7l2.9,8.7h2.9
	l4.301-13.9H192.75L192.75,25.6L192.75,25.6z M161.25,35.3V20.1h-3.5v15.4c0,2,1.199,4,4.1,4h2v-2.9h-1.301
	C161.549,36.6,161.25,36.1,161.25,35.3L161.25,35.3L161.25,35.3z M59.85,28.2l1.8-1.8h-3.7V22h-2v13.9c0,2,1.1,3.6,3.4,3.6h1.4v-1.7
	h-1c-1.3,0-1.8-0.7-1.8-2v-7.6H59.85L59.85,28.2L59.85,28.2L59.85,28.2z"/>
<path id="path157" inkscape:connector-curvature="0" fill="#EEEEEE" d="M34.149,42.8v-9.9h3.3v13.2H7.75V32.9h3.3v9.9H34.149
	L34.149,42.8z"/>
<path id="path159" inkscape:connector-curvature="0" fill="#EEEEEE" d="M14.649,32l16.2,3.4l0.7-3.2l-16.2-3.4L14.649,32L14.649,32
	L14.649,32z M16.85,24.2l15,7l1.4-3l-15-7L16.85,24.2L16.85,24.2L16.85,24.2z M20.95,16.9l12.7,10.6l2.1-2.5l-12.7-10.6L20.95,16.9
	L20.95,16.9L20.95,16.9z M29.149,9l-2.7,2l9.9,13.3l2.7-2L29.149,9L29.149,9L29.149,9z M14.35,39.5h16.5v-3.3h-16.5V39.5L14.35,39.5
	L14.35,39.5z"/>
</svg>
