<svg xmlns="http://www.w3.org/2000/svg" width="227" height="46.5" viewBox="0 0 227 46.5">
  <path d="M37.7 40.6c0 1.2.6 1.9 1.8 1.9.8 0 1.2-.2 1.7-.7l.9.8c-.7.7-1.4 1.1-2.6 1.1-1.7 0-3.1-.9-3.1-3.5 0-2.2 1.2-3.5 2.9-3.5 1.8 0 2.9 1.4 2.9 3.3v.6h-4.5zm3-1.9c-.2-.5-.7-.9-1.4-.9s-1.2.4-1.4.9c-.1.3-.2.5-.2.9h3.1c0-.4 0-.6-.1-.9zm10.9 5v-4.2c0-1.1-.6-1.5-1.4-1.5-.7 0-1.4.5-1.4 1.5v4.2h-1.4v-4.2c0-1.1-.6-1.5-1.4-1.5s-1.4.5-1.4 1.5v4.2h-1.4v-6.9h1.4v.7c.5-.5 1.1-.8 1.8-.8.9 0 1.5.3 2 1 .6-.7 1.3-1 2.2-1 .7 0 1.3.2 1.7.6.5.5.7 1.2.7 1.9v4.5h-1.4zm9-3.8h-2.2v3.8h-1.5V34h3.7c1.9 0 3.1 1.3 3.1 2.9 0 1.7-1.2 3-3.1 3zm-.1-4.6h-2.1v3.2h2.1c1 0 1.7-.6 1.7-1.6s-.7-1.6-1.7-1.6zm8.3 7.6c-.4.5-1.1.8-2.1.8s-1.6-.4-2.1-.8c-.7-.7-.8-1.5-.8-2.7s.2-2 .8-2.7c.4-.5 1.1-.8 2.1-.8s1.6.4 2.1.8c.7.7.8 1.5.8 2.7 0 1.3-.1 2.1-.8 2.7zm-1-4.6c-.3-.3-.6-.4-1-.4s-.7.1-1 .4c-.4.4-.5 1.1-.5 1.9 0 .7.1 1.5.5 1.9.3.3.6.4 1 .4s.8-.1 1-.4c.4-.4.5-1.1.5-1.9 0-.7-.1-1.4-.5-1.9zm6.8.2c-.3-.3-.6-.5-1-.5-.7 0-1.4.6-1.4 1.5v4.2h-1.4v-6.9h1.4v.7c.4-.5 1.1-.8 1.8-.8s1.2.2 1.6.7l-1 1.1zm3.8 5.2c-1.3 0-1.9-.9-1.9-1.9v-7h1.4v2h1.6l-.8 1.1h-.8v3.8c0 .5.2.8.8.8h.6v1.2h-.9zm6.2 0V43c-.5.5-1.1.8-1.8.8s-1.3-.2-1.7-.6c-.5-.5-.7-1.2-.7-1.9v-4.4h1.4v4.2c0 1.1.6 1.5 1.4 1.5s1.4-.5 1.4-1.5v-4.2H86v6.8h-1.4zm5.1 2.8c-1 0-1.7-.2-2.4-.9l.9-.9c.4.4.8.6 1.5.6 1.2 0 1.6-.8 1.6-1.8v-.8c-.5.6-1.1.8-1.8.8s-1.3-.2-1.6-.6c-.7-.7-.8-1.6-.8-2.8s.1-2.1.8-2.8c.4-.4 1-.6 1.7-.6s1.3.2 1.8.8v-.7h1.3v6.9c0 1.6-1.2 2.8-3 2.8zm.2-8.6c-1.3 0-1.4 1.1-1.4 2.2s.2 2.2 1.4 2.2 1.4-1.1 1.4-2.2-.2-2.2-1.4-2.2zm8.3 5.8V43c-.5.5-1.1.8-1.8.8s-1.3-.2-1.7-.6c-.5-.5-.7-1.2-.7-1.9v-4.4h1.4v4.2c0 1.1.6 1.5 1.4 1.5s1.4-.5 1.4-1.5v-4.2h1.4v6.8h-1.4zm4.1-3.1c0 1.2.6 1.9 1.8 1.9.8 0 1.2-.2 1.7-.7l.9.8c-.7.7-1.4 1.1-2.6 1.1-1.7 0-3.1-.9-3.1-3.5 0-2.2 1.2-3.5 2.9-3.5 1.8 0 2.9 1.4 2.9 3.3v.6h-4.5zm2.8-5.1l-1.2-1.3-1.2 1.3h-1.2l1.8-2.2h1.2l1.8 2.2h-1.2zm.1 3.2c-.2-.5-.7-.9-1.4-.9s-1.2.4-1.4.9c-.1.3-.2.5-.2.9h3.1c.1-.4 0-.6-.1-.9zm5.2 5.1c-1.1 0-2.1-.2-2.9-1l.9-.9c.6.6 1.3.7 2 .7.8 0 1.5-.3 1.5-1 0-.5-.3-.8-.9-.8l-1.1-.1c-1.3-.1-2-.7-2-1.9 0-1.3 1.2-2.1 2.6-2.1 1 0 1.9.2 2.6.8l-.9.9c-.4-.4-1-.5-1.7-.5-.8 0-1.3.4-1.3.9 0 .4.2.7 1 .8l1.1.1c1.3.1 2.1.7 2.1 1.9-.1 1.4-1.3 2.2-3 2.2z" fill="#A3A3A3"/><path fill="#EEE" d="M7 23l16.2 3.4.7-3.2-16.2-3.4L7 23zm2.1-7.8l15 7 1.4-3-15-7-1.4 3zm4.2-7.3L26 18.5l2.1-2.5L15.4 5.4l-2.1 2.5zM21.5 0l-2.7 2 9.9 13.3 2.7-2L21.5 0zM6.6 30.6h16.6v-3.3H6.6v3.3z"/><path d="M220.1 25.1h1l-.5-1.5-.5 1.5zm5.6-8.1h-30.9c-.7 0-1.3.6-1.3 1.3v11.8c0 .7.6 1.3 1.3 1.3h30.9c.7 0 1.3-.6 1.3-1.3V18.2c0-.7-.6-1.2-1.3-1.2zm-21.2 10.9c0 .1-.1.1-.1.1h-1.9c-.1 0-.1-.1-.1-.1v-3.2l-.8 1.5-.1.1h-1.2s-.1 0-.1-.1l-.9-1.5v3.2c0 .1-.1.1-.1.1h-1.9c-.1 0-.1-.1-.1-.1v-7.6c0-.1.1-.1.1-.1h1.8s.1 0 .1.1l1.6 3.1 1.6-3.1.1-.1h1.8c.1 0 .1.1.1.1l.1 7.6zm6.4-5.9c0 .1-.1.1-.1.1h-3.2v1h2.7c.1 0 .1.1.1.1v1.7c0 .1-.1.1-.1.1h-2.7v1.1h3.2c.1 0 .1.1.1.1v1.7c0 .1-.1.1-.1.1h-5.1c-.1 0-.1-.1-.1-.1v-7.6c0-.1.1-.1.1-.1h5.1c.1 0 .1.1.1.1V22zm4.7 5.9c0 .1-.1.1-.1.1h-1.9c-.1 0-.1-.1-.1-.1v-5.8h-1.7c-.1 0-.1-.1-.1-.1v-1.7c0-.1.1-.1.1-.1h5.6c.1 0 .1.1.1.1V22c0 .1-.1.1-.1.1h-1.7v5.8h-.1zm8.5.1s-.1 0 0 0l-2 .1c-.1 0-.1 0-.1-.1l-.3-1h-2.2l-.3 1-.1.1h-1.9s-.1 0-.1-.1v-.1l2.8-7.6.1-.1h1.4c.1 0 .1 0 .1.1l2.8 7.6c-.2 0-.2 0-.2.1z" fill="#f48024"/><path fill="#EEE" d="M27.1 33.9v-10h3.3v13.3H.6V23.8h3.3v10.1z"/><path fill="#EEE" d="M42.8 23.3l-2.2-.2c-1.7-.1-2.3-.8-2.3-2 0-1.4 1-2.2 3-2.2 1.4 0 2.6.3 3.6 1.1l1.3-1.3c-1.2-1-2.9-1.4-4.8-1.4-2.9 0-4.9 1.5-4.9 3.9 0 2.2 1.4 3.4 4 3.6l2.2.2c1.6.1 2.2.8 2.2 2 0 1.6-1.4 2.4-3.6 2.4-1.7 0-3.1-.4-4.2-1.6l-1.3 1.3c1.5 1.4 3.2 1.9 5.5 1.9 3.2 0 5.5-1.5 5.5-4.1 0-2.5-1.6-3.4-4-3.6zm16.8-6c-2.2 0-3.5.4-4.7 1.9l1.3 1.3c.8-1.1 1.7-1.5 3.4-1.5 2.5 0 3.4 1 3.4 2.9v1.3h-4c-3 0-4.6 1.5-4.6 3.9 0 1.1.4 2.1 1 2.7.8.9 1.9 1.2 3.8 1.2 1.8 0 2.8-.4 3.9-1.4v1.3h2v-9.1c-.1-3-1.9-4.5-5.5-4.5zm3.4 8.8c0 1.1-.2 1.9-.7 2.3-.8.8-1.9.9-3 .9-2.1 0-3.1-.7-3.1-2.3 0-1.6 1-2.4 3-2.4H63v1.5zm9.7-7.1c1.3 0 2.1.4 3.1 1.5l1.3-1.3c-1.4-1.5-2.5-2-4.4-2-3.4 0-5.9 2.3-5.9 6.9s2.6 6.9 5.9 6.9c1.9 0 3-.5 4.4-2l-1.3-1.3c-1 1.1-1.8 1.5-3.1 1.5s-2.4-.5-3.1-1.5c-.6-.9-.9-1.9-.9-3.6 0-1.7.2-2.7.9-3.6.7-1 1.8-1.5 3.1-1.5zm16.8-1.6h-2.4L81 23.3V11.5h-2v19.4h2V26l2.4-2.4 4.5 7.3h2.4l-5.6-8.6 4.8-4.9zm9.2-.6c-2.1 0-3.5.8-4.3 1.7-1.3 1.3-1.6 2.9-1.6 5.4s.3 4.1 1.6 5.4c.9.9 2.3 1.7 4.3 1.7 2.1 0 3.5-.8 4.3-1.7 1.3-1.3 1.6-2.9 1.6-5.4s-.3-4.1-1.6-5.4c-.8-1-2.2-1.7-4.3-1.7zm1.7 10.5c-.4.4-.9.6-1.6.6s-1.2-.2-1.6-.6c-.7-.7-.8-2-.8-3.4s.1-2.7.8-3.4c.4-.4.9-.6 1.6-.6s1.2.2 1.6.6c.7.7.8 1.9.8 3.4 0 1.4-.1 2.6-.8 3.4zM114 16.9l-2.8 8.6-2.8-8.6h-3.7l5.2 14h2.7l5.1-14H114zm9.6-.1c-3.6 0-6.1 2.6-6.1 7.1 0 5.7 3.2 7.2 6.5 7.2 2.5 0 3.9-.8 5.3-2.2l-2.1-2.1c-.9.9-1.6 1.2-3.2 1.2-2 0-3.1-1.3-3.1-3.1h8.7v-1.6c.1-3.7-2.1-6.5-6-6.5zm-2.7 5.8c0-.6.1-1 .3-1.5.4-.8 1.2-1.4 2.3-1.4 1.2 0 2 .6 2.3 1.4.2.5.3.9.3 1.5h-5.2zm13.9-4.4v-1.3h-3.4v14h3.5v-8.4c0-1.8 1.2-2.6 2.3-2.6.9 0 1.3.3 1.8.8l2.6-2.7c-1-1-1.9-1.3-3.3-1.3-1.5.1-2.8.7-3.5 1.5zm7.8-2.8v15.4h3.5v-11h2.6v-2.7h-2.6v-1.5c0-.8.4-1.3 1.2-1.3h1.3v-3h-2c-2.8.1-4 2.1-4 4.1zm20.4 1.4c-2.1 0-3.5.8-4.3 1.7-1.3 1.3-1.6 2.9-1.6 5.4s.3 4.1 1.6 5.4c.9.9 2.3 1.7 4.3 1.7 2.1 0 3.5-.8 4.3-1.7 1.3-1.3 1.6-2.9 1.6-5.4s-.3-4.1-1.6-5.4c-.8-1-2.2-1.7-4.3-1.7zm1.7 10.5c-.4.4-.9.6-1.6.6-.7 0-1.2-.2-1.6-.6-.7-.7-.8-2-.8-3.4s.1-2.7.8-3.4c.4-.4.9-.6 1.6-.6.7 0 1.2.2 1.6.6.7.7.8 1.9.8 3.4 0 1.4-.1 2.6-.8 3.4zm20.7-10.4l-2.3 8.6-2.9-8.6h-2.5l-2.8 8.6-2.3-8.6H169l4.3 14h2.9l2.9-8.8 2.9 8.8h2.9l4.3-14h-3.8zm-31.6 9.9V11.4h-3.5v15.4c0 2 1.2 4 4.1 4h2v-3h-1.3c-.9.1-1.3-.3-1.3-1zM52.2 19.6l1.8-1.8h-3.7v-4.4h-2v13.9c0 2 1.1 3.6 3.4 3.6h1.4v-1.7h-1c-1.3 0-1.8-.7-1.8-2v-7.7l1.9.1z"/></svg>