<svg xmlns="http://www.w3.org/2000/svg" width="240" height="76.5"><path fill="#eee" d="M41.8 45c-2.3 0-4.1-0.5-5.6-2l1.3-1.3c1.1 1.1 2.6 1.6 4.3 1.6 2.3 0 3.7-0.8 3.7-2.4 0-1.2-0.7-1.9-2.3-2l-2.3-0.2c-2.7-0.2-4.1-1.4-4.1-3.7 0-2.5 2.1-4 5-4 2 0 3.7 0.5 4.9 1.5l-1.3 1.3c-1-0.8-2.2-1.1-3.7-1.1 -2 0-3.1 0.9-3.1 2.3 0 1.2 0.7 1.9 2.4 2l2.2 0.2c2.4 0.2 4 1.1 4 3.7C47.4 43.5 45.1 45 41.8 45zM53.5 44.8c-2.3 0-3.5-1.6-3.5-3.7v-8.4h-1.7v-1.5H50v-4.3h2v4.3h2.9v1.5H52v8.4c0 1.3 0.6 2 1.9 2H55v1.7H53.5zM65.3 44.8v-1.3c-1.1 1.1-2.1 1.5-4 1.5 -1.9 0-3-0.4-3.9-1.3 -0.7-0.7-1-1.7-1-2.8 0-2.4 1.7-4 4.7-4h4.1v-1.3c0-2-1-3-3.5-3 -1.8 0-2.6 0.4-3.5 1.6L57 33c1.2-1.6 2.6-2 4.8-2 3.7 0 5.5 1.6 5.5 4.6v9.3L65.3 44.8 65.3 44.8zM65.3 38.5h-3.8c-2.1 0-3.1 0.8-3.1 2.4s1 2.3 3.1 2.3c1.2 0 2.2-0.1 3.1-0.9 0.5-0.4 0.7-1.2 0.7-2.4V38.5zM75.1 45c-3.5 0-6.1-2.3-6.1-7s2.6-7 6.1-7c1.9 0 3.1 0.5 4.5 2l-1.4 1.3c-1-1.1-1.8-1.5-3.1-1.5 -1.3 0-2.5 0.5-3.2 1.6 -0.6 0.9-0.9 2-0.9 3.7 0 1.7 0.3 2.8 0.9 3.7 0.7 1 1.8 1.6 3.2 1.6 1.3 0 2.1-0.4 3.1-1.6l1.4 1.3C78.2 44.5 77 45 75.1 45zM90.6 44.8l-4.3-7 -2.7 3.1v4h-2V25h2v13.3l6.2-7.1h2.5l-4.7 5.2 5.5 8.5L90.6 44.8 90.6 44.8zM103.8 43.3c-0.8 0.9-2.2 1.7-4.3 1.7 -2 0-3.4-0.8-4.3-1.7 -1.2-1.3-1.6-2.9-1.6-5.4s0.3-4 1.6-5.3c0.8-0.9 2.2-1.7 4.3-1.7 2 0 3.4 0.8 4.3 1.7 1.2 1.3 1.6 2.9 1.6 5.3C105.4 40.5 105 42 103.8 43.3zM101.1 34.6c-0.4-0.4-0.9-0.6-1.6-0.6s-1.2 0.2-1.6 0.6c-0.7 0.7-0.8 1.9-0.8 3.3s0.1 2.6 0.8 3.4c0.4 0.4 0.9 0.6 1.6 0.6s1.2-0.2 1.6-0.6c0.7-0.7 0.8-1.9 0.8-3.4C101.9 36.5 101.9 35.3 101.1 34.6zM113.1 44.8h-2.7l-5.1-13.7h3.6l2.8 8.5 2.8-8.5h3.6L113.1 44.8zM121.4 39c0 1.8 1.1 3.1 3 3.1 1.5 0 2.2-0.4 3.1-1.3l2.1 2C128.2 44.2 126.9 45 124.4 45c-3.2 0-6.4-1.5-6.4-7.1 0-4.5 2.4-7 6-7 3.8 0 6 2.8 6 6.6V39H121.4zM126.3 35.2c-0.4-0.8-1.1-1.4-2.3-1.4s-1.9 0.6-2.3 1.4c-0.2 0.5-0.3 0.9-0.3 1.5h5.2C126.6 36.1 126.5 35.7 126.3 35.2zM139.2 34.8c-0.5-0.5-1-0.8-1.8-0.8 -1.1 0-2.2 0.8-2.2 2.5v8.3h-3.4V31.1h3.4v1.3c0.7-0.8 2-1.5 3.5-1.5 1.3 0 2.3 0.3 3.2 1.3L139.2 34.8zM147.5 33.7v11.1h-3.4V33.7H142.7v-2.6h1.4v-1.7c0-2 1.2-3.9 4-3.9h2v2.9h-1.3c-0.8 0-1.2 0.4-1.2 1.2v1.5h2.5v2.6H147.5zM155.6 44.8c-2.8 0-4-2-4-3.9V25.4h3.4v15.2c0 0.8 0.3 1.2 1.2 1.2h1.3v2.9L155.6 44.8zM168.2 43.3c-0.8 0.9-2.2 1.7-4.3 1.7 -2 0-3.4-0.8-4.3-1.7 -1.2-1.3-1.6-2.9-1.6-5.4s0.3-4 1.6-5.3c0.8-0.9 2.2-1.7 4.3-1.7 2 0 3.4 0.8 4.3 1.7 1.2 1.3 1.6 2.9 1.6 5.3C169.7 40.5 169.4 42 168.2 43.3zM165.5 34.6c-0.4-0.4-0.9-0.6-1.6-0.6 -0.7 0-1.2 0.2-1.6 0.6 -0.7 0.7-0.8 1.9-0.8 3.3s0.1 2.6 0.8 3.4c0.4 0.4 0.9 0.6 1.6 0.6 0.7 0 1.2-0.2 1.6-0.6 0.7-0.7 0.8-1.9 0.8-3.4C166.3 36.5 166.2 35.3 165.5 34.6zM185.1 44.8h-2.8l-2.9-8.6 -2.9 8.6h-2.8l-4.2-13.7h3.6l2.2 8.5 2.8-8.5h2.5l2.8 8.5 2.2-8.5h3.6L185.1 44.8z"/><rect x="6" y="38.9" fill="#818185" width="17" height="3"/><polygon fill="#818185" points="26 30.9 26 44.9 3 44.9 3 30.9 0 30.9 0 47.9 0 47.9 29 47.9 29 30.9 "/><rect x="6.2" y="33.5" transform="matrix(0.9958 0.0919 -0.0919 0.9958 3.2794 -1.1931)" fill="#A68A6E" width="16.8" height="3"/><polygon fill="#BF9452" points="23.2 32.9 6.9 28.9 7.6 25.9 23.9 30 "/><polygon fill="#D28B29" points="24.3 28.2 9.6 20.7 11 18.2 25.6 25.7 "/><polygon fill="#F68A1F" points="26.7 24.7 13.7 13.9 15.7 11.7 28.7 22.4 "/><polygon fill="#F47920" points="29.6 21 20.1 7.6 22.5 6 32.1 19.4 "/><path fill="#A3A3A3" d="M37.5 59.9c0 1.6 0.8 2.5 2.2 2.5 0.8 0 1.3-0.3 1.9-0.8l0.7 0.6c-0.7 0.7-1.4 1.1-2.7 1.1 -1.9 0-3.2-1.2-3.2-3.8 0-2.4 1.1-3.8 3-3.8s3 1.4 3 3.5v0.5h-4.9V59.9zM41.2 57.8c-0.3-0.7-0.9-1.1-1.7-1.1s-1.4 0.4-1.7 1.1c-0.2 0.4-0.2 0.6-0.2 1.2h3.9C41.4 58.5 41.4 58.2 41.2 57.8zM54.2 63.2v-4.5c0-1.3-0.7-2-1.8-2s-1.8 0.7-1.8 1.8v4.6h-1.1v-4.5c0-1.3-0.7-2-1.8-2 -1.1 0-1.8 0.7-1.8 2v4.5h-1.1v-7.3h1.1v0.8c0.5-0.6 1.3-0.9 2.1-0.9 1 0 1.8 0.4 2.2 1.2 0.6-0.8 1.4-1.2 2.4-1.2 0.8 0 1.4 0.3 1.9 0.7 0.5 0.5 0.8 1.2 0.8 2v4.7h-1.1V63.2zM65.7 58.9h-2.8v4.4h-1.1V52.6h3.9c1.9 0 3.3 1.2 3.3 3.1C69 57.6 67.7 58.9 65.7 58.9zM65.6 53.6h-2.7v4.2h2.7c1.3 0 2.2-0.7 2.2-2.1C67.9 54.3 66.9 53.6 65.6 53.6zM75.5 62.5c-0.5 0.5-1.2 0.8-2.1 0.8s-1.6-0.3-2.1-0.8c-0.7-0.8-0.9-1.8-0.9-2.9s0.1-2.2 0.9-2.9c0.5-0.5 1.2-0.8 2.1-0.8s1.6 0.3 2.1 0.8c0.7 0.8 0.9 1.8 0.9 2.9S76.3 61.7 75.5 62.5zM74.8 57.3c-0.3-0.3-0.8-0.5-1.3-0.5s-1 0.2-1.3 0.5c-0.5 0.5-0.6 1.4-0.6 2.3 0 0.8 0.1 1.7 0.6 2.3 0.3 0.3 0.8 0.5 1.3 0.5s1-0.2 1.3-0.5c0.5-0.5 0.6-1.4 0.6-2.3C75.3 58.8 75.3 57.8 74.8 57.3zM82.8 57.3c-0.4-0.4-0.7-0.5-1.3-0.5 -1.1 0-1.8 0.8-1.8 2v4.5h-1.1V56h1.1v0.9c0.4-0.6 1.2-1 2.1-1 0.7 0 1.2 0.2 1.8 0.7L82.8 57.3zM87 63.2c-1.3 0-1.9-0.9-1.9-2v-4.5h-0.9v-0.8h0.9v-2.3h1.1v2.3h1.6v0.8h-1.6v4.5c0 0.7 0.3 1.1 1 1.1h0.6v0.9H87zM94.6 63.2v-0.8c-0.5 0.6-1.3 0.9-2.1 0.9s-1.4-0.2-1.9-0.7 -0.7-1.2-0.7-2.1v-4.7H91v4.5c0 1.3 0.7 2 1.8 2 1.1 0 1.8-0.7 1.8-2v-4.5h1.1v7.3h-1.1V63.2zM100.7 66.6c-1.1 0-1.7-0.3-2.5-1l0.7-0.7c0.5 0.5 0.9 0.7 1.8 0.7 1.4 0 2-1 2-2.2v-1.1c-0.6 0.8-1.3 1-2.1 1 -0.7 0-1.4-0.3-1.8-0.7 -0.7-0.7-0.9-1.9-0.9-3.1s0.2-2.3 0.9-3.1c0.4-0.4 1-0.6 1.8-0.6 0.8 0 1.5 0.2 2.1 1v-0.9h1.1v7.6C103.7 65.3 102.6 66.6 100.7 66.6zM100.8 56.8c-1.6 0-1.8 1.4-1.8 2.7s0.2 2.7 1.8 2.7c1.6 0 1.8-1.4 1.8-2.7S102.4 56.8 100.8 56.8zM111 63.2v-0.8c-0.5 0.6-1.3 0.9-2.1 0.9 -0.8 0-1.4-0.2-1.9-0.7s-0.7-1.2-0.7-2.1v-4.7h1.1v4.5c0 1.3 0.7 2 1.8 2 1.1 0 1.8-0.7 1.8-2v-4.5h1.1v7.3H111V63.2zM115.5 59.9c0 1.6 0.8 2.5 2.2 2.5 0.8 0 1.3-0.3 1.9-0.8l0.7 0.6c-0.7 0.7-1.4 1.1-2.7 1.1 -1.9 0-3.2-1.2-3.2-3.8 0-2.4 1.1-3.8 3-3.8s3 1.4 3 3.5v0.5h-4.9V59.9zM118.8 54.4l-1.3-1.5 -1.3 1.5h-1l1.9-2.3h1l1.9 2.3H118.8zM119.1 57.8c-0.3-0.7-0.9-1.1-1.7-1.1 -0.8 0-1.4 0.4-1.7 1.1 -0.2 0.4-0.2 0.6-0.2 1.2h3.9C119.3 58.5 119.3 58.2 119.1 57.8zM125 63.3c-1.2 0-2.2-0.3-3-1.1l0.7-0.7c0.6 0.6 1.4 0.8 2.3 0.8 1.2 0 2-0.4 2-1.3 0-0.6-0.4-1-1.2-1.1l-1.2-0.1c-1.4-0.1-2.2-0.8-2.2-2 0-1.3 1.1-2.1 2.7-2.1 1 0 2 0.3 2.6 0.8l-0.7 0.7c-0.5-0.4-1.2-0.6-2-0.6 -1.1 0-1.6 0.5-1.6 1.2 0 0.6 0.4 1 1.3 1.1l1.2 0.1c1.3 0.1 2.2 0.6 2.2 2C128 62.5 126.8 63.3 125 63.3z"/></svg>