<svg xmlns="http://www.w3.org/2000/svg" width="240" height="76.5"><path fill="#eee" d="M41.8 45c-2.3 0-4.1-.5-5.6-2l1.3-1.3c1.1 1.1 2.6 1.6 4.3 1.6 2.3 0 3.7-.8 3.7-2.4 0-1.2-.7-1.9-2.3-2l-2.3-.2c-2.7-.2-4.1-1.4-4.1-3.7 0-2.5 2.1-4 5-4 2 0 3.7.5 4.9 1.5l-1.3 1.3c-1-.8-2.2-1.1-3.7-1.1-2 0-3.1.9-3.1 2.3 0 1.2.7 1.9 2.4 2l2.2.2c2.4.2 4 1.1 4 3.7.2 2.6-2.1 4.1-5.4 4.1zm11.7-.2c-2.3 0-3.5-1.6-3.5-3.7v-8.4h-1.7v-1.5H50v-4.3h2v4.3h2.9v1.5H52v8.4c0 1.3.6 2 1.9 2H55v1.7h-1.5zm11.8 0v-1.3c-1.1 1.1-2.1 1.5-4 1.5s-3-.4-3.9-1.3c-.7-.7-1-1.7-1-2.8 0-2.4 1.7-4 4.7-4h4.1v-1.3c0-2-1-3-3.5-3-1.8 0-2.6.4-3.5 1.6L57 33c1.2-1.6 2.6-2 4.8-2 3.7 0 5.5 1.6 5.5 4.6v9.3l-2-.1zm0-6.3h-3.8c-2.1 0-3.1.8-3.1 2.4s1 2.3 3.1 2.3c1.2 0 2.2-.1 3.1-.9.5-.4.7-1.2.7-2.4v-1.4zm9.8 6.5c-3.5 0-6.1-2.3-6.1-7s2.6-7 6.1-7c1.9 0 3.1.5 4.5 2l-1.4 1.3c-1-1.1-1.8-1.5-3.1-1.5s-2.5.5-3.2 1.6c-.6.9-.9 2-.9 3.7 0 1.7.3 2.8.9 3.7.7 1 1.8 1.6 3.2 1.6 1.3 0 2.1-.4 3.1-1.6l1.4 1.3C78.2 44.5 77 45 75.1 45zm15.5-.2l-4.3-7-2.7 3.1v4h-2V25h2v13.3l6.2-7.1h2.5l-4.7 5.2 5.5 8.5-2.5-.1zm13.2-1.5c-.8.9-2.2 1.7-4.3 1.7-2 0-3.4-.8-4.3-1.7-1.2-1.3-1.6-2.9-1.6-5.4s.3-4 1.6-5.3c.8-.9 2.2-1.7 4.3-1.7 2 0 3.4.8 4.3 1.7 1.2 1.3 1.6 2.9 1.6 5.3 0 2.6-.4 4.1-1.6 5.4zm-2.7-8.7c-.4-.4-.9-.6-1.6-.6s-1.2.2-1.6.6c-.7.7-.8 1.9-.8 3.3s.1 2.6.8 3.4c.4.4.9.6 1.6.6s1.2-.2 1.6-.6c.7-.7.8-1.9.8-3.4 0-1.4 0-2.6-.8-3.3zm12 10.2h-2.7l-5.1-13.7h3.6l2.8 8.5 2.8-8.5h3.6l-5 13.7zm8.3-5.8c0 1.8 1.1 3.1 3 3.1 1.5 0 2.2-.4 3.1-1.3l2.1 2c-1.4 1.4-2.7 2.2-5.2 2.2-3.2 0-6.4-1.5-6.4-7.1 0-4.5 2.4-7 6-7 3.8 0 6 2.8 6 6.6V39h-8.6zm4.9-3.8c-.4-.8-1.1-1.4-2.3-1.4s-1.9.6-2.3 1.4c-.2.5-.3.9-.3 1.5h5.2c0-.6-.1-1-.3-1.5zm12.9-.4c-.5-.5-1-.8-1.8-.8-1.1 0-2.2.8-2.2 2.5v8.3h-3.4V31.1h3.4v1.3c.7-.8 2-1.5 3.5-1.5 1.3 0 2.3.3 3.2 1.3l-2.7 2.6zm8.3-1.1v11.1h-3.4V33.7h-1.4v-2.6h1.4v-1.7c0-2 1.2-3.9 4-3.9h2v2.9h-1.3c-.8 0-1.2.4-1.2 1.2v1.5h2.5v2.6h-2.6zm8.1 11.1c-2.8 0-4-2-4-3.9V25.4h3.4v15.2c0 .8.3 1.2 1.2 1.2h1.3v2.9l-1.9.1zm12.6-1.5c-.8.9-2.2 1.7-4.3 1.7-2 0-3.4-.8-4.3-1.7-1.2-1.3-1.6-2.9-1.6-5.4s.3-4 1.6-5.3c.8-.9 2.2-1.7 4.3-1.7 2 0 3.4.8 4.3 1.7 1.2 1.3 1.6 2.9 1.6 5.3-.1 2.6-.4 4.1-1.6 5.4zm-2.7-8.7c-.4-.4-.9-.6-1.6-.6-.7 0-1.2.2-1.6.6-.7.7-.8 1.9-.8 3.3s.1 2.6.8 3.4c.4.4.9.6 1.6.6.7 0 1.2-.2 1.6-.6.7-.7.8-1.9.8-3.4 0-1.4-.1-2.6-.8-3.3zm19.6 10.2h-2.8l-2.9-8.6-2.9 8.6h-2.8l-4.2-13.7h3.6l2.2 8.5 2.8-8.5h2.5l2.8 8.5 2.2-8.5h3.6l-4.1 13.7z"/><path fill="#818185" d="M6 38.9h17v3H6z"/><path fill="#818185" d="M26 30.9v14H3v-14H0v17h29v-17"/><path fill="#A68A6E" d="M6.375 32.736l16.73 1.544-.277 2.987-16.73-1.544z"/><path fill="#BF9452" d="M23.2 32.9l-16.3-4 .7-3L23.9 30"/><path fill="#D28B29" d="M24.3 28.2L9.6 20.7l1.4-2.5 14.6 7.5"/><path fill="#F68A1F" d="M26.7 24.7l-13-10.8 2-2.2 13 10.7"/><path fill="#F47920" d="M29.6 21L20.1 7.6 22.5 6l9.6 13.4"/><path fill="#A3A3A3" d="M37.5 59.9c0 1.6.8 2.5 2.2 2.5.8 0 1.3-.3 1.9-.8l.7.6c-.7.7-1.4 1.1-2.7 1.1-1.9 0-3.2-1.2-3.2-3.8 0-2.4 1.1-3.8 3-3.8s3 1.4 3 3.5v.5h-4.9v.2zm3.7-2.1c-.3-.7-.9-1.1-1.7-1.1s-1.4.4-1.7 1.1c-.2.4-.2.6-.2 1.2h3.9c-.1-.5-.1-.8-.3-1.2zm13 5.4v-4.5c0-1.3-.7-2-1.8-2s-1.8.7-1.8 1.8v4.6h-1.1v-4.5c0-1.3-.7-2-1.8-2s-1.8.7-1.8 2v4.5h-1.1v-7.3h1.1v.8c.5-.6 1.3-.9 2.1-.9 1 0 1.8.4 2.2 1.2.6-.8 1.4-1.2 2.4-1.2.8 0 1.4.3 1.9.7.5.5.8 1.2.8 2v4.7h-1.1v.1zm11.5-4.3h-2.8v4.4h-1.1V52.6h3.9c1.9 0 3.3 1.2 3.3 3.1 0 1.9-1.3 3.2-3.3 3.2zm-.1-5.3h-2.7v4.2h2.7c1.3 0 2.2-.7 2.2-2.1.1-1.4-.9-2.1-2.2-2.1zm9.9 8.9c-.5.5-1.2.8-2.1.8s-1.6-.3-2.1-.8c-.7-.8-.9-1.8-.9-2.9s.1-2.2.9-2.9c.5-.5 1.2-.8 2.1-.8s1.6.3 2.1.8c.7.8.9 1.8.9 2.9s-.1 2.1-.9 2.9zm-.7-5.2c-.3-.3-.8-.5-1.3-.5s-1 .2-1.3.5c-.5.5-.6 1.4-.6 2.3 0 .8.1 1.7.6 2.3.3.3.8.5 1.3.5s1-.2 1.3-.5c.5-.5.6-1.4.6-2.3-.1-.8-.1-1.8-.6-2.3zm8 0c-.4-.4-.7-.5-1.3-.5-1.1 0-1.8.8-1.8 2v4.5h-1.1V56h1.1v.9c.4-.6 1.2-1 2.1-1 .7 0 1.2.2 1.8.7l-.8.7zm4.2 5.9c-1.3 0-1.9-.9-1.9-2v-4.5h-.9v-.8h.9v-2.3h1.1v2.3h1.6v.8h-1.6v4.5c0 .7.3 1.1 1 1.1h.6v.9H87zm7.6 0v-.8c-.5.6-1.3.9-2.1.9s-1.4-.2-1.9-.7-.7-1.2-.7-2.1v-4.7H91v4.5c0 1.3.7 2 1.8 2s1.8-.7 1.8-2v-4.5h1.1v7.3h-1.1v.1zm6.1 3.4c-1.1 0-1.7-.3-2.5-1l.7-.7c.5.5.9.7 1.8.7 1.4 0 2-1 2-2.2v-1.1c-.6.8-1.3 1-2.1 1-.7 0-1.4-.3-1.8-.7-.7-.7-.9-1.9-.9-3.1s.2-2.3.9-3.1c.4-.4 1-.6 1.8-.6s1.5.2 2.1 1v-.9h1.1v7.6c-.1 1.8-1.2 3.1-3.1 3.1zm.1-9.8c-1.6 0-1.8 1.4-1.8 2.7s.2 2.7 1.8 2.7 1.8-1.4 1.8-2.7-.2-2.7-1.8-2.7zm10.2 6.4v-.8c-.5.6-1.3.9-2.1.9s-1.4-.2-1.9-.7-.7-1.2-.7-2.1v-4.7h1.1v4.5c0 1.3.7 2 1.8 2s1.8-.7 1.8-2v-4.5h1.1v7.3H111v.1zm4.5-3.3c0 1.6.8 2.5 2.2 2.5.8 0 1.3-.3 1.9-.8l.7.6c-.7.7-1.4 1.1-2.7 1.1-1.9 0-3.2-1.2-3.2-3.8 0-2.4 1.1-3.8 3-3.8s3 1.4 3 3.5v.5h-4.9v.2zm3.3-5.5l-1.3-1.5-1.3 1.5h-1l1.9-2.3h1l1.9 2.3h-1.2zm.3 3.4c-.3-.7-.9-1.1-1.7-1.1-.8 0-1.4.4-1.7 1.1-.2.4-.2.6-.2 1.2h3.9c-.1-.5-.1-.8-.3-1.2zm5.9 5.5c-1.2 0-2.2-.3-3-1.1l.7-.7c.6.6 1.4.8 2.3.8 1.2 0 2-.4 2-1.3 0-.6-.4-1-1.2-1.1l-1.2-.1c-1.4-.1-2.2-.8-2.2-2 0-1.3 1.1-2.1 2.7-2.1 1 0 2 .3 2.6.8l-.7.7c-.5-.4-1.2-.6-2-.6-1.1 0-1.6.5-1.6 1.2 0 .6.4 1 1.3 1.1l1.2.1c1.3.1 2.2.6 2.2 2-.1 1.5-1.3 2.3-3.1 2.3z"/></svg>