<?xml version="1.0" encoding="utf-8"?>
<!-- Generator: Adobe Illustrator 16.0.0, SVG Export Plug-In . SVG Version: 6.00 Build 0)  -->
<!DOCTYPE svg PUBLIC "-//W3C//DTD SVG 1.1//EN" "http://www.w3.org/Graphics/SVG/1.1/DTD/svg11.dtd">
<svg version="1.1"
	 id="Layer_1" xmlns:inkscape="http://www.inkscape.org/namespaces/inkscape" xmlns:sodipodi="http://sodipodi.sourceforge.net/DTD/sodipodi-0.dtd" xmlns:svg="http://www.w3.org/2000/svg" xmlns:rdf="http://www.w3.org/1999/02/22-rdf-syntax-ns#" xmlns:cc="http://creativecommons.org/ns#" xmlns:dc="http://purl.org/dc/elements/1.1/" inkscape:version="0.91 r13725" sodipodi:docname="ru-meta-stackoverflow-logo.svg"
	 xmlns="http://www.w3.org/2000/svg" xmlns:xlink="http://www.w3.org/1999/xlink" x="0px" y="0px" width="240px" height="70.5px"
	 viewBox="-135 17 240 70.5" enable-background="new -135 17 240 70.5" xml:space="preserve">
<sodipodi:namedview  id="namedview134" borderopacity="1" pagecolor="#ffffff" bordercolor="#666666" objecttolerance="10" gridtolerance="10" guidetolerance="10" showgrid="false" inkscape:zoom="1.3350176" inkscape:cx="120" inkscape:cy="250" inkscape:current-layer="Layer_1" inkscape:window-maximized="0" inkscape:window-y="0" inkscape:window-x="1024" inkscape:window-width="1460" inkscape:window-height="849" inkscape:pageopacity="0" inkscape:pageshadow="2">
	</sodipodi:namedview>
<path id="path122" fill="#F48024" d="M93.1,53.3h1l-0.5-1.5L93.1,53.3z M98.7,45.2H67.8c-0.7,0-1.3,0.6-1.3,1.3v11.8
	c0,0.7,0.6,1.3,1.3,1.3h30.9c0.7,0,1.3-0.6,1.3-1.3V46.4C100,45.7,99.4,45.2,98.7,45.2z M77.5,56.101c0,0.1-0.1,0.1-0.1,0.1h-1.9
	c-0.1,0-0.1-0.1-0.1-0.1v-3.2l-0.8,1.5l-0.1,0.1h-1.2c0,0-0.1,0-0.1-0.1l-0.9-1.5v3.2c0,0.1-0.1,0.1-0.1,0.1h-1.9
	c-0.1,0-0.1-0.1-0.1-0.1v-7.6c0-0.1,0.1-0.1,0.1-0.1h1.8c0,0,0.1,0,0.1,0.1l1.6,3.1l1.6-3.1l0.1-0.1h1.8c0.1,0,0.1,0.1,0.1,0.1v7.6
	H77.5z M83.9,50.2c0,0.1-0.1,0.1-0.1,0.1h-3.2v1h2.7c0.1,0,0.1,0.1,0.1,0.1v1.7c0,0.1-0.1,0.1-0.1,0.1h-2.7v1.1h3.2
	c0.1,0,0.1,0.1,0.1,0.1v1.7c0,0.1-0.1,0.1-0.1,0.1h-5.1c-0.1,0-0.1-0.1-0.1-0.1v-7.6c0-0.1,0.1-0.1,0.1-0.1h5.1
	c0.1,0,0.1,0.1,0.1,0.1V50.2z M88.6,56.101c0,0.1-0.1,0.1-0.1,0.1h-1.9c-0.1,0-0.1-0.1-0.1-0.1v-5.8h-1.7c-0.1,0-0.1-0.1-0.1-0.1
	v-1.7c0-0.1,0.1-0.1,0.1-0.1h5.6c0.1,0,0.1,0.1,0.1,0.1v1.7c0,0.1-0.1,0.1-0.1,0.1h-1.7v5.8H88.6z M97.1,56.2
	C97.1,56.2,97,56.2,97.1,56.2l-2,0.1c-0.1,0-0.1,0-0.1-0.1l-0.3-1h-2.2l-0.3,1l-0.1,0.1h-1.9c0,0-0.1,0-0.1-0.1v-0.1l2.8-7.6
	l0.1-0.1h1.4c0.1,0,0.1,0,0.1,0.1l2.8,7.6C97.1,56.101,97.1,56.101,97.1,56.2z"/>
<path id="path126" fill="#A3A3A3" d="M-87.9,66.2h-3.4v-3.3h-1.5v8.3h1.5v-3.6h3.4v3.7h1.6v-8.4h-1.6V66.2z M-81.7,62.7
	c-0.8,0-1.3,0.1-1.9,0.4l-0.1,0.1c-0.3,0.2-0.5,0.4-0.9,0.8l-0.1,0.2l1.2,1l0.1-0.2c0.2-0.3,0.4-0.4,0.6-0.5
	c0.4-0.1,0.7-0.2,1.1-0.2c1.3,0,1.8,0.4,1.8,1.5v0.5h-2.2c-1.8,0-3,1-3,2.5c0,1.6,1.1,2.5,3,2.5c0.5,0,1-0.1,1.5-0.3
	c0.2-0.1,0.3-0.2,0.5-0.3v0.6h1.8v-5.6C-78.3,63.7-79.4,62.7-81.7,62.7z M-80,68.101c0,1.2-0.5,1.7-1.8,1.7c-1.4,0-1.7-0.4-1.7-1.1
	c0-0.5,0.2-1.2,1.6-1.2h1.9V68.101z M-70.5,62.9c-0.6,0-1,0.1-1.4,0.3c-0.2,0.1-0.3,0.2-0.5,0.3v-0.6H-74v11.9h1.6v-4.2
	c0,0,0,0,0.1,0.1c0.2,0.2,0.3,0.3,0.6,0.4l0.2,0.1c0.4,0.1,0.7,0.2,1.1,0.2c2.1,0,3.1-1.3,3.1-4.1C-67.2,64.3-68.3,62.9-70.5,62.9z
	 M-70.5,69.8c-1.1,0-1.8-0.5-1.8-2.8c0-2.5,0.9-2.8,1.7-2.8c1.1,0,1.8,0.5,1.8,2.8C-68.8,69.5-69.6,69.8-70.5,69.8z M-63.1,68.601
	l-2-5.9h-1.7l3,7.9l-0.6,1.5c-0.3,0.7-0.5,0.8-1.1,0.8h-0.6v1.5h0.7c1.1,0,1.9-0.6,2.2-1.6l3.7-10.2h-1.7L-63.1,68.601z M-53.6,69
	c-0.2,0.1-0.3,0.3-0.4,0.4c-0.2,0.2-0.3,0.3-0.5,0.3c-0.2,0.1-0.4,0.1-0.7,0.1c-1.5,0-2.2-0.9-2.2-2.8c0-1.3,0.4-2.8,2.2-2.8
	c0.2,0,0.5,0,0.7,0.1s0.4,0.2,0.6,0.5l0.1,0.2l1.2-1l-0.1-0.2c-0.5-0.6-0.8-0.8-1.3-1c-0.3-0.1-0.9-0.3-1.4-0.3
	c-2.3,0-3.7,1.7-3.7,4.3c0,2.7,1.4,4.3,3.7,4.3c0.5,0,1-0.1,1.4-0.2s0.6-0.3,1.1-0.6c0.1-0.1,0.3-0.2,0.5-0.3l0.2-0.2l-1.2-1
	L-53.6,69z M-46.3,69c-0.2,0.1-0.3,0.3-0.4,0.4c-0.2,0.2-0.3,0.3-0.5,0.3c-0.2,0.1-0.4,0.1-0.7,0.1c-1.5,0-2.2-0.9-2.2-2.8
	c0-1.3,0.4-2.8,2.2-2.8c0.2,0,0.5,0,0.7,0.1c0.2,0.1,0.4,0.2,0.8,0.7l0.1,0.2l1.2-1l-0.1-0.2c-0.5-0.6-0.8-0.8-1.3-1l0,0
	c-0.2-0.1-0.4-0.1-0.6-0.2c-0.2-0.1-0.4-0.1-0.7-0.2h-0.1c-2.3,0-3.7,1.7-3.7,4.3c0,2.7,1.4,4.3,3.7,4.3c0.5,0,1-0.1,1.4-0.3
	c0.3-0.1,0.5-0.2,0.8-0.5c0.2-0.1,0.3-0.2,0.6-0.4l0.1-0.1l-1.2-1L-46.3,69z M-37,62.9h-2.1l-3.2,3.4v-3.4h-1.6v8.4h1.6v-3.7
	l3.4,3.7h2l-4-4.4L-37,62.9z M-33.6,62.9c-1.1,0-1.8,0.3-2.4,0.9c-0.7,0.7-1,1.6-1,3.3c0,1.6,0.3,2.5,1,3.3c0.6,0.6,1.4,0.9,2.4,0.9
	s1.8-0.3,2.4-0.9c0.7-0.7,1-1.7,1-3.3c0-1.6-0.3-2.5-1-3.3C-31.8,63.2-32.7,62.9-33.6,62.9z M-32.3,69.2c-0.4,0.4-0.8,0.5-1.3,0.5
	s-0.9-0.2-1.3-0.5c-0.4-0.4-0.5-0.9-0.5-2.2c0-1.3,0.1-1.9,0.5-2.2c0.3-0.3,0.7-0.4,1.3-0.5c0.5,0,0.9,0.2,1.3,0.5
	c0.4,0.4,0.5,1,0.5,2.2C-31.7,68.2-31.9,68.8-32.3,69.2z M-22.3,62.9l-2.5,5l-2.5-5h-1.4v8.4h1.5v-5l1.9,3.7h1.1l1.8-3.6v4.9h1.6
	v-8.4H-22.3z"/>
<path id="path128" fill="#EEEEEE" d="M-86.2,51.7l-2.2-0.2c-1.7-0.1-2.4-0.8-2.4-2c0-1.4,1.1-2.3,3.1-2.3c1.4,0,2.7,0.3,3.6,1.1
	l1.3-1.3c-1.2-1-3-1.5-4.9-1.5c-2.9,0-5,1.5-5,4c0,2.3,1.4,3.5,4.1,3.7l2.3,0.2c1.6,0.1,2.3,0.8,2.3,2c0,1.6-1.4,2.4-3.6,2.4
	c-1.7,0-3.2-0.4-4.3-1.6l-1.3,1.3c1.5,1.4,3.3,2,5.6,2c3.3,0,5.6-1.5,5.6-4.2C-82.2,52.9-83.8,52-86.2,51.7z M-69.1,45.601
	c-2.2,0-3.6,0.4-4.8,2l1.3,1.3c0.8-1.1,1.7-1.6,3.5-1.6c2.5,0,3.5,1,3.5,3v1.3h-4.1c-3.1,0-4.7,1.6-4.7,4c0,1.1,0.4,2.1,1,2.8
	c0.9,0.9,2,1.3,3.9,1.3c1.8,0,2.8-0.4,4-1.5v1.3h2v-9.3C-63.6,47.2-65.4,45.601-69.1,45.601z M-65.6,54.601c0,1.1-0.2,1.9-0.7,2.4
	c-0.9,0.8-1.9,0.9-3.1,0.9c-2.2,0-3.1-0.8-3.1-2.3c0-1.6,1-2.4,3.1-2.4h3.8V54.601L-65.6,54.601z M-55.7,47.4c1.3,0,2.1,0.4,3.1,1.5
	l1.3-1.3c-1.4-1.5-2.6-2-4.5-2c-3.5,0-6.1,2.3-6.1,7c0,4.7,2.6,7,6.1,7c1.9,0,3.1-0.5,4.5-2l-1.4-1.3c-1,1.1-1.8,1.6-3.1,1.6
	c-1.3,0-2.5-0.5-3.2-1.6c-0.6-0.9-0.9-2-0.9-3.7c0-1.7,0.3-2.8,0.9-3.7C-58.2,47.9-57.1,47.4-55.7,47.4z M-38.6,45.7h-2.5l-6.2,6.1
	v-12.2h-2v19.8h2v-5l2.4-2.4l4.6,7.4h2.5l-5.7-8.8L-38.6,45.7z M-29.1,45c-2.1,0-3.5,0.8-4.4,1.8c-1.3,1.3-1.6,3-1.6,5.5
	c0,2.6,0.3,4.2,1.6,5.6c0.9,0.9,2.3,1.8,4.4,1.8s3.6-0.8,4.4-1.8c1.3-1.3,1.6-3,1.6-5.6s-0.3-4.2-1.6-5.5C-25.6,45.8-27,45-29.1,45z
	 M-27.5,55.8c-0.4,0.4-1,0.6-1.7,0.6c-0.7,0-1.2-0.2-1.6-0.6c-0.7-0.7-0.8-2-0.8-3.5s0.1-2.7,0.8-3.5c0.4-0.4,0.9-0.6,1.6-0.6
	c0.7,0,1.3,0.2,1.7,0.6c0.7,0.7,0.8,2,0.8,3.5C-26.6,53.8-26.7,55-27.5,55.8z M-13.6,45.2l-2.9,8.8l-2.9-8.8h-3.8l5.3,14.3h2.8
	l5.2-14.3H-13.6z M-3.8,45c-3.7,0-6.2,2.6-6.2,7.3c0,5.8,3.2,7.3,6.6,7.3c2.6,0,4-0.8,5.4-2.2l-2.2-2.1c-0.9,0.9-1.7,1.3-3.2,1.3
	c-2,0-3.1-1.3-3.1-3.2h8.9v-1.6C2.4,47.9,0.2,45-3.8,45z M-6.5,51c0-0.6,0.1-1,0.3-1.5C-5.8,48.7-5,48-3.8,48c1.2,0,2,0.6,2.4,1.5
	c0.2,0.5,0.3,0.9,0.3,1.5H-6.5z M7.7,46.5v-1.4H4.2v14.3h3.6v-8.6c0-1.8,1.2-2.6,2.3-2.6c0.9,0,1.3,0.3,1.9,0.8l2.7-2.7
	c-1-1-2-1.3-3.4-1.3C9.8,45,8.4,45.7,7.7,46.5z M15.8,43.7v15.8h3.6V48.2H22v-2.7h-2.6v-1.6c0-0.8,0.4-1.3,1.3-1.3H22v-3h-2
	C17,39.601,15.8,41.7,15.8,43.7z M36.6,45c-2.1,0-3.5,0.8-4.4,1.8c-1.3,1.3-1.6,3-1.6,5.5c0,2.6,0.3,4.2,1.6,5.6
	c0.9,0.9,2.3,1.8,4.4,1.8s3.6-0.8,4.4-1.8c1.3-1.3,1.6-3,1.6-5.6s-0.3-4.2-1.6-5.5C40.2,45.8,38.7,45,36.6,45z M38.3,55.8
	c-0.4,0.4-1,0.6-1.7,0.6c-0.7,0-1.2-0.2-1.6-0.6c-0.7-0.7-0.8-2-0.8-3.5s0.1-2.7,0.8-3.5c0.4-0.4,0.9-0.6,1.6-0.6
	c0.7,0,1.3,0.2,1.7,0.6c0.7,0.7,0.8,2,0.8,3.5S39,55,38.3,55.8z M59.5,45.2L57.2,54l-2.9-8.8h-2.6L48.8,54l-2.3-8.8h-3.8l4.4,14.3
	H50l3-9l3,9h2.9l4.4-14.3H59.5z M27.2,55.101v-15.5h-3.6v15.8c0,2,1.2,4.1,4.2,4.1h2v-3h-1.4C27.6,56.4,27.2,56,27.2,55.101z
	 M-76.6,47.9l1.9-1.9h-3.8v-4.5h-2v14.2c0,2,1.2,3.7,3.5,3.7h1.4v-1.7h-1.1c-1.3,0-1.9-0.8-1.9-2v-7.8H-76.6z"/>
<polygon id="polygon130" fill="#EEEEEE" points="-102.9,62.8 -102.9,52.7 -99.5,52.7 -99.5,66.2 -130,66.2 -130,52.7 -126.6,52.7 
	-126.6,62.8 "/>
<path id="path132" fill="#EEEEEE" d="M-122.9,51.7l16.6,3.5l0.7-3.3l-16.6-3.5L-122.9,51.7z M-120.7,43.8l15.4,7.2l1.4-3.1
	l-15.4-7.2L-120.7,43.8z M-116.4,36.3l13,10.8l2.2-2.6l-13-10.8L-116.4,36.3z M-108,28.2l-2.7,2l10.1,13.6l2.7-2L-108,28.2z
	 M-123.2,59.4h16.9V56h-16.9V59.4z"/>
</svg>
