<svg xmlns="http://www.w3.org/2000/svg" width="240" height="70.5" viewBox="-135 17 240 70.5"><path fill="#F48024" d="M93.1 53.3h1l-.5-1.5-.5 1.5zm5.6-8.1H67.8c-.7 0-1.3.6-1.3 1.3v11.8c0 .7.6 1.3 1.3 1.3h30.9c.7 0 1.3-.6 1.3-1.3V46.4c0-.7-.6-1.2-1.3-1.2zM77.5 56.1c0 .1-.1.1-.1.1h-1.9c-.1 0-.1-.1-.1-.1v-3.2l-.8 1.5-.1.1h-1.2s-.1 0-.1-.1l-.9-1.5v3.2c0 .1-.1.1-.1.1h-1.9c-.1 0-.1-.1-.1-.1v-7.6c0-.1.1-.1.1-.1h1.8s.1 0 .1.1l1.6 3.1 1.6-3.1.1-.1h1.8c.1 0 .1.1.1.1v7.6h.1zm6.4-5.9c0 .1-.1.1-.1.1h-3.2v1h2.7c.1 0 .1.1.1.1v1.7c0 .1-.1.1-.1.1h-2.7v1.1h3.2c.1 0 .1.1.1.1v1.7c0 .1-.1.1-.1.1h-5.1c-.1 0-.1-.1-.1-.1v-7.6c0-.1.1-.1.1-.1h5.1c.1 0 .1.1.1.1v1.7zm4.7 5.9c0 .1-.1.1-.1.1h-1.9c-.1 0-.1-.1-.1-.1v-5.8h-1.7c-.1 0-.1-.1-.1-.1v-1.7c0-.1.1-.1.1-.1h5.6c.1 0 .1.1.1.1v1.7c0 .1-.1.1-.1.1h-1.7v5.8h-.1zm8.5.1s-.1 0 0 0l-2 .1c-.1 0-.1 0-.1-.1l-.3-1h-2.2l-.3 1-.1.1h-1.9s-.1 0-.1-.1v-.1l2.8-7.6.1-.1h1.4c.1 0 .1 0 .1.1l2.8 7.6c-.2 0-.2 0-.2.1z"/><path fill="#A3A3A3" d="M-87.9 66.2h-3.4v-3.3h-1.5v8.3h1.5v-3.6h3.4v3.7h1.6v-8.4h-1.6v3.3zm6.2-3.5c-.8 0-1.3.1-1.9.4l-.1.1c-.3.2-.5.4-.9.8l-.1.2 1.2 1 .1-.2c.2-.3.4-.4.6-.5.4-.1.7-.2 1.1-.2 1.3 0 1.8.4 1.8 1.5v.5h-2.2c-1.8 0-3 1-3 2.5 0 1.6 1.1 2.5 3 2.5.5 0 1-.1 1.5-.3.2-.1.3-.2.5-.3v.6h1.8v-5.6c0-2-1.1-3-3.4-3zm1.7 5.4c0 1.2-.5 1.7-1.8 1.7-1.4 0-1.7-.4-1.7-1.1 0-.5.2-1.2 1.6-1.2h1.9v.6zm9.5-5.2c-.6 0-1 .1-1.4.3-.2.1-.3.2-.5.3v-.6H-74v11.9h1.6v-4.2l.1.1c.2.2.3.3.6.4l.2.1c.4.1.7.2 1.1.2 2.1 0 3.1-1.3 3.1-4.1.1-3-1-4.4-3.2-4.4zm0 6.9c-1.1 0-1.8-.5-1.8-2.8 0-2.5.9-2.8 1.7-2.8 1.1 0 1.8.5 1.8 2.8 0 2.5-.8 2.8-1.7 2.8zm7.4-1.2l-2-5.9h-1.7l3 7.9-.6 1.5c-.3.7-.5.8-1.1.8h-.6v1.5h.7c1.1 0 1.9-.6 2.2-1.6l3.7-10.2h-1.7l-1.9 6zm9.5.4c-.2.1-.3.3-.4.4-.2.2-.3.3-.5.3-.2.1-.4.1-.7.1-1.5 0-2.2-.9-2.2-2.8 0-1.3.4-2.8 2.2-2.8.2 0 .5 0 .7.1s.4.2.6.5l.1.2 1.2-1-.1-.2c-.5-.6-.8-.8-1.3-1-.3-.1-.9-.3-1.4-.3-2.3 0-3.7 1.7-3.7 4.3 0 2.7 1.4 4.3 3.7 4.3.5 0 1-.1 1.4-.2s.6-.3 1.1-.6c.1-.1.3-.2.5-.3l.2-.2-1.2-1-.2.2zm7.3 0c-.2.1-.3.3-.4.4-.2.2-.3.3-.5.3-.2.1-.4.1-.7.1-1.5 0-2.2-.9-2.2-2.8 0-1.3.4-2.8 2.2-2.8.2 0 .5 0 .7.1.2.1.4.2.8.7l.1.2 1.2-1-.1-.2c-.5-.6-.8-.8-1.3-1-.2-.1-.4-.1-.6-.2-.2-.1-.4-.1-.7-.2h-.1c-2.3 0-3.7 1.7-3.7 4.3 0 2.7 1.4 4.3 3.7 4.3.5 0 1-.1 1.4-.3.3-.1.5-.2.8-.5.2-.1.3-.2.6-.4l.1-.1-1.2-1-.1.1zm9.3-6.1h-2.1l-3.2 3.4v-3.4h-1.6v8.4h1.6v-3.7l3.4 3.7h2l-4-4.4 3.9-4zm3.4 0c-1.1 0-1.8.3-2.4.9-.7.7-1 1.6-1 3.3 0 1.6.3 2.5 1 3.3.6.6 1.4.9 2.4.9s1.8-.3 2.4-.9c.7-.7 1-1.7 1-3.3 0-1.6-.3-2.5-1-3.3-.6-.6-1.5-.9-2.4-.9zm1.3 6.3c-.4.4-.8.5-1.3.5s-.9-.2-1.3-.5c-.4-.4-.5-.9-.5-2.2 0-1.3.1-1.9.5-2.2.3-.3.7-.4 1.3-.5.5 0 .9.2 1.3.5.4.4.5 1 .5 2.2.1 1.2-.1 1.8-.5 2.2zm10-6.3l-2.5 5-2.5-5h-1.4v8.4h1.5v-5l1.9 3.7h1.1l1.8-3.6v4.9h1.6v-8.4h-1.5z"/><path fill="#EEE" d="M-86.2 51.7l-2.2-.2c-1.7-.1-2.4-.8-2.4-2 0-1.4 1.1-2.3 3.1-2.3 1.4 0 2.7.3 3.6 1.1l1.3-1.3c-1.2-1-3-1.5-4.9-1.5-2.9 0-5 1.5-5 4 0 2.3 1.4 3.5 4.1 3.7l2.3.2c1.6.1 2.3.8 2.3 2 0 1.6-1.4 2.4-3.6 2.4-1.7 0-3.2-.4-4.3-1.6l-1.3 1.3c1.5 1.4 3.3 2 5.6 2 3.3 0 5.6-1.5 5.6-4.2-.2-2.4-1.8-3.3-4.2-3.6zm17.1-6.1c-2.2 0-3.6.4-4.8 2l1.3 1.3c.8-1.1 1.7-1.6 3.5-1.6 2.5 0 3.5 1 3.5 3v1.3h-4.1c-3.1 0-4.7 1.6-4.7 4 0 1.1.4 2.1 1 2.8.9.9 2 1.3 3.9 1.3 1.8 0 2.8-.4 4-1.5v1.3h2v-9.3c-.1-3-1.9-4.6-5.6-4.6zm3.5 9c0 1.1-.2 1.9-.7 2.4-.9.8-1.9.9-3.1.9-2.2 0-3.1-.8-3.1-2.3 0-1.6 1-2.4 3.1-2.4h3.8v1.4zm9.9-7.2c1.3 0 2.1.4 3.1 1.5l1.3-1.3c-1.4-1.5-2.6-2-4.5-2-3.5 0-6.1 2.3-6.1 7s2.6 7 6.1 7c1.9 0 3.1-.5 4.5-2l-1.4-1.3c-1 1.1-1.8 1.6-3.1 1.6s-2.5-.5-3.2-1.6c-.6-.9-.9-2-.9-3.7 0-1.7.3-2.8.9-3.7.8-1 1.9-1.5 3.3-1.5zm17.1-1.7h-2.5l-6.2 6.1V39.6h-2v19.8h2v-5l2.4-2.4 4.6 7.4h2.5l-5.7-8.8 4.9-4.9zm9.5-.7c-2.1 0-3.5.8-4.4 1.8-1.3 1.3-1.6 3-1.6 5.5 0 2.6.3 4.2 1.6 5.6.9.9 2.3 1.8 4.4 1.8s3.6-.8 4.4-1.8c1.3-1.3 1.6-3 1.6-5.6s-.3-4.2-1.6-5.5c-.9-1-2.3-1.8-4.4-1.8zm1.6 10.8c-.4.4-1 .6-1.7.6s-1.2-.2-1.6-.6c-.7-.7-.8-2-.8-3.5s.1-2.7.8-3.5c.4-.4.9-.6 1.6-.6.7 0 1.3.2 1.7.6.7.7.8 2 .8 3.5.1 1.5 0 2.7-.8 3.5zm13.9-10.6l-2.9 8.8-2.9-8.8h-3.8l5.3 14.3h2.8l5.2-14.3h-3.7zm9.8-.2c-3.7 0-6.2 2.6-6.2 7.3 0 5.8 3.2 7.3 6.6 7.3 2.6 0 4-.8 5.4-2.2l-2.2-2.1c-.9.9-1.7 1.3-3.2 1.3-2 0-3.1-1.3-3.1-3.2h8.9v-1.6C2.4 47.9.2 45-3.8 45zm-2.7 6c0-.6.1-1 .3-1.5.4-.8 1.2-1.5 2.4-1.5s2 .6 2.4 1.5c.2.5.3.9.3 1.5h-5.4zm14.2-4.5v-1.4H4.2v14.3h3.6v-8.6c0-1.8 1.2-2.6 2.3-2.6.9 0 1.3.3 1.9.8l2.7-2.7c-1-1-2-1.3-3.4-1.3-1.5 0-2.9.7-3.6 1.5zm8.1-2.8v15.8h3.6V48.2H22v-2.7h-2.6v-1.6c0-.8.4-1.3 1.3-1.3H22v-3h-2c-3 0-4.2 2.1-4.2 4.1zM36.6 45c-2.1 0-3.5.8-4.4 1.8-1.3 1.3-1.6 3-1.6 5.5 0 2.6.3 4.2 1.6 5.6.9.9 2.3 1.8 4.4 1.8s3.6-.8 4.4-1.8c1.3-1.3 1.6-3 1.6-5.6s-.3-4.2-1.6-5.5c-.8-1-2.3-1.8-4.4-1.8zm1.7 10.8c-.4.4-1 .6-1.7.6s-1.2-.2-1.6-.6c-.7-.7-.8-2-.8-3.5s.1-2.7.8-3.5c.4-.4.9-.6 1.6-.6.7 0 1.3.2 1.7.6.7.7.8 2 .8 3.5s-.1 2.7-.8 3.5zm21.2-10.6L57.2 54l-2.9-8.8h-2.6L48.8 54l-2.3-8.8h-3.8l4.4 14.3H50l3-9 3 9h2.9l4.4-14.3h-3.8zm-32.3 9.9V39.6h-3.6v15.8c0 2 1.2 4.1 4.2 4.1h2v-3h-1.4c-.8-.1-1.2-.5-1.2-1.4zm-103.8-7.2l1.9-1.9h-3.8v-4.5h-2v14.2c0 2 1.2 3.7 3.5 3.7h1.4v-1.7h-1.1c-1.3 0-1.9-.8-1.9-2v-7.8h2zM-102.9 62.8V52.7h3.4v13.5H-130V52.7h3.4v10.1"/><path fill="#EEE" d="M-122.9 51.7l16.6 3.5.7-3.3-16.6-3.5-.7 3.3zm2.2-7.9l15.4 7.2 1.4-3.1-15.4-7.2-1.4 3.1zm4.3-7.5l13 10.8 2.2-2.6-13-10.8-2.2 2.6zm8.4-8.1l-2.7 2 10.1 13.6 2.7-2-10.1-13.6zm-15.2 31.2h16.9V56h-16.9v3.4z"/></svg>