<svg xmlns="http://www.w3.org/2000/svg" viewBox="0 0 190 40" width="190" height="40"><path d="M32.6 31.15H30v-2.6h-1.18v6.38H30v-2.76h2.6V35h1.27v-6.45H32.6zm4.66-2.68c-.63 0-1.02.08-1.5.32h-.08c-.23.1-.4.2-.7.6l-.1.1.96.8.08-.2c.16-.3.32-.4.47-.4.2-.1.5-.2.8-.2 1 0 1.4.3 1.4 1.1v.4H37c-1.4 0-2.3.7-2.3 1.9s.9 2 2.3 2c.4 0 .8-.1 1.2-.2.16-.1.24-.2.4-.3v.5h1.34v-4.5c0-1.5-.87-2.2-2.7-2.2zm1.35 4.1c0 .94-.4 1.34-1.4 1.34-1.1 0-1.3-.3-1.3-.8 0-.4.2-.9 1.3-.9h1.5zm7.5-4.02c-.5 0-.8.08-1.1.24-.1 0-.2.1-.4.2v-.5h-1.3v9.1h1.3v-3.2l.1.1c.2.1.3.2.5.3l.2.1c.3 0 .5.1.9.1 1.7 0 2.4-1 2.4-3.2.1-2.3-.8-3.4-2.4-3.4zm0 5.36c-.8 0-1.4-.4-1.4-2.1 0-1.9.7-2.1 1.4-2.1.9 0 1.4.4 1.4 2.2 0 1.9-.6 2.2-1.3 2.2zm5.7-.9l-1.6-4.5h-1.3l2.3 6.1-.5 1.1c-.2.6-.4.7-.8.7h-.5v1.2h.6c.8 0 1.5-.5 1.8-1.2l2.9-7.8h-1.3L51.7 33zm7.4.3c-.1.1-.2.3-.3.3-.1.2-.2.2-.4.3-.1.1-.3.1-.5.1-1.1 0-1.6-.7-1.6-2.1 0-.9.4-2.1 1.7-2.1.2 0 .4 0 .6.1.2.1.38.2.5.4l.1.2.9-.7-.1-.1c-.4-.4-.63-.6-1-.8-.3 0-.7-.2-1.1-.2-1.76 0-2.86 1.3-2.86 3.3 0 2.1 1.1 3.3 2.84 3.3.4 0 .8-.1 1-.1.3-.1.5-.22.8-.4.1-.1.24-.14.3-.22l.18-.2-.9-.8zm5.7 0c-.1.1-.2.3-.3.3-.1.2-.2.2-.4.3-.1.1-.3.1-.5.1-1.1 0-1.6-.7-1.6-2.1 0-.9.3-2.1 1.7-2.1.2 0 .4 0 .6.1.2.1.3.2.6.5l.1.2.98-.8-.07-.1c-.4-.5-.66-.6-.97-.8-.2-.1-.32-.1-.5-.1-.13-.1-.3-.1-.53-.1h-.1c-1.75 0-2.86 1.26-2.86 3.3 0 2.05 1.1 3.3 2.86 3.3.4 0 .8-.07 1.1-.15.2-.1.4-.16.6-.4l.5-.3.13-.2-.94-.73zm7.1-4.7h-1.6L68 31.2v-2.6h-1.3V35h1.25v-2.9l2.6 2.9h1.58L69 31.62zm2.6 0c-.8 0-1.4.3-1.9.7-.5.6-.8 1.3-.8 2.6s.3 2 .8 2.5 1.1.7 1.9.7c.8 0 1.4-.2 1.9-.7.6-.5.8-1.2.8-2.5s-.2-2-.8-2.5a3 3 0 0 0-1.9-.7zm1.1 4.9c-.2.3-.6.4-1 .4s-.7-.1-1-.4c-.3-.3-.4-.7-.4-1.7 0-.9.1-1.4.4-1.7.3-.2.6-.3 1.1-.4.4 0 .7.2.9.4.3.3.4.8.4 1.7.1 1 0 1.5-.3 1.8zm7.7-4.9l-2 3.9-2-3.8h-1.1V35h1.2v-3.85l1.5 2.83h.9l1.4-2.75V35h1.3v-6.45h-1.2z" fill="#a3a3a3"/><path d="M33.9 18.6l-1.7-.2c-1.3-.1-1.9-.6-1.9-1.6 0-1.1.8-1.8 2.4-1.8 1.1 0 2.1.3 2.8.8l1-1c-1-.8-2.3-1.1-3.8-1.1-2.3 0-3.9 1.2-3.9 3.1 0 1.8 1.1 2.7 3.2 2.9l1.8.2c1.2.1 1.8.6 1.8 1.6 0 1.3-1.1 1.9-2.8 1.9-1.3 0-2.5-.3-3.3-1.2l-1 1c1.2 1.1 2.6 1.5 4.4 1.5 2.6 0 4.3-1.2 4.3-3.2-.2-2-1.5-2.7-3.3-2.9zm13.3-4.8c-1.7 0-2.8.3-3.7 1.5l1 1c.6-.9 1.3-1.2 2.7-1.2 1.9 0 2.7.8 2.7 2.3v1h-3.2c-2.4 0-3.7 1.2-3.7 3.1 0 .8.3 1.6.8 2.2.7.7 1.5 1 3 1 1.4 0 2.2-.3 3.1-1.1v1h1.6v-7.2c-.1-2.4-1.5-3.6-4.3-3.6zm2.7 7c0 .9-.2 1.5-.5 1.8-.7.6-1.5.7-2.4.7-1.7 0-2.4-.6-2.4-1.8 0-1.2.8-1.9 2.4-1.9h3zm7.6-5.6c1 0 1.6.3 2.4 1.2l1-1c-1.1-1.2-2-1.6-3.5-1.6-2.7 0-4.7 1.8-4.7 5.5 0 3.6 2 5.5 4.7 5.5 1.5 0 2.4-.4 3.5-1.6l-1.1-1c-.8.9-1.4 1.2-2.4 1.2s-1.9-.4-2.5-1.2c-.5-.7-.7-1.5-.7-2.9 0-1.3.2-2.2.7-2.9.7-.8 1.6-1.2 2.6-1.2zm13.4-1.3H69l-4.8 4.7V9.1h-1.6v15.4h1.6v-3.9l1.9-1.9 3.6 5.8h1.9l-4.4-6.9zm7.3-.5c-1.6 0-2.7.6-3.4 1.4-1 1-1.3 2.3-1.3 4.3s.3 3.3 1.3 4.3c.7.7 1.8 1.4 3.4 1.4 1.6 0 2.8-.6 3.4-1.4 1-1 1.3-2.3 1.3-4.3s-.3-3.3-1.3-4.3c-.6-.8-1.7-1.4-3.4-1.4zm1.3 8.3c-.3.3-.7.5-1.3.5-.6 0-1-.2-1.3-.5-.6-.6-.6-1.6-.6-2.7 0-1.2.1-2.1.6-2.7.3-.3.7-.5 1.3-.5.6 0 1 .2 1.3.5.6.6.6 1.5.6 2.7.1 1.2 0 2.2-.6 2.7zm10.8-8.2l-2.2 6.9-2.3-6.9h-2.9L87 24.6h2.2l4.1-11.1zm7.6-.1c-2.9 0-4.8 2-4.8 5.7 0 4.5 2.5 5.7 5.1 5.7 2 0 3.1-.6 4.2-1.7l-1.7-1.6c-.7.7-1.3 1-2.5 1-1.6 0-2.4-1-2.4-2.5h6.9v-1.2c0-3.2-1.7-5.4-4.8-5.4zM95.8 18c0-.5.1-.8.3-1.2.3-.7.9-1.2 1.9-1.2.9 0 1.6.5 1.9 1.2.2.4.2.7.3 1.2zm11-3.4v-1.1h-2.7v11.1h2.8v-6.7c0-1.4.9-2 1.8-2 .7 0 1 .2 1.5.7l2.1-2.1c-.8-.8-1.5-1-2.6-1-1.3-.1-2.3.4-2.9 1.1zm6.3-2.3v12.3h2.8v-8.8h2v-2.1h-2v-1.2c0-.6.3-1 1-1h1.1V9.2h-1.6c-2.3 0-3.3 1.6-3.3 3.1zm16.2 1.1c-1.6 0-2.7.6-3.4 1.4-1 1-1.3 2.3-1.3 4.3s.3 3.3 1.3 4.3c.7.7 1.8 1.4 3.4 1.4 1.6 0 2.8-.6 3.4-1.4 1-1 1.3-2.3 1.3-4.3s-.3-3.3-1.3-4.3c-.6-.8-1.8-1.4-3.4-1.4zm1.3 8.3c-.3.3-.7.5-1.3.5-.6 0-1-.2-1.3-.5-.6-.6-.6-1.6-.6-2.7 0-1.2.1-2.1.6-2.7.3-.3.7-.5 1.3-.5.6 0 1 .2 1.3.5.6.6.6 1.5.6 2.7 0 1.2 0 2.2-.6 2.7zm16.5-8.2l-1.8 6.9-2.3-6.9h-2l-2.3 6.9-1.8-6.9H134l3.4 11.1h2.3l2.3-7 2.3 7h2.3l3.4-11.1zM122 21.2V9.1h-2.8v12.3c0 1.6 1 3.2 3.2 3.2h1.6v-2.3h-1c-.7 0-1-.4-1-1.1zm-80.7-5.6l1.4-1.4h-3v-3.5h-1.6v11.1c0 1.6.9 2.9 2.7 2.9h1.1v-1.3h-.8c-1 0-1.5-.6-1.5-1.6v-6.1h1.7z" fill="#eee"/><path d="M21 27v-8h3v11H0V19h3v8" fill="#bcbbbb"/><path d="M5.4 19.1l13.56 1.96.17-2.38-13.26-2.55-.47 2.97zm1.8-6.8l12 5.6 1.1-2.4-12-5.6zm3.4-5.9l10.2 8.5 1.7-2-10.2-8.5zM17.1.2L15 1.8l7.9 10.6 2.1-1.6zM5 25h14v-3H5z" fill="#f48024"/></svg>