<svg xmlns="http://www.w3.org/2000/svg" width="240" height="70.5" viewBox="0 0 240 70.5"><path fill="#eee" d="M46.3 47.4c-2.3 0-4.1-.5-5.6-2l1.3-1.3c1.1 1.1 2.6 1.6 4.3 1.6 2.3 0 3.7-.8 3.7-2.4 0-1.2-.7-1.9-2.3-2l-2.3-.2c-2.7-.2-4.1-1.4-4.1-3.7 0-2.5 2.1-4 5-4 2 0 3.7.5 4.9 1.5l-1.3 1.3c-1-.8-2.2-1.1-3.7-1.1-2 0-3.1.9-3.1 2.3 0 1.2.7 1.9 2.4 2l2.2.2c2.4.2 4 1.1 4 3.7.2 2.6-2.1 4.1-5.4 4.1zm11.7-.2c-2.3 0-3.5-1.6-3.5-3.7v-8.4h-1.7v-1.5h1.7v-4.3h2v4.3h2.9v1.5h-2.9v8.4c0 1.3.6 2 1.9 2h1.1v1.7H58zm11.8 0v-1.3c-1.1 1.1-2.1 1.5-4 1.5s-3-.4-3.9-1.3c-.7-.7-1-1.7-1-2.8 0-2.4 1.7-4 4.7-4h4.1V38c0-2-1-3-3.5-3-1.8 0-2.6.4-3.5 1.6l-1.2-1.2c1.2-1.6 2.6-2 4.8-2 3.7 0 5.5 1.6 5.5 4.6v9.3l-2-.1zm0-6.3H66c-2.1 0-3.1.8-3.1 2.4s1 2.3 3.1 2.3c1.2 0 2.2-.1 3.1-.9.5-.4.7-1.2.7-2.4v-1.4zm9.8 6.5c-3.5 0-6.1-2.3-6.1-7s2.6-7 6.1-7c1.9 0 3.1.5 4.5 2l-1.4 1.3c-1-1.1-1.8-1.5-3.1-1.5s-2.5.5-3.2 1.6c-.6.9-.9 2-.9 3.7 0 1.7.3 2.8.9 3.7.7 1 1.8 1.6 3.2 1.6 1.3 0 2.1-.4 3.1-1.6l1.4 1.3c-1.4 1.4-2.6 1.9-4.5 1.9zm15.5-.2l-4.3-7-2.7 3.1v4h-2V27.4h2v13.3l6.2-7.1h2.5l-4.7 5.2 5.5 8.5-2.5-.1zm13.2-1.5c-.8.9-2.2 1.7-4.3 1.7-2 0-3.4-.8-4.3-1.7-1.2-1.3-1.6-2.9-1.6-5.4s.3-4 1.6-5.3c.8-.9 2.2-1.7 4.3-1.7 2 0 3.4.8 4.3 1.7 1.2 1.3 1.6 2.9 1.6 5.3 0 2.6-.4 4.1-1.6 5.4zm-2.7-8.7c-.4-.4-.9-.6-1.6-.6s-1.2.2-1.6.6c-.7.7-.8 1.9-.8 3.3s.1 2.6.8 3.4c.4.4.9.6 1.6.6s1.2-.2 1.6-.6c.7-.7.8-1.9.8-3.4 0-1.4 0-2.6-.8-3.3zm12 10.2h-2.7l-5.1-13.7h3.6l2.8 8.5 2.8-8.5h3.6l-5 13.7zm8.3-5.8c0 1.8 1.1 3.1 3 3.1 1.5 0 2.2-.4 3.1-1.3l2.1 2c-1.4 1.4-2.7 2.2-5.2 2.2-3.2 0-6.4-1.5-6.4-7.1 0-4.5 2.4-7 6-7 3.8 0 6 2.8 6 6.6v1.5h-8.6zm4.9-3.8c-.4-.8-1.1-1.4-2.3-1.4s-1.9.6-2.3 1.4c-.2.5-.3.9-.3 1.5h5.2c0-.6-.1-1-.3-1.5zm12.9-.4c-.5-.5-1-.8-1.8-.8-1.1 0-2.2.8-2.2 2.5v8.3h-3.4V33.5h3.4v1.3c.7-.8 2-1.5 3.5-1.5 1.3 0 2.3.3 3.2 1.3l-2.7 2.6zm8.3-1.1v11.1h-3.4V36.1h-1.4v-2.6h1.4v-1.7c0-2 1.2-3.9 4-3.9h2v2.9h-1.3c-.8 0-1.2.4-1.2 1.2v1.5h2.5v2.6H152zm8.1 11.1c-2.8 0-4-2-4-3.9V27.8h3.4V43c0 .8.3 1.2 1.2 1.2h1.3v2.9l-1.9.1zm12.6-1.5c-.8.9-2.2 1.7-4.3 1.7-2 0-3.4-.8-4.3-1.7-1.2-1.3-1.6-2.9-1.6-5.4s.3-4 1.6-5.3c.8-.9 2.2-1.7 4.3-1.7 2 0 3.4.8 4.3 1.7 1.2 1.3 1.6 2.9 1.6 5.3-.1 2.6-.4 4.1-1.6 5.4zM170 37c-.4-.4-.9-.6-1.6-.6-.7 0-1.2.2-1.6.6-.7.7-.8 1.9-.8 3.3s.1 2.6.8 3.4c.4.4.9.6 1.6.6.7 0 1.2-.2 1.6-.6.7-.7.8-1.9.8-3.4 0-1.4-.1-2.6-.8-3.3zm19.6 10.2h-2.8l-2.9-8.6-2.9 8.6h-2.8L174 33.5h3.6l2.2 8.5 2.8-8.5h2.5l2.8 8.5 2.2-8.5h3.6l-4.1 13.7z"/><path fill="#818185" d="M10.5 41.3h17v3h-17z"/><path fill="#818185" d="M30.5 33.3v14h-23v-14h-3v17h29v-17"/><path fill="#A68A6E" d="M10.874 35.135l16.73 1.544-.276 2.987-16.73-1.544z"/><path fill="#BF9452" d="M27.7 35.3l-16.3-4 .7-3 16.3 4.1"/><path fill="#D28B29" d="M28.8 30.6l-14.7-7.5 1.4-2.5 14.6 7.5"/><path fill="#F68A1F" d="M31.2 27.1l-13-10.8 2-2.2 13 10.7"/><path fill="#F47920" d="M34.1 23.4L24.6 10 27 8.4l9.6 13.4"/><path fill="#F68A1F" d="M202.4 46.6c-.4.4-.9.6-1.6.6s-1.2-.2-1.7-.8v.7h-1.3v-9.3h1.3v3.3c.5-.6 1-.7 1.7-.7s1.2.2 1.6.6c.7.7.7 1.8.7 2.8s0 2.2-.7 2.8zm-1.9-4.9c-1.2 0-1.4 1-1.4 2.2s.2 2.2 1.4 2.2 1.4-1 1.4-2.2-.2-2.2-1.4-2.2zm5.4 2.5c0 1.1.6 1.8 1.7 1.8.7 0 1.1-.2 1.6-.7l.8.8c-.7.7-1.3 1-2.5 1-1.7 0-3-.9-3-3.4 0-2.1 1.1-3.4 2.8-3.4 1.8 0 2.8 1.3 2.8 3.2v.6h-4.2v.1zm2.8-1.8c-.2-.5-.7-.8-1.3-.8-.6 0-1.1.3-1.3.8-.1.3-.2.5-.2.9h3c0-.4-.1-.6-.2-.9zm5.2 4.8c-1.2 0-1.8-.9-1.8-1.8v-3.6h-.8v-1h.8v-2h1.3v2h1.3v1h-1.3v3.6c0 .5.2.8.7.8h.5v1.1l-.7-.1zm6 0v-.6c-.5.5-.9.7-1.8.7-.8 0-1.4-.2-1.8-.6-.3-.4-.5-.9-.5-1.4 0-1.1.8-1.9 2.3-1.9h1.7v-.5c0-.8-.4-1.2-1.4-1.2-.7 0-1.1.2-1.4.6l-.9-.8c.6-.7 1.3-.9 2.4-.9 1.8 0 2.7.8 2.7 2.3v4.4l-1.3-.1zm0-3h-1.5c-.8 0-1.2.4-1.2.9 0 .6.4.9 1.2.9.5 0 .9 0 1.2-.4.2-.2.3-.5.3-1v-.4z"/><path fill="#A3A3A3" d="M44.8 64.8v-3h-3.2v3h-.9v-6.5h.9v2.8h3.2v-2.8h1v6.6h-1v-.1zm7.1 0v-.6c-.3.3-.5.4-.7.5-.3.1-.7.2-1.2.2-1.5 0-2.3-.7-2.3-1.9s.9-1.9 2.3-1.9h2v-.6c0-1-.5-1.4-1.7-1.4-.4 0-.7.1-1 .2-.2.1-.4.2-.6.5l-.7-.6c.3-.4.5-.5.8-.7.4-.2.8-.3 1.5-.3 1.8 0 2.7.7 2.7 2.2v4.5h-1.1v-.1zm0-3h-1.8c-1 0-1.5.4-1.5 1.2 0 .8.5 1.1 1.6 1.1 1.2 0 1.7-.5 1.7-1.6v-.7zm9.4 3.1c-.4 0-.7-.1-1.1-.2-.3-.1-.4-.3-.8-.6v3.7h-1v-9.5h1v.8c.3-.4.5-.5.7-.6.3-.1.6-.2 1.1-.2 1.7 0 2.5 1.1 2.5 3.4 0 2.2-.7 3.2-2.4 3.2zm-.2-5.8c-1.1 0-1.6.8-1.6 2.5 0 1.8.5 2.5 1.7 2.5 1.1 0 1.6-.7 1.6-2.5s-.5-2.5-1.7-2.5zm6.3 7.3c-.3.8-.9 1.2-1.7 1.2h-.4v-.9h.3c.6 0 .8-.2 1.1-.8l.5-1.3-2.4-6.4h1l1.8 5.3 1.8-5.3h1l-3 8.2zm8-1.7c-.3.1-.7.2-1.1.2-1.8 0-2.9-1.3-2.9-3.4s1.1-3.4 2.9-3.4c.4 0 .8.1 1.1.2.4.2.6.3 1 .8l-.7.6c-.2-.3-.4-.4-.6-.5-.2-.1-.5-.1-.7-.1-1.3 0-2 .9-2 2.5 0 1.7.7 2.5 2 2.5.3 0 .5 0 .7-.1.3-.1.4-.3.8-.6l.7.6c-.6.4-.8.6-1.2.7zm6.5 0c-.3.1-.7.2-1.1.2-1.8 0-2.9-1.3-2.9-3.4s1.1-3.4 2.9-3.4c.4.1.7.2 1.1.3.4.2.6.3 1 .8l-.7.6c-.3-.4-.5-.5-.7-.6-.2-.1-.5-.1-.7-.1-1.3 0-2 .9-2 2.5 0 1.7.7 2.5 2 2.5.3 0 .5 0 .7-.1.3-.1.4-.3.8-.6l.7.6c-.6.4-.8.6-1.1.7zm2.8.1v-6.5h1v3.1l2.9-3.1h1.2l-3 3.1 3.2 3.5h-1.2l-3.1-3.4v3.4h-1v-.1zm10.6-.6c-.5.5-1.1.7-1.9.7-.8 0-1.4-.2-1.9-.7-.6-.6-.8-1.3-.8-2.6s.2-2 .8-2.6c.5-.5 1.1-.7 1.9-.7.7 0 1.4.3 1.9.7.6.6.8 1.3.8 2.6 0 1.2-.2 2-.8 2.6zm-.7-4.7c-.3-.3-.7-.5-1.2-.5-.5.1-.9.2-1.2.5-.4.4-.5 1-.5 2 0 1.1.1 1.6.5 2 .3.3.7.5 1.2.5s.9-.2 1.2-.5c.4-.4.5-.9.5-2 0-1-.1-1.6-.5-2zm8.9 5.3v-4.6l-1.8 3.6h-.7l-1.9-3.6v4.7h-.9v-6.6h.9l2.2 4.4 2.2-4.4h1v6.6h-1v-.1z"/></svg>