<svg xmlns="http://www.w3.org/2000/svg" width="240" height="70.5" viewBox="0 0 240 70.5" enable-background="new 0 0 240 70.5" xml:space="preserve"><path fill="#eee" d="M46.3 47.4c-2.3 0-4.1-0.5-5.6-2l1.3-1.3c1.1 1.1 2.6 1.6 4.3 1.6 2.3 0 3.7-0.8 3.7-2.4 0-1.2-0.7-1.9-2.3-2l-2.3-0.2c-2.7-0.2-4.1-1.4-4.1-3.7 0-2.5 2.1-4 5-4 2 0 3.7 0.5 4.9 1.5l-1.3 1.3c-1-0.8-2.2-1.1-3.7-1.1 -2 0-3.1 0.9-3.1 2.3 0 1.2 0.7 1.9 2.4 2l2.2 0.2c2.4 0.2 4 1.1 4 3.7C51.9 45.9 49.6 47.4 46.3 47.4zM58 47.2c-2.3 0-3.5-1.6-3.5-3.7v-8.4h-1.7v-1.5h1.7v-4.3h2v4.3h2.9v1.5h-2.9v8.4c0 1.3 0.6 2 1.9 2h1.1v1.7H58zM69.8 47.2v-1.3c-1.1 1.1-2.1 1.5-4 1.5 -1.9 0-3-0.4-3.9-1.3 -0.7-0.7-1-1.7-1-2.8 0-2.4 1.7-4 4.7-4h4.1V38c0-2-1-3-3.5-3 -1.8 0-2.6 0.4-3.5 1.6l-1.2-1.2c1.2-1.6 2.6-2 4.8-2 3.7 0 5.5 1.6 5.5 4.6v9.3L69.8 47.2 69.8 47.2zM69.8 40.9H66c-2.1 0-3.1 0.8-3.1 2.4s1 2.3 3.1 2.3c1.2 0 2.2-0.1 3.1-0.9 0.5-0.4 0.7-1.2 0.7-2.4V40.9zM79.6 47.4c-3.5 0-6.1-2.3-6.1-7s2.6-7 6.1-7c1.9 0 3.1 0.5 4.5 2l-1.4 1.3c-1-1.1-1.8-1.5-3.1-1.5 -1.3 0-2.5 0.5-3.2 1.6 -0.6 0.9-0.9 2-0.9 3.7 0 1.7 0.3 2.8 0.9 3.7 0.7 1 1.8 1.6 3.2 1.6 1.3 0 2.1-0.4 3.1-1.6l1.4 1.3C82.7 46.9 81.5 47.4 79.6 47.4zM95.1 47.2l-4.3-7 -2.7 3.1v4h-2V27.4h2v13.3l6.2-7.1h2.5l-4.7 5.2 5.5 8.5L95.1 47.2 95.1 47.2zM108.3 45.7c-0.8 0.9-2.2 1.7-4.3 1.7 -2 0-3.4-0.8-4.3-1.7 -1.2-1.3-1.6-2.9-1.6-5.4s0.3-4 1.6-5.3c0.8-0.9 2.2-1.7 4.3-1.7 2 0 3.4 0.8 4.3 1.7 1.2 1.3 1.6 2.9 1.6 5.3C109.9 42.9 109.5 44.4 108.3 45.7zM105.6 37c-0.4-0.4-0.9-0.6-1.6-0.6s-1.2 0.2-1.6 0.6c-0.7 0.7-0.8 1.9-0.8 3.3s0.1 2.6 0.8 3.4c0.4 0.4 0.9 0.6 1.6 0.6s1.2-0.2 1.6-0.6c0.7-0.7 0.8-1.9 0.8-3.4C106.4 38.9 106.4 37.7 105.6 37zM117.6 47.2h-2.7l-5.1-13.7h3.6l2.8 8.5 2.8-8.5h3.6L117.6 47.2zM125.9 41.4c0 1.8 1.1 3.1 3 3.1 1.5 0 2.2-0.4 3.1-1.3l2.1 2c-1.4 1.4-2.7 2.2-5.2 2.2 -3.2 0-6.4-1.5-6.4-7.1 0-4.5 2.4-7 6-7 3.8 0 6 2.8 6 6.6v1.5H125.9zM130.8 37.6c-0.4-0.8-1.1-1.4-2.3-1.4s-1.9 0.6-2.3 1.4c-0.2 0.5-0.3 0.9-0.3 1.5h5.2C131.1 38.5 131 38.1 130.8 37.6zM143.7 37.2c-0.5-0.5-1-0.8-1.8-0.8 -1.1 0-2.2 0.8-2.2 2.5v8.3h-3.4V33.5h3.4v1.3c0.7-0.8 2-1.5 3.5-1.5 1.3 0 2.3 0.3 3.2 1.3L143.7 37.2zM152 36.1v11.1h-3.4V36.1H147.2v-2.6h1.4v-1.7c0-2 1.2-3.9 4-3.9h2v2.9h-1.3c-0.8 0-1.2 0.4-1.2 1.2v1.5h2.5v2.6H152zM160.1 47.2c-2.8 0-4-2-4-3.9V27.8h3.4V43c0 0.8 0.3 1.2 1.2 1.2h1.3v2.9L160.1 47.2zM172.7 45.7c-0.8 0.9-2.2 1.7-4.3 1.7 -2 0-3.4-0.8-4.3-1.7 -1.2-1.3-1.6-2.9-1.6-5.4s0.3-4 1.6-5.3c0.8-0.9 2.2-1.7 4.3-1.7 2 0 3.4 0.8 4.3 1.7 1.2 1.3 1.6 2.9 1.6 5.3C174.2 42.9 173.9 44.4 172.7 45.7zM170 37c-0.4-0.4-0.9-0.6-1.6-0.6 -0.7 0-1.2 0.2-1.6 0.6 -0.7 0.7-0.8 1.9-0.8 3.3s0.1 2.6 0.8 3.4c0.4 0.4 0.9 0.6 1.6 0.6 0.7 0 1.2-0.2 1.6-0.6 0.7-0.7 0.8-1.9 0.8-3.4C170.8 38.9 170.7 37.7 170 37zM189.6 47.2h-2.8l-2.9-8.6 -2.9 8.6h-2.8L174 33.5h3.6l2.2 8.5 2.8-8.5h2.5L187.9 42l2.2-8.5h3.6L189.6 47.2z"/><rect x="10.5" y="41.3" fill="#818185" width="17" height="3"/><polygon fill="#818185" points="30.5 33.3 30.5 47.3 7.5 47.3 7.5 33.3 4.5 33.3 4.5 50.3 4.5 50.3 33.5 50.3 33.5 33.3 "/><rect x="10.7" y="35.9" transform="matrix(0.9958 0.0919 -0.0919 0.9958 3.5183 -1.5973)" fill="#A68A6E" width="16.8" height="3"/><polygon fill="#BF9452" points="27.7 35.3 11.4 31.3 12.1 28.3 28.4 32.4 "/><polygon fill="#D28B29" points="28.8 30.6 14.1 23.1 15.5 20.6 30.1 28.1 "/><polygon fill="#F68A1F" points="31.2 27.1 18.2 16.3 20.2 14.1 33.2 24.8 "/><polygon fill="#F47920" points="34.1 23.4 24.6 10 27 8.4 36.6 21.8 "/><path fill="#F68A1F" d="M202.4 46.6c-0.4 0.4-0.9 0.6-1.6 0.6s-1.2-0.2-1.7-0.8v0.7h-1.3v-9.3h1.3v3.3c0.5-0.6 1-0.7 1.7-0.7s1.2 0.2 1.6 0.6c0.7 0.7 0.7 1.8 0.7 2.8S203.1 46 202.4 46.6zM200.5 41.7c-1.2 0-1.4 1-1.4 2.2s0.2 2.2 1.4 2.2 1.4-1 1.4-2.2S201.7 41.7 200.5 41.7zM205.9 44.2c0 1.1 0.6 1.8 1.7 1.8 0.7 0 1.1-0.2 1.6-0.7l0.8 0.8c-0.7 0.7-1.3 1-2.5 1 -1.7 0-3-0.9-3-3.4 0-2.1 1.1-3.4 2.8-3.4 1.8 0 2.8 1.3 2.8 3.2v0.6H205.9V44.2L205.9 44.2zM208.7 42.4c-0.2-0.5-0.7-0.8-1.3-0.8 -0.6 0-1.1 0.3-1.3 0.8 -0.1 0.3-0.2 0.5-0.2 0.9h3C208.9 42.9 208.8 42.7 208.7 42.4zM213.9 47.2c-1.2 0-1.8-0.9-1.8-1.8v-3.6h-0.8v-1h0.8v-2h1.3v2h1.3v1h-1.3v3.6c0 0.5 0.2 0.8 0.7 0.8h0.5v1.1L213.9 47.2 213.9 47.2zM219.9 47.2v-0.6c-0.5 0.5-0.9 0.7-1.8 0.7 -0.8 0-1.4-0.2-1.8-0.6 -0.3-0.4-0.5-0.9-0.5-1.4 0-1.1 0.8-1.9 2.3-1.9h1.7v-0.5c0-0.8-0.4-1.2-1.4-1.2 -0.7 0-1.1 0.2-1.4 0.6l-0.9-0.8c0.6-0.7 1.3-0.9 2.4-0.9 1.8 0 2.7 0.8 2.7 2.3v4.4L219.9 47.2 219.9 47.2zM219.9 44.2h-1.5c-0.8 0-1.2 0.4-1.2 0.9 0 0.6 0.4 0.9 1.2 0.9 0.5 0 0.9 0 1.2-0.4 0.2-0.2 0.3-0.5 0.3-1V44.2z"/><path fill="#A3A3A3" d="M44.8 64.8v-3h-3.2v3h-0.9v-6.5h0.9v2.8h3.2v-2.8h1v6.6h-1V64.8zM51.9 64.8v-0.6c-0.3 0.3-0.5 0.4-0.7 0.5 -0.3 0.1-0.7 0.2-1.2 0.2 -1.5 0-2.3-0.7-2.3-1.9 0-1.2 0.9-1.9 2.3-1.9h2v-0.6c0-1-0.5-1.4-1.7-1.4 -0.4 0-0.7 0.1-1 0.2 -0.2 0.1-0.4 0.2-0.6 0.5L48 59.2c0.3-0.4 0.5-0.5 0.8-0.7 0.4-0.2 0.8-0.3 1.5-0.3 1.8 0 2.7 0.7 2.7 2.2v4.5h-1.1V64.8zM51.9 61.8h-1.8c-1 0-1.5 0.4-1.5 1.2 0 0.8 0.5 1.1 1.6 1.1 1.2 0 1.7-0.5 1.7-1.6V61.8zM61.3 64.9c-0.4 0-0.7-0.1-1.1-0.2 -0.3-0.1-0.4-0.3-0.8-0.6v3.7h-1v-9.5h1v0.8c0.3-0.4 0.5-0.5 0.7-0.6 0.3-0.1 0.6-0.2 1.1-0.2 1.7 0 2.5 1.1 2.5 3.4C63.7 63.9 63 64.9 61.3 64.9zM61.1 59.1c-1.1 0-1.6 0.8-1.6 2.5 0 1.8 0.5 2.5 1.7 2.5 1.1 0 1.6-0.7 1.6-2.5C62.8 59.8 62.3 59.1 61.1 59.1zM67.4 66.4c-0.3 0.8-0.9 1.2-1.7 1.2h-0.4v-0.9h0.3c0.6 0 0.8-0.2 1.1-0.8l0.5-1.3 -2.4-6.4h1l1.8 5.3 1.8-5.3h1L67.4 66.4zM75.4 64.7c-0.3 0.1-0.7 0.2-1.1 0.2 -1.8 0-2.9-1.3-2.9-3.4s1.1-3.4 2.9-3.4c0.4 0 0.8 0.1 1.1 0.2 0.4 0.2 0.6 0.3 1 0.8l-0.7 0.6c-0.2-0.3-0.4-0.4-0.6-0.5 -0.2-0.1-0.5-0.1-0.7-0.1 -1.3 0-2 0.9-2 2.5 0 1.7 0.7 2.5 2 2.5 0.3 0 0.5 0 0.7-0.1 0.3-0.1 0.4-0.3 0.8-0.6l0.7 0.6C76 64.4 75.8 64.6 75.4 64.7zM81.9 64.7c-0.3 0.1-0.7 0.2-1.1 0.2 -1.8 0-2.9-1.3-2.9-3.4s1.1-3.4 2.9-3.4c0.4 0.1 0.7 0.2 1.1 0.3 0.4 0.2 0.6 0.3 1 0.8l-0.7 0.6c-0.3-0.4-0.5-0.5-0.7-0.6 -0.2-0.1-0.5-0.1-0.7-0.1 -1.3 0-2 0.9-2 2.5 0 1.7 0.7 2.5 2 2.5 0.3 0 0.5 0 0.7-0.1 0.3-0.1 0.4-0.3 0.8-0.6L83 64C82.4 64.4 82.2 64.6 81.9 64.7zM84.7 64.8v-6.5h1v3.1l2.9-3.1h1.2l-3 3.1 3.2 3.5h-1.2l-3.1-3.4v3.4h-1V64.8zM95.3 64.2c-0.5 0.5-1.1 0.7-1.9 0.7 -0.8 0-1.4-0.2-1.9-0.7 -0.6-0.6-0.8-1.3-0.8-2.6 0-1.3 0.2-2 0.8-2.6 0.5-0.5 1.1-0.7 1.9-0.7 0.7 0 1.4 0.3 1.9 0.7 0.6 0.6 0.8 1.3 0.8 2.6C96.1 62.8 95.9 63.6 95.3 64.2zM94.6 59.5c-0.3-0.3-0.7-0.5-1.2-0.5 -0.5 0.1-0.9 0.2-1.2 0.5 -0.4 0.4-0.5 1-0.5 2 0 1.1 0.1 1.6 0.5 2 0.3 0.3 0.7 0.5 1.2 0.5s0.9-0.2 1.2-0.5c0.4-0.4 0.5-0.9 0.5-2C95.1 60.5 95 59.9 94.6 59.5zM103.5 64.8v-4.6l-1.8 3.6H101l-1.9-3.6v4.7h-0.9v-6.6h0.9l2.2 4.4 2.2-4.4h1v6.6h-1V64.8z"/></svg>