<svg xmlns="http://www.w3.org/2000/svg" width="200" height="50"><path fill="#eee" d="M59.596 38.598c-1.918 0-3.52-.48-4.72-1.68L56 35.798c.877 1 2.2 1.4 3.6 1.4 1.92 0 3.12-.72 3.12-2.08 0-1.038-.558-1.6-1.922-1.76l-1.918-.16c-2.242-.157-3.44-1.2-3.44-3.118 0-2.16 1.76-3.44 4.24-3.44 1.68 0 3.1.4 4.2 1.28L62.717 29c-.8-.64-1.922-.96-3.12-.96-1.68 0-2.56.718-2.56 1.917 0 1 .6 1.6 2 1.762l1.84.16c2 .2 3.4 1 3.4 3.2s-1.88 3.52-4.676 3.518h-.004zm0 .002M67.677 33.078c0 2.6 1.2 4.1 3.4 4.078 1.36 0 2.082-.398 3.043-1.36l1.117 1c-1.2 1.2-2.238 1.84-4.238 1.84-3.04 0-5.04-1.84-5.04-6 0-3.84 1.84-6 4.718-6 2.96 0 4.7 2.2 4.7 5.68v.798H67.62v-.036zm5.84-3.28c-.48-1.04-1.518-1.76-2.722-1.76-1.2 0-2.238.72-2.718 1.8-.24.642-.32 1.044-.32 2h6.16C73.755 30.8 73.8 30.4 73.5 29.8h.018zm0 .002M84.396 28.918c-.64-.64-1.12-.88-2-.88-1.68 0-2.8 1.36-2.8 3.118v7.203h-1.68V26.68h1.68v1.438c.64-.96 1.92-1.598 3.28-1.598 1.122 0 1.9.2 2.8 1.117l-1.28 1.28zm0-.018M91.916 38.438h-1.52L86.16 26.68h1.838l3.117 9.438 3.203-9.438h1.84l-4.242 11.758zm0-.038M98.475 33.078c0 2.6 1.2 4.1 3.4 4.078 1.36 0 2.082-.398 3.04-1.36l1.12 1c-1.2 1.2-2.238 1.84-4.238 1.84-3.043 0-5.043-1.84-5.043-6 0-3.84 1.84-6 4.723-6 2.957 0 4.7 2.2 4.7 5.68v.798h-7.762v-.036zm5.76-3.28c-.48-1.04-1.52-1.76-2.718-1.76s-2.242.72-2.723 1.76c-.238.64-.32 1.042-.32 2h6.16c-.077-.998-.134-1.398-.434-2h.036zm0 .002M115.115 28.918c-.64-.64-1.117-.88-2-.88-1.68 0-2.797 1.36-2.797 3.118v7.203h-1.684V26.68h1.684v1.438c.637-.96 1.918-1.598 3.277-1.598 1.12 0 1.9.2 2.8 1.117l-1.28 1.28zm0-.018M122.158 28.758v9.762h-3.043v-9.762h-1.277V26.36h1.277v-1.52c0-1.762 1.12-3.602 3.602-3.602h1.758v2.64h-1.2c-.718 0-1.038.4-1.038 1.122v1.36h2.238v2.397h-2.317zm0 .042M132.236 38.438v-1.04c-.8.802-1.602 1.2-3.04 1.2-1.358 0-2.4-.32-3.12-1.12-.64-.72-1.04-1.68-1.04-2.798 0-2 1.36-3.602 4.16-3.602h2.88v-.64c0-1.36-.64-2-2.32-2-1.2 0-1.68.32-2.32 1.038l-1.918-1.918c1.2-1.36 2.398-1.762 4.398-1.762 3.44 0 5.2 1.5 5.2 4.402v8.238h-2.88zm-.078-5.2h-2.402c-1.12 0-1.68.56-1.68 1.44 0 .9.6 1.4 1.8 1.44.88 0 1.36-.08 1.918-.56.32-.32.48-.8.48-1.602v-.72h-.116zm0-.038M144.557 38.438v-1.12c-.8.882-1.922 1.28-3.04 1.28-1.198 0-2.24-.398-2.882-1.12-.957-1.04-1.277-2.16-1.277-3.52v-8h3.04v7.52c0 1.7 1 2.2 2 2.24s2.077-.562 2.077-2.24v-7.52h3.043v12.48h-2.96zm0-.038M153.275 38.438c-2.48 0-3.598-1.758-3.598-3.598V21.398h3.117V34.68c0 .7.3 1.1 1.1 1.117h1.2v2.64h-1.82zm0-.038M160.076 38.438c-2.48 0-3.52-1.758-3.52-3.598v-6.16h-1.36v-2.402h1.278v-3.68h3.043v3.68h2.16v2.402h-2.082v6c0 .7.3 1.1 1 1.117h1.12v2.64h-1.64zm0-.038"/><path fill="#A7A8AB" stroke="#eee" stroke-width=".5" stroke-miterlimit="10" d="M12.3 18.6h17.6v3.5H12.3z"/><path fill="#818385" stroke="#eee" stroke-width=".5" stroke-miterlimit="10" d="M12.3 24.3h17.6v3.5H12.3z"/><path fill="#5A5A5C" stroke="#eee" stroke-width=".5" stroke-miterlimit="10" d="M12.3 29.6h17.6v3.5H12.3z"/><path fill="#D2D3D4" stroke="#eee" stroke-width=".5" stroke-miterlimit="10" d="M12.3 13h17.6v3.5H12.3z"/><path fill="#221F1F" stroke="#eee" stroke-width=".5" stroke-miterlimit="10" d="M12.3 35.2h17.6v3.5H12.3z"/><path fill="#992425" stroke="#eee" stroke-width=".5" stroke-miterlimit="10" d="M32 18.6h7.5v3.5H32z"/><path fill="#631117" stroke="#eee" stroke-width=".5" stroke-miterlimit="10" d="M32 24.3h7.5v3.5H32z"/><path fill="#2B1415" stroke="#eee" stroke-width=".5" stroke-miterlimit="10" d="M32 29.6h7.5v3.5H32z"/><path fill="#E62B2F" stroke="#eee" stroke-width=".5" stroke-miterlimit="10" d="M32 13h7.5v3.5H32z"/><path fill="#221F1F" stroke="#eee" stroke-width=".5" stroke-miterlimit="10" d="M32 35.2h7.5v3.5H32z"/><path fill="#A7A8AB" stroke="#eee" stroke-width=".5" stroke-miterlimit="10" d="M41.5 18.8H49v3.5h-7.5z"/><path fill="#818385" stroke="#eee" stroke-width=".5" stroke-miterlimit="10" d="M41.5 24.4H49v3.5h-7.5z"/><path fill="#5A5A5C" stroke="#eee" stroke-width=".5" stroke-miterlimit="10" d="M41.5 29.7H49v3.5h-7.5z"/><path fill="#D2D3D4" stroke="#eee" stroke-width=".5" stroke-miterlimit="10" d="M41.5 13.2H49v3.5h-7.5z"/><path fill="#221F1F" stroke="#eee" stroke-width=".5" stroke-miterlimit="10" d="M41.5 35.4H49v3.5h-7.5z"/></svg>