<svg xmlns="http://www.w3.org/2000/svg" width="200px" height="50px"><path fill="#eee" d="M59.596 38.598c-1.918 0-3.519-0.48-4.719-1.68l1.122-1.121c0.878 1 2.2 1.4 3.6 1.4 c1.922 0 3.121-0.719 3.121-2.078c0-1.039-0.558-1.602-1.922-1.762l-1.918-0.16c-2.242-0.156-3.441-1.199-3.441-3.117 c0-2.16 1.762-3.441 4.242-3.441c1.68 0 3.1 0.4 4.2 1.281L62.716 29c-0.8-0.641-1.922-0.961-3.121-0.961 c-1.679 0-2.558 0.719-2.558 1.918c0 1 0.6 1.6 2 1.762l1.839 0.16c2 0.2 3.4 1 3.4 3.2 S62.396 38.6 59.6 38.598L59.596 38.598z M59.596 38.6"/><path fill="#eee" d="M67.677 33.078c0 2.6 1.2 4.1 3.4 4.078c1.359 0 2.082-0.398 3.043-1.359l1.117 1 c-1.199 1.199-2.238 1.84-4.238 1.84c-3.039 0-5.039-1.84-5.039-6c0-3.84 1.839-6 4.718-6c2.961 0 4.7 2.2 4.7 5.68v0.797 h-7.758V33.078z M73.518 29.797c-0.48-1.039-1.519-1.758-2.723-1.758c-1.199 0-2.238 0.719-2.718 1.8 c-0.239 0.641-0.321 1.043-0.321 2h6.161C73.755 30.8 73.8 30.4 73.5 29.797L73.518 29.797z M73.518 29.8"/><path fill="#eee" d="M84.396 28.918c-0.641-0.641-1.121-0.879-2-0.879c-1.68 0-2.801 1.359-2.801 3.117v7.203h-1.679V26.68h1.679 v1.438c0.641-0.961 1.922-1.598 3.281-1.598c1.122 0 1.9 0.2 2.8 1.117L84.396 28.918z M84.396 28.9"/><path fill="#eee" d="M91.916 38.438h-1.52L86.159 26.68h1.839l3.117 9.438l3.203-9.438h1.84L91.916 38.438z M91.916 38.4"/><path fill="#eee" d="M98.475 33.078c0 2.6 1.2 4.1 3.4 4.078c1.359 0 2.082-0.398 3.039-1.359l1.121 1 c-1.199 1.199-2.238 1.84-4.238 1.84c-3.043 0-5.043-1.84-5.043-6c0-3.84 1.84-6 4.723-6c2.957 0 4.7 2.2 4.7 5.68v0.797 h-7.762V33.078z M104.236 29.797c-0.48-1.039-1.52-1.758-2.719-1.758s-2.242 0.719-2.723 1.758c-0.238 0.641-0.32 1.043-0.32 2h6.16 C104.557 30.8 104.5 30.4 104.2 29.797L104.236 29.797z M104.236 29.8"/><path fill="#eee" d="M115.115 28.918c-0.641-0.641-1.117-0.879-2-0.879c-1.68 0-2.797 1.359-2.797 3.117v7.203h-1.684V26.68 h1.684v1.438c0.637-0.961 1.918-1.598 3.277-1.598c1.121 0 1.9 0.2 2.8 1.117L115.115 28.918z M115.115 28.9"/><path fill="#eee" d="M122.158 28.758v9.762h-3.043v-9.762h-1.277v-2.398h1.277v-1.52c0-1.762 1.121-3.602 3.602-3.602h1.758 v2.641h-1.199c-0.719 0-1.039 0.398-1.039 1.121v1.359h2.238v2.398H122.158z M122.158 28.8"/><path fill="#eee" d="M132.236 38.438v-1.039c-0.801 0.801-1.602 1.199-3.039 1.199c-1.359 0-2.402-0.32-3.121-1.121 c-0.641-0.719-1.039-1.68-1.039-2.797c0-2 1.359-3.602 4.16-3.602h2.879v-0.641c0-1.359-0.641-2-2.32-2 c-1.199 0-1.68 0.32-2.32 1.039l-1.918-1.918c1.199-1.359 2.398-1.762 4.398-1.762c3.441 0 5.2 1.5 5.2 4.402v8.238H132.236z M132.158 33.238h-2.402c-1.121 0-1.68 0.559-1.68 1.441c0 0.9 0.6 1.4 1.8 1.438c0.879 0 1.359-0.078 1.918-0.559 c0.32-0.32 0.48-0.801 0.48-1.602v-0.719H132.158z M132.158 33.2"/><path fill="#eee" d="M144.557 38.438v-1.121c-0.801 0.883-1.922 1.281-3.039 1.281c-1.199 0-2.242-0.398-2.883-1.121 c-0.957-1.039-1.277-2.16-1.277-3.52v-8h3.039v7.52c0 1.7 1 2.2 2 2.242s2.078-0.563 2.078-2.242v-7.52h3.043v12.48H144.557z M144.557 38.4"/><path fill="#eee" d="M153.275 38.438c-2.48 0-3.598-1.758-3.598-3.598V21.398h3.117V34.68c0 0.7 0.3 1.1 1.1 1.117h1.199 v2.641H153.275z M153.275 38.4"/><path fill="#eee" d="M160.076 38.438c-2.48 0-3.52-1.758-3.52-3.598v-6.16h-1.359v-2.402h1.277v-3.679h3.043v3.679h2.16v2.402 h-2.082v6c0 0.7 0.3 1.1 1 1.117h1.121v2.641H160.076z M160.076 38.4"/><rect x="12.3" y="18.6" fill="#A7A8AB" stroke="#eee" stroke-width="0.5" stroke-miterlimit="10" width="17.6" height="3.5"/><rect x="12.3" y="24.3" fill="#818385" stroke="#eee" stroke-width="0.5" stroke-miterlimit="10" width="17.6" height="3.5"/><rect x="12.3" y="29.6" fill="#5A5A5C" stroke="#eee" stroke-width="0.5" stroke-miterlimit="10" width="17.6" height="3.5"/><rect x="12.3" y="13" fill="#D2D3D4" stroke="#eee" stroke-width="0.5" stroke-miterlimit="10" width="17.6" height="3.5"/><rect x="12.3" y="35.2" fill="#221F1F" stroke="#eee" stroke-width="0.5" stroke-miterlimit="10" width="17.6" height="3.5"/><rect x="32" y="18.6" fill="#992425" stroke="#eee" stroke-width="0.5" stroke-miterlimit="10" width="7.5" height="3.5"/><rect x="32" y="24.3" fill="#631117" stroke="#eee" stroke-width="0.5" stroke-miterlimit="10" width="7.5" height="3.5"/><rect x="32" y="29.6" fill="#2B1415" stroke="#eee" stroke-width="0.5" stroke-miterlimit="10" width="7.5" height="3.5"/><rect x="32" y="13" fill="#E62B2F" stroke="#eee" stroke-width="0.5" stroke-miterlimit="10" width="7.5" height="3.5"/><rect x="32" y="35.2" fill="#221F1F" stroke="#eee" stroke-width="0.5" stroke-miterlimit="10" width="7.5" height="3.5"/><rect x="41.5" y="18.8" fill="#A7A8AB" stroke="#eee" stroke-width="0.5" stroke-miterlimit="10" width="7.5" height="3.5"/><rect x="41.5" y="24.4" fill="#818385" stroke="#eee" stroke-width="0.5" stroke-miterlimit="10" width="7.5" height="3.5"/><rect x="41.5" y="29.7" fill="#5A5A5C" stroke="#eee" stroke-width="0.5" stroke-miterlimit="10" width="7.5" height="3.5"/><rect x="41.5" y="13.2" fill="#D2D3D4" stroke="#eee" stroke-width="0.5" stroke-miterlimit="10" width="7.5" height="3.5"/><rect x="41.5" y="35.4" fill="#221F1F" stroke="#eee" stroke-width="0.5" stroke-miterlimit="10" width="7.5" height="3.5"/></svg>