<svg xmlns="http://www.w3.org/2000/svg" width="206" height="58" viewBox=".75 -.25 206 58"><path fill="#3BA7DE" d="M5.5 49.7v-46h13v1.8h-3.4c-1.6 0-2.7.2-3.1.7s-.7 1.2-.7 2.8v35.8c0 1.1.1 1.9.4 2.3.3.4 1.1.6 2.3.6h4.5v2h-13z"/><path fill="#EEE" d="M18.2 33.3h1.6c.5 2.7 1.6 4.6 3.1 5.7 1.5 1.1 3 1.7 4.6 1.7 1.4 0 2.5-.3 3.2-1 .7-.6 1-1.5 1-2.6 0-1-.4-1.9-1.1-2.6-.4-.4-1-.8-1.9-1.2l-4.1-2c-2.2-1.1-3.7-2.2-4.7-3.5-1-1.3-1.4-2.7-1.4-4.4 0-2.2.8-4 2.3-5.6s3.6-2.4 6.3-2.4c1.2 0 2.4.2 3.8.6 1.3.4 2.2.6 2.5.6.5 0 .8-.1 1-.3.2-.2.4-.5.5-.8h1.2v8.1h-1.4c-.5-1.9-1.4-3.4-2.6-4.6-1.2-1.1-2.6-1.7-4.2-1.7-1.2 0-2.2.3-2.8 1-.6.7-.9 1.4-.9 2.2 0 .7.3 1.3.8 2s1.5 1.4 3 2.1l3.1 1.5c1.9.9 3.3 1.8 4.1 2.6 1.5 1.5 2.2 3.2 2.2 5.4 0 2.1-.8 4-2.3 5.8-1.5 1.8-3.8 2.7-6.8 2.7-.7 0-1.5-.1-2.3-.2-.8-.2-1.7-.4-2.8-.8l-1-.3-.6-.2h-.3c-.3 0-.6.1-.8.4-.2.2-.5.7-.8 1.2h-1.3v-9.4h-.2zM37.6 40.4c1-.2 1.7-.6 2.1-.9.4-.4.6-1.2.6-2.4V8.6c0-1.2-.2-2-.6-2.3-.4-.3-1.1-.7-2.1-.9V4.1h10.5v24.1l7.1-7.1c.4-.4.7-.8.9-1.2.2-.4.3-.7.3-.9 0-.6-.3-.9-.8-1.1-.5-.2-1.4-.3-2.6-.4v-1.3h12v1.3c-1.1.1-2.1.3-2.7.6-1.2.5-2.4 1.3-3.5 2.4l-4.3 4.2 10.8 14.9c.2.3.4.5.6.6.2.1.5.2.8.2v1.3h-13v-1.3c.8 0 1.4-.1 1.8-.3.4-.2.6-.4.6-.8 0-.2-.1-.4-.2-.8-.2-.3-.5-.9-1.1-1.8l-5.3-7.5-1.2 1.4v6.3c0 1.3.2 2.1.5 2.5.3.4 1.1.7 2.4.9v1.3H37.6v-1.2z"/><path fill="#EEE" d="M69.2 18.9c2.3-2.4 5-3.6 8.3-3.6 1.8 0 3.6.5 5.2 1.4 1.6 1 2.9 2.3 3.7 4 .7 1.3 1.1 3 1.4 5 .1 1 .2 1.7.2 2.2H73.7c.1 2.2.5 4.2 1.1 5.8 1.1 3.1 3 4.6 5.8 4.6 1.3 0 2.6-.4 3.7-1.2.7-.5 1.6-1.3 2.7-2.5l1.3.8c-1.7 2.8-3.7 4.8-6 5.9-1.5.7-3.2 1.1-5.1 1.1-2.7 0-5.3-1.1-7.7-3.2-2.4-2.2-3.6-5.6-3.6-10.4-.1-4.2 1-7.5 3.3-9.9zM81.1 26c0-3.3-.3-5.6-.8-6.9-.5-1.3-1.4-2-2.8-2-1.5 0-2.5.8-3 2.3s-.8 3.7-.9 6.6h7.5zM88.4 51.9c1.2-.1 2-.4 2.5-.8.4-.4.7-1.2.7-2.4V20.6c0-1.2-.2-2-.6-2.4s-1.2-.7-2.4-.9V16h10.7v3.7c.8-1.3 1.5-2.2 2.2-2.8 1.3-1.1 3-1.6 5-1.6 2.9 0 5.4 1.1 7.3 3.3 1.9 2.2 2.9 5.5 2.9 9.8 0 4.1-1 7.4-3.1 10.1-2.1 2.7-4.6 4-7.6 4-1.5 0-3-.4-4.3-1.3-.7-.5-1.5-1.1-2.3-2v4.7c0 2.5 0 3.9.1 4.2.1 1.5.5 2.5 1.1 3s1.7.9 3.2 1v1.1H88.5v-1.3h-.1zm19.4-16.5c.4-1.5.6-3.6.6-6.4 0-3.2-.3-5.8-.9-7.7s-1.8-2.9-3.5-2.9c-1.2 0-2.3.5-3.2 1.6-.9 1.1-1.4 1.8-1.4 2.3v13.6c0 .5.5 1.3 1.4 2.1.9.9 1.9 1.3 3 1.3 1.9.1 3.3-1.2 4-3.9zM117.2 18.5v-1.6c.5-.5 1.1-1 1.8-1.6 1-.9 1.9-1.8 2.7-2.8 1.7-1.9 3.2-3.8 4.6-6h1.4v9.4h5.3v2.5h-5.3v16.8c0 .8.1 1.4.4 2 .4.8 1 1.2 1.8 1.2.7 0 1.3-.3 1.8-.8s1-1.2 1.5-2.1l1.3.7c-.7 1.5-1.4 2.8-2.3 3.7-1.6 1.7-3.6 2.5-5.9 2.5-1.3 0-2.5-.2-3.4-.7-1.9-.9-2.8-2.7-2.8-5.2V18.4h-2.9v.1z"/><path fill="#EEE" d="M134.4 40.4c1-.2 1.7-.4 2-.7.5-.5.8-1.4.8-2.6V20.7c0-1.1-.2-1.9-.6-2.3-.4-.4-1.1-.7-2.3-.9v-1.3H145v21.2c0 1.2.2 2 .5 2.3.4.3 1 .6 2 .8v1.3h-13.3v-1.4h.2zm3.7-36c.8-.8 1.9-1.3 3.1-1.3s2.2.4 3 1.3c.8.9 1.3 1.9 1.3 3.1 0 1.2-.4 2.2-1.3 3.1-.9.9-1.9 1.3-3 1.3-1.2 0-2.2-.4-3.1-1.3-.8-.8-1.3-1.9-1.3-3.1 0-1.2.5-2.3 1.3-3.1zM167.5 17c1.7 1.1 2.6 2.6 2.6 4.4 0 1-.3 1.8-1 2.5s-1.6 1.1-2.6 1.1c-.7 0-1.3-.2-1.9-.5-1-.6-1.5-1.6-1.5-3.2v-.7-1c0-1-.2-1.7-.7-2-.5-.4-1-.5-1.6-.5-1.7 0-3 1-3.7 2.9-.7 1.9-1.1 4.1-1.1 6.5 0 3.5.7 6.4 2.1 8.8 1.4 2.4 3.2 3.5 5.6 3.5 1.5 0 2.7-.3 3.8-1 .6-.4 1.4-1.1 2.3-2.1l1 1c-1.8 2.5-3.898 4.3-6.398 5.2-1.3.5-2.7.7-4.1.7-3.6 0-6.5-1.3-8.8-3.8-2.3-2.6-3.4-5.7-3.4-9.4 0-3.9 1.2-7.2 3.6-9.9 2.4-2.7 5.6-4.1 9.6-4.1 2.498-.1 4.498.5 6.198 1.6zM172 33.3h1.6c.5 2.7 1.6 4.6 3.1 5.7 1.5 1.1 3 1.7 4.6 1.7 1.4 0 2.5-.3 3.2-1 .7-.6 1-1.5 1-2.6 0-1-.4-1.9-1.1-2.6-.4-.4-1-.8-1.9-1.2l-4.1-2c-2.2-1.1-3.7-2.2-4.7-3.5-1-1.3-1.4-2.7-1.4-4.4 0-2.2.8-4 2.3-5.6s3.602-2.4 6.302-2.4c1.2 0 2.4.2 3.8.6 1.3.4 2.2.6 2.5.6.5 0 .8-.1 1-.3.2-.2.4-.5.5-.8h1.2v8.1h-1.4c-.5-1.9-1.4-3.4-2.6-4.6-1.2-1.1-2.6-1.7-4.2-1.7-1.2 0-2.2.3-2.8 1-.6.7-.9 1.4-.9 2.2 0 .7.3 1.3.8 2s1.5 1.4 3 2.1l3.1 1.5c1.9.9 3.3 1.8 4.1 2.6 1.5 1.5 2.2 3.2 2.2 5.4 0 2.1-.8 4-2.3 5.8-1.5 1.8-3.8 2.7-6.8 2.7-.7 0-1.5-.1-2.3-.2-.8-.2-1.7-.4-2.8-.8l-1-.3-.6-.2h-.3c-.3 0-.6.1-.8.4-.2.2-.5.7-.8 1.2h-1.3v-9.4H172z"/><path fill="#33ACE3" d="M189.5 49.7v-2h4.4c1.3 0 2.1-.2 2.3-.6.3-.4.4-1.2.4-2.3V9.6c0-1.6-.2-2.8-.6-3.3s-1.5-.8-3.1-.8h-3.4V3.7h13v46h-13z"/></svg>