<svg xmlns="http://www.w3.org/2000/svg" width="504" height="144"><metadata id="metadata47"/><defs id="defs45"/><path fill="#eee" d="M42.9 116.9c-6.3 0-10.8-1.5-14.7-5.5l4.2-4.2c3 3 6.4 4 10.7 4 5.4 0 8.6-2.3 8.6-6.4 0-1.8-0.5-3.3-1.6-4.3 -1.1-1-2.1-1.4-4.6-1.8l-4.9-0.7c-3.4-0.5-6.1-1.6-7.9-3.3 -2-1.9-3-4.6-3-8 0-7.3 5.3-12.2 13.9-12.2 5.5 0 9.4 1.4 12.9 4.7l-4 4c-2.6-2.5-5.6-3.2-9.1-3.2 -4.9 0-7.6 2.8-7.6 6.5 0 1.5 0.5 2.9 1.6 3.9 1.1 0.9 2.8 1.6 4.7 1.9l4.7 0.7c3.9 0.6 6 1.5 7.8 3.1 2.3 2 3.4 5 3.4 8.5C57.9 112.3 51.6 116.9 42.9 116.9z" id="path3"/><path fill="#eee" d="M74.5 116.6c-5.6 0-8.1-4-8.1-8.3V92H63v-4.6h3.4v-9h6v9h5.7v4.6h-5.7v16c0 2.2 1.1 3.5 3.3 3.5h2.5v5.1H74.5z" id="path5"/><path fill="#eee" d="M101.5 116.6v-2.7c-2.2 2.2-4.2 3-7.9 3 -3.7 0-6.1-0.9-8-2.7 -1.5-1.6-2.3-3.9-2.3-6.4 0-5 3.5-8.5 10.2-8.5h7.8v-2.1c0-3.7-1.9-5.6-6.5-5.6 -3.3 0-4.9 0.8-6.5 2.9l-3.9-3.7c2.8-3.3 5.7-4.3 10.7-4.3 8.1 0 12.2 3.5 12.2 10.2v19.8H101.5zM101.4 103.4h-7c-3.5 0-5.3 1.6-5.3 4.3 0 2.7 1.7 4.2 5.4 4.2 2.3 0 4-0.2 5.6-1.7 0.9-0.9 1.3-2.3 1.3-4.4V103.4z" id="path7"/><path fill="#eee" d="M128.2 116.9c-6.7 0-13.2-4.1-13.2-15.2s6.6-15.2 13.2-15.2c4.1 0 7 1.2 9.8 4.2l-4.1 4c-1.9-2-3.3-2.8-5.7-2.8 -2.3 0-4.2 0.9-5.5 2.6 -1.3 1.6-1.8 3.7-1.8 7.2s0.5 5.6 1.8 7.3c1.3 1.7 3.2 2.6 5.5 2.6 2.3 0 3.8-0.8 5.7-2.8l4.1 3.9C135.2 115.7 132.3 116.9 128.2 116.9z" id="path9"/><path fill="#eee" d="M163.6 116.6l-8.3-13.7 -4.4 5v8.7h-6V74.9h6v25.7l11.5-13.7h7.3L159.4 98.5l11.6 18H163.6z" id="path11"/><path fill="#205296" d="M177.1 116.6V74.9h27.5v7.3H185.2v9.8h16.4v7.3H185.2v10.1h19.3v7.3H177.1z" id="path13"/><path fill="#205296" d="M228.7 116.6l-5.6-9.1 -5.6 9.1h-9.1l10.5-15.6 -10.1-14.9h9.1l5.2 8.7 5.2-8.7h9.1l-10.1 14.9 10.5 15.6H228.7z" id="path15"/><path fill="#205296" d="M253.7 116.9c-6.1 0-13.6-3.3-13.6-15.6 0-12.3 7.6-15.6 13.6-15.6 4.2 0 7.4 1.3 10.1 4.1l-5.1 5.2c-1.6-1.7-2.9-2.4-4.9-2.4 -1.8 0-3.2 0.6-4.3 2 -1.2 1.5-1.7 3.5-1.7 6.7 0 3.2 0.5 5.3 1.7 6.8 1.1 1.3 2.5 2 4.3 2 2 0 3.3-0.7 4.9-2.4l5.2 5.1C261.1 115.6 257.9 116.9 253.7 116.9z" id="path17"/><path fill="#205296" d="M287.2 116.6V97.9c0-4-2.6-5.4-5-5.4 -2.4 0-4.9 1.4-4.9 5.4v18.6h-7.6V74.9h7.6v14c2-2.1 4.6-3.2 7.3-3.2 6.7 0 10.2 4.7 10.2 11.1v19.7H287.2z" id="path19"/><path fill="#205296" d="M318.6 116.6v-2.6c-2 2-4 2.9-7.5 2.9 -3.5 0-6-0.9-7.8-2.7 -1.6-1.7-2.5-4.2-2.5-6.8 0-4.9 3.3-8.8 10.4-8.8h7.2v-1.5c0-3.3-1.6-4.8-5.7-4.8 -2.9 0-4.3 0.7-5.9 2.5l-4.9-4.7c3-3.3 5.9-4.2 11-4.2 8.5 0 13 3.6 13 10.8v20.1H318.6zM318.5 103.7h-6c-2.8 0-4.3 1.3-4.3 3.5 0 2.1 1.4 3.5 4.4 3.5 2.1 0 3.5-0.2 4.8-1.5 0.8-0.8 1.1-2 1.1-3.9V103.7z" id="path21"/><path fill="#205296" d="M352 116.6V98.1c0-4.2-2.6-5.6-5-5.6 -2.4 0-5.1 1.4-5.1 5.6v18.4h-7.6V86.1h7.4v2.8c2-2.1 4.8-3.2 7.6-3.2 3 0 5.5 1 7.2 2.7 2.5 2.5 3.1 5.3 3.1 8.7v19.5H352z" id="path23"/><path fill="#205296" d="M378.3 128.1c-4.7 0-7.9-0.9-11.1-4l4.7-4.8c1.7 1.6 3.4 2.3 6 2.3 4.6 0 6.1-3.2 6.1-6.3v-3.1c-2 2.2-4.3 3-7.3 3s-5.6-1-7.3-2.7c-2.9-2.9-3.1-6.8-3.1-12.1 0-5.3 0.2-9.2 3.1-12.1 1.7-1.7 4.3-2.7 7.3-2.7 3.2 0 5.3 0.9 7.4 3.2v-2.9h7.4v29.4C391.7 122.8 386.5 128.1 378.3 128.1zM379.1 92.6c-4.5 0-5 3.9-5 7.9 0 4 0.5 8 5 8 4.5 0 5-3.9 5-8C384.1 96.4 383.6 92.6 379.1 92.6z" id="path25"/><path fill="#205296" d="M406.3 103.7c0 3.9 2.4 6.8 6.7 6.8 3.3 0 5-0.9 6.9-2.9l4.6 4.5c-3.1 3.1-6.1 4.8-11.6 4.8 -7.2 0-14.1-3.3-14.1-15.6 0-9.9 5.4-15.6 13.3-15.6 8.5 0 13.3 6.2 13.3 14.6v3.4H406.3zM417.1 95.2c-0.8-1.8-2.5-3.2-5.1-3.2s-4.3 1.3-5.1 3.2c-0.5 1.1-0.6 1.9-0.7 3.3h11.6C417.8 97.1 417.6 96.3 417.1 95.2z" id="path27"/><rect x="426.3" y="49.9" fill="#356DB6" width="43.2" height="8.9" id="rect29"/><rect x="426.3" y="38.4" fill="#4AA2DA" width="43.2" height="8.9" id="rect31"/><path fill="#90D8F5" d="M462.7 26.5H433.2c-3.8 0-6.9 3.2-6.9 7.1v2.3h43.2v-2.3C469.5 29.7 466.5 26.5 462.7 26.5z" id="path33"/><path fill="#1F5296" d="M426.3 61.3v2.3c0 3.9 3.1 7.1 6.9 7.1h18.5v9.4l9.1-9.4h2c3.8 0 6.9-3.2 6.9-7.1v-2.3H426.3z" id="path35"/><path opacity="0.2" fill="#eee" d="M426.3 61.3v2.3c0 3.9 3.1 7.1 6.9 7.1h1.3l9.1-9.4H426.3z" id="path37"/><polygon opacity="0.2" fill="#eee" points="465.5 38.4 426.3 38.4 426.3 47.3 457 47.3 " id="polygon39"/><polygon opacity="0.2" fill="#eee" points="454.5 49.9 426.3 49.9 426.3 58.8 445.9 58.8 " id="polygon41"/></svg>