<svg xmlns="http://www.w3.org/2000/svg" width="504" height="144"><path fill="#eee" d="M42.9 116.9c-6.3 0-10.8-1.5-14.7-5.5l4.2-4.2c3 3 6.4 4 10.7 4 5.4 0 8.6-2.3 8.6-6.4 0-1.8-.5-3.3-1.6-4.3s-2.1-1.4-4.6-1.8l-4.9-.7c-3.4-.5-6.1-1.6-7.9-3.3-2-1.9-3-4.6-3-8 0-7.3 5.3-12.2 13.9-12.2 5.5 0 9.4 1.4 12.9 4.7l-4 4c-2.6-2.5-5.6-3.2-9.1-3.2-4.9 0-7.6 2.8-7.6 6.5 0 1.5.5 2.9 1.6 3.9 1.1.9 2.8 1.6 4.7 1.9l4.7.7c3.9.6 6 1.5 7.8 3.1 2.3 2 3.4 5 3.4 8.5-.1 7.7-6.4 12.3-15.1 12.3zM74.5 116.6c-5.6 0-8.1-4-8.1-8.3V92H63v-4.6h3.4v-9h6v9h5.7V92h-5.7v16c0 2.2 1.1 3.5 3.3 3.5h2.5v5.1h-3.7zM101.5 116.6v-2.7c-2.2 2.2-4.2 3-7.9 3s-6.1-.9-8-2.7c-1.5-1.6-2.3-3.9-2.3-6.4 0-5 3.5-8.5 10.2-8.5h7.8v-2.1c0-3.7-1.9-5.6-6.5-5.6-3.3 0-4.9.8-6.5 2.9l-3.9-3.7c2.8-3.3 5.7-4.3 10.7-4.3 8.1 0 12.2 3.5 12.2 10.2v19.8h-5.8zm-.1-13.2h-7c-3.5 0-5.3 1.6-5.3 4.3 0 2.7 1.7 4.2 5.4 4.2 2.3 0 4-.2 5.6-1.7.9-.9 1.3-2.3 1.3-4.4v-2.4zM128.2 116.9c-6.7 0-13.2-4.1-13.2-15.2s6.6-15.2 13.2-15.2c4.1 0 7 1.2 9.8 4.2l-4.1 4c-1.9-2-3.3-2.8-5.7-2.8-2.3 0-4.2.9-5.5 2.6-1.3 1.6-1.8 3.7-1.8 7.2s.5 5.6 1.8 7.3c1.3 1.7 3.2 2.6 5.5 2.6s3.8-.8 5.7-2.8l4.1 3.9c-2.8 3-5.7 4.2-9.8 4.2zM163.6 116.6l-8.3-13.7-4.4 5v8.7h-6V74.9h6v25.7l11.5-13.7h7.3l-10.3 11.6 11.6 18h-7.4z"/><path fill="#205296" d="M177.1 116.6V74.9h27.5v7.3h-19.4V92h16.4v7.3h-16.4v10.1h19.3v7.3h-27.4zM228.7 116.6l-5.6-9.1-5.6 9.1h-9.1l10.5-15.6-10.1-14.9h9.1l5.2 8.7 5.2-8.7h9.1L227.3 101l10.5 15.6h-9.1zM253.7 116.9c-6.1 0-13.6-3.3-13.6-15.6s7.6-15.6 13.6-15.6c4.2 0 7.4 1.3 10.1 4.1l-5.1 5.2c-1.6-1.7-2.9-2.4-4.9-2.4-1.8 0-3.2.6-4.3 2-1.2 1.5-1.7 3.5-1.7 6.7s.5 5.3 1.7 6.8c1.1 1.3 2.5 2 4.3 2 2 0 3.3-.7 4.9-2.4l5.2 5.1c-2.8 2.8-6 4.1-10.2 4.1zM287.2 116.6V97.9c0-4-2.6-5.4-5-5.4s-4.9 1.4-4.9 5.4v18.6h-7.6V74.9h7.6v14c2-2.1 4.6-3.2 7.3-3.2 6.7 0 10.2 4.7 10.2 11.1v19.7h-7.6zM318.6 116.6V114c-2 2-4 2.9-7.5 2.9s-6-.9-7.8-2.7c-1.6-1.7-2.5-4.2-2.5-6.8 0-4.9 3.3-8.8 10.4-8.8h7.2v-1.5c0-3.3-1.6-4.8-5.7-4.8-2.9 0-4.3.7-5.9 2.5l-4.9-4.7c3-3.3 5.9-4.2 11-4.2 8.5 0 13 3.6 13 10.8v20.1h-7.3zm-.1-12.9h-6c-2.8 0-4.3 1.3-4.3 3.5 0 2.1 1.4 3.5 4.4 3.5 2.1 0 3.5-.2 4.8-1.5.8-.8 1.1-2 1.1-3.9v-1.6zM352 116.6V98.1c0-4.2-2.6-5.6-5-5.6s-5.1 1.4-5.1 5.6v18.4h-7.6V86.1h7.4v2.8c2-2.1 4.8-3.2 7.6-3.2 3 0 5.5 1 7.2 2.7 2.5 2.5 3.1 5.3 3.1 8.7v19.5H352zM378.3 128.1c-4.7 0-7.9-.9-11.1-4l4.7-4.8c1.7 1.6 3.4 2.3 6 2.3 4.6 0 6.1-3.2 6.1-6.3v-3.1c-2 2.2-4.3 3-7.3 3s-5.6-1-7.3-2.7c-2.9-2.9-3.1-6.8-3.1-12.1s.2-9.2 3.1-12.1c1.7-1.7 4.3-2.7 7.3-2.7 3.2 0 5.3.9 7.4 3.2v-2.9h7.4v29.4c.2 7.5-5 12.8-13.2 12.8zm.8-35.5c-4.5 0-5 3.9-5 7.9s.5 8 5 8 5-3.9 5-8-.5-7.9-5-7.9zM406.3 103.7c0 3.9 2.4 6.8 6.7 6.8 3.3 0 5-.9 6.9-2.9l4.6 4.5c-3.1 3.1-6.1 4.8-11.6 4.8-7.2 0-14.1-3.3-14.1-15.6 0-9.9 5.4-15.6 13.3-15.6 8.5 0 13.3 6.2 13.3 14.6v3.4h-19.1zm10.8-8.5c-.8-1.8-2.5-3.2-5.1-3.2s-4.3 1.3-5.1 3.2c-.5 1.1-.6 1.9-.7 3.3h11.6c0-1.4-.2-2.2-.7-3.3z"/><path fill="#356DB6" d="M426.3 49.9h43.2v8.9h-43.2z"/><path fill="#4AA2DA" d="M426.3 38.4h43.2v8.9h-43.2z"/><path fill="#90D8F5" d="M462.7 26.5h-29.5c-3.8 0-6.9 3.2-6.9 7.1v2.3h43.2v-2.3c0-3.9-3-7.1-6.8-7.1z"/><path fill="#1F5296" d="M426.3 61.3v2.3c0 3.9 3.1 7.1 6.9 7.1h18.5v9.4l9.1-9.4h2c3.8 0 6.9-3.2 6.9-7.1v-2.3h-43.4z"/><path opacity=".2" fill="#eee" d="M426.3 61.3v2.3c0 3.9 3.1 7.1 6.9 7.1h1.3l9.1-9.4h-17.3zM465.5 38.4h-39.2v8.9H457M454.5 49.9h-28.2v8.9h19.6"/></svg>