<svg xmlns="http://www.w3.org/2000/svg" width="240" height="50" viewBox="0 0 240 50"><g fill="#fff"><path d="M41.8 45c-2.3 0-4.1-.5-5.6-2l1.3-1.3c1.1 1.1 2.6 1.6 4.3 1.6 2.3 0 3.7-.8 3.7-2.4 0-1.2-.7-1.9-2.3-2l-2.3-.2c-2.7-.2-4.1-1.4-4.1-3.7 0-2.5 2.1-4 5-4 2 0 3.7.5 4.9 1.5l-1.3 1.3c-1-.8-2.2-1.1-3.7-1.1-2 0-3.1.9-3.1 2.3 0 1.2.7 1.9 2.4 2l2.2.2c2.4.2 4 1.1 4 3.7.2 2.6-2.1 4.1-5.4 4.1zM53.5 44.8c-2.3 0-3.5-1.6-3.5-3.7v-8.4h-1.7v-1.5H50v-4.3h2v4.3h2.9v1.5H52v8.4c0 1.3.6 2 1.9 2H55v1.7h-1.5zM65.3 44.8v-1.3c-1.1 1.1-2.1 1.5-4 1.5s-3-.4-3.9-1.3c-.7-.7-1-1.7-1-2.8 0-2.4 1.7-4 4.7-4h4.1v-1.3c0-2-1-3-3.5-3-1.8 0-2.6.4-3.5 1.6L57 33c1.2-1.6 2.6-2 4.8-2 3.7 0 5.5 1.6 5.5 4.6v9.3l-2-.1zm0-6.3h-3.8c-2.1 0-3.1.8-3.1 2.4 0 1.6 1 2.3 3.1 2.3 1.2 0 2.2-.1 3.1-.9.5-.4.7-1.2.7-2.4v-1.4zM75.1 45c-3.5 0-6.1-2.3-6.1-7s2.6-7 6.1-7c1.9 0 3.1.5 4.5 2l-1.4 1.3c-1-1.1-1.8-1.5-3.1-1.5s-2.5.5-3.2 1.6c-.6.9-.9 2-.9 3.7s.3 2.8.9 3.7c.7 1 1.8 1.6 3.2 1.6 1.3 0 2.1-.4 3.1-1.6l1.4 1.3C78.2 44.5 77 45 75.1 45zM90.6 44.8l-4.3-7-2.7 3.1v4h-2V25h2v13.3l6.2-7.1h2.5l-4.7 5.2 5.5 8.5-2.5-.1zM103.8 43.3c-.8.9-2.2 1.7-4.3 1.7-2 0-3.4-.8-4.3-1.7-1.2-1.3-1.6-2.9-1.6-5.4s.3-4 1.6-5.3c.8-.9 2.2-1.7 4.3-1.7 2 0 3.4.8 4.3 1.7 1.2 1.3 1.6 2.9 1.6 5.3 0 2.6-.4 4.1-1.6 5.4zm-2.7-8.7c-.4-.4-.9-.6-1.6-.6s-1.2.2-1.6.6c-.7.7-.8 1.9-.8 3.3s.1 2.6.8 3.4c.4.4.9.6 1.6.6s1.2-.2 1.6-.6c.7-.7.8-1.9.8-3.4 0-1.4 0-2.6-.8-3.3zM113.1 44.8h-2.7l-5.1-13.7h3.6l2.8 8.5 2.8-8.5h3.6l-5 13.7zM121.4 39c0 1.8 1.1 3.1 3 3.1 1.5 0 2.2-.4 3.1-1.3l2.1 2c-1.4 1.4-2.7 2.2-5.2 2.2-3.2 0-6.4-1.5-6.4-7.1 0-4.5 2.4-7 6-7 3.8 0 6 2.8 6 6.6V39h-8.6zm4.9-3.8c-.4-.8-1.1-1.4-2.3-1.4-1.2 0-1.9.6-2.3 1.4-.2.5-.3.9-.3 1.5h5.2c0-.6-.1-1-.3-1.5zM139.2 34.8c-.5-.5-1-.8-1.8-.8-1.1 0-2.2.8-2.2 2.5v8.3h-3.4V31.1h3.4v1.3c.7-.8 2-1.5 3.5-1.5 1.3 0 2.3.3 3.2 1.3l-2.7 2.6zM147.5 33.7v11.1h-3.4V33.7h-1.4v-2.6h1.4v-1.7c0-2 1.2-3.9 4-3.9h2v2.9h-1.3c-.8 0-1.2.4-1.2 1.2v1.5h2.5v2.6h-2.6zm8.1 11.1c-2.8 0-4-2-4-3.9V25.4h3.4v15.2c0 .8.3 1.2 1.2 1.2h1.3v2.9l-1.9.1zM168.2 43.3c-.8.9-2.2 1.7-4.3 1.7-2 0-3.4-.8-4.3-1.7-1.2-1.3-1.6-2.9-1.6-5.4s.3-4 1.6-5.3c.8-.9 2.2-1.7 4.3-1.7 2 0 3.4.8 4.3 1.7 1.2 1.3 1.6 2.9 1.6 5.3-.1 2.6-.4 4.1-1.6 5.4zm-2.7-8.7c-.4-.4-.9-.6-1.6-.6s-1.2.2-1.6.6c-.7.7-.8 1.9-.8 3.3s.1 2.6.8 3.4c.4.4.9.6 1.6.6s1.2-.2 1.6-.6c.7-.7.8-1.9.8-3.4 0-1.4-.1-2.6-.8-3.3zM185.1 44.8h-2.8l-2.9-8.6-2.9 8.6h-2.8l-4.2-13.7h3.6l2.2 8.5 2.8-8.5h2.5l2.8 8.5 2.2-8.5h3.6l-4.1 13.7z"/></g><path fill="#818185" d="M6 38.9h17v3H6z"/><path fill="#818185" d="M26 30.9v14H3v-14H0v17h29v-17"/><path fill="#A68A6E" d="M6.37 32.736l16.728 1.544-.276 2.988-16.73-1.545z"/><path fill="#BF9452" d="M23.2 32.9l-16.3-4 .7-3L23.9 30"/><path fill="#D28B29" d="M24.3 28.2L9.6 20.7l1.4-2.5 14.6 7.5"/><path fill="#F68A1F" d="M26.7 24.7l-13-10.8 2-2.2 13 10.7"/><path fill="#F47920" d="M29.6 21L20.1 7.6 22.5 6l9.6 13.4"/></svg>