<svg xmlns="http://www.w3.org/2000/svg" width="504" height="144"><g clip-path="url(#SVGID_2_)"><path fill="#eee" d="M48.686 113.423h-18.3c-.7 0-1.1-.2-1.1-.8v-76.9c0-.6.4-.9 1.1-.9h18.2c.7 0 1.2.3 1.2.9v4.7c0 .7-.4.9-1.1.9h-8.2c-1 0-1.4.4-1.4 1v63.6c0 .7.4.9 1.2.9h8.2c.7 0 1.2.3 1.2.8v4.8c.1.7-.3 1-1 1"/><path fill="#2EACE3" d="M90.55 82.29c-4.8 1.4-8.2 4.2-8.2 8.9v13.4c0 10-9.5 8.9-21.4 8.9h-1.9c-.7 0-1.2-.3-1.2-.9v-4.6c0-.7.4-.9 1.1-.9h1.5c7 0 12 1.5 12-4.1v-12.8c0-4 2.7-9.4 8.3-11.4.4-.1.5-.3.5-.5s-.1-.5-.5-.7c-5.1-2.3-8.3-6-8.3-10.6v-14.5c0-5.6-4.9-11.2-12-11.2h-1.5c-.7 0-1.1-.3-1.1-.9v-4.6c0-.7.5-.9 1.2-.9h1.9c11.9 0 21.5 8.4 21.5 18.5v12.2c0 4.6 3.3 7.3 8.3 9 1.9.6 2.8.7 2.8 2.1v3.9c.1.7-.8 1.1-3 1.7"/><path fill="#eee" d="M66.803 68.714c0 1.1-1 2-2.2 2h-4.8c-1.2 0-2.2-.9-2.2-1.9v-4.4c0-1.1 1-2 2.2-2h4.8c1.2 0 2.2.9 2.2 2v4.3zM122.76 113.556c-7 0-12.4-1.7-17-6.2l4-4.2c3.3 3.6 7.7 5 12.9 5 6.8 0 11-2.5 11-7.6 0-3.8-2.1-5.9-6.9-6.3l-6.8-.6c-8.1-.7-12.4-4.5-12.4-11.5 0-7.9 6.4-12.6 15.2-12.6 5.9 0 11.2 1.5 14.9 4.6l-4 4.1c-2.9-2.4-6.7-3.4-11-3.4-6.1 0-9.3 2.7-9.3 7.1 0 3.7 2 5.9 7.2 6.3l6.6.6c7.2.7 12.2 3.6 12.2 11.6.2 8.3-6.6 13.1-16.6 13.1M173.38 113.077v-4.8c-2.9 3.5-7.1 5.3-11.7 5.3-4.5 0-8.2-1.4-10.7-4-2.9-3-4.2-7.1-4.2-12.1v-27.4h6.1v26.5c0 7.6 3.9 11.4 10.1 11.4 6.2 0 10.3-3.9 10.3-11.4v-26.5h6.1v43h-6zM206.736 75.106c-9 0-10.4 8-10.4 16.4 0 8.4 1.4 16.4 10.4 16.4s10.3-8 10.3-16.4c0-8.3-1.3-16.4-10.3-16.4m11.3 34.7c-2.2 2.3-5.9 3.8-10.1 3.8-4.5 0-8.3-1.1-11.7-5.6v24.3h-6v-62.2h6.1v5.1c3.4-4.5 7.1-5.6 11.7-5.6 4.2 0 7.9 1.5 10.1 3.8 4.2 4.4 5 11.5 5 18.3 0 6.6-.9 13.7-5.1 18.1M256.288 81.308c-1.6-3.9-5.3-6.5-9.7-6.5-4.4 0-8.1 2.5-9.7 6.5-.9 2.4-1.1 3.7-1.3 7.2h21.9c-.1-3.5-.3-4.8-1.2-7.2m-20.6 11.9c0 9.4 4.3 14.9 12.2 14.9 4.8 0 7.6-1.5 10.8-4.9l4.1 3.8c-4.2 4.4-8.1 6.6-15.1 6.6-10.9 0-18.1-6.8-18.1-22 0-13.9 6.5-22 17-22 10.7 0 17 8 17 20.8v2.9h-27.9zM295.35 78.28c-2.3-2.4-4-3.1-7.1-3.1-6.1 0-9.9 5-9.9 11.5v26.4h-6v-43h6v5.2c2.3-3.6 6.8-5.8 11.6-5.8 4 0 7 1 9.9 4l-4.5 4.8zM331.564 113.74v-4c-2.9 3-6.9 4.5-10.9 4.5-4.4 0-7.9-1.4-10.3-3.9-3.5-3.5-4.5-7.7-4.5-12.4v-28h10.9v26.5c0 6 3.8 8 7.2 8 3.5 0 7.3-2 7.3-8v-26.5h10.9v43.8h-10.6zM368.21 114.23c-6.9 0-13.1-.8-18.7-6.3l7.1-7.1c3.6 3.6 8.3 4.1 11.7 4.1 3.8 0 7.7-1.3 7.7-4.5 0-2.2-1.2-3.7-4.6-4l-6.9-.7c-7.9-.8-12.8-4.2-12.8-12.3 0-9.1 8-14 16.9-14 6.8 0 12.5 1.2 16.7 5.1l-6.7 6.8c-2.5-2.3-6.4-2.9-10.2-2.9-4.4 0-6.2 2-6.2 4.2 0 1.6.7 3.4 4.5 3.8l6.9.7c8.7.8 13 5.5 13 12.9.2 9.6-8 14.2-18.4 14.2M419.807 83.047c-1.2-2.6-3.6-4.5-7.3-4.5-3.7 0-6.1 1.9-7.3 4.5-.7 1.6-.9 2.8-1 4.7h16.7c-.2-1.9-.4-3.1-1.1-4.7m-15.7 12.2c0 5.6 3.5 9.8 9.6 9.8 4.8 0 7.1-1.3 9.9-4.1l6.6 6.5c-4.5 4.5-8.7 6.9-16.7 6.9-10.3 0-20.3-4.7-20.3-22.5 0-14.3 7.7-22.4 19.1-22.4 12.2 0 19.1 8.9 19.1 20.9v4.9h-27.3zM463.26 81.868c-1.7-1.7-3.1-2.6-5.8-2.6-3.4 0-7.1 2.5-7.1 8.1v26.4h-10.9v-43.8h10.7v4.2c2.1-2.5 6.3-4.7 11-4.7 4.3 0 7.3 1.1 10.3 4.1l-8.2 8.3z"/></g></svg>