<svg xmlns="http://www.w3.org/2000/svg" width="504" height="144"><g display="none"><text transform="matrix(1 0 0 1 22.5576 116.9375)" display="inline"><tspan x="0" y="0" fill="#010101" font-family="'DINPro-Medium'" font-size="59.1">Stack</tspan><tspan x="131.4" y="0" fill="#205296" font-family="'DINPro-Bold'" font-size="59.1">Exchange</tspan></text><g display="inline"><rect x="426.3" y="49.6" fill="#356DB6" width="43.6" height="9"/><rect x="426.3" y="38.1" fill="#4AA2DA" width="43.6" height="9"/><path fill="#90D8F5" d="M463 26h-29.8c-3.8 0-6.9 3.2-6.9 7.2v2.3h43.6v-2.3C469.9 29.2 466.8 26 463 26zM463 70.6h-29.8c-3.8 0-6.9-3.2-6.9-7.2v-2.3h43.6v2.3C469.9 67.4 466.8 70.6 463 70.6z"/><polygon fill="#1F5296" points="451.9 68.4 451.9 80.1 463.2 68.4 "/><polygon opacity="0.2" fill="#eee" points="497.1 5.7 427.9 77.4 358.7 5.7 427.9 -66 "/></g></g><g display="none"><text transform="matrix(1 0 0 1 26.3887 116.5508)" display="inline"><tspan x="0" y="0" fill="#010101" font-family="'DINPro-Medium'" font-size="58.5">Stack</tspan><tspan x="130.1" y="0" fill="#205296" font-family="'DINPro-Bold'" font-size="58.5">Exchange</tspan></text><rect x="426.3" y="49.9" display="inline" fill="#356DB6" width="43.2" height="8.9"/><rect x="426.3" y="38.4" display="inline" fill="#4AA2DA" width="43.2" height="8.9"/><path display="inline" fill="#90D8F5" d="M462.7 26.5H433.2c-3.8 0-6.9 3.2-6.9 7.1v2.3h43.2v-2.3C469.5 29.7 466.5 26.5 462.7 26.5zM426.3 61.3v2.3c0 3.9 3.1 7.1 6.9 7.1h18.5v9.4l9.1-9.4h2c3.8 0 6.9-3.2 6.9-7.1v-2.3H426.3zM426.3 61.3v2.3c0 3.9 3.1 7.1 6.9 7.1h1.3l9.1-9.4H426.3z"/><polygon display="inline" opacity="0.2" fill="#eee" points="465.5 38.4 426.3 38.4 426.3 47.3 457 47.3 "/><polygon display="inline" opacity="0.2" fill="#eee" points="454.5 49.9 426.3 49.9 426.3 58.8 445.9 58.8 "/></g><defs><rect x="29.3" y="34.8" width="442.2" height="97.4"/></defs><clipPath><use overflow="visible"/></clipPath><g clip-path="url(#SVGID_2_)"><g transform="translate(11.8857,11.5225)"><path fill="#eee" d="M36.8 101.9H18.5c-0.7 0-1.1-0.2-1.1-0.8V24.2c0-0.6 0.4-0.9 1.1-0.9h18.2c0.7 0 1.2 0.3 1.2 0.9v4.7c0 0.7-0.4 0.9-1.1 0.9h-8.2c-1 0-1.4 0.4-1.4 1v63.6c0 0.7 0.4 0.9 1.2 0.9h8.2c0.7 0 1.2 0.3 1.2 0.8v4.8C37.9 101.6 37.5 101.9 36.8 101.9"/></g><g transform="translate(37.5488,30.5913)"><path fill="#2EACE3" d="M53 51.7c-4.8 1.4-8.2 4.2-8.2 8.9v13.4c0 10-9.5 8.9-21.4 8.9h-1.9c-0.7 0-1.2-0.3-1.2-0.9v-4.6c0-0.7 0.4-0.9 1.1-0.9h1.5c7 0 12 1.5 12-4.1V59.6c0-4 2.7-9.4 8.3-11.4 0.4-0.1 0.5-0.3 0.5-0.5 0-0.2-0.1-0.5-0.5-0.7 -5.1-2.3-8.3-6-8.3-10.6V21.9c0-5.6-4.9-11.2-12-11.2h-1.5c-0.7 0-1.1-0.3-1.1-0.9V5.2c0-0.7 0.5-0.9 1.2-0.9h1.9c11.9 0 21.5 8.4 21.5 18.5v12.2c0 4.6 3.3 7.3 8.3 9 1.9 0.6 2.8 0.7 2.8 2.1v3.9C56.1 50.7 55.2 51.1 53 51.7"/></g><g transform="translate(23.0029,38.9136)"><path fill="#eee" d="M43.8 29.8c0 1.1-1 2-2.2 2h-4.8c-1.2 0-2.2-0.9-2.2-1.9v-4.4c0-1.1 1-2 2.2-2h4.8c1.2 0 2.2 0.9 2.2 2V29.8z"/></g><g transform="translate(57.2598,11.4556)"><path fill="#eee" d="M65.5 102.1c-7 0-12.4-1.7-17-6.2l4-4.2c3.3 3.6 7.7 5 12.9 5 6.8 0 11-2.5 11-7.6 0-3.8-2.1-5.9-6.9-6.3l-6.8-0.6c-8.1-0.7-12.4-4.5-12.4-11.5 0-7.9 6.4-12.6 15.2-12.6 5.9 0 11.2 1.5 14.9 4.6l-4 4.1c-2.9-2.4-6.7-3.4-11-3.4 -6.1 0-9.3 2.7-9.3 7.1 0 3.7 2 5.9 7.2 6.3l6.6 0.6c7.2 0.7 12.2 3.6 12.2 11.6C82.3 97.3 75.5 102.1 65.5 102.1"/></g><g transform="translate(88.2803,11.7769)"><path fill="#eee" d="M85.1 101.3v-4.8c-2.9 3.5-7.1 5.3-11.7 5.3 -4.5 0-8.2-1.4-10.7-4 -2.9-3-4.2-7.1-4.2-12.1V58.3h6.1v26.5c0 7.6 3.9 11.4 10.1 11.4 6.2 0 10.3-3.9 10.3-11.4v-26.5h6.1v43H85.1z"/></g><g transform="translate(108.7363,35.0063)"><path fill="#eee" d="M98 40.1c-9 0-10.4 8-10.4 16.4 0 8.4 1.4 16.4 10.4 16.4 9 0 10.3-8 10.3-16.4C108.3 48.2 107 40.1 98 40.1M109.3 74.8c-2.2 2.3-5.9 3.8-10.1 3.8 -4.5 0-8.3-1.1-11.7-5.6v24.3H81.5v-62.2h6.1v5.1c3.4-4.5 7.1-5.6 11.7-5.6 4.2 0 7.9 1.5 10.1 3.8 4.2 4.4 5 11.5 5 18.3C114.4 63.3 113.5 70.4 109.3 74.8"/></g><g transform="translate(139.0879,31.2075)"><path fill="#eee" d="M117.2 50.1c-1.6-3.9-5.3-6.5-9.7-6.5 -4.4 0-8.1 2.5-9.7 6.5 -0.9 2.4-1.1 3.7-1.3 7.2h21.9C118.3 53.8 118.1 52.5 117.2 50.1M96.6 62c0 9.4 4.3 14.9 12.2 14.9 4.8 0 7.6-1.5 10.8-4.9l4.1 3.8c-4.2 4.4-8.1 6.6-15.1 6.6 -10.9 0-18.1-6.8-18.1-22 0-13.9 6.5-22 17-22 10.7 0 17 8 17 20.8v2.9H96.6z"/></g><g transform="translate(163.0498,33.0811)"><path fill="#eee" d="M132.3 45.2c-2.3-2.4-4-3.1-7.1-3.1 -6.1 0-9.9 5-9.9 11.5V80h-6V37h6v5.2c2.3-3.6 6.8-5.8 11.6-5.8 4 0 7 1 9.9 4L132.3 45.2z"/></g><g transform="translate(185.2637,11.3389)"><path fill="#eee" d="M146.3 102.4v-4c-2.9 3-6.9 4.5-10.9 4.5 -4.4 0-7.9-1.4-10.3-3.9 -3.5-3.5-4.5-7.7-4.5-12.4V58.6h10.9v26.5c0 6 3.8 8 7.2 8 3.5 0 7.3-2 7.3-8V58.6h10.9v43.8H146.3z"/></g><g transform="translate(207.709,11.0288)"><path fill="#eee" d="M160.5 103.2c-6.9 0-13.1-0.8-18.7-6.3l7.1-7.1c3.6 3.6 8.3 4.1 11.7 4.1 3.8 0 7.7-1.3 7.7-4.5 0-2.2-1.2-3.7-4.6-4l-6.9-0.7c-7.9-0.8-12.8-4.2-12.8-12.3 0-9.1 8-14 16.9-14 6.8 0 12.5 1.2 16.7 5.1l-6.7 6.8c-2.5-2.3-6.4-2.9-10.2-2.9 -4.4 0-6.2 2-6.2 4.2 0 1.6 0.7 3.4 4.5 3.8l6.9 0.7c8.7 0.8 13 5.5 13 12.9C179.1 98.6 170.9 103.2 160.5 103.2"/></g><g transform="translate(239.3066,30.1475)"><path fill="#eee" d="M180.5 52.9c-1.2-2.6-3.6-4.5-7.3-4.5 -3.7 0-6.1 1.9-7.3 4.5 -0.7 1.6-0.9 2.8-1 4.7h16.7C181.4 55.7 181.2 54.5 180.5 52.9M164.8 65.1c0 5.6 3.5 9.8 9.6 9.8 4.8 0 7.1-1.3 9.9-4.1l6.6 6.5c-4.5 4.5-8.7 6.9-16.7 6.9 -10.3 0-20.3-4.7-20.3-22.5 0-14.3 7.7-22.4 19.1-22.4 12.2 0 19.1 8.9 19.1 20.9V65.1H164.8z"/></g><g transform="translate(265.9609,30.8682)"><path fill="#eee" d="M197.3 51c-1.7-1.7-3.1-2.6-5.8-2.6 -3.4 0-7.1 2.5-7.1 8.1v26.4h-10.9v-43.8h10.7v4.2c2.1-2.5 6.3-4.7 11-4.7 4.3 0 7.3 1.1 10.3 4.1L197.3 51z"/></g></g></svg>