<svg xmlns="http://www.w3.org/2000/svg" viewBox="0 0 283 60" width="283" height="60">
  <g fill="#c6c6c6">
    <path d="M128 14.4h8.6V16H128v-1.6zm0-5.3h8.6v2H128V9zm0-5h8.6v1.7H128V4zm-2.6-1v3.6h-1V4h-.8V3h1.8zm-1 7v1h1.8v1h-2.6v-2l1.7-1v-.7h-1.7v-.8h2.6v2l-1.7.7zm1.8 2.7V17h-2.6v-1h1.7v-.7h-1.7v-1h1.7v-.8h-1.7v-1h2.6zm78-5.3L209 12V9.3c1.3 0 4.7 0 4.7 3.7 0 2-1.3 3.6-3 4 2.6-.4 4.8-3 4.8-6 0-5.6-5.8-5.6-6.6-5.6V3l-4.4 4.4zm31 0L231 12V9.3c-1.3 0-4.7 0-4.7 3.7 0 2 1.5 3.6 3.3 4-2.7-.4-5-3-5-6 0-5.6 6-5.6 6.7-5.6V3l4.3 4.4zM57.7 4C56.3 2.7 54 2.7 53 4l-3 3c-1.4 1.3-1.4 3.4 0 4.7 0 0 0 .2.3.3l1-1c0-.2-.2-.3-.3-.4-.7-.7-.7-1.8 0-2.5l3-3c.7-.5 1.8-.5 2.5 0 .7 1 .7 2 0 2.7L55 9c.3.6.5 1.2.5 1.8l2-2C59 7.3 59 5.2 57.5 4zm-4.4 4.3L53 8l-1.2 1c0 .2.3.3.4.4.7.7.7 1.8 0 2.5l-3 3c-.7.5-1.8.5-2.5 0-.7-1-.7-2 0-2.7L48 11c-.2-.6-.4-1.2-.4-1.8l-2 2c-1.4 1.4-1.4 3.5 0 4.8 1.2 1.3 3.3 1.3 4.6 0l3-3c1.2-1.2 1.2-3.4 0-4.7zM149 4h8.6v1.7H149V4zm0 5h8.6v2H149V9zm0 5.4h8.6v1.8H149v-1.8zm-5.4-9.6c0-1 .8-1.8 1.8-1.8s1.8.8 1.8 1.8-.8 1.8-1.8 1.8-1.8-1-1.8-1.8zm0 5.2c0-1 .8-1.8 1.8-1.8s1.8.8 1.8 1.8-.8 1.8-1.8 1.8-1.8-.8-1.8-1.8zm0 5.2c0-1 .8-1.8 1.8-1.8s1.8.8 1.8 1.8-.8 1.8-1.8 1.8-1.8-.8-1.8-1.8zm-78-6.7c2 0 3.5 1.5 3.5 3.5s-1.3 3.5-3.3 3.5S62 14 62 12v-.5c0-3.8 3.2-7 7-7v2c-1.2 0-2.5.5-3.4 1.5l-.5.6h.7zm9 0c2 0 3.5 1.5 3.5 3.5s-1.3 3.5-3.3 3.5S71 14 71 12v-.5c0-3.8 3.3-7 7-7v2c-1.2 0-2.5.5-3.4 1.5l-.5.6h.7zM250 3c-3.8 0-7 3-7 7s3.2 7 7 7 7-3 7-7-3.2-7-7-7zm1 11.4h-2v-1.8h2v1.8zm2.5-4.4l-2.6 1.8h-2v-1l2.6-1.7v-.7h-4.4V6.5h5.2c.5 0 1 .4 1 1V10zM13 9.6C13.7 9 14 8 14 7c0-2.2-1.8-4-4-4H5v14h6c2.2 0 4-1.8 4-4 0-1.5-.8-2.7-2-3.4zM8 5h1.6c1 0 1.6 1 1.6 2s-.7 2-1.6 2H8V5zm2.5 10H8v-4h2.5c1 0 1.7 1 1.7 2s-.8 2-1.7 2zm29-12v1h-2l-5 12h2v1h-7v-1h2l5-12h-2V3h7zm47.2 6.2v-3c0-.5.2-1 .5-1.2.3-.3.8-.4 1-.4V3C86.6 3 85 4.4 85 6v2.4c0 .4-.3.8-.8.8h-.8v1.6h.8c.5 0 .8.3.8.8V14c0 1.6 1.5 3 3.3 3v-1.6c-.4 0-.8-.2-1-.4-.4-.3-.6-.7-.6-1v-3.2c0-.4-.3-.8-.8-.8.2 0 .6-.3.6-.8z"/>
    <path d="M165 12h10v2h-10v-2zm-3-3h16v2h-16V9zm0 6h16v2h-16v-2z" opacity=".4"/>
    <path d="M162 3h16v2h-16zm3 3h10v2h-10zm18.6 3h2.3v2h-2.5zm3.4 0h2.3v2H187z"/>
    <path d="M186.6 12h10v2h-10v-2zm-3 3h16v2h-16v-2zm0-12h16v2h-16zm3 3h10v2h-10z" opacity=".4"/>
    <path d="M190.4 9h2.3v2h-2.3zm3.4 0h2.3v2h-2zm3.4 0h2.3v2h-2.3zM93.6 10.8v3c0 .5-.2 1-.5 1.2 0 .3-.5.4-1 .4V17c2 0 3.3-1.4 3.3-3v-2.4c0-.4.3-.8.8-.8h1V9.2h-1c-.5 0-.8-.3-.8-.8V6c0-1.6-1.5-3-3.3-3v1.6l1 .4c.2.3.4.7.4 1v3.2c0 .4.3.8.8.8-.3 0-.7.3-.7.8zM118.2 4v12h-15V4h15m1-1h-17v14h17V3z"/>
    <path d="M114 6.8c0-1 .6-1.6 1.5-1.6 1 0 1.6.7 1.6 1.6s-.5 1.6-1.4 1.6c-.8 0-1.6-.7-1.6-1.6zm3 8h-12.6l3-8.6 4.4 5.4 2-1.6M268.5 9.8l-.8-.8-2.7 2.5 2.7 2.5.8-.8-1.8-1.7m3.7 1.7l.8.8 2.8-2.5-2.8-2.5-.8.8 1.8 1.7M271.3 3v4.7h4.7"/>
    <path d="M275 6.7V16h-11V4h8.3l-1-1H264c-.6 0-1 .5-1 1v12c0 .5.4 1 1 1h11c.5 0 1-.5 1-1V7.7l-1-1z"/>
  </g>
  <g fill="#f90">
    <path d="M128 54.4h8.6V56H128zm0-5.3h8.6v2H128v-2zm0-5h8.6v1.7H128V44zm-2.6-1v3.6h-1V44h-.8v-1h1.8zm-1 7v1h1.8v1h-2.6v-2l1.7-1v-.7h-1.7v-.8h2.6v2l-1.7.7zm1.8 2.7V57h-2.6v-1h1.7v-.7h-1.7v-1h1.7v-.8h-1.7v-1h2.6zm78-5.3L209 52v-2.7c1.3 0 4.7 0 4.7 3.7 0 2-1.3 3.6-3 4 2.6-.4 4.8-3 4.8-6 0-5.6-5.8-5.6-6.6-5.6V43zm31 0L231 52v-2.7c-1.3 0-4.7 0-4.7 3.7 0 2 1.5 3.6 3.3 4-2.7-.4-5-3-5-6 0-5.6 6-5.6 6.7-5.6V43zM57.7 44c-1.3-1.3-3.5-1.3-4.7 0l-3 3c-1.5 1.3-1.5 3.4 0 4.7 0 0 0 .2.2.3l1-1c0-.2-.2-.3-.3-.4-.8-.7-.8-1.8 0-2.5l3-3c.6-.5 1.7-.5 2.4 0 .7 1 .7 2 0 2.7L55 49c.3.6.5 1.2.5 1.8l2-2c1.3-1.4 1.3-3.5 0-4.8zm-4.4 4.3L53 48l-1.2 1c0 .2.3.3.4.4.7.7.7 1.8 0 2.5l-3 3c-.7.5-1.8.5-2.5 0-.7-1-.7-2 0-2.7L48 51c-.2-.6-.4-1.2-.4-1.8l-2 2c-1.4 1.4-1.4 3.5 0 4.8 1.2 1.3 3.3 1.3 4.6 0l3-3c1.2-1.2 1.2-3.4 0-4.7zM149 44h8.6v1.7H149zm0 5h8.6v2H149zm0 5.4h8.6v1.8H149zm-5.4-9.6c0-1 .8-1.8 1.8-1.8s1.8.8 1.8 1.8-.8 1.8-1.8 1.8-1.8-1-1.8-1.8zm0 5.2c0-1 .8-1.8 1.8-1.8s1.8.8 1.8 1.8-.8 1.8-1.8 1.8-1.8-.8-1.8-1.8zm0 5.2c0-1 .8-1.8 1.8-1.8s1.8.8 1.8 1.8-.8 1.8-1.8 1.8-1.8-.8-1.8-1.8zm-78-6.7c2 0 3.5 1.5 3.5 3.5s-1.3 3.5-3.3 3.5c-2 0-3.7-1.5-3.7-3.5v-.5c0-3.8 3.2-7 7-7v2c-1.2 0-2.5.5-3.4 1.5l-.5.6h.7zm9 0c2 0 3.5 1.5 3.5 3.5s-1.3 3.5-3.3 3.5c-2 0-3.7-1.5-3.7-3.5v-.5c0-3.8 3.3-7 7-7v2c-1.2 0-2.5.5-3.4 1.5l-.5.6h.7zM250 43c-3.8 0-7 3-7 7s3.2 7 7 7 7-3 7-7-3.2-7-7-7zm1 11.4h-2v-1.8h2zm2.5-4.4l-2.6 1.8h-2v-1l2.6-1.7v-.7h-4.4v-1.7h5.2c.5 0 1 .4 1 1V50zM13 49.6c.6-.7 1-1.6 1-2.6 0-2.2-1.8-4-4-4H5v14h6c2.2 0 4-1.8 4-4 0-1.5-.8-2.7-2-3.4zM8 45h1.6c1 0 1.6 1 1.6 2s-.7 2-1.6 2H8zm2.5 10H8v-4h2.5c1 0 1.7 1 1.7 2s-.8 2-1.7 2zm29-12v1h-2l-5 12h2v1h-7v-1h2l5-12h-2v-1zm47.2 6.2v-3c0-.5.2-1 .5-1.2l1-.4V43c-1.7 0-3.2 1.4-3.2 3v2.4c0 .4-.3.8-.8.8h-.8v1.6h.8c.5 0 .8.3.8.8V54c0 1.6 1.5 3 3.3 3v-1.6c-.4 0-.8-.2-1-.4-.4-.3-.6-.7-.6-1v-3.2c0-.4-.3-.8-.8-.8.2 0 .6-.3.6-.8z"/>
    <path d="M165 52h10v2h-10zm-3-3h16v2h-16zm0 6h16v2h-16zM186.6 52h10v2h-10zm-3 3h16v2h-16zm0-12h16v2h-16zm3 3h10v2h-10z" opacity=".4"/>
    <path d="M93.6 50.8v3c0 .5-.2 1-.5 1.2 0 .3-.5.4-1 .4V57c2 0 3.3-1.4 3.3-3v-2.4c0-.4.3-.8.8-.8h1v-1.6h-1c-.5 0-.8-.3-.8-.8V46c0-1.6-1.6-3-3.3-3v1.6l1 .4c.2.3.4.7.4 1v3.2c0 .4.3.8.8.8-.3 0-.7.3-.7.8zm24.6-6.8v12h-15V44h15m1-1h-17v14h17z"/>
    <path d="M114 46.8c0-1 .6-1.6 1.5-1.6 1 0 1.6.7 1.6 1.6 0 1-.5 1.6-1.4 1.6-.8 0-1.6-.7-1.6-1.6zm3 8h-12.6l3-8.6 4.4 5.4 2-1.6M268.5 49.8l-.8-.8-2.7 2.5 2.7 2.5.8-.8-1.8-1.7m3.7 1.7l.8.8 2.8-2.5-2.8-2.5-.8.8 1.8 1.7M271.3 43v4.7h4.7"/>
    <path d="M275 46.7V56h-11V44h8.3l-1-1H264c-.6 0-1 .5-1 1v12c0 .5.4 1 1 1h11c.5 0 1-.5 1-1v-8.3zM183.6 48.8h2.3v2h-2.5zm3.4 0h2.3v2H187zM190.4 48.8h2.3v2h-2.4zm3.4 0h2.3v2H194zM197.2 48.8h2.3v2H197zM162 43h16v2h-16zm3 3h10v2h-10z"/>
  </g>
</svg>